<svg width="96" height="96" viewBox="0 0 96 96" fill="none" xmlns="http://www.w3.org/2000/svg">
<circle cx="48" cy="48" r="48" fill="#FF33B2"/>
<path d="M54.64 25.1812C57.6636 25.2185 60.5581 26.4125 62.7287 28.5178C64.0012 29.8134 64.92 31.4139 65.3972 33.1661C65.8743 34.9183 65.8939 36.7637 65.4539 38.5256C64.8921 40.8443 63.5919 42.9176 61.7491 44.433L67.5105 50.1795C70.8126 47.3631 73.0855 43.5295 73.9721 39.281C74.4417 36.8447 74.3969 34.3372 73.8405 31.9193C73.2841 29.5013 72.2285 27.2264 70.7413 25.2404C68.0933 21.8363 64.4802 19.31 60.3738 17.9917C56.6548 17.0784 52.7742 17.0436 49.0394 17.8901C45.7113 18.7681 42.6654 20.4885 40.1953 22.8855L46.2381 28.9283C47.262 27.7066 48.5508 26.7343 50.0066 26.085C51.4624 25.4358 53.0469 25.1267 54.64 25.1812V25.1812Z" fill="white"/>
<path d="M67.502 50.1857L61.7449 44.4286C61.0289 45.073 60.2595 45.6555 59.445 46.1699C56.3383 47.8596 53.1013 49.298 49.7651 50.4714L41.8647 53.4885L40.2842 54.0809C35.9637 55.6889 28.734 58.3803 24.9086 63.4286C22.6104 66.6384 21.2939 70.4467 21.1191 74.3906V74.6022H29.5824L29.5972 74.4118C29.7352 72.149 30.4896 69.9672 31.7787 68.1024C34.1484 64.9731 40.1488 62.7367 43.3923 61.5286L46.0455 60.5405L53.9333 57.5064C57.2394 56.2051 60.4604 54.697 63.5772 52.9913C64.9875 52.2077 66.3041 51.2665 67.502 50.1857V50.1857Z" fill="white"/>
<path d="M56.4315 61.8591C55.7798 60.6869 54.9144 59.1995 53.9242 57.5153L49.7667 50.4844C49.2102 49.49 44.712 43.7138 43.8763 37.7663C43.4983 34.6254 44.343 31.4595 46.2354 28.9243L40.1926 22.8816C38.2529 24.9723 36.8067 27.4714 35.9605 30.195C35.1143 32.9185 34.8896 35.7971 35.303 38.619C36.0901 46.3438 41.4981 52.8732 41.862 53.5016L46.0302 60.5578C47.196 62.5319 48.2158 64.2774 48.9563 65.6062C50.5615 68.2711 51.4575 71.3028 51.5588 74.4122V74.6238H60.022V74.4122C59.9147 69.9902 58.6787 65.669 56.4315 61.8591Z" fill="white"/>
</svg>
