<svg width="40" height="40" viewBox="0 0 40 40" fill="none" xmlns="http://www.w3.org/2000/svg">
<circle cx="20" cy="20" r="20" fill="white"/>
<g clip-path="url(#clip0)">
<path d="M12.1628 32.085L15.646 26.0531L19.1292 20.0425L22.5911 14.0106L23.1646 13.0549L23.4195 14.0106L24.4814 17.9823L23.292 20.0425L19.8088 26.0531L16.3469 32.085H20.5097L23.9929 26.0531L25.7982 22.931L26.6478 26.0531L28.2619 32.085H32L30.3858 26.0531L28.7717 20.0425L28.3469 18.492L30.9381 14.0106H27.1575L27.0301 13.5646L25.7133 8.63717L25.5434 8H21.9115L21.8265 8.12743L18.4283 14.0106L14.9451 20.0425L11.4832 26.0531L8 32.085H12.1628Z" fill="black"/>
</g>
<defs>
<clipPath id="clip0">
<rect width="24" height="24.085" fill="white" transform="translate(8 8)"/>
</clipPath>
</defs>
</svg>
