<svg width="96" height="96" viewBox="0 0 96 96" fill="none" xmlns="http://www.w3.org/2000/svg">
<circle cx="48" cy="48" r="48" fill="white"/>
<path fill-rule="evenodd" clip-rule="evenodd" d="M32.6263 21C30.6243 21 29.0013 22.623 29.0013 24.625C29.0013 26.627 30.6243 28.25 32.6263 28.25H44.7096C46.7116 28.25 48.3346 26.627 48.3346 24.625C48.3346 22.623 46.7116 21 44.7096 21H32.6263ZM65.2961 32.8598C67.1746 32.1677 68.1365 30.0837 67.4444 28.2051C66.7523 26.3265 64.6683 25.3647 62.7897 26.0568L31.3731 37.6313C29.4945 38.3235 28.5327 40.4074 29.2248 42.286C29.9169 44.1646 32.0009 45.1264 33.8795 44.4343L65.2961 32.8598ZM65.2961 62.3684C67.1747 61.6763 68.1365 59.5923 67.4444 57.7138C66.7522 55.8352 64.6683 54.8733 62.7897 55.5655L31.3731 67.1401C29.4945 67.8322 28.5327 69.9161 29.2248 71.7947C29.9169 73.6733 32.0009 74.6351 33.8795 73.943L65.2961 62.3684ZM51.9596 71.7499C49.9576 71.7499 48.3346 73.3728 48.3346 75.3749C48.3346 77.3769 49.9576 78.9998 51.9596 78.9998H64.0429C66.0449 78.9998 67.6679 77.3769 67.6679 75.3749C67.6679 73.3728 66.0449 71.7499 64.0429 71.7499H51.9596ZM65.3438 47.3417C67.2124 46.623 68.1446 44.5256 67.4259 42.657C66.7072 40.7884 64.6098 39.8563 62.7413 40.5749L31.3247 52.6582C29.4561 53.3769 28.5239 55.4743 29.2426 57.3429C29.9613 59.2115 32.0587 60.1437 33.9273 59.425L65.3438 47.3417Z" fill="black"/>
</svg>
