<svg width="261" height="261" viewBox="0 0 261 261" fill="none" xmlns="http://www.w3.org/2000/svg">
<g opacity="0.9">
<path d="M260.466 130.786C260.466 202.508 202.323 260.65 130.601 260.65C58.8787 260.65 0.736328 202.508 0.736328 130.786C0.736328 59.0633 58.8787 0.920898 130.601 0.920898C202.323 0.920898 260.466 59.0633 260.466 130.786Z" fill="#0F3679"/>
<path d="M139.442 213.953V197.287C163.872 194.257 177.698 179.485 177.698 159.22C177.698 139.524 165.766 128.919 138.305 122.858V84.0341C149.1 85.7386 156.676 91.0414 162.168 98.238L176.182 86.6855C167.471 75.5117 155.539 68.6938 139.442 67.1787V50.7021H123.344V67.1787C100.428 69.6407 86.0347 81.9508 86.0347 102.026C86.0347 121.154 97.5873 132.517 124.669 138.388V180.81C112.738 179.295 103.648 173.235 95.8828 163.766L82.0576 176.265C91.5269 187.628 104.216 196.151 123.344 197.666V213.953H139.442ZM157.812 160.546C157.812 170.962 150.615 178.538 138.305 180.621V141.229C153.077 145.016 157.812 151.077 157.812 160.546ZM105.731 101.079C105.731 91.6095 112.738 85.5492 124.669 83.8447V119.828C111.791 116.23 105.731 111.495 105.731 101.079Z" fill="white"/>
<path d="M260 131C260 202.797 201.797 261 130 261C58.2034 261 0 202.797 0 131C0 131.03 130 1.01473 130 1C201.797 1 260 59.2034 260 131Z" fill="#0052B4"/>
<path d="M130 1C129.993 1 129.986 1.00051 129.979 1.00051L130 1Z" fill="#F0F0F0"/>
<path d="M129.651 130.999H129.999C129.999 130.881 129.999 130.768 129.999 130.651C129.883 130.767 129.768 130.883 129.651 130.999Z" fill="#F0F0F0"/>
<path d="M130 68.8287C130 45.9542 130 30.9651 130 1.00269H129.978C58.1912 1.01437 0 59.2122 0 131.002H67.826V92.8086L106.02 131.002H129.653C129.769 130.886 129.885 130.771 130.001 130.654C130.001 121.896 130.001 114.081 130.001 107.023L91.8064 68.8287H130Z" fill="#F0F0F0"/>
<path d="M65.77 17.9573C45.4377 29.5349 28.5346 46.4379 16.957 66.7702V131.001H50.8703V51.871V51.8705H130.001C130.001 41.1745 130.001 30.9847 130.001 17.9573H65.77Z" fill="#D80027"/>
<path d="M130.001 115.014L83.8136 68.8274H67.8271C67.8271 68.8269 67.8271 68.8274 67.8271 68.8274L130 131H130.001C130.001 131 130.001 119.978 130.001 115.014Z" fill="#D80027"/>
<path d="M78.4045 153.61L85.5392 168.528L101.651 164.805L94.4356 179.685L107.392 189.959L91.2602 193.595L91.3054 210.131L78.4045 199.786L65.504 210.131L65.5492 193.595L49.417 189.959L62.3738 179.685L55.1578 164.805L71.2702 168.528L78.4045 153.61Z" fill="#F0F0F0"/>
<path d="M194.638 181.87L198.205 189.329L206.261 187.467L202.653 194.907L209.132 200.045L201.066 201.863L201.088 210.131L194.638 204.958L188.188 210.131L188.21 201.863L180.145 200.045L186.623 194.907L183.015 187.467L191.071 189.329L194.638 181.87Z" fill="#F0F0F0"/>
<path d="M161.451 102.74L165.018 110.2L173.074 108.337L169.466 115.777L175.945 120.915L167.879 122.733L167.901 131.001L161.451 125.828L155.001 131.001L155.023 122.733L146.957 120.915L153.435 115.777L149.828 108.337L157.884 110.2L161.451 102.74Z" fill="#F0F0F0"/>
<path d="M194.638 57.5222L198.205 64.982L206.261 63.1198L202.654 70.5598L209.131 75.6968L201.066 77.5153L201.088 85.7835L194.638 80.6104L188.188 85.7835L188.21 77.5153L180.145 75.6968L186.622 70.5598L183.015 63.1198L191.071 64.982L194.638 57.5222Z" fill="#F0F0F0"/>
<path d="M223.626 91.4351L227.193 98.8948L235.249 97.0322L231.641 104.472L238.119 109.61L230.053 111.428L230.076 119.696L223.626 114.523L217.176 119.696L217.197 111.428L209.132 109.61L215.61 104.472L212.003 97.0322L220.058 98.8948L223.626 91.4351Z" fill="#F0F0F0"/>
<path d="M202.897 131L205.703 139.636H214.783L207.437 144.973L210.244 153.609L202.897 148.272L195.551 153.609L198.357 144.973L191.011 139.636H200.091L202.897 131Z" fill="#F0F0F0"/>
</g>
</svg>
