<svg width="96" height="96" viewBox="0 0 96 96" fill="none" xmlns="http://www.w3.org/2000/svg">
<path d="M48 96C74.5097 96 96 74.5097 96 48C96 21.4903 74.5097 0 48 0C21.4903 0 0 21.4903 0 48C0 74.5097 21.4903 96 48 96Z" fill="url(#paint0_linear)"/>
<path d="M40.5896 35.449H26.9707C26.7682 35.4523 26.567 35.4149 26.3792 35.3389C26.1914 35.2629 26.0208 35.15 25.8775 35.0067C25.7343 34.8635 25.6213 34.6929 25.5453 34.5051C25.4694 34.3173 25.4319 34.1161 25.4353 33.9135V24.8343C25.4319 24.6317 25.4694 24.4305 25.5453 24.2427C25.6213 24.0549 25.7343 23.8843 25.8775 23.7411C26.0208 23.5978 26.1914 23.4848 26.3792 23.4089C26.567 23.3329 26.7682 23.2954 26.9707 23.2988H65.8247C67.0456 23.3013 68.2159 23.7874 69.0792 24.6507C69.9425 25.514 70.4286 26.6843 70.4311 27.9052V33.8468C70.4344 34.0493 70.397 34.2505 70.321 34.4383C70.245 34.6261 70.1321 34.7967 69.9888 34.9399C69.8456 35.0832 69.6749 35.1962 69.4871 35.2722C69.2993 35.3481 69.0982 35.3856 68.8956 35.3822H55.21V73.7689C55.2133 73.9714 55.1759 74.1726 55.0999 74.3604C55.0239 74.5482 54.9109 74.7188 54.7677 74.8621C54.6244 75.0053 54.4538 75.1183 54.266 75.1943C54.0782 75.2703 53.8771 75.3077 53.6745 75.3044H45.196C43.9751 75.3019 42.8049 74.8158 41.9416 73.9524C41.0782 73.0891 40.5921 71.9189 40.5896 70.698V35.449Z" fill="white"/>
<defs>
<linearGradient id="paint0_linear" x1="18.528" y1="83.808" x2="79.008" y2="10.368" gradientUnits="userSpaceOnUse">
<stop stop-color="#1E2E5E"/>
<stop offset="0.512" stop-color="#2B3962"/>
<stop offset="1" stop-color="#605B85"/>
</linearGradient>
</defs>
</svg>
