<svg width="96" height="96" viewBox="0 0 96 96" fill="none" xmlns="http://www.w3.org/2000/svg">
<circle cx="48" cy="48" r="48" fill="#FFF3E0"/>
<path d="M76.2808 62.8C67.7808 78.5 48.3808 84.2 32.8808 75.6C17.3808 67.1 11.6808 47.4 20.1808 31.8C25.7808 21.5 36.0808 15.4 46.8808 15C48.2808 14.9 49.3808 15.7 50.1808 17C50.9808 18.4 51.2808 20.3 51.1808 22C51.0808 22.7 51.0808 23.4 51.0808 24.1C51.0808 27.4 51.8808 30.6 53.3808 33.3C46.6808 30.8 38.8808 33.5 35.3808 40.1C31.4808 47.3 34.0808 56.3 41.1808 60.2C48.2808 64.1 57.2808 61.5 61.0808 54.3C63.2808 50.3 63.3808 45.7 61.7808 41.7C64.4808 43.1 67.5808 43.9 70.7808 43.9C72.5808 43.9 74.3808 43.7 76.0808 43.2C77.0808 42.9 78.0808 43 78.8808 43.4C79.5808 43.8 80.0808 44.4 80.0808 45.2C80.4808 51.2 79.2808 57.2 76.2808 62.8Z" fill="url(#paint0_radial)"/>
<path fill-rule="evenodd" clip-rule="evenodd" d="M79.4808 42.4C80.5808 43 81.2808 44 81.3808 45.2C81.7808 51.5 80.3808 57.8 77.3808 63.3C73.0808 71.2 65.9808 76.9 57.4808 79.4C54.3808 80.4 51.2808 80.8 48.1808 80.8C42.6808 80.8 37.1808 79.4 32.2808 76.7C16.1808 67.9 10.2808 47.4 19.0808 31.5C24.7808 21.1 35.0808 14.6 46.8808 14.1H47.2808H47.8808C49.4808 14.1 50.8808 14.9 51.7808 16.5C52.5808 18 52.8808 19.9 52.5808 21.6C52.5808 21.8 52.5558 22 52.5308 22.2C52.5058 22.4 52.4808 22.6 52.4808 22.8C52.3808 23.3 52.3808 23.9 52.3808 24.5V24.7C52.3808 25.3 52.3808 26 52.4808 26.7C52.5308 26.85 52.5558 26.9999 52.5808 27.1499L52.5808 27.15C52.6058 27.3 52.6308 27.45 52.6808 27.6C52.6808 28 52.7808 28.5 52.8808 28.9L53.1808 29.8C53.2308 30 53.3058 30.2 53.3808 30.4C53.4558 30.6 53.5308 30.8 53.5808 31C53.6308 31.15 53.7058 31.3 53.7808 31.45L53.7809 31.45C53.8559 31.6 53.9308 31.75 53.9808 31.9C54.0808 32.2 54.1808 32.5 54.3808 32.8C56.1808 36.2 58.9808 39 62.3808 40.8C62.4308 40.8 62.4558 40.825 62.4808 40.85C62.5058 40.875 62.5308 40.9 62.5808 40.9C63.0808 41.2 63.5808 41.4 64.0808 41.6L64.0808 41.6L64.9808 41.9L65.8808 42.2C66.1808 42.3 66.5808 42.4 66.9807 42.4999L66.9808 42.5C67.0808 42.5 67.1808 42.525 67.2808 42.55C67.3808 42.575 67.4808 42.6 67.5808 42.6C68.2808 42.7 69.0808 42.8 69.7808 42.8C70.0808 42.9 70.2808 42.9 70.5808 42.9C70.8808 42.9 71.1558 42.875 71.4308 42.85C71.7058 42.825 71.9808 42.8 72.2808 42.8C72.5308 42.75 72.7808 42.725 73.0308 42.7C73.2808 42.675 73.5308 42.65 73.7808 42.6C73.8808 42.5 74.0808 42.5 74.1808 42.5C74.3808 42.45 74.6058 42.4 74.8308 42.35C75.0558 42.3 75.2808 42.25 75.4808 42.2C75.5808 42.1 75.6808 42.1 75.7808 42.1C77.0808 41.7 78.3808 41.9 79.4808 42.4ZM45.9808 33.9C45.8808 34 45.7808 34 45.6808 34C45.5808 34 45.4808 34 45.4808 34.1C39.2808 35.3 34.5808 40.8 34.5808 47.4C34.5808 54.9 40.6808 61 48.1808 61C55.6808 61 61.7808 54.9 61.8808 47.4C61.8808 40.7 56.9808 35.1 50.5808 34C49.7808 33.9 48.9808 33.8 48.1808 33.8H47.8808H47.7808H47.5808H47.4808H47.3808C46.9808 33.8 46.5808 33.8 46.1808 33.9H46.0808H45.9808ZM33.4808 74.5C40.6808 78.5 48.8808 79.4 56.7808 77.1C61.2808 75.8 65.2808 73.5 68.7808 70.5C67.4808 70.1 66.5808 69.3 66.0808 68.1C65.5808 67 65.5808 65.6 65.8808 64.2C66.0808 63.3 66.4808 62.4 66.9808 61.5L67.0808 61.4C67.3808 60.7 67.6808 60 67.6808 59.1C67.6808 58.4 67.5808 57.7 67.2808 56.8C66.9808 56.1 66.3808 55.6 65.6808 55.3C65.2808 55.1 64.5808 55 63.8808 55.4C62.7808 56.1 61.7808 56.6 60.8808 56.9C58.7808 59.7 55.9808 61.7 52.5808 62.7C48.4808 63.9 44.1808 63.5 40.4808 61.4C32.7808 57.1 29.9808 47.4 34.1808 39.6C35.3808 37.4 37.1808 35.5 39.1808 34.1C38.4808 33.9 37.7808 33.6 37.1808 33.3C35.0808 32.1 33.3808 30.2 32.3808 27.9C31.3808 25.6 31.1808 23.7 31.5808 21.6C31.6308 21.5 31.6558 21.4 31.6808 21.3C31.7058 21.2 31.7308 21.1 31.7808 21C27.4808 23.8 23.8808 27.7 21.2808 32.4C13.1808 47.4 18.5808 66.3 33.4808 74.5ZM22.2808 39.8C22.2808 38.8 23.0808 38.1 23.9808 38.1C24.8808 38.1 25.6808 38.9 25.6808 39.8C25.6808 40.8 24.8808 41.5 23.9808 41.5C22.9808 41.5 22.2808 40.7 22.2808 39.8ZM48.1808 67.3C47.2808 67.3 46.4808 68 46.4808 69C46.4808 69.9 47.1808 70.7 48.1808 70.7C49.0808 70.7 49.8808 70 49.8808 69C49.7808 68.1 49.0808 67.3 48.1808 67.3ZM35.2808 70.4C35.2808 68.9 36.4808 67.7 37.9808 67.7C39.4808 67.7 40.6808 69 40.6808 70.4C40.6808 71.9 39.4808 73.1 37.9808 73.1C36.4808 73.1 35.2808 71.9 35.2808 70.4Z" fill="#AC562A"/>
<defs>
<radialGradient id="paint0_radial" cx="0" cy="0" r="1" gradientUnits="userSpaceOnUse" gradientTransform="translate(48.1966 47.2981) rotate(90) scale(32.3065 31.9588)">
<stop offset="0.496527" stop-color="#FCC065"/>
<stop offset="0.725698" stop-color="#FFC875"/>
<stop offset="1" stop-color="#FFA722"/>
</radialGradient>
</defs>
</svg>
