<svg width="335" height="334" viewBox="0 0 335 334" fill="none" xmlns="http://www.w3.org/2000/svg">
<g opacity="0.9">
<circle cx="168.148" cy="167.476" r="166.525" fill="white"/>
<path fill-rule="evenodd" clip-rule="evenodd" d="M237.533 85.9479C237.533 98.402 206.469 108.498 168.148 108.498C129.828 108.498 98.7629 98.402 98.7629 85.9479C98.7629 73.4938 129.828 63.3977 168.148 63.3977C206.469 63.3977 237.533 73.4938 237.533 85.9479ZM197.778 111.967C234.989 116.208 261.818 128.219 261.818 142.373C261.818 160.069 219.881 174.414 168.148 174.414C116.416 174.414 74.478 160.069 74.478 142.373C74.478 128.219 101.307 116.208 138.519 111.967C147.631 113.494 157.642 114.336 168.148 114.336C178.288 114.336 187.967 113.552 196.822 112.126L197.778 111.967ZM214.438 177.883C254.607 183.792 282.634 197.154 282.634 212.692C282.634 233.704 231.377 250.738 168.148 250.738C104.919 250.738 53.6625 233.704 53.6625 212.692C53.6625 197.154 81.6891 183.792 121.858 177.883C135.657 180.674 151.415 182.254 168.148 182.254C184.461 182.254 199.848 180.752 213.395 178.093L214.438 177.883Z" fill="black"/>
</g>
</svg>
