<svg width="670" height="670" viewBox="0 0 670 670" fill="none" xmlns="http://www.w3.org/2000/svg">
<path d="M335 670C520.015 670 670 520.015 670 335C670 149.985 520.015 0 335 0C149.985 0 0 149.985 0 335C0 520.015 149.985 670 335 670Z" fill="#F7941D"/>
<path d="M492.124 348.914L491.937 348.568L491.906 348.51C491.793 348.162 491.706 347.797 491.58 347.421L491.564 347.391L491.548 347.362L491.532 347.333L491.516 347.304L491.5 347.275L491.484 347.246L491.452 347.188C487.521 334.038 479.726 322.373 469.08 313.71L469.065 313.681C468.75 313.441 468.419 313.171 468.103 312.934L467.668 312.61L467.353 312.371L467.218 312.257L466.918 312.046L466.783 311.933L466.483 311.722L466.348 311.609L466.033 311.37L465.868 311.27L465.553 311.031L465.388 310.931L465.048 310.707L464.883 310.607L464.683 310.307L464.503 310.18L464.163 309.956L463.984 309.829L463.643 309.604L463.464 309.478L463.124 309.253L462.944 309.126L462.584 308.871L462.405 308.744L462.017 308.506L461.837 308.38L461.45 308.141L461.27 308.015L460.882 307.776L460.703 307.65L460.315 307.411L460.106 307.301L459.718 307.063L459.51 306.952L459.092 306.73L458.884 306.62L458.451 306.369L458.243 306.259L457.81 306.009L457.601 305.898L457.168 305.648L456.944 305.509L456.511 305.258L456.286 305.119L455.825 304.883L455.601 304.744L455.139 304.508L454.827 304.338L454.811 304.309C454.587 304.17 454.35 304.073 454.125 303.933C444.547 299.01 434.205 295.742 423.537 294.268C426.529 291.052 429.269 287.611 431.732 283.975L432.125 283.391L432.154 283.375L432.336 283.091L432.574 282.703L432.701 282.523L432.939 282.136L433.065 281.956L433.304 281.568L433.43 281.389L433.669 281.001L433.795 280.821L434.033 280.433L434.159 280.254L434.368 279.88L434.495 279.701L434.703 279.327L434.803 279.162L435.011 278.789L435.111 278.624L435.319 278.251L435.419 278.086L435.599 277.728L435.699 277.563L435.878 277.206L435.978 277.041L436.157 276.684L436.257 276.519L436.452 276.19L436.552 276.025L436.752 275.697L436.852 275.532L437.023 275.22L437.123 275.055L437.293 274.742L437.362 274.594L437.533 274.281L437.601 274.132L437.772 273.82L437.84 273.671L438.011 273.359L438.08 273.21L438.217 272.91L438.286 272.761L438.424 272.461L438.493 272.312L438.631 272.012L438.7 271.864L438.851 271.523L439.058 271.078C439.209 270.737 439.331 270.41 439.483 270.068L439.512 270.052C444.102 258.737 445.178 246.303 442.6 234.368L442.584 234.339L442.552 234.281L442.536 234.252L442.521 234.223L442.505 234.194L442.489 234.165L442.472 234.136L442.457 234.108C442.388 233.772 442.319 233.437 442.222 233.116V233.043L442.206 233.014L442.19 232.985L442.174 232.957L442.19 232.985L442.05 232.726C441.95 232.26 441.85 231.79 441.7 231.315C441.6 230.849 441.452 230.369 441.321 229.915L441.15 229.598L441.119 229.54C441.019 229.221 440.924 228.9 440.826 228.581L440.809 228.552L440.793 228.523L440.777 228.494L440.762 228.465L440.746 228.437L440.729 228.408L440.714 228.379C437.222 216.678 430.288 206.299 420.814 198.595L420.797 198.565C420.527 198.338 420.227 198.127 419.956 197.902L419.582 197.619L419.282 197.399L419.147 197.286L418.891 197.086L418.756 196.972L418.501 196.772L418.366 196.659L418.082 196.477L417.946 196.364L417.646 196.153L417.511 196.04L417.211 195.829L417.075 195.716L416.775 195.505L416.61 195.405L416.31 195.194L416.145 195.094L415.845 194.883L415.68 194.783L415.352 194.588L415.187 194.488L414.859 194.293L414.694 194.193L414.365 193.998L414.2 193.898L413.872 193.698L413.707 193.598L413.367 193.373L413.202 193.273L412.857 193.049L412.692 192.949L412.319 192.74L412.154 192.64L411.781 192.431L411.601 192.304L411.228 192.096L411.049 191.969L410.676 191.761L410.496 191.634L410.109 191.396L409.9 191.285L409.512 191.047L409.304 190.937L408.886 190.714L408.678 190.604L408.26 190.382L407.96 190.244L407.944 190.215L407.318 189.883C389.024 180.375 365.782 177.512 342.398 183.511L336.315 185.073L320.9 125.211L285.248 134.351L300.548 194.032L272.027 201.348L256.679 141.862L221.027 151L236.362 210.676L162.833 229.6L172.616 267.625L202.243 260.016C204.575 259.415 207.002 259.279 209.386 259.616C211.77 259.953 214.065 260.756 216.138 261.98C218.212 263.203 220.024 264.824 221.472 266.748C222.92 268.672 223.974 270.862 224.575 273.194L224.583 273.228L265.711 433.238C266.516 436.381 266.042 439.714 264.392 442.508C262.743 445.301 260.052 447.326 256.911 448.138L230.951 454.816L232.476 500.039L305.911 481.165L321.448 540.733L357.084 531.564L341.734 471.858L370.255 464.542L385.605 524.242L421.241 515.073L405.841 455.135C411.881 453.559 417.074 452.214 420.668 451.285C447.021 444.506 468.331 429.053 481.226 409.791L481.662 409.148L481.691 409.132L481.902 408.832L482.182 408.384L482.321 408.159L482.601 407.711L482.741 407.486L482.991 407.053L483.13 406.829L483.38 406.396L483.491 406.187L483.741 405.754L483.852 405.546L484.102 405.113L484.212 404.904L484.434 404.487L484.545 404.278L484.767 403.861L484.877 403.652L485.116 403.264L485.226 403.056L485.464 402.668L485.575 402.46L485.783 402.086L485.894 401.878L486.102 401.505L486.213 401.297L486.421 400.924L486.506 400.731L486.715 400.358L486.8 400.165L486.979 399.808L487.079 399.643L487.259 399.286L487.359 399.121L487.538 398.763L487.638 398.598L487.817 398.241L487.917 398.076L488.097 397.719L488.197 397.554L488.377 397.196L488.477 397.031L488.628 396.691L488.728 396.526L488.879 396.186L488.948 396.037L489.113 395.651L489.334 395.16C489.499 394.774 489.678 394.416 489.813 394.046L489.827 394.001C494.985 381.273 496.198 367.289 493.309 353.863L493.293 353.834L493.277 353.805L493.261 353.776L493.245 353.747L493.229 353.718L493.213 353.689L493.197 353.66L493.181 353.631L492.926 352.539V352.466L492.911 352.437L492.895 352.408L492.878 352.379L492.862 352.35L492.847 352.321L492.831 352.292L492.815 352.263L492.799 352.234L492.783 352.206L492.767 352.177L492.751 352.148L492.736 352.119L492.72 352.09L492.657 351.975C492.525 351.452 492.42 350.913 492.257 350.403C492.232 350.085 492.156 349.529 492.124 348.914ZM282.641 241.876C288.724 240.315 313.874 233.998 322.167 231.839C335.352 228.464 348.339 229.774 358.49 234.659L358.831 234.81L358.979 234.879L359.188 234.989L359.288 235.045L359.496 235.155L359.596 235.211L359.804 235.321L359.904 235.377L360.113 235.487L360.213 235.542L360.422 235.653L360.522 235.708L360.731 235.819L360.831 235.874L361.039 235.985L361.139 236.04L361.347 236.151L361.447 236.206L361.655 236.317L361.755 236.372L361.935 236.499L362.035 236.554L362.214 236.681L362.314 236.736L362.493 236.863L362.593 236.918L362.758 237.018L362.858 237.073L363.023 237.173L363.123 237.228L363.288 237.328L363.388 237.383L363.553 237.483L363.653 237.538L363.818 237.638L363.894 237.71L364.059 237.81L364.119 237.851L364.284 237.951L364.343 237.993L364.508 238.093L364.568 238.134L364.733 238.234L364.792 238.276L364.928 238.389L364.987 238.431L365.152 238.531L365.377 238.671C365.542 238.771 365.692 238.912 365.857 239.011C371.051 242.931 374.867 248.397 376.757 254.623L376.803 254.708C376.851 254.868 376.916 255.056 376.964 255.218L376.98 255.248L377.074 255.418C377.14 255.68 377.22 255.898 377.288 256.159C377.361 256.426 377.408 256.7 377.43 256.976L377.523 257.146L377.539 257.175C377.565 257.354 377.609 257.529 377.672 257.698L377.718 257.783C379.054 264.149 378.344 270.775 375.689 276.714V276.714L375.455 277.249L375.331 277.504L375.231 277.669L375.204 277.758L375.135 277.907L375.108 277.996L375.008 278.161L374.981 278.247L374.881 278.412L374.854 278.501L374.754 278.666L374.727 278.751L374.627 278.916L374.6 279.005L374.5 279.17L374.472 279.26L374.372 279.425L374.316 279.525L374.216 279.69L374.16 279.79L374.06 279.955L374.005 280.055L373.905 280.22L373.85 280.32L373.723 280.499L373.668 280.599L373.541 280.779L373.486 280.879L373.359 281.058L373.304 281.158L373.177 281.337L373.122 281.437L372.995 281.617L372.94 281.717L372.813 281.897L372.758 281.997L372.631 282.176L372.576 282.276L372.449 282.455L372.394 282.555L372.238 282.75L372.183 282.85L372.027 283.045L371.972 283.145L371.816 283.34L371.761 283.44L371.605 283.635L371.492 283.77L371.281 284.07C364.724 293.258 353.981 300.679 340.796 304.053C332.487 306.18 307.403 312.759 301.325 314.321L282.641 241.876ZM422 364.55L422.094 364.72L422.11 364.749C422.145 364.949 422.195 365.113 422.23 365.317L422.246 365.347L422.262 365.376L422.279 365.405L422.295 365.434C423.701 372.452 422.691 379.739 419.428 386.109V386.109L419.109 386.69L418.956 386.959L418.845 387.167L418.79 387.267L418.69 387.432L418.635 387.532L418.535 387.697L418.48 387.797L418.353 387.976L418.298 388.076L418.171 388.255L418.116 388.355L417.989 388.535L417.934 388.635L417.807 388.814L417.752 388.914L417.625 389.093L417.57 389.193L417.443 389.373L417.388 389.473L417.261 389.653L417.206 389.753L417.079 389.932L417.024 390.032L416.897 390.211L416.842 390.311L416.686 390.506L416.631 390.606L416.475 390.801L416.42 390.901L416.28 391.126L416.225 391.226L416.084 391.45L416.029 391.55L415.89 391.775L415.804 391.895L415.665 392.119L415.58 392.239L415.41 392.478L415.325 392.598L415.155 392.837L415.069 392.957L414.899 393.196L414.814 393.316L414.644 393.555L414.559 393.675L414.389 393.914L414.247 394.066L413.978 394.396C406.014 404.565 393.171 412.929 377.569 416.933C367.733 419.473 338.007 427.247 330.775 429.093L310.538 350.354C317.755 348.482 347.563 340.997 357.399 338.454C372.999 334.454 388.313 335.585 400.153 340.64L400.539 340.805L400.732 340.89L401.015 340.998L401.147 341.037L401.403 341.161L401.535 341.2L401.791 341.325L401.923 341.364L402.178 341.488L402.278 341.543L402.533 341.667L402.633 341.723L402.888 341.847L402.988 341.902L403.243 342.026L403.343 342.082L403.552 342.192L403.652 342.248L403.861 342.358L403.961 342.414L404.169 342.524L404.269 342.579L404.477 342.69L404.577 342.745L404.785 342.856L404.885 342.911L405.094 343.022L405.194 343.077L405.403 343.188L405.503 343.243L405.711 343.354L405.811 343.409L406.019 343.519L406.119 343.575L406.298 343.701L406.398 343.757L406.578 343.884L406.678 343.939L406.858 344.066L406.958 344.121L407.137 344.248L407.237 344.303L407.417 344.43L407.517 344.485L407.682 344.585L407.782 344.64L407.962 344.767L408.201 344.937C408.38 345.064 408.589 345.175 408.77 345.301C414.732 349.321 419.155 355.242 421.317 362.1V362.1L421.379 362.215C421.443 362.403 421.492 362.564 421.556 362.752L421.572 362.78L421.665 362.951C421.732 363.213 421.798 363.474 421.881 363.766C422.028 363.829 422.051 364.151 422.006 364.548L422 364.55Z" fill="white"/>
</svg>
