<?xml version="1.0" encoding="utf-8"?>
<!-- Generator: Adobe Illustrator 22.0.1, SVG Export Plug-In . SVG Version: 6.00 Build 0)  -->
<svg version="1.1" id="Layer_1" xmlns="http://www.w3.org/2000/svg" xmlns:xlink="http://www.w3.org/1999/xlink" x="0px" y="0px"
	 viewBox="0 0 74 74" style="enable-background:new 0 0 74 74;" xml:space="preserve">
<style type="text/css">
	.st0{opacity:0.3;fill:#F6F0E7;stroke:#CDC6BA;stroke-width:3;enable-background:new    ;}
	.st1{fill:#FFFFFF;}
</style>
<g>
	<circle class="st0" cx="37" cy="37" r="35.5"/>
	<g>
		<g>
			<g>
				<path class="st1" d="M21.5,26.2c4.6,0,9.1,0,13.7,0c0,0.3,0,0.6,0,0.9c0,1.2-0.1,2.5,0,3.7c0.2,2.2,0.8,4.4,1.7,6.5
					c0.9,1.9,2,3.5,3.4,5c1.7,1.8,3.8,3.2,6.3,3.9c0.2,0.1,0.3,0.1,0.3,0.4c-0.1,1.2,0.1,2.2-0.1,3.4c-0.4,1.9-1.5,3.2-3.2,3.9
					c-0.8,0.4-1.6,0.5-2.5,0.5c-2.7,0-5.6,0-8.3,0c-1.3,0-2.5-0.2-3.6-1c-1.6-1.2-2.3-2.8-2.3-4.8c0-5.4,0-10.9,0-16.3
					c0-0.1,0-0.3,0-0.4c0-0.8-0.5-1.2-1.2-1.4c-1.9-0.6-3.3-1.9-4.1-3.6c0-0.1-0.1-0.2-0.1-0.3C21.5,26.4,21.5,26.3,21.5,26.2z
					 M29.6,38.4c0,1,0.7,1.8,1.7,1.8c0.9,0,1.8-0.8,1.8-1.8c0-1-0.8-1.8-1.8-1.9C30.4,36.6,29.5,37.4,29.6,38.4z"/>
				<path class="st1" d="M44.7,38.4c0,0.9-0.8,1.7-1.7,1.7c-0.9,0-1.7-0.8-1.7-1.7c0-0.9,0.8-1.7,1.7-1.7
					C44,36.8,44.9,37.7,44.7,38.4z"/>
				<path d="M29.6,38.4c-0.1-1.1,0.9-1.8,1.7-1.8c1,0,1.8,0.9,1.8,1.9c0,1-0.9,1.8-1.8,1.8C30.3,40.3,29.6,39.5,29.6,38.4z"/>
				<path d="M49.8,33.4c0-0.4,0-0.6,0.4-0.7c0.1-0.1,0.2-0.1,0.4-0.1c2.2-1.1,3.7-2.9,4.6-5.1c0.4-0.8,0.7-1.7,0.7-2.5
					c0-1-0.5-1.6-1.5-1.6c-2,0-3.9,0-5.9-0.1h-0.6v-3.3c0-0.4-0.1-0.9-0.1-1.2c-0.5-1.8-2.3-3-4.4-2.6c-1.4,0.3-2.7,1.7-2.8,3.1
					c-0.1,1.2-0.1,2.3-0.1,3.5v0.6h-6.9v-3.7c-0.1-2.5-2.5-4.3-5-3.4c-1.5,0.5-2.5,2-2.5,3.7v3.4h-0.7c-2,0-3.9,0-5.9,0.1
					c-0.9,0-1.5,0.6-1.4,1.5c0.1,0.6,0.2,1.2,0.4,1.7c0.9,2.7,2.5,4.8,5.1,6.1c0.5,0.3,0.7,0.5,0.7,1.1v15.3c0,0.7,0.1,1.4,0.3,2.1
					c1,3.3,3.2,5.4,6.5,6.1c0.1,0,9,0.1,9,0.1s2.9,0,4.8-0.4s4.5-3,5-5.8c0,0,0,0.7,0,0L49.8,33.4 M43.3,19.7c0-0.4,0.4-0.9,0.9-0.9
					c0.4,0,0.9,0.3,0.9,0.7v3.6h-1.7V19.7z M43.1,36.8c0.9,0,1.7,0.9,1.7,1.7c0,0.9-0.8,1.7-1.7,1.7c-0.9,0-1.7-0.8-1.7-1.7
					C41.5,37.6,42.3,36.8,43.1,36.8z M28.9,20c0-0.2,0-0.4,0.1-0.6c0.1-0.4,0.6-0.6,0.9-0.5c0.4,0.1,0.7,0.4,0.7,0.9V23
					c0,0.1,0,0.1-0.1,0.2H29c0-0.1-0.1-0.2-0.1-0.4V20z M46.8,49.9c-0.4,1.9-1.4,3.2-3.2,4c-0.8,0.4-1.6,0.5-2.5,0.5h-8.3
					c-1.3,0-2.5-0.2-3.6-1c-1.6-1.2-2.3-2.8-2.3-4.8V31.8c0-0.8-0.5-1.2-1.2-1.4c-1.9-0.6-3.3-1.9-4.1-3.6c0-0.1-0.1-0.3-0.1-0.4
					c0,0,0-0.1,0-0.1h13.7v0.9c0,1.2-0.1,2.5,0,3.7c0.2,2.2,0.8,4.4,1.7,6.5c0.9,1.9,2,3.5,3.4,5c1.7,1.8,3.8,3.2,6.3,3.9
					c0.2,0.1,0.3,0.1,0.3,0.4C46.9,47.7,47.1,48.8,46.8,49.9z"/>
				<path d="M26,48.5c0.1,2.4,0.9,4.3,2.7,5.6c1.2,0.9,2.5,1.2,4.1,1.2c1.8-0.1,3.5-0.1,5.3-0.1h3c1.2,0,2-0.2,2.8-0.6
					c2-0.9,3.3-2.5,3.7-4.6c0.2-0.9,0.1-1.7,0.1-2.5v-1.1c0-0.2,0-0.9-0.9-1.2c-2.2-0.7-4-1.8-5.9-3.7c-1.3-1.3-2.4-3-3.2-4.8
					c-0.9-2-1.5-4.1-1.7-6.1c-0.1-0.8-0.1-1.6-0.1-2.5v-2.9H21.5l-0.7,0.1l-0.1,0.7c-0.1,0.1-0.1,0.3,0,0.5c0,0.1,0.1,0.3,0.1,0.4
					c1.1,2,2.6,3.4,4.6,4c0.5,0.1,0.6,0.4,0.6,0.6V48.5z M23,27.2h11.4v1.1c0,0.8,0,1.7,0.1,2.6c0.2,2.3,0.8,4.6,1.8,6.8
					c0.9,2,2.1,3.8,3.5,5.3c1.9,2,4,3.3,6.3,4v0.7c0.1,0.7,0.1,1.4-0.1,2c-0.3,1.6-1.2,2.7-2.7,3.3c-0.6,0.2-1.2,0.4-2.1,0.4h-8.3
					c-1.3,0-2.3-0.3-3.1-0.9c-1.3-1-2-2.4-2-4.1V31.7c0-0.7-0.3-1.7-1.8-2.2C24.8,29.1,23.8,28.3,23,27.2z"/>
				<path d="M40.6,38.4c0,0.7,0.2,1.3,0.7,1.8c0.5,0.5,1.2,0.8,1.8,0.8c1.3,0,2.5-1.2,2.5-2.5c0.1-0.6-0.1-1.2-0.6-1.7
					c-0.4-0.6-1.2-0.9-1.9-0.9C41.8,35.9,40.6,37.1,40.6,38.4z M43.1,37.7c0.2,0,0.5,0.1,0.7,0.3c0.1,0.1,0.1,0.3,0.1,0.4v0.1
					c0,0.4-0.4,0.8-0.7,0.8c-0.2,0-0.4-0.1-0.6-0.3c-0.1-0.1-0.2-0.4-0.2-0.5C42.3,38,42.7,37.7,43.1,37.7z"/>
				<path d="M46,22.2v-2.6c-0.1-0.4-0.2-0.9-0.6-1.2C45,18.1,44.5,18,44.1,18c-0.9,0.1-1.7,0.8-1.7,1.7v4.3h3.5L46,22.2z"/>
				<path d="M31.3,24.1l0.2-0.7c0-0.1,0.1-0.2,0.1-0.4v-3.3c0-0.9-0.6-1.6-1.4-1.7c-0.7-0.1-1.6,0.3-1.9,1C28.1,19.2,28,19.6,28,20
					v3c0,0.2,0.1,0.4,0.1,0.4l0.1,0.8H31.3z"/>
				<path d="M31.2,58.1C31.2,58.1,31.2,58.1,31.2,58.1L31.2,58.1z"/>
				<polygon points="29.9,19.7 29.9,19.7 29.9,19.7 				"/>
				<path class="st1" d="M41.5,38.4c-0.1-1.1,0.9-1.8,1.7-1.8c1,0,1.8,0.9,1.8,1.9c0,1-0.9,1.8-1.8,1.8
					C42.2,40.3,41.5,39.5,41.5,38.4z"/>
				<path class="st1" d="M30.8,22.4c-0.8,0-1.6,0-2.4,0c0-0.1-0.1-0.3-0.1-0.4c0-1.2,0-0.9,0-2.2c0-0.3,0.1-0.6,0.1-0.8
					c0.2-0.4,0.9-0.7,1.3-0.7c0.7,0.1,1.2,0.6,1.2,1.2c0,1.4,0,1.2,0,2.6C30.9,22.2,30.9,22.3,30.8,22.4z"/>
				<path class="st1" d="M45.4,22.4c-0.8,0-1.6,0-2.4,0c0-0.1-0.1-0.3-0.1-0.4c0-1.2,0-0.9,0-2.2c0-0.3,0.1-0.6,0.1-0.8
					c0.2-0.4,0.9-0.7,1.3-0.7c0.7,0.1,1.1,0.6,1.1,1.2c0,1.4,0,1.2,0,2.6C45.5,22.2,45.4,22.3,45.4,22.4z"/>
			</g>
		</g>
	</g>
</g>
</svg>
