<svg width="96" height="96" viewBox="0 0 96 96" fill="none" xmlns="http://www.w3.org/2000/svg">
<path d="M96 48C96 74.5097 74.5097 96 48 96C21.4903 96 0 74.5097 0 48C0 21.4903 21.4903 0 48 0C74.5097 0 96 21.4903 96 48Z" fill="#0F8F62"/>
<path d="M24.8038 53.1388H33.1149L41.4857 70.0001H49.0195L39.9909 52.4213C45.3124 50.8667 48.1226 46.7411 48.1226 40.8217C48.1226 33.1086 43.5186 28.2655 36.0447 28.2655H18.0474V70.0001H24.8038V53.1388ZM24.8038 47.4586V34.1848H35.5663C38.9744 34.1848 41.0074 36.0384 41.0074 39.3867V42.2567C41.0074 45.605 38.9744 47.4586 35.5663 47.4586H24.8038Z" fill="#F8D33A"/>
<path d="M67.9898 74.903V69.6413C75.7029 68.6846 80.0677 64.0209 80.0677 57.6232C80.0677 51.4048 76.3008 48.0565 67.631 46.1432V33.8859C71.0391 34.424 73.4308 36.0982 75.1648 38.3703L79.5893 34.723C76.8389 31.1953 73.0721 29.0428 67.9898 28.5644V23.3625H62.9075V28.5644C55.6727 29.3417 51.1285 33.2282 51.1285 39.5661C51.1285 45.605 54.7758 49.1925 63.326 51.0461V64.4394C59.5591 63.9611 56.6891 62.0478 54.2377 59.0582L49.8729 63.0044C52.8625 66.5919 56.8685 69.2826 62.9075 69.7609V74.903H67.9898ZM73.7896 58.0417C73.7896 61.3303 71.5175 63.7219 67.631 64.3796V51.943C72.2948 53.1388 73.7896 55.0521 73.7896 58.0417ZM57.3468 39.2671C57.3468 36.2775 59.5591 34.3642 63.326 33.8261V45.1865C59.2602 44.0505 57.3468 42.5557 57.3468 39.2671Z" fill="#F8D33A"/>
</svg>
