<svg width="96" height="96" viewBox="0 0 96 96" fill="none" xmlns="http://www.w3.org/2000/svg">
<circle cx="48" cy="48" r="48" fill="white"/>
<path d="M41.3084 57.0845L25.4917 41.5111V60.1667H39.9701C40.2134 59.0311 40.6595 57.9767 41.3084 57.0845Z" fill="#00A9E0"/>
<path d="M40.0512 63.4112H25.4917C25.8161 68.5212 27.8845 73.1445 31.0478 76.7945L41.3084 66.5745C40.7406 65.6012 40.254 64.5467 40.0512 63.4112Z" fill="#00A9E0"/>
<path d="M62.8028 45.0395C59.1933 41.8761 54.57 39.8483 49.4194 39.4833V54.0023C50.5955 54.205 51.6094 54.6511 52.5017 55.3L62.8028 45.0395Z" fill="#00A9E0"/>
<path d="M54.6919 66.2501L64.8308 76.389C67.8319 72.8201 69.738 68.359 70.103 63.4112H55.868C55.5841 64.4656 55.2191 65.3984 54.6919 66.2501Z" fill="#00A9E0"/>
<path d="M55.9897 60.1667H70.5086C70.1841 55.0567 68.1158 50.4334 64.9525 46.7834L54.6919 57.0034C55.3002 57.9767 55.7463 59.0717 55.9897 60.1667Z" fill="#00A9E0"/>
<path d="M33.1973 78.9439C36.8067 82.1072 41.4301 84.135 46.5806 84.5V69.9811C45.4045 69.7783 44.3906 69.3322 43.4984 68.6833L33.1973 78.9439Z" fill="#00A9E0"/>
<path d="M49.8252 69.9811V84.5C54.9758 84.1756 59.5991 82.1072 63.2086 78.9439L52.9885 68.6833C52.0152 69.3322 50.9608 69.7783 49.8252 69.9811Z" fill="#00A9E0"/>
<path d="M25.5323 36.7662C29.4256 40.619 41.6328 52.8668 43.7012 54.8945C44.5934 54.4079 45.4856 53.9618 46.5806 53.759V30.115L25.4917 11.5C25.4917 11.5406 25.5323 36.1578 25.5323 36.7662Z" fill="#00A9E0"/>
</svg>
