<svg width="96" height="96" viewBox="0 0 96 96" fill="none" xmlns="http://www.w3.org/2000/svg">
<path d="M48 96C74.5097 96 96 74.5097 96 48C96 21.4903 74.5097 0 48 0C21.4903 0 0 21.4903 0 48C0 74.5097 21.4903 96 48 96Z" fill="#CC0124"/>
<path d="M48.2985 80.5105L23.04 24.96H73.5569L48.2985 80.5105ZM27.4146 27.7764L48.3884 73.7989L69.0925 27.8364L27.4146 27.7764Z" fill="white"/>
<path d="M70.2319 25.5582L35.52 50.8799L37.1799 53.1553L71.8918 27.8336L70.2319 25.5582Z" fill="white"/>
<path d="M25.669 25.5711L24 27.8398L58.61 53.3006L60.279 51.0319L25.669 25.5711Z" fill="white"/>
<path d="M24.7897 30.3509C24.3118 30.3577 23.8374 30.2684 23.3948 30.0882C22.9521 29.9081 22.5502 29.6408 22.2129 29.3022C21.6093 28.7088 21.2303 27.9243 21.1407 27.0826C21.051 26.241 21.2563 25.3943 21.7213 24.687C22.1864 23.9798 22.8825 23.4559 23.6908 23.2047C24.4991 22.9535 25.3695 22.9906 26.1535 23.3097C26.9375 23.6288 27.5865 24.21 27.9896 24.9543C28.3928 25.6985 28.5252 26.5596 28.3643 27.3906C28.2033 28.2216 27.759 28.9709 27.1071 29.5108C26.4552 30.0507 25.6361 30.3476 24.7897 30.3509V30.3509Z" fill="white"/>
<path d="M71.4847 30.3359C70.5762 30.2534 69.7314 29.8342 69.1162 29.1606C68.501 28.487 68.1599 27.6077 68.1599 26.6955C68.1599 25.7832 68.501 24.9039 69.1162 24.2303C69.7314 23.5568 70.5762 23.1375 71.4847 23.055C71.9906 23.0091 72.5004 23.0691 72.9818 23.2311C73.4631 23.3932 73.9054 23.6538 74.2805 23.9963C74.6555 24.3389 74.955 24.7558 75.16 25.2205C75.3649 25.6852 75.4708 26.1876 75.4708 26.6955C75.4708 27.2034 75.3649 27.7057 75.16 28.1704C74.955 28.6352 74.6555 29.0521 74.2805 29.3946C73.9054 29.7371 73.4631 29.9977 72.9818 30.1598C72.5004 30.3219 71.9906 30.3819 71.4847 30.3359V30.3359Z" fill="white"/>
<path d="M59.3054 55.2513C58.3439 55.2513 57.4217 54.8693 56.7418 54.1894C56.0619 53.5095 55.6799 52.5874 55.6799 51.6258C55.6799 50.6643 56.0619 49.7421 56.7418 49.0622C57.4217 48.3823 58.3439 48.0004 59.3054 48.0004C59.7833 47.9935 60.2576 48.0829 60.7003 48.263C61.1429 48.4432 61.5449 48.7105 61.8822 49.0491C62.3946 49.5562 62.7442 50.2045 62.8863 50.9113C63.0284 51.6181 62.9565 52.3511 62.68 53.0169C62.4034 53.6826 61.9346 54.2508 61.3335 54.6488C60.7324 55.0468 60.0263 55.2566 59.3054 55.2513Z" fill="white"/>
<path d="M47.7857 81.2008C46.8178 81.1966 45.8912 80.8087 45.2089 80.1222C44.8712 79.7904 44.6042 79.3938 44.424 78.9561C44.2437 78.5184 44.154 78.0487 44.1602 77.5754C44.1602 76.611 44.5412 75.6858 45.2202 75.0011C45.8993 74.3164 46.8214 73.9278 47.7857 73.9199C48.7579 73.9278 49.6876 74.3196 50.3723 75.0099C51.057 75.7002 51.4411 76.6331 51.4411 77.6053C51.4254 78.5644 51.0333 79.4788 50.3495 80.1514C49.6657 80.8241 48.7449 81.2009 47.7857 81.2008V81.2008Z" fill="white"/>
<path d="M37.2256 55.2513C36.264 55.2513 35.3419 54.8693 34.662 54.1894C33.9821 53.5095 33.6001 52.5874 33.6001 51.6258C33.6001 50.6643 33.9821 49.7421 34.662 49.0622C35.3419 48.3823 36.264 48.0004 37.2256 48.0004C37.7034 47.9935 38.1778 48.0829 38.6205 48.263C39.0631 48.4432 39.465 48.7105 39.8023 49.0491C40.3147 49.5562 40.6643 50.2045 40.8064 50.9113C40.9485 51.6181 40.8767 52.3511 40.6001 53.0169C40.3235 53.6826 39.8547 54.2508 39.2537 54.6488C38.6526 55.0468 37.9465 55.2566 37.2256 55.2513Z" fill="white"/>
</svg>
