<svg width="96" height="96" viewBox="0 0 96 96" fill="none" xmlns="http://www.w3.org/2000/svg">
<circle cx="48" cy="48" r="48" fill="white"/>
<path d="M52.7698 51.7368C54.6591 50.8084 56.2502 49.3686 57.3622 47.5812C58.4742 45.7938 59.0627 43.7303 59.0606 41.6251C59.0606 35.4134 54.0384 30.3792 47.8483 30.3792C41.6582 30.3792 36.6336 35.413 36.6336 41.6246C36.6312 43.7305 37.22 45.7947 38.333 47.5823C39.446 49.37 41.0385 50.8092 42.9293 51.7363V65.6256H52.7693L52.7698 51.7368ZM47.8488 84C28.0598 84 11.9626 67.8518 11.9626 48C11.9626 28.1482 28.0622 12.0029 47.8488 12.0029C63.997 12.0029 77.6846 22.7549 82.1755 37.4986H94.5437C89.7715 16.0402 70.6771 0 47.8488 0C21.4229 0 0 21.4901 0 48C0 74.5099 21.4229 96 47.8488 96C70.6771 96 89.7715 79.9598 94.5442 58.501H82.176C77.6818 73.248 63.997 84 47.8488 84Z" fill="#3AB03E"/>
</svg>
