<svg width="96" height="96" viewBox="0 0 96 96" fill="none" xmlns="http://www.w3.org/2000/svg">
<circle cx="48" cy="48" r="48" fill="white"/>
<path d="M35.1127 37.2571C29.5285 42.9289 29.0909 49.8259 33.7823 57.9659C36.8107 63.2 40.8544 66.1409 45.9485 66.7711V81.4755C35.3753 80.6178 27.1478 75.0861 21.266 64.9155C16.207 56.1453 14.789 47.5853 17.0297 39.2352C19.2704 30.8852 24.8546 23.8131 32.4694 19.7168C39.8041 15.2005 48.6443 13.8701 56.9768 16.0232C65.3969 18.2289 72.5215 23.8481 76.6177 31.5504C81.0291 38.7101 82.1319 47.4102 79.6637 55.4451C77.1954 63.6026 71.6112 70.4647 64.119 74.5259C62.2284 75.6112 60.2503 76.504 58.2022 77.2392L35.1127 37.2571ZM45.5984 30.9202L61.2131 57.9484C64.1015 55.5677 65.992 52.1892 66.4822 48.478C66.8498 45.047 66.0971 41.5984 64.329 38.6225C62.561 35.279 59.7251 32.6357 56.2591 31.1303C52.828 29.8174 49.0644 29.7299 45.5984 30.9202Z" fill="url(#paint0_radial)"/>
<path d="M35.1127 37.2585L27.0428 23.4819C28.7408 22.0639 30.5438 20.8035 32.4694 19.7007C39.8041 15.1843 48.6443 13.8539 56.9768 16.0071C65.3969 18.2128 72.5215 23.832 76.6178 31.5343C81.0291 38.694 82.1319 47.3941 79.6637 55.429C77.1954 63.5865 71.6112 70.4486 64.119 74.5098C62.2284 75.5951 60.2503 76.4879 58.2022 77.2231L35.1127 37.2585ZM45.5984 30.9216L61.2131 57.9498C64.1015 55.5691 65.992 52.1905 66.4822 48.4794C66.8498 45.0484 66.0971 41.5998 64.329 38.6239C62.561 35.2804 59.7251 32.6371 56.2591 31.1317C52.8281 29.8188 49.0644 29.7312 45.5984 30.9216Z" fill="#7FFFD4"/>
<defs>
<radialGradient id="paint0_radial" cx="0" cy="0" r="1" gradientUnits="userSpaceOnUse" gradientTransform="translate(48.2806 47.0514) rotate(60) scale(31.6568 32.3261)">
<stop stop-color="#979797"/>
<stop offset="1" stop-color="#CCDAFF"/>
</radialGradient>
</defs>
</svg>
