<svg width="260" height="261" viewBox="0 0 260 261" fill="none" xmlns="http://www.w3.org/2000/svg">
<g opacity="0.9">
<path d="M130 260C201.797 260 260 201.797 260 130C260 58.203 201.797 0 130 0C58.203 0 0 58.203 0 130C0 201.797 58.203 260 130 260Z" fill="#FFE804"/>
<path fill-rule="evenodd" clip-rule="evenodd" d="M132.08 41.6001C137.8 41.6001 143 50.4401 143 60.8401C143 61.3601 143 61.3601 143 61.3601C146.12 57.7201 149.76 55.6401 152.88 56.6801C156 57.7201 157.04 61.8801 156.52 67.0801C156.52 69.6801 156 72.2801 154.96 74.8801C154.44 76.4401 153.4 78.0001 152.88 79.0401C194.48 89.4401 224.12 125.32 223.6 187.2H198.12C198.64 134.68 169 108.68 130.52 108.16C88.4003 107.12 65.0003 136.24 62.4003 187.2H36.4003C39.5203 124.8 65.5203 87.3601 111.28 79.5601C110.76 78.5201 109.2 76.4401 108.68 74.8801C105.04 67.0801 105.56 59.2801 109.72 57.2001C112.84 55.6401 118.04 58.2401 121.16 62.9201C121.16 62.4001 121.16 61.3601 121.16 60.8401C121.68 50.4401 126.36 41.6001 132.08 41.6001ZM108.68 138.32C111.8 138.32 114.4 141.44 114.4 144.56V160.16C114.4 163.8 111.8 166.4 108.68 166.4C105.56 166.4 102.96 163.28 102.96 160.16V144.56C103.48 140.92 105.56 138.32 108.68 138.32ZM153.4 138.32C156.52 138.32 159.12 141.44 159.12 144.56V160.16C159.12 163.8 156.52 166.4 153.4 166.4C150.28 166.4 147.68 163.28 147.68 160.16V144.56C148.2 140.92 150.28 138.32 153.4 138.32Z" fill="black"/>
</g>
</svg>
