<svg width="96" height="96" viewBox="0 0 96 96" fill="none" xmlns="http://www.w3.org/2000/svg">
<path d="M43.4529 0.215792C53.6289 -0.762413 64.1102 1.6039 72.8423 6.93171C81.0714 11.888 87.7357 19.3825 91.7101 28.1268C95.9121 37.2657 97.0276 47.7399 95.0548 57.5872C93.0887 67.4643 87.8625 76.6454 80.4177 83.4266C72.969 90.3038 63.2731 94.6851 53.1883 95.7554C46.6824 96.3631 40.0353 95.8735 33.7886 93.8912C23.1067 90.6148 13.6824 83.4467 7.64977 74.042C2.57521 66.2326 -0.123349 56.9046 0.00433131 47.5882C0.0302513 36.9364 3.8117 26.3537 10.4856 18.0587C18.4728 7.9848 30.6408 1.37063 43.4529 0.215792Z" fill="#988430"/>
<path d="M47.0537 1.49253C55.588 1.3447 64.1752 3.52092 71.5356 7.87053C79.4728 12.5312 86.0018 19.5927 89.9512 27.9137C94.2155 36.5927 95.4722 46.6435 93.8152 56.1462C91.6418 68.8792 83.813 80.4958 72.8661 87.3394C65.2869 92.1978 56.237 94.7148 47.2418 94.518C38.4578 94.4585 29.742 91.7216 22.422 86.8834C14.9283 81.9396 8.85819 74.8205 5.32347 66.5552C1.24636 57.2531 0.379489 46.5946 2.86109 36.7472C5.28316 26.7751 11.2217 17.7553 19.2809 11.4262C27.1222 5.19127 37.0485 1.69604 47.0537 1.49253Z" fill="#7A6A2A"/>
<path d="M29.3774 6.4421C37.3934 2.80863 46.4826 1.65667 55.1687 3.02847C64.2388 4.43961 72.826 8.71338 79.45 15.0655C87.5543 22.7462 92.6653 33.4968 93.4333 44.6401C94.4442 57.3462 89.7863 70.3816 80.8909 79.5166C80.7661 76.8681 80.7268 74.2157 80.6778 71.5633C80.6577 69.5973 80.2218 67.6735 80.0538 65.7238C80.0903 65.0413 80.169 64.3617 80.192 63.682C80.2871 61.8408 79.3127 60.1234 79.5623 58.2687C79.8052 55.6624 78.44 53.299 77.7632 50.8568C77.0903 49.1404 77.1325 47.2531 76.4797 45.5329C76.0103 38.889 73.4365 32.1826 68.3946 27.6698C68.5588 27.4404 68.8804 26.9739 69.0445 26.7406C69.2452 27.1735 69.4717 27.5911 69.6973 28.0078C70.8695 26.682 71.05 24.8562 71.3975 23.1955C72.0503 20.2349 71.5981 17.1755 71.0922 14.2313C70.7015 12.7213 70.3895 10.9722 69.1261 9.92775C67.7773 9.13386 65.4397 9.12041 64.6554 10.6957C64.6295 10.7879 64.5767 10.9712 64.5508 11.0605C63.9633 12.0809 63.1492 12.9641 62.1287 13.5584C60.3162 14.6748 59.3284 16.7915 57.3921 17.7697C56.1844 18.1633 54.9566 17.4942 53.7258 17.6315C51.4084 17.8715 49.0545 17.9924 46.8033 18.6395C44.673 18.3015 42.5323 17.9636 40.4155 17.5364C40.4222 17.3819 40.4385 17.0766 40.4481 16.923C39.4795 15.9842 38.5963 14.9138 38.2459 13.5843C37.5988 11.1095 36.0724 8.72587 33.7713 7.51152C33.4458 7.38384 33.1214 7.25903 32.7959 7.14096C32.5924 7.36463 32.3956 7.59023 32.2017 7.81678C32.1259 7.99053 31.9751 8.33901 31.8993 8.50892C31.3876 9.65416 31.5018 10.9309 31.4663 12.1529C31.4337 15.3074 31.1054 18.5377 29.7729 21.4358C27.6264 21.4291 25.4827 21.4128 23.339 21.4387C22.9118 22.4035 23.0635 23.4738 23.0404 24.4943C19.5902 27.6881 18.2116 32.3948 17.5684 36.9085C17.5656 37.256 17.578 37.6074 17.6078 37.9559C17.6145 38.0941 17.6241 38.3696 17.6308 38.504C16.114 40.5027 15.8481 43.1157 15.4574 45.5156C16.0123 45.483 16.5672 45.4503 17.1249 45.4273C16.6132 45.483 16.1006 45.5319 15.5918 45.5818C15.4929 46.13 15.4142 46.6781 15.3518 47.2291C15.851 47.0458 16.3464 46.8548 16.8456 46.6714L17.1144 46.6848C16.5201 46.9277 15.9393 47.21 15.3614 47.496C15.3748 47.8435 15.4008 48.5433 15.4104 48.8909C16.0862 48.5433 16.7697 48.215 17.4456 47.8666L17.1998 48.1421C16.6257 48.5165 15.8904 48.7161 15.4372 49.2479C15.4507 50.5084 15.6273 51.7621 15.7982 53.0101C16.2417 55.8458 17.2363 58.6066 18.6897 61.0814C18.6475 62.89 18.2568 64.712 17.1892 66.2057C17.4878 66.7702 17.987 67.2924 18.0168 67.9558C17.8296 69.0818 16.9233 70.0331 17.1144 71.2283C17.3572 74.1264 16.2936 76.894 15.0369 79.4446C8.51469 72.6663 4.20429 63.7972 2.90157 54.4778C1.66413 45.7796 2.96109 36.7166 6.71277 28.7594C11.267 18.9255 19.474 10.8474 29.3774 6.4421Z" fill="#BA9F33"/>
<path d="M32.2008 7.81779C32.3947 7.59124 32.5915 7.36468 32.795 7.14197C33.1205 7.26004 33.445 7.38486 33.7704 7.51253C34.3186 9.23567 35.1691 10.9588 34.9944 12.8173C34.932 14.0585 34.6632 15.391 35.2862 16.5458C35.555 17.2024 36.2088 17.5432 36.7637 17.9214C36.4286 18.1806 36.0974 18.4398 35.7461 18.6731C34.2955 19.251 33.1397 20.3271 32.053 21.4138C31.6325 21.4138 31.213 21.4167 30.7925 21.4167C33.0907 18.6558 34.1045 15.0195 34.0949 11.4676C34.14 9.99404 33.011 8.91695 32.2008 7.81779Z" fill="#C79C3B"/>
<path d="M33.7695 7.51245C36.0706 8.72681 37.597 11.1104 38.2441 13.5852C38.5954 14.9147 39.4786 15.9851 40.4463 16.9239C40.4367 17.0785 40.4204 17.3838 40.4137 17.5374C39.2127 17.1438 37.7353 16.8942 36.7638 17.9213C36.2089 17.5441 35.5561 17.2023 35.2863 16.5457C34.6623 15.3899 34.9321 14.0575 34.9945 12.8172C35.1683 10.9587 34.3177 9.23559 33.7695 7.51245Z" fill="#B58634"/>
<path d="M32.2007 7.81775C33.0119 8.91691 34.1409 9.99399 34.0948 11.4675C34.1044 15.0194 33.0906 18.6557 30.7924 21.4166C30.635 21.4195 30.323 21.4262 30.1655 21.4262C31.1601 19.9028 32.1479 18.2516 32.2535 16.3845C32.4407 13.7484 31.6295 11.1527 31.8993 8.50989C31.9742 8.33902 32.1249 7.9915 32.2007 7.81775Z" fill="#DFC068"/>
<path d="M31.4654 12.1539C31.5019 10.9328 31.3867 9.65609 31.8984 8.50989C31.6296 11.1527 32.4398 13.7484 32.2526 16.3845C32.1479 18.2526 31.1592 19.9037 30.1646 21.4262L29.771 21.4358C31.1035 18.5377 31.4318 15.3084 31.4654 12.1539Z" fill="#A78F33"/>
<path d="M64.6553 10.6967C65.4396 9.12136 67.7772 9.13386 69.126 9.92871C70.3893 10.9722 70.7013 12.7222 71.092 14.2322C71.598 17.1764 72.0501 20.2358 71.3973 23.1964C71.0498 24.8571 70.8684 26.682 69.6972 28.0087C69.4706 27.5921 69.244 27.1745 69.0444 26.7416C68.8207 26.0917 68.6345 25.4283 68.4242 24.7717C69.2316 22.9698 69.6424 21 69.8556 19.0436C70.0495 17.2974 68.8869 15.8594 67.7282 14.7103C67.1138 13.0889 65.8697 11.8813 64.6553 10.6967Z" fill="#A17C34"/>
<path d="M64.5498 11.0605C64.5758 10.9722 64.6286 10.7878 64.6545 10.6957C65.8689 11.8803 67.113 13.0889 67.7274 14.7103C67.6948 15.1864 67.5863 15.7048 67.0871 15.8891C65.6654 16.6081 64.0737 17.1303 63.0331 18.4071C62.3207 19.3095 60.9326 19.825 60.8203 21.0825C60.971 21.1939 61.2734 21.4137 61.4241 21.526C61.283 21.7094 61.0036 22.077 60.8625 22.2614C61.043 22.4485 61.2273 22.6319 61.4107 22.8162C62.1691 22.0252 63.3345 21.9561 64.3156 21.6086C64.1611 21.9897 64.0075 22.3737 63.8529 22.7577C64.2695 22.6655 64.6929 22.5743 65.1134 22.4889C64.595 23.0831 64.0142 23.6216 63.4036 24.1237C63.3345 24.0843 63.1972 24.0123 63.1281 23.9759C62.3793 23.6053 61.6507 23.1061 60.7905 23.0735C60.7483 22.9458 60.6657 22.6962 60.6235 22.5676C60.1511 22.5417 59.6817 22.4524 59.2353 22.3017C59.3601 21.9897 59.6097 21.3695 59.7345 21.0604C59.4753 21.1852 58.953 21.4377 58.6938 21.5625C59.3994 20.4038 60.0858 19.2317 60.7751 18.0634C60.8241 17.978 60.923 17.8071 60.9719 17.7217C61.9204 15.9621 63.3153 14.4952 64.2705 12.7452C64.6055 12.2393 64.593 11.6384 64.5498 11.0605Z" fill="#B89844"/>
<path d="M64.55 11.0605C64.5923 11.6384 64.6057 12.2394 64.2707 12.7443C63.3155 14.4943 61.9206 15.9612 60.9721 17.7208C60.9558 16.2434 61.1497 14.7334 62.128 13.5584C63.1484 12.9642 63.9625 12.082 64.55 11.0605Z" fill="#CBA94C"/>
<path d="M57.391 17.7697C59.3273 16.7915 60.3161 14.6748 62.1276 13.5583C61.1494 14.7333 60.9555 16.2434 60.9718 17.7208C60.9228 17.8062 60.8239 17.9771 60.775 18.0625C60.8143 17.4942 60.7587 16.9297 60.6761 16.3691C59.7603 18.2602 58.7523 20.1178 57.367 21.7133C56.5664 21.4963 55.7359 21.4176 54.9046 21.4176C55.3644 20.5382 55.9548 19.7367 56.5788 18.9725C53.3619 18.218 50.0528 18.9495 46.8003 18.6414C49.0525 17.9943 51.4054 17.8734 53.7228 17.6334C54.9555 17.4942 56.1823 18.1643 57.391 17.7697Z" fill="#AC8132"/>
<path d="M67.7275 14.7103C68.8862 15.8594 70.0488 17.2965 69.8549 19.0436C69.6418 21 69.2309 22.9699 68.4235 24.7717C67.8293 25.2575 67.212 25.7173 66.6014 26.1867C66.3125 25.9736 66.0168 25.7634 65.725 25.5532L65.581 25.4543C66.5198 23.4355 68.0367 21.5386 68.1346 19.2442C66.3451 19.3095 64.5566 19.6023 62.8526 20.1466C62.1499 20.3204 61.7928 20.9674 61.4251 21.5251C61.2744 21.4138 60.972 21.1939 60.8213 21.0816C60.9326 19.8241 62.3218 19.3095 63.0341 18.4062C64.0747 17.1294 65.6664 16.6072 67.0882 15.8882C67.5864 15.7058 67.6949 15.1865 67.7275 14.7103Z" fill="#927238"/>
<path d="M60.6763 16.3682C60.7589 16.9297 60.8145 17.4942 60.7752 18.0615C60.0859 19.2298 59.3995 20.4019 58.6939 21.5606C58.9531 21.4358 59.4753 21.1833 59.7345 21.0585C59.6097 21.3667 59.3602 21.9878 59.2354 22.2998C58.6152 22.0895 57.9979 21.8793 57.3672 21.7123C58.7534 20.1168 59.7605 18.2593 60.6763 16.3682Z" fill="#8C6228"/>
<path d="M36.7627 17.9214C37.7342 16.8942 39.2116 17.1438 40.4126 17.5374C42.5303 17.9646 44.6702 18.3025 46.8004 18.6404C50.0539 18.9486 53.362 18.2171 56.579 18.9716C55.955 19.7367 55.3646 20.5373 54.9047 21.4166C49.643 21.4099 44.3774 21.4397 39.1157 21.4195C38.8958 20.6708 38.8661 19.7386 38.1768 19.2404C37.4741 18.7345 36.5649 18.7643 35.7441 18.6721C36.0965 18.4398 36.4286 18.1806 36.7627 17.9214Z" fill="#D2A83E"/>
<path d="M32.0527 21.4138C33.1395 20.3271 34.2943 19.251 35.7458 18.6731C36.5666 18.7653 37.4758 18.7355 38.1785 19.2414C38.8678 19.7406 38.8975 20.6727 39.1174 21.4205C36.7625 21.4138 34.4057 21.4167 32.0527 21.4138Z" fill="#DCBA5A"/>
<path d="M62.8534 20.1466C64.5574 19.6014 66.3458 19.3095 68.1353 19.2443C68.0364 21.5386 66.5206 23.4365 65.5817 25.4543C64.8857 24.9618 64.1571 24.5222 63.4054 24.1219C64.0159 23.6198 64.5967 23.0813 65.1151 22.487C64.6947 22.5725 64.2713 22.6646 63.8546 22.7558C64.0092 22.3719 64.1628 21.9878 64.3174 21.6067C63.3362 21.9542 62.1708 22.0234 61.4124 22.8144C61.229 22.631 61.0447 22.4467 60.8643 22.2595C61.0054 22.0762 61.2847 21.7085 61.4258 21.5242C61.7926 20.9674 62.1506 20.3204 62.8534 20.1466Z" fill="#543E26"/>
<path d="M23.3373 21.4396C25.4809 21.4137 27.6246 21.43 29.7712 21.4368L30.1648 21.4272C30.3222 21.4272 30.6342 21.4204 30.7916 21.4175C31.2121 21.4175 31.6316 21.4147 32.0521 21.4147C34.406 21.4176 36.7628 21.4147 39.1158 21.4214C44.3776 21.4415 49.6431 21.4118 54.9049 21.4185C55.7353 21.4185 56.5657 21.4972 57.3673 21.7142C57.998 21.8812 58.6143 22.0915 59.2355 22.3017C59.6819 22.4524 60.1513 22.5417 60.6236 22.5676C60.6658 22.6953 60.7484 22.9449 60.7907 23.0735C61.6508 23.1061 62.3795 23.6053 63.1283 23.9759C62.6425 25.2296 61.6546 26.155 60.7388 27.0977C61.5433 27.544 62.341 28.0106 63.0726 28.5712C64.0086 27.6132 64.8716 26.585 65.725 25.555C66.0169 25.7652 66.3126 25.9755 66.6015 26.1886C67.2217 26.6551 67.8226 27.1466 68.3938 27.6727C73.4357 32.1864 76.0095 38.8918 76.4789 45.5357C76.5413 46.4054 76.5548 47.279 76.5807 48.1488C76.5606 51.6056 76.2495 55.0845 75.3433 58.429C74.7164 60.7493 73.8265 63.0081 72.6092 65.0825C71.7558 66.3986 70.8399 67.686 69.7369 68.8082C69.0217 69.5569 68.27 70.275 67.4358 70.8961C67.0614 70.7022 66.6908 70.5121 66.3164 70.322C65.6799 70.6763 65.0886 71.2379 64.3206 71.2542C63.2895 71.3233 62.3343 71.7726 61.3206 71.9502C62.3055 70.4795 64.3177 69.3765 63.9922 67.3414C63.4374 67.3673 62.8863 67.3942 62.3343 67.4201C62.5215 66.7078 62.702 65.9888 62.8729 65.2697C62.6895 65.1478 62.3276 64.905 62.1471 64.784C62.7673 64.0919 63.4009 63.4017 63.9855 62.673C62.7385 62.9582 61.6124 63.5754 60.4307 64.0419C62.6953 60.7435 64.6883 57.2502 66.3558 53.6138C67.3081 51.3589 68.5782 49.1231 68.6079 46.609C68.6934 45.0039 67.6662 43.6158 67.6162 42.0232C67.4751 40.1916 67.478 38.071 65.9583 36.7684C63.3356 37.3069 60.6803 36.8048 58.0633 36.4996C57.3606 36.3978 56.655 36.5197 55.9628 36.634C55.8409 36.4861 55.7132 36.3489 55.5855 36.2106C54.7715 35.3937 53.9113 34.5403 52.7987 34.1553C51.7743 33.9883 50.7337 34.1227 49.7036 34.1323L49.5625 34.0958C48.423 33.6005 47.2384 32.9535 45.952 33.1829C44.8816 33.2943 44.2451 34.2657 43.3916 34.8014C42.5123 35.3591 41.6387 35.9438 40.9724 36.7578C41.8518 38.2611 43.431 39.0848 45.0659 39.5081C45.0102 40.4892 44.9343 41.4674 44.8489 42.4456C43.8447 42.7806 42.9059 43.2798 42.0419 43.8903C41.582 42.8958 41.366 41.8091 40.9225 40.8117C40.4502 40.182 39.7936 39.7183 39.1993 39.2095C39.0611 39.6329 38.9267 40.0601 38.7894 40.4863C38.487 40.6438 38.1856 40.805 37.8832 40.9653C37.8409 40.2233 37.8208 39.4783 37.6864 38.7468C37.3907 37.4173 36.4422 36.3671 35.9401 35.123C36.0217 33.8491 36.4096 32.6088 36.4422 31.3282C35.8057 31.5845 35.1587 31.8168 34.5347 32.1C33.6812 32.4379 33.2608 33.3374 32.5293 33.8395C31.8169 34.1544 31.0422 34.2725 30.2934 34.4692L30.3884 34.1966C31.0547 33.612 31.2448 32.7519 31.4128 31.9253C30.9894 32.1289 30.5689 32.3323 30.1494 32.5387C29.6205 31.7967 30.4249 31.2975 30.8848 30.8118C30.2051 30.1811 29.2892 29.6925 28.3475 30.0342C26.7683 30.5852 26.0723 32.3381 25.912 33.8808C25.2649 33.8971 24.6189 33.9269 23.9718 33.9134C24.2243 33.4469 24.4739 32.9813 24.7302 32.5147C24.4115 31.8092 23.6963 31.5433 23.0166 31.31C23.0531 29.5504 23.0233 27.7946 23.0195 26.0379C23.0262 25.5224 23.0397 25.0107 23.0397 24.4952C23.0617 23.4747 22.911 22.4044 23.3373 21.4396Z" fill="#F3EBDB"/>
<path d="M63.1292 23.974C63.1983 24.0105 63.3356 24.0825 63.4047 24.1219C64.1564 24.5222 64.885 24.9618 65.581 25.4543L65.725 25.5532C64.8716 26.5842 64.0085 27.6113 63.0725 28.5694C62.34 28.0078 61.5432 27.5422 60.7388 27.0958C61.6546 26.1531 62.6434 25.2277 63.1292 23.974Z" fill="#DCDAD7"/>
<path d="M17.5668 36.9105C18.21 32.3967 19.5885 27.69 23.0388 24.4962C23.0388 25.0117 23.0253 25.5234 23.0186 26.0389C20.7338 28.4321 19.4148 31.622 18.7908 34.836C18.5479 35.9294 18.0583 36.9431 17.6062 37.9578C17.5764 37.6094 17.5639 37.258 17.5668 36.9105Z" fill="#A78E32"/>
<path d="M66.6016 26.1867C67.2121 25.7173 67.8294 25.2575 68.4237 24.7717C68.6339 25.4283 68.8211 26.0917 69.0438 26.7416C68.8796 26.9749 68.558 27.4404 68.3939 27.6708C67.8227 27.1448 67.2227 26.6523 66.6016 26.1867Z" fill="#B59544"/>
<path d="M18.7906 34.8359C19.4146 31.622 20.7336 28.432 23.0184 26.0388C23.0213 27.7946 23.0511 29.5513 23.0156 31.311C21.9327 32.2335 21.4498 33.7502 20.0549 34.3041C19.8677 35.2622 19.4866 36.1684 18.9221 36.9661C18.5122 37.4979 18.0658 37.9971 17.629 38.5059C17.6223 38.3715 17.6127 38.096 17.606 37.9578C18.0591 36.9431 18.5477 35.9284 18.7906 34.8359Z" fill="#EBCC73"/>
<path d="M28.3462 30.0333C29.288 29.6916 30.2038 30.1812 30.8835 30.8109C30.4236 31.2966 29.6201 31.7958 30.1481 32.5379C30.5686 32.3315 30.9881 32.128 31.4115 31.9245C31.2445 32.7519 31.0534 33.6121 30.3872 34.1957C29.527 34.0709 28.6544 34.0575 27.7904 34.1497C27.8432 33.6341 27.8787 33.1119 28.0073 32.6099C28.4009 32.1827 28.9692 31.9993 29.4684 31.7401C29.166 31.4349 28.9232 31.0413 28.5296 30.8503C27.5878 31.1027 26.6451 31.8189 26.504 32.8364C26.527 33.303 26.6028 33.7657 26.671 34.2312C26.5164 34.2245 26.2044 34.2111 26.0508 34.2082L25.8569 34.2015L25.9097 33.8799C26.072 32.3372 26.768 30.5843 28.3462 30.0333Z" fill="#D7D7D5"/>
<path d="M67.4262 30.6698C68.224 30.3942 69.0284 30.1351 69.8387 29.9047C70.4464 31.1229 70.2429 32.4457 69.6256 33.6101C69.9213 33.6101 70.2198 33.613 70.5184 33.6169C70.5712 34.6411 70.5577 36.0753 69.3529 36.4104C68.6867 34.9435 67.0941 34.0901 66.687 32.4783C66.7369 31.816 67.1401 31.2515 67.4262 30.6698Z" fill="#E6DED7"/>
<path d="M26.5049 32.8364C26.646 31.8188 27.5878 31.1037 28.5305 30.8502C28.9241 31.0403 29.167 31.4348 29.4694 31.7401C28.9702 31.9993 28.4028 32.1836 28.0083 32.6098C27.8806 33.1119 27.8441 33.6341 27.7913 34.1496C27.5119 34.1698 26.9513 34.2091 26.6719 34.2312C26.6038 33.7656 26.5279 33.3029 26.5049 32.8364Z" fill="#F5F2E6"/>
<path d="M34.5346 32.0981C35.1586 31.8159 35.8047 31.5826 36.4422 31.3263C36.4095 32.6069 36.0217 33.8472 35.9401 35.121C36.4421 36.3652 37.3906 37.4154 37.6863 38.7449C37.8207 39.4774 37.8409 40.2223 37.8831 40.9634C38.1855 40.8021 38.487 40.6418 38.7894 40.4844C38.9276 40.0572 39.062 39.631 39.1993 39.2076C39.7935 39.7164 40.4501 40.1791 40.9225 40.8098C41.366 41.8072 41.582 42.8939 42.0418 43.8884C42.9049 43.2779 43.8437 42.7787 44.8488 42.4437C44.9343 41.4655 45.0101 40.4873 45.0658 39.5062C45.0687 39.4016 45.0726 39.1913 45.0754 39.0857C44.4946 38.6 43.5817 38.288 43.503 37.4211C43.431 36.3181 44.1269 35.3601 44.9045 34.6535C45.1215 34.6996 45.3413 34.7524 45.564 34.7851C45.9874 34.7524 46.1938 34.5028 46.1813 34.0305C46.7496 34.0075 47.317 34.0334 47.8854 34.067C47.3113 34.8609 46.5788 35.6001 45.5708 35.7671C45.5679 36.2989 45.5804 36.8308 45.6101 37.3626C45.5775 37.8973 45.5218 38.4329 45.4882 38.9676L45.4786 39.3353C45.4853 40.5986 45.4853 41.8658 45.4949 43.1301C45.5017 49.4485 45.4719 55.7641 45.5084 62.0826C45.5381 62.2036 45.6005 62.4503 45.6332 62.5713C48.4796 62.3812 51.7186 63.274 54.1877 61.4193C57.6476 58.9349 59.0693 54.5882 59.4264 50.5084C59.8306 45.6932 58.9704 40.5391 55.9637 36.6301C56.6559 36.5149 57.3625 36.394 58.0642 36.4957C60.6802 36.801 63.3356 37.303 65.9592 36.7645C67.4789 38.0672 67.476 40.1877 67.6172 42.0194C67.6661 43.611 68.6943 45.0001 68.6088 46.6051C68.5791 49.1193 67.309 51.355 66.3567 53.61C64.6892 57.2473 62.6962 60.7397 60.4315 64.0381C61.6133 63.5716 62.7394 62.9553 63.9864 62.6692C63.4018 63.3978 62.7682 64.0871 62.1481 64.7802C62.3285 64.9021 62.6895 65.1449 62.8738 65.2659C62.7029 65.9849 62.5224 66.7039 62.3352 67.4162C62.8863 67.3903 63.4383 67.3634 63.9932 67.3375C64.3186 69.3726 62.3055 70.4756 61.3215 71.9463C62.3362 71.7687 63.2914 71.3194 64.3215 71.2503C65.0895 71.234 65.6808 70.6724 66.3173 70.3182C66.6917 70.5083 67.0623 70.6993 67.4367 70.8922C63.4709 73.9056 58.4722 75.5308 53.4927 75.4185C49.1592 75.405 44.8268 75.4386 40.4933 75.4022C38.6156 75.4089 36.7349 75.4051 34.8572 75.4089C33.4786 75.4089 32.0962 75.4089 30.7177 75.4156C30.3135 75.4127 29.9103 75.4089 29.5062 75.4089C27.6649 75.4022 25.8198 75.4742 23.9814 75.3955C23.3343 75.4483 23.0751 74.7292 23.0722 74.2041C22.9897 72.7431 23.0655 71.283 23.0425 69.8219C23.0588 68.1544 23.0684 66.4841 23.0262 64.8157C23.0194 64.0871 23.1347 63.3709 23.3055 62.6654C25.623 62.4292 27.95 62.7306 30.2742 62.5703C30.2742 61.7764 30.277 60.9816 30.277 60.1906C30.277 59.58 30.277 58.9695 30.2837 58.3618C30.4249 58.8937 30.5986 59.4159 30.7695 59.941C31.8658 59.7375 33.0841 59.4581 33.9106 60.4296C35.8441 58.7161 38.6933 58.7986 41.004 57.8492C41.5061 56.5427 42.6783 55.4886 42.5237 53.9825C42.4316 53.9623 42.2415 53.9201 42.1494 53.897C39.7302 53.1358 37.4684 54.7015 35.1049 54.882C33.5324 54.7341 32.0156 53.9729 31.0047 52.7547C31.0902 52.4072 31.1852 52.0587 31.2774 51.7141C31.0441 51.5201 30.8108 51.3272 30.5785 51.1333C30.5526 50.4306 30.542 49.7279 30.5813 49.029C30.7945 48.2015 31.3465 47.5555 32.1049 47.1744C32.3477 45.9331 32.5484 44.6861 32.7644 43.442C32.1174 42.6251 31.2447 42.0539 30.2732 41.6958V41.6008C30.2665 40.7676 30.2665 39.9362 30.2732 39.103C30.2895 37.665 30.2732 36.2279 30.2665 34.7899C30.2732 34.7083 30.2866 34.5441 30.2924 34.4644C31.0412 34.2676 31.8159 34.1496 32.5282 33.8347C33.2607 33.3355 33.6812 32.436 34.5346 32.0981Z" fill="#F8F3E4"/>
<path d="M20.0551 34.3042C21.45 33.7494 21.9329 32.2326 23.0158 31.311C23.0292 32.1385 23.0455 32.965 23.0685 33.7925C23.2951 33.8223 23.7444 33.8847 23.9709 33.9145C24.618 33.9279 25.2641 33.8982 25.9111 33.8818L25.8583 34.2034C24.9751 34.1871 24.0919 34.1833 23.2097 34.1669C23.1012 34.6623 23.0263 35.1615 22.9994 35.6674C21.2762 36.3374 20.2423 37.9194 18.834 39.0186C18.8474 38.3322 18.8638 37.6497 18.9223 36.9672C19.4868 36.1685 19.8679 35.2623 20.0551 34.3042Z" fill="#F4EFC8"/>
<path d="M23.0156 31.3101C23.6953 31.5433 24.4105 31.8092 24.7292 32.5148C24.4729 32.9814 24.2233 33.4469 23.9708 33.9135C23.7443 33.8837 23.295 33.8213 23.0684 33.7916C23.0454 32.9651 23.0291 32.1375 23.0156 31.3101Z" fill="#FCFCF4"/>
<path d="M43.3904 34.7995C44.2438 34.2648 44.8803 33.2933 45.9507 33.181C47.2371 32.9516 48.4227 33.5977 49.5613 34.094C48.9997 34.0805 48.4419 34.0911 47.8842 34.068C47.3158 34.0354 46.7485 34.0085 46.1802 34.0316C45.7174 34.0575 45.5101 34.3109 45.5629 34.7861C45.3392 34.7534 45.1194 34.7006 44.9034 34.6546C44.1258 35.3601 43.4298 36.3191 43.5018 37.4221C43.5805 38.289 44.4934 38.601 45.0742 39.0867C45.0714 39.1914 45.0675 39.4016 45.0646 39.5072C43.4298 39.0838 41.8505 38.2602 40.9712 36.7569C41.6374 35.9419 42.511 35.3573 43.3904 34.7995Z" fill="#D7D7D5"/>
<path d="M23.2093 34.1659C24.0925 34.1822 24.9757 34.186 25.8579 34.2024L26.0518 34.2091C26.4032 34.908 26.8889 35.5319 27.5811 35.9226C27.7942 36.0897 28.0045 36.2644 28.2118 36.441C27.5225 37.4979 26.5117 38.335 26.0153 39.5168C25.5229 39.7174 25.0371 39.9305 24.5417 40.111C24.4371 40.0418 24.2268 39.9074 24.1212 39.8383C24.223 39.6646 24.4198 39.32 24.5187 39.1462C24.1443 39.0579 23.767 38.9686 23.3926 38.8803C23.1958 37.8167 23.0547 36.7463 22.999 35.6663C23.0249 35.1604 23.1008 34.6612 23.2093 34.1659Z" fill="#E5C66B"/>
<path d="M26.0518 34.2081C26.2063 34.211 26.5183 34.2244 26.6719 34.2311C26.5932 35.5569 28.11 35.4033 28.9961 35.2651C28.5986 34.884 28.2021 34.5105 27.7913 34.1486C28.6543 34.0564 29.5279 34.0699 30.3881 34.1947L30.293 34.4673C30.2863 34.546 30.2729 34.7102 30.2671 34.7928C29.286 34.9934 28.6293 36.0234 27.582 35.9217C26.8889 35.531 26.4031 34.9079 26.0518 34.2081Z" fill="#242110"/>
<path d="M26.6724 34.2312C26.9517 34.2082 27.5124 34.1689 27.7917 34.1497C28.2016 34.5106 28.5991 34.885 28.9965 35.2661C28.1104 35.4034 26.5937 35.5579 26.6724 34.2312Z" fill="#938357"/>
<path d="M45.5642 34.7861C45.5114 34.31 45.7188 34.0575 46.1815 34.0316C46.194 34.5039 45.9876 34.7535 45.5642 34.7861Z" fill="#CDBD83"/>
<path d="M47.8843 34.067C48.442 34.0901 49.0007 34.0805 49.5614 34.0929L49.7025 34.1294C50.435 34.5988 51.1569 35.1047 51.7579 35.7441C51.0657 37.2282 49.834 38.4781 48.3115 39.1049C47.3956 39.3804 46.4203 39.2883 45.4785 39.3344L45.4881 38.9667C46.1976 38.96 46.906 38.934 47.6184 38.8947C46.8369 38.5405 46.0853 38.097 45.6091 37.3616C45.5793 36.8298 45.5668 36.298 45.5697 35.7661C46.5777 35.6001 47.3102 34.8619 47.8843 34.067Z" fill="#252211"/>
<path d="M49.7035 34.1294C50.7345 34.1198 51.7751 33.9854 52.7985 34.1524C53.9111 34.5364 54.7713 35.3899 55.5854 36.2077C54.5352 37.2944 53.8488 38.647 52.9492 39.8451C52.0593 41.069 50.458 41.2793 49.2043 41.9685C48.0523 42.5925 46.8081 43.0283 45.4948 43.1301C45.4852 41.8667 45.4852 40.5996 45.4785 39.3353C46.4203 39.2892 47.3956 39.3814 48.3115 39.1059C49.835 38.479 51.0657 37.2282 51.7579 35.745C51.1569 35.1048 50.435 34.5988 49.7035 34.1294Z" fill="#D2B257"/>
<path d="M27.5824 35.9218C28.6297 36.0235 29.2864 34.9925 30.2675 34.7928C30.2742 36.2309 30.2906 37.6679 30.2742 39.106C29.4861 39.2999 28.6624 39.7194 27.8521 39.4141C27.2416 39.1712 26.6051 39.2404 26.0176 39.5159C26.5129 38.3341 27.5238 37.4971 28.2141 36.4402C28.0057 36.2635 27.7955 36.0898 27.5824 35.9218Z" fill="#E6BD62"/>
<path d="M48.0131 34.9012C49.0758 34.9896 47.4611 35.889 48.0131 34.9012V34.9012Z" fill="#696148"/>
<path d="M18.8339 39.0176C20.2422 37.9175 21.2762 36.3355 22.9994 35.6664C23.0551 36.7463 23.1962 37.8167 23.393 38.8803C23.7674 38.9687 24.1446 39.0579 24.519 39.1463C24.4202 39.32 24.2234 39.6646 24.1216 39.8384C23.009 40.6822 21.5642 41.309 21.016 42.6904C20.392 44.3838 20.4544 46.2222 20.2221 47.9914C19.8179 47.5911 19.2141 47.2589 19.2506 46.6061C19.1652 45.2766 19.5165 43.9701 19.5952 42.6511C18.9818 43.5439 18.6103 44.5681 18.2426 45.579C18.0755 46.2154 17.3296 46.3537 16.8439 46.6724C16.3447 46.8557 15.8493 47.0468 15.3501 47.2301C15.4125 46.6791 15.4912 46.131 15.5901 45.5828C16.0989 45.5339 16.6106 45.4839 17.1232 45.4282C16.5655 45.4513 16.0106 45.4839 15.4557 45.5166C15.8464 43.1167 16.1123 40.5046 17.6291 38.505C18.0659 37.9962 18.5123 37.497 18.9223 36.9652C18.8637 37.6487 18.8474 38.3312 18.8339 39.0176Z" fill="#F4ECB4"/>
<path d="M48.3345 36.1358C49.329 35.6664 48.4362 37.2052 48.3345 36.1358V36.1358Z" fill="#71694F"/>
<path d="M55.5854 36.2078C55.7131 36.346 55.8417 36.4833 55.9627 36.6311C58.9694 40.5401 59.8296 45.6941 59.4254 50.5093C58.9099 50.7887 58.3848 51.0546 57.899 51.3858C57.0648 51.957 56.6088 52.9284 55.7755 53.4996C54.3144 54.2282 52.4769 54.0545 51.1761 55.1277C50.434 55.9677 49.9291 57.0016 49.0622 57.734C49.5249 58.2034 50.0241 58.6402 50.4504 59.1452C50.6741 59.5359 50.5915 60.0379 50.8152 60.4315C51.2318 60.7665 51.708 61.0219 52.164 61.3051C50.9822 61.4827 49.7841 61.4395 48.5995 61.2821C47.4936 61.0718 46.4952 61.6987 45.5073 62.0827C45.4708 55.7642 45.5006 49.4486 45.4939 43.1301C46.8072 43.0283 48.0513 42.5915 49.2033 41.9685C50.4571 41.2793 52.0593 41.069 52.9483 39.8451C53.8488 38.6461 54.5352 37.2944 55.5854 36.2078Z" fill="#DFCD88"/>
<path d="M45.6102 37.3627C46.0864 38.098 46.8381 38.5415 47.6195 38.8957C46.9072 38.9351 46.1977 38.961 45.4893 38.9677C45.5209 38.433 45.5766 37.8983 45.6102 37.3627Z" fill="#DFCD88"/>
<path d="M26.0156 39.5168C26.6031 39.2413 27.2396 39.1722 27.8501 39.4151C28.6613 39.7204 29.485 39.2999 30.2722 39.1069C30.2655 39.9402 30.2655 40.7715 30.2722 41.6048C28.7064 41.0537 27.0754 40.6198 25.3973 40.712C25.1122 40.5085 24.8261 40.3078 24.541 40.111C25.0383 39.9296 25.5241 39.7165 26.0156 39.5168Z" fill="#DFC57C"/>
<path d="M21.0169 42.6904C21.565 41.3081 23.0098 40.6812 24.1225 39.8384C24.2271 39.9075 24.4374 40.0419 24.543 40.111C24.8281 40.3078 25.1142 40.5084 25.3993 40.712C23.9026 40.7609 22.4252 41.7266 22.2476 43.3019C21.9884 45.3044 21.2953 47.2244 21.1081 49.2336C20.9113 50.6774 22.2438 51.6229 22.6604 52.8834C22.7881 53.5697 22.8313 54.2686 23.005 54.9444C22.8044 55.8209 22.6306 56.704 22.4934 57.5901C22.2015 57.5968 21.9058 57.6064 21.614 57.616C21.3058 58.3312 20.9343 59.0271 20.701 59.7759C20.967 61.2168 21.4393 62.6184 21.7714 64.0497C21.7062 64.211 21.5708 64.5354 21.5055 64.6967C20.7903 63.9191 20.3833 62.8324 19.4377 62.2939C19.1948 61.884 18.9318 61.4894 18.6889 61.0824C17.2345 58.6076 16.2399 55.8468 15.7974 53.011C15.9318 52.174 16.093 51.3407 16.2303 50.5065C16.8342 51.7045 16.7689 53.1656 17.5762 54.258C18.1244 54.114 18.6764 53.9787 19.2342 53.8808L19.5097 54.2091C20.0876 53.372 20.6319 52.4725 20.7375 51.4357C20.3602 51.9474 20.0089 52.4792 19.6902 53.0312C19.2303 52.3093 18.686 51.62 18.4201 50.7993C18.2722 49.8508 18.3049 48.8889 18.23 47.9367C17.8854 48.0019 17.5436 48.0682 17.199 48.143L17.4447 47.8675C17.75 47.5258 18.0418 47.1754 18.3375 46.8269C17.9305 46.7741 17.5234 46.7088 17.1135 46.6858L16.8447 46.6724C17.3305 46.3537 18.0754 46.2164 18.2434 45.579C18.6111 44.5681 18.9817 43.5439 19.5961 42.6511C19.5174 43.9711 19.166 45.2766 19.2514 46.6062C19.215 47.2589 19.8198 47.5911 20.223 47.9914C20.4553 46.2222 20.3929 44.3838 21.0169 42.6904Z" fill="#F3E19D"/>
<path d="M22.2476 43.301C22.4252 41.7257 23.9017 40.76 25.3993 40.711C27.0764 40.6188 28.7084 41.0528 30.2741 41.6038V41.6988C30.2837 43.1657 30.2645 44.6296 30.2808 46.0974L30.278 46.37C29.7855 46.849 29.3199 47.3578 28.8466 47.8599C28.046 48.5424 27.0178 48.8151 26.0204 49.0714C25.9743 49.2845 25.8821 49.7117 25.837 49.9248C25.7842 50.1609 25.6825 50.6371 25.6306 50.8732C24.2223 49.5667 23.3986 47.8138 22.4626 46.1723C21.9394 45.2997 22.1391 44.2495 22.2476 43.301Z" fill="#252211"/>
<path d="M30.2732 41.6989C31.2447 42.0569 32.1183 42.6281 32.7644 43.445C32.5475 44.6891 32.3478 45.9361 32.1049 47.1774C31.3465 47.5585 30.7954 48.2045 30.5814 49.032C30.6342 48.0404 30.4729 47.0622 30.279 46.0974C30.2636 44.6306 30.2838 43.1666 30.2732 41.6989Z" fill="#DFDDD9"/>
<path d="M7.94531 42.1193C8.99267 41.9849 10.0525 42.0992 11.1028 42.0377L10.64 42.6252C12.2682 42.5033 13.9261 42.6223 15.4986 43.0783C14.0576 42.7894 12.5936 42.5667 11.1229 42.678C10.5776 42.7404 10.0919 42.4879 9.64548 42.2115C9.11748 42.1683 8.28035 42.7433 7.94531 42.1193Z" fill="#D6D6D5"/>
<path d="M21.1087 49.2326C21.2959 47.2234 21.9881 45.3035 22.2483 43.301C22.1398 44.2495 21.9401 45.2996 22.4614 46.1732C23.3974 47.8148 24.2211 49.5677 25.6294 50.8742C25.6822 50.638 25.7839 50.1619 25.8358 49.9257C26.3513 49.9488 26.8668 49.9785 27.3852 50.0112C28.1072 50.5958 28.8857 51.1209 29.5087 51.8198C30.1817 50.5392 29.2332 49.2854 29.3609 47.9693C29.2332 47.9434 28.974 47.8868 28.8454 47.8609C29.3177 47.3588 29.7843 46.85 30.2767 46.371C30.27 48.6068 30.2796 50.8454 30.2796 53.0802C27.7519 52.292 25.0534 51.3762 22.4115 52.2239C24.8835 53.3528 27.6704 53.4421 30.2767 54.1246C30.2767 54.8628 30.27 55.602 30.2633 56.3402C29.0585 56.8816 27.9622 57.6304 26.79 58.2371C25.5689 57.4164 24.679 56.2116 23.4684 55.3784C23.3532 55.2699 23.1209 55.0529 23.0057 54.9454C22.832 54.2696 22.7887 53.5698 22.6611 52.8843C22.2444 51.622 20.911 50.6764 21.1087 49.2326Z" fill="#6E6342"/>
<path d="M11.0674 46.9315C12.325 46.2356 13.7496 45.9236 15.1445 45.6481C14.9967 45.9629 14.7509 46.154 14.412 46.226C13.3224 46.5543 12.2223 46.9344 11.0674 46.9315Z" fill="#BFA64C"/>
<path d="M76.479 45.5328C77.1318 47.2531 77.0896 49.1404 77.7625 50.8568C78.4384 53.2989 79.8044 55.6624 79.5616 58.2687C79.2265 57.7234 78.9145 57.1427 78.9414 56.4832C78.9481 55.0749 78.1965 53.8471 77.8518 52.5175C77.4448 51.0536 77.0214 49.5964 76.5817 48.1449C76.5549 47.2761 76.5414 46.4026 76.479 45.5328Z" fill="#988430"/>
<path d="M30.2798 46.0974C30.4737 47.0622 30.634 48.0404 30.5822 49.032C30.5428 49.7309 30.5525 50.4336 30.5793 51.1363C30.8126 51.3302 31.0459 51.5231 31.2782 51.7171C31.1861 52.0617 31.091 52.4101 31.0056 52.7576C30.8779 53.2664 30.8577 53.7954 30.8645 54.3205C34.4424 55.5809 38.9236 56.4602 42.1502 53.9C42.2423 53.923 42.4324 53.9653 42.5246 53.9854C42.6792 55.4916 41.507 56.5457 41.0049 57.8522C38.6942 58.8006 35.8449 58.719 33.9115 60.4326C33.084 59.4611 31.8667 59.7404 30.7704 59.9439C30.5995 59.4188 30.4257 58.8966 30.2846 58.3648C30.2549 57.689 30.2616 57.016 30.2645 56.3393C30.2712 55.601 30.2779 54.8619 30.2779 54.1237C30.2808 53.7762 30.2808 53.4277 30.2808 53.0802C30.2808 50.8444 30.2712 48.6058 30.2779 46.371L30.2798 46.0974Z" fill="#E7E3DB"/>
<path d="M17.1133 46.6848C17.5232 46.7079 17.9303 46.7731 18.3373 46.8259C18.0416 47.1734 17.7498 47.5248 17.4445 47.8665C16.7687 48.214 16.0851 48.5423 15.4093 48.8908C15.3997 48.5433 15.3728 47.8435 15.3604 47.496C15.9383 47.2109 16.5191 46.9277 17.1133 46.6848Z" fill="#F5EDB6"/>
<path d="M17.1991 48.143C17.5437 48.0672 17.8855 48.0019 18.2301 47.9366C18.306 48.8889 18.2724 49.8499 18.4202 50.7993C18.6861 51.62 19.2314 52.3093 19.6903 53.0312C19.529 53.3105 19.3783 53.5928 19.2343 53.8817C18.6765 53.9806 18.1245 54.115 17.5764 54.259C16.769 53.1656 16.8343 51.7055 16.2304 50.5074C16.0922 51.3417 15.9319 52.1749 15.7975 53.012C15.6266 51.765 15.45 50.5103 15.4365 49.2499C15.8896 48.7171 16.625 48.5165 17.1991 48.143Z" fill="#F4ECB4"/>
<path d="M26.0193 49.0713C27.0167 48.815 28.0449 48.5424 28.8455 47.8599C28.9732 47.8858 29.2324 47.9424 29.3611 47.9683C29.2334 49.2845 30.1818 50.5382 29.5089 51.8188C28.8849 51.1199 28.1073 50.5948 27.3854 50.0102C26.867 49.9775 26.3515 49.9478 25.8359 49.9248C25.8811 49.7116 25.9732 49.2854 26.0193 49.0713Z" fill="#39331F"/>
<path d="M76.5806 48.146C77.0203 49.5965 77.4437 51.0547 77.8507 52.5186C78.1953 53.8482 78.947 55.076 78.9403 56.4842C78.9144 57.1437 79.2254 57.7255 79.5605 58.2698C79.3109 60.1244 80.2862 61.8409 80.1902 63.683C80.1672 64.3627 80.0885 65.0423 80.052 65.7249C79.8062 65.3044 79.5134 64.9137 79.2014 64.5432C78.8433 65.649 79.0795 67.0151 78.1771 67.8781C77.7835 67.3203 77.5867 66.394 76.7822 66.3124C75.6168 66.1252 74.5301 66.6963 73.7496 67.52C72.7224 68.6192 71.1336 68.6691 69.7349 68.8064C70.8379 67.6842 71.7537 66.3969 72.6072 65.0807C73.3685 65.3207 73.8811 64.6411 74.4485 64.2734C75.0101 63.7973 75.7454 63.6369 76.3723 63.2722C76.9041 62.4322 77.2977 61.4933 77.5214 60.5247C77.3409 59.8883 77.0424 59.2941 76.8974 58.6471C76.5691 58.7258 76.2475 58.8045 75.9221 58.8832C75.7781 58.768 75.4852 58.5415 75.3412 58.4272C76.2494 55.0817 76.5614 51.6028 76.5806 48.146Z" fill="#CCA847"/>
<path d="M13.9627 49.5839C14.4551 49.3574 14.4619 50.0044 14.0616 50.1061C13.7141 50.2837 13.2965 50.6476 12.8865 50.4738C12.8693 49.9641 13.5844 49.7711 13.9627 49.5839Z" fill="#C1A956"/>
<path d="M57.9 51.3859C58.3857 51.0547 58.9108 50.7887 59.4263 50.5094C59.0683 54.5893 57.6475 58.935 54.1876 61.4204C51.7195 63.275 48.4795 62.3823 45.6331 62.5723C45.6005 62.4514 45.5381 62.2047 45.5083 62.0837C46.4961 61.6997 47.4945 61.0729 48.6005 61.2831C49.7851 61.4405 50.9832 61.4837 52.1649 61.3061C51.7089 61.0239 51.2328 60.7676 50.8161 60.4326C50.5924 60.039 50.675 59.536 50.4513 59.1462C50.0241 58.6403 49.5259 58.2045 49.0632 57.7351C49.9301 57.0036 50.435 55.9687 51.1771 55.1288C52.4769 54.0555 54.3153 54.2293 55.7764 53.5007C56.6097 52.9285 57.0657 51.9571 57.9 51.3859Z" fill="#ECD592"/>
<path d="M19.6899 53.0303C20.0086 52.4792 20.3599 51.9474 20.7372 51.4348C20.6326 52.4725 20.0873 53.3711 19.5094 54.2082L19.2339 53.8798C19.3788 53.5919 19.5295 53.3096 19.6899 53.0303Z" fill="#D7C27C"/>
<path d="M22.4116 52.2229C25.0545 51.3762 27.7521 52.292 30.2798 53.0792C30.2798 53.4267 30.2798 53.7751 30.2769 54.1227C27.6705 53.4401 24.8836 53.3518 22.4116 52.2229Z" fill="#242110"/>
<path d="M30.8644 54.3204C30.8577 53.7953 30.8779 53.2664 31.0055 52.7576C32.0164 53.9758 33.5332 54.737 35.1057 54.8849C37.4692 54.7044 39.7309 53.1387 42.1501 53.8999C38.9226 56.4602 34.4423 55.5808 30.8644 54.3204Z" fill="#D6D6D5"/>
<path d="M23.0061 54.9445C23.1213 55.0529 23.3536 55.2699 23.4688 55.3774C23.5869 56.9757 24.5517 58.3149 25.3005 59.6809C25.9082 60.8098 26.9354 61.6306 27.9857 62.3295C28.7277 62.5359 29.5092 62.5099 30.2733 62.5723C27.9492 62.7336 25.6221 62.4312 23.3047 62.6674C23.1338 63.3729 23.0196 64.0891 23.0253 64.8177C22.6087 64.5614 22.1911 64.306 21.7716 64.0497C21.4404 62.6184 20.9671 61.2169 20.7012 59.776C20.9345 59.0272 21.305 58.3322 21.6141 57.616C21.906 57.6064 22.2017 57.5959 22.4935 57.5901C22.6317 56.7031 22.8055 55.8209 23.0061 54.9445Z" fill="#EED88B"/>
<path d="M23.4688 55.3773C24.6803 56.2106 25.5692 57.4153 26.7903 58.2361C27.1321 58.5414 27.447 58.8725 27.7753 59.1913C28.4943 59.7624 29.4131 59.9458 30.2771 60.1925C30.2771 60.9835 30.2742 61.7784 30.2742 62.5723C29.5091 62.5099 28.7276 62.5358 27.9865 62.3294C26.9363 61.6305 25.9091 60.8098 25.3014 59.6808C24.5516 58.3148 23.5868 56.9757 23.4688 55.3773Z" fill="#DFC677"/>
<path d="M26.79 58.2361C27.9622 57.6285 29.0585 56.8807 30.2633 56.3392C30.2604 57.015 30.2537 57.688 30.2835 58.3648C29.4099 58.503 28.3923 58.4272 27.776 59.1923C27.4467 58.8736 27.1318 58.5414 26.79 58.2361Z" fill="#927D49"/>
<path d="M27.7754 59.1913C28.3927 58.4262 29.4103 58.502 30.2829 58.3638C30.2762 58.9714 30.2762 59.582 30.2762 60.1925C29.4141 59.9468 28.4944 59.7624 27.7754 59.1913Z" fill="#C4A859"/>
<path d="M75.343 58.4261C75.487 58.5413 75.7797 58.7679 75.9237 58.8821C76.2492 58.8034 76.5708 58.7247 76.8991 58.646C77.0431 59.293 77.3426 59.8872 77.5231 60.5237C77.2994 61.4923 76.9058 62.4311 76.374 63.2711C75.7471 63.6359 75.0118 63.7962 74.4502 64.2723C73.8818 64.64 73.3702 65.3197 72.6089 65.0797C73.8262 63.0061 74.7161 60.7473 75.343 58.4261Z" fill="#C0993A"/>
<path d="M18.6889 61.0824C18.9318 61.4894 19.1948 61.883 19.4377 62.2939C20.1299 64.9789 21.0822 67.7916 23.0415 69.8239C23.0646 71.2849 22.9887 72.745 23.0713 74.2061C23.0742 74.7312 23.3344 75.4502 23.9804 75.3974C25.8188 75.4761 27.6639 75.4041 29.5052 75.4108C28.79 76.3564 29.3113 77.4786 29.3315 78.5327C29.3516 79.7739 30.0044 80.8731 30.1945 82.0778C29.6761 83.391 28.8092 84.5228 28.1228 85.7478C27.4364 85.8495 26.7174 85.5769 26.0579 85.7679C25.6671 86.3065 25.4502 87.0677 24.7052 87.2127C21.1859 85.0268 17.8739 82.4762 15.0352 79.4465C16.2928 76.8959 17.3555 74.1293 17.1126 71.2302C16.9225 70.0351 17.8278 69.0837 18.015 67.9577C17.9852 67.2944 17.486 66.7731 17.1875 66.2077C18.256 64.713 18.6467 62.891 18.6889 61.0824Z" fill="#E5CB7A"/>
<path d="M19.4375 62.293C20.3831 62.8315 20.7902 63.9182 21.5054 64.6958C21.5706 64.5345 21.706 64.21 21.7713 64.0487C22.1917 64.305 22.6084 64.5604 23.025 64.8167C23.0673 66.4842 23.0577 68.1545 23.0413 69.8229C21.082 67.7916 20.1306 64.979 19.4375 62.293Z" fill="#D2B159"/>
<path d="M79.2034 64.5421C79.5154 64.9127 79.8072 65.3034 80.0539 65.7238C80.2209 67.6735 80.6578 69.5973 80.6779 71.5633C80.7269 74.2157 80.7662 76.8681 80.891 79.5166C77.94 82.6384 74.5195 85.3331 70.7871 87.4536C69.372 86.4389 67.7439 87.2242 66.4536 88.0315C66.6936 87.5592 67.0507 87.1752 67.4511 86.8364C68.2421 86.1769 68.5512 85.1132 69.3778 84.4864C70.2312 83.7184 71.3736 83.2816 72.0466 82.3236C72.7263 80.8567 74.2094 80.059 75.1022 78.7487C75.9355 77.5506 77.3083 76.4476 77.1797 74.8454C77.1202 73.4698 77.3995 72.121 77.5608 70.7656C77.6069 69.7778 77.7576 68.7794 78.1781 67.877C79.0824 67.014 78.8462 65.648 79.2034 64.5421Z" fill="#BA9040"/>
<path d="M73.7514 67.519C74.5328 66.6953 75.6196 66.1241 76.7841 66.3113C77.5885 66.3929 77.7853 67.3193 78.1789 67.877C77.7585 68.7794 77.6077 69.7778 77.5617 70.7656C77.4004 72.121 77.122 73.4707 77.1805 74.8454C77.3082 76.4476 75.9364 77.5506 75.1031 78.7486C74.2103 80.058 72.7261 80.8558 72.0474 82.3235C71.5712 82.3264 71.0951 82.3331 70.6199 82.3399C71.818 80.5083 72.5696 78.4434 73.522 76.4869C73.7418 76.1654 73.6468 75.8111 73.5354 75.4761C73.3089 74.9117 73.5949 74.327 73.5652 73.7491C73.4663 73.1549 73.2176 72.6 73.0199 72.0356C72.0052 71.8484 70.9847 71.5892 69.9469 71.6478C68.6567 71.881 67.7639 72.961 66.6023 73.4727C66.0474 73.7088 65.4205 73.7683 64.905 74.0966C63.874 74.9731 63.6282 76.5023 62.433 77.2309C61.2676 78.0248 60.2404 78.9934 59.1469 79.8795C58.5037 80.4804 57.5648 80.034 56.7901 80.1617C56.1076 80.5092 55.6286 81.1466 54.9815 81.5498C54.1444 81.832 53.1527 81.714 52.4577 82.3379C51.322 83.3229 49.6506 83.0406 48.4497 83.9171C47.0903 84.6092 46.4797 86.1423 45.1799 86.9074C44.2017 87.492 43.4298 88.3416 42.6522 89.1623C42.442 88.9031 42.2318 88.6468 42.0254 88.3905C40.9425 89.0174 40.0593 90.0215 38.7921 90.2874C38.339 89.7489 37.8993 89.0923 37.1179 89.0596C37.2455 88.7966 37.3703 88.5345 37.4884 88.2686C37.2196 87.9211 36.9143 87.5765 36.4247 87.6485C35.2362 87.5045 34.042 87.7569 32.8535 87.6686C32.0462 87.2386 31.3598 86.5858 30.874 85.8111C31.787 84.7244 32.2103 83.3488 32.9716 82.1738C33.4247 81.5431 34.1562 82.0461 34.7274 82.1872C34.9636 81.642 35.2036 81.1005 35.4398 80.5591C35.7614 80.5985 36.083 80.6379 36.4046 80.6811C37.1793 79.9755 37.6324 79.0299 37.931 78.0421C38.4494 77.8875 38.9687 77.7339 39.4833 77.5755C39.4766 76.7154 39.8711 75.9772 40.4913 75.4022C44.8247 75.4387 49.1572 75.4051 53.4906 75.4185C58.4701 75.5299 63.4698 73.9056 67.4346 70.8923C68.2689 70.2721 69.0205 69.5531 69.7357 68.8043C71.1354 68.668 72.7242 68.6191 73.7514 67.519Z" fill="#D8C173"/>
<path d="M66.6014 73.4737C67.763 72.962 68.6568 71.8821 69.9461 71.6488C70.9838 71.5893 72.0043 71.8494 73.0191 72.0366C73.2159 72.6011 73.4654 73.1559 73.5643 73.7502C73.5941 74.3281 73.308 74.9117 73.5346 75.4771C73.6459 75.8121 73.741 76.1664 73.5211 76.488C72.5688 78.4444 71.8171 80.5093 70.6191 82.3409C71.0952 82.3342 71.5714 82.3274 72.0466 82.3245C71.3736 83.2826 70.2312 83.7194 69.3778 84.4874C68.5502 85.1142 68.2421 86.1779 67.451 86.8374C67.0507 87.1753 66.6926 87.5593 66.4536 88.0325C64.7563 89.1586 62.7509 89.6702 60.9423 90.5793C60.9288 90.2443 60.9163 89.9092 60.9058 89.578C59.5992 89.8699 58.2859 90.1233 57.0024 90.4939C55.8994 90.7963 55.2235 91.8033 54.2482 92.3284C53.4706 92.6144 52.5711 92.6826 51.9932 93.3526C46.0287 93.8451 39.972 93.248 34.2476 91.4913C34.8879 91.2878 35.5282 91.0708 36.158 90.8279C36.2434 90.1291 36.6274 89.5512 37.116 89.0616C37.8975 89.0942 38.3371 89.7509 38.7903 90.2894C40.0575 90.0235 40.9407 89.0194 42.0236 88.3925C42.23 88.6488 42.4402 88.9042 42.6504 89.1643C43.428 88.3435 44.1999 87.494 45.1781 86.9093C46.478 86.1443 47.0885 84.6112 48.4479 83.9191C49.6488 83.0426 51.3202 83.3249 52.4559 82.3399C53.1519 81.7159 54.1435 81.834 54.9797 81.5518C55.6267 81.1476 56.1058 80.5112 56.7883 80.1637C57.5631 80.036 58.5019 80.4824 59.1451 79.8815C60.2386 78.9954 61.2658 78.0268 62.4312 77.2329C63.6264 76.5043 63.8722 74.9741 64.9032 74.0986C65.4197 73.7693 66.0475 73.7098 66.6014 73.4737Z" fill="#E0CD81"/>
<path d="M29.505 75.4099C29.9091 75.4099 30.3124 75.4128 30.7165 75.4167C31.6525 76.5168 32.8602 77.7379 34.4029 77.7379C35.6212 77.6159 35.0163 76.1721 34.856 75.4109C36.7338 75.408 38.6144 75.4109 40.4922 75.4042C39.872 75.9782 39.4775 76.7174 39.4842 77.5775C38.9687 77.735 38.4503 77.8895 37.9319 78.0441C37.6333 79.0319 37.1802 79.9774 36.4055 80.683C36.0839 80.6408 35.7623 80.6014 35.4407 80.5611C35.2045 81.1025 34.9645 81.6439 34.7283 82.1892C34.1571 82.0481 33.4256 81.546 32.9725 82.1758C32.2112 83.3508 31.7879 84.7264 30.8749 85.8131C30.7107 85.4819 30.5495 85.1497 30.3959 84.8157C29.6442 85.144 28.8925 85.4656 28.1245 85.7478C28.8109 84.5238 29.6768 83.3911 30.1962 82.0779C30.0061 80.8731 29.3524 79.7739 29.3332 78.5327C29.312 77.4777 28.7898 76.3555 29.505 75.4099Z" fill="#C2A44D"/>
<path d="M30.7168 75.4166C32.0954 75.4099 33.4777 75.4099 34.8563 75.4099C35.0176 76.1712 35.6214 77.6159 34.4032 77.7369C32.8605 77.7378 31.6528 76.5167 30.7168 75.4166Z" fill="#D2B159"/>
<path d="M28.1237 85.7468C28.8917 85.4646 29.6433 85.143 30.395 84.8147C30.5496 85.1497 30.7099 85.4809 30.8741 85.8121C31.3598 86.5868 32.0462 87.2396 32.8536 87.6696C34.0421 87.758 35.2363 87.5055 36.4248 87.6495C36.9134 87.5775 37.2187 87.9221 37.4885 88.2696C37.3704 88.5355 37.2456 88.7986 37.1179 89.0606C36.6293 89.5493 36.2443 90.1271 36.1598 90.827C35.5291 91.0698 34.8897 91.2868 34.2494 91.4903C30.9307 90.3911 27.7368 88.9531 24.707 87.2098C25.452 87.0658 25.6689 86.3036 26.0597 85.7651C26.7182 85.5759 27.4373 85.8486 28.1237 85.7468Z" fill="#CEB052"/>
<path d="M66.4546 88.0315C67.7449 87.2242 69.373 86.4399 70.7881 87.4536C65.0732 90.7789 58.5999 92.886 51.9951 93.3526C52.573 92.6825 53.4726 92.6144 54.2502 92.3283C55.2255 91.8032 55.9014 90.7952 57.0044 90.4938C58.2879 90.1233 59.6012 89.8698 60.9077 89.578C60.9173 89.9092 60.9308 90.2442 60.9442 90.5793C62.7519 89.6692 64.7574 89.1575 66.4546 88.0315Z" fill="#D2BA6B"/>
</svg>
