<?xml version="1.0" standalone="no"?>
<svg version="1.0" xmlns="http://www.w3.org/2000/svg"
 width="96" height="96" viewBox="0 0 2387 2387">
<g transform="translate(0,2387) scale(0.1,-0.1)"
fill="#3a2089" stroke="none">
<path d="M8385 18941 c-252 -18 -296 -23 -310 -38 -19 -19 -19 -57 0 -73 9 -7
100 -23 203 -36 2629 -332 4845 -2132 5708 -4639 44 -126 154 -496 154 -515 0
-7 -884 -10 -2508 -10 l-2509 0 -61 -30 c-72 -36 -125 -92 -159 -167 -22 -48
-25 -65 -21 -141 3 -72 9 -96 33 -140 33 -60 84 -110 147 -144 l43 -23 2588
-3 c1423 -1 2587 -4 2587 -7 0 -2 7 -51 15 -107 86 -591 83 -1389 -6 -1950
l-11 -68 -2581 -2 -2582 -3 -46 -23 c-67 -33 -121 -83 -154 -143 -28 -50 -30
-62 -30 -154 0 -86 3 -107 25 -148 30 -60 105 -131 168 -160 l47 -22 2508 -3
c2099 -2 2507 -4 2507 -16 0 -22 -75 -281 -128 -441 -624 -1880 -2044 -3421
-3872 -4200 -591 -252 -1239 -426 -1875 -504 -89 -11 -168 -23 -177 -26 -39
-15 -28 -80 15 -90 122 -27 794 -44 1092 -26 1357 80 2596 514 3686 1290 1168
832 2056 2001 2544 3351 65 180 151 459 182 588 l17 72 941 0 c1040 0 1014 -2
1104 64 201 143 185 437 -29 555 l-65 36 -907 3 c-784 2 -908 4 -908 17 0 8 7
63 15 122 80 585 80 1271 0 1856 -8 59 -15 114 -15 122 0 13 123 15 903 17
l902 3 56 28 c31 15 76 48 99 73 167 181 87 468 -150 538 -48 14 -160 16
-1000 16 l-947 0 -43 158 c-195 711 -523 1424 -935 2037 -1135 1687 -2938
2801 -4950 3060 -277 35 -458 46 -825 50 -206 2 -424 0 -485 -4z"/>
</g>
</svg>
