<svg width="32" height="32" viewBox="0 0 32 32" fill="none" xmlns="http://www.w3.org/2000/svg">
<circle cx="16" cy="16" r="16" fill="#115294"/>
<path d="M18 22.5C15.495 22.5 13.32 21.08 12.235 19H18V17H11.585C11.535 16.675 11.5 16.34 11.5 16C11.5 15.66 11.535 15.325 11.585 15H18V13H12.235C13.32 10.92 15.49 9.49998 18 9.49998C19.615 9.49998 21.09 10.09 22.225 11.065L24 9.30002C22.41 7.87502 20.305 7 18 7C14.085 7 10.76 9.505 9.525 13H6V15H9.06C9.02002 15.33 9 15.66 9 16C9 16.34 9.02002 16.67 9.06 17H6V19H9.525C10.76 22.495 14.085 25 18 25C20.305 25 22.41 24.125 24 22.7L22.225 20.93C21.09 21.905 19.615 22.5 18 22.5Z" fill="white"/>
</svg>
