<svg width="96" height="96" viewBox="0 0 96 96" fill="none" xmlns="http://www.w3.org/2000/svg">
<circle cx="48" cy="48" r="48" fill="white"/>
<path d="M87.8589 47.9846C87.8589 69.9951 70.0811 87.914 47.9295 87.914C25.9189 87.914 8 69.9951 8 47.9846C8 38.8135 11.1041 30.489 16.1834 23.8576C29.5873 6.36198 54.5608 2.83464 72.0564 16.2385C75.5838 18.9193 78.5467 22.0234 80.9453 25.6918L47.5062 56.8734L39.0406 47.7024L63.1675 25.2685C58.9347 22.3055 53.5732 20.4713 47.9295 20.4713C38.6173 20.4713 30.0106 25.1274 24.9312 32.8876C21.9683 37.2615 20.4162 42.4819 20.4162 47.8435C20.4162 62.9405 32.6914 75.2156 47.7884 75.2156C62.8854 75.2156 75.3016 63.0816 75.3016 47.9846L86.448 37.6847C87.2945 41.071 87.8589 44.4572 87.8589 47.9846Z" fill="#7062FF"/>
<path d="M9.55203 37.4023C8.56438 40.9297 8.1411 44.457 8.1411 47.9844C8.1411 69.9949 26.06 87.9138 48.0705 87.9138C70.0811 87.9138 88 69.9949 88 47.9844C88 44.457 87.5767 41.0708 86.5891 37.6845L75.3016 47.9844C75.3016 63.0814 63.0265 75.3565 47.9295 75.3565C32.8325 75.3565 20.5573 63.0814 20.5573 47.9844C20.5573 44.3159 21.2628 40.6475 22.6737 37.4023H9.55203Z" fill="url(#paint0_radial)"/>
<defs>
<radialGradient id="paint0_radial" cx="0" cy="0" r="1" gradientUnits="userSpaceOnUse" gradientTransform="translate(90.615 45.3854) rotate(-175.52) scale(68.022 165.718)">
<stop stop-color="#FF5454"/>
<stop offset="1" stop-color="#7062FF"/>
</radialGradient>
</defs>
</svg>
