<svg width="40" height="40" viewBox="0 0 40 40" fill="none" xmlns="http://www.w3.org/2000/svg">
<circle cx="20" cy="20" r="20" fill="#E50915"/>
<circle cx="20" cy="20" r="20" fill="black"/>
<path d="M10.2727 6.12964H7V9.40237H10.2727V6.12964Z" fill="white"/>
<path d="M18.4544 6.12964H15.1816V9.40237H18.4544V6.12964Z" fill="white"/>
<path d="M26.6365 6.12964H23.3638V9.40237H26.6365V6.12964Z" fill="white"/>
<path d="M10.2727 14.3115H7V17.5843H10.2727V14.3115Z" fill="white"/>
<path d="M18.4544 14.3115H15.1816V17.5843H18.4544V14.3115Z" fill="white"/>
<path d="M10.2727 22.4932H7V25.7659H10.2727V22.4932Z" fill="white"/>
<path d="M33.1815 8.58424C33.6333 8.58424 33.9996 8.21793 33.9996 7.76606C33.9996 7.31419 33.6333 6.94788 33.1815 6.94788C32.7296 6.94788 32.3633 7.31419 32.3633 7.76606C32.3633 8.21793 32.7296 8.58424 33.1815 8.58424Z" fill="white"/>
<path d="M33.1815 16.7659C33.6333 16.7659 33.9996 16.3996 33.9996 15.9477C33.9996 15.4958 33.6333 15.1295 33.1815 15.1295C32.7296 15.1295 32.3633 15.4958 32.3633 15.9477C32.3633 16.3996 32.7296 16.7659 33.1815 16.7659Z" fill="white"/>
<path d="M33.1815 24.9478C33.6333 24.9478 33.9996 24.5815 33.9996 24.1296C33.9996 23.6777 33.6333 23.3114 33.1815 23.3114C32.7296 23.3114 32.3633 23.6777 32.3633 24.1296C32.3633 24.5815 32.7296 24.9478 33.1815 24.9478Z" fill="white"/>
<path d="M33.1815 33.1295C33.6333 33.1295 33.9996 32.7632 33.9996 32.3113C33.9996 31.8595 33.6333 31.4932 33.1815 31.4932C32.7296 31.4932 32.3633 31.8595 32.3633 32.3113C32.3633 32.7632 32.7296 33.1295 33.1815 33.1295Z" fill="white"/>
<path d="M24.9998 16.7659C25.4517 16.7659 25.818 16.3996 25.818 15.9477C25.818 15.4958 25.4517 15.1295 24.9998 15.1295C24.548 15.1295 24.1816 15.4958 24.1816 15.9477C24.1816 16.3996 24.548 16.7659 24.9998 16.7659Z" fill="white"/>
<path d="M24.9998 24.9478C25.4517 24.9478 25.818 24.5815 25.818 24.1296C25.818 23.6777 25.4517 23.3114 24.9998 23.3114C24.548 23.3114 24.1816 23.6777 24.1816 24.1296C24.1816 24.5815 24.548 24.9478 24.9998 24.9478Z" fill="white"/>
<path d="M24.9998 33.1295C25.4517 33.1295 25.818 32.7632 25.818 32.3113C25.818 31.8595 25.4517 31.4932 24.9998 31.4932C24.548 31.4932 24.1816 31.8595 24.1816 32.3113C24.1816 32.7632 24.548 33.1295 24.9998 33.1295Z" fill="white"/>
<path d="M16.8182 24.9478C17.2701 24.9478 17.6364 24.5815 17.6364 24.1296C17.6364 23.6777 17.2701 23.3114 16.8182 23.3114C16.3663 23.3114 16 23.6777 16 24.1296C16 24.5815 16.3663 24.9478 16.8182 24.9478Z" fill="white"/>
<path d="M16.8182 33.1295C17.2701 33.1295 17.6364 32.7632 17.6364 32.3113C17.6364 31.8595 17.2701 31.4932 16.8182 31.4932C16.3663 31.4932 16 31.8595 16 32.3113C16 32.7632 16.3663 33.1295 16.8182 33.1295Z" fill="white"/>
<path d="M8.63605 33.1295C9.08792 33.1295 9.45423 32.7632 9.45423 32.3113C9.45423 31.8595 9.08792 31.4932 8.63605 31.4932C8.18418 31.4932 7.81787 31.8595 7.81787 32.3113C7.81787 32.7632 8.18418 33.1295 8.63605 33.1295Z" fill="white"/>
</svg>
