<svg width="96" height="96" viewBox="0 0 96 96" fill="none" xmlns="http://www.w3.org/2000/svg">
<path d="M48 95.9433C74.4782 95.9433 95.9431 74.4784 95.9431 48.0002C95.9431 21.5219 74.4782 0.0570679 48 0.0570679C21.5217 0.0570679 0.0568848 21.5219 0.0568848 48.0002C0.0568848 74.4784 21.5217 95.9433 48 95.9433Z" fill="#FEFEFE"/>
<path d="M28.1929 69.0024C29.3123 69.0024 30.3178 68.3953 30.849 67.4087L37.9257 54.0142H27.0166C25.366 54.0142 24.019 52.6672 24.019 51.0166V45.0214C24.019 43.3708 25.366 42.0237 27.0166 42.0237H44.2625L57.6569 16.6198C58.1692 15.6332 59.1937 15.0261 60.313 15.0261H82.8522C74.087 5.76759 61.717 0 48 0C21.4957 0 0 21.4957 0 48C0 55.532 1.74545 62.6656 4.83795 69.0024H28.1929Z" fill="#9B1C2E"/>
<path d="M67.8071 26.9978C66.6877 26.9978 65.6822 27.6049 65.1509 28.5914L58.0743 41.9859H68.9834C70.634 41.9859 71.981 43.333 71.981 44.9835V50.9788C71.981 52.6294 70.634 53.9764 68.9834 53.9764H51.7375L38.343 79.3804C37.8308 80.3669 36.8063 80.9741 35.6869 80.9741H13.1667C21.913 90.2326 34.283 96.0002 48 96.0002C74.5043 96.0002 96 74.5045 96 48.0001C96 40.4681 94.2545 33.3345 91.162 26.9978H67.8071Z" fill="#9B1C2E"/>
</svg>
