<svg width="261" height="261" viewBox="0 0 261 261" fill="none" xmlns="http://www.w3.org/2000/svg">
<g opacity="0.9">
<circle cx="130.524" cy="130.288" r="130" fill="white"/>
<path d="M97.8924 91.4591L96.7092 92.6422L69.411 119.94L61.1292 128.222C60.7158 128.838 60.1865 129.367 59.5709 129.781C58.7362 130.333 57.7673 130.649 56.7672 130.696C55.7672 130.742 54.7733 130.516 53.8913 130.042C53.0092 129.569 52.272 128.865 51.7579 128.006C51.2438 127.147 50.9721 126.165 50.9717 125.163V99.2792C51.1957 93.2058 53.765 87.4555 58.1398 83.2368C62.5147 79.018 68.3544 76.6591 74.432 76.6558H97.8924L91.0245 83.5236L83.1178 91.4591H97.8924Z" fill="url(#paint0_linear)"/>
<path d="M209.74 106.407C209.74 106.985 209.74 107.591 209.711 108.168C209.313 122.88 203.628 136.956 193.696 147.816L116.274 225.209C111.991 229.069 106.427 231.198 100.662 231.183C99.1026 231.176 97.547 231.022 96.0165 230.721C94.4871 230.288 92.9577 229.798 91.4572 229.307C86.6016 227.673 81.8832 225.656 77.3463 223.276L76.3075 222.728C75.8909 222.41 75.554 221.999 75.3236 221.528C75.0932 221.057 74.9756 220.539 74.9801 220.015C74.9799 219.253 75.2337 218.511 75.7015 217.909L162.56 131.051C162.935 130.56 163.281 130.041 163.627 129.521C164.181 128.47 164.608 127.356 164.897 126.203C165.071 125.512 165.186 124.807 165.243 124.096C165.302 123.627 165.331 123.155 165.33 122.682C165.322 118.835 163.79 115.148 161.07 112.427C158.35 109.707 154.662 108.175 150.815 108.168H119.102L140.455 86.8139C141.096 86.3998 141.646 85.8599 142.071 85.2268C142.647 84.3203 142.957 83.2706 142.966 82.1968C142.97 81.4668 142.829 80.7433 142.553 80.0677C142.276 79.3922 141.868 78.778 141.353 78.2605C140.839 77.743 140.227 77.3323 139.552 77.052C138.878 76.7718 138.156 76.6275 137.426 76.6275H92.1209C92.1209 76.6275 96.507 71.9239 98.1519 70.106C102.047 65.8641 106.867 60.4679 112.061 56.6877C120.416 50.6096 130.167 46.7336 140.415 45.4173C150.663 44.1011 161.077 45.3869 170.697 49.1562L173.612 50.3682C178.83 52.7473 183.695 55.8352 188.069 59.5445L188.934 60.2948L189.05 60.3814C194.262 65.035 198.66 70.5258 202.064 76.6275C207.106 85.7429 209.747 95.9906 209.74 106.407Z" fill="url(#paint1_linear)"/>
<path d="M147.006 76.6558H92.4672L67.0447 102.107C66.5504 102.609 66.2153 103.246 66.0814 103.937C65.9474 104.629 66.0207 105.345 66.2918 105.995C66.563 106.645 67.0201 107.201 67.6057 107.592C68.1914 107.984 68.8796 108.194 69.584 108.196H128.653C128.682 108.196 128.682 108.196 128.682 108.167L151.623 85.255C152.224 84.3586 152.545 83.3042 152.546 82.2251C152.55 81.4951 152.41 80.7715 152.133 80.096C151.856 79.4204 151.449 78.8062 150.934 78.2887C150.419 77.7712 149.807 77.3605 149.133 77.0802C148.459 76.8 147.736 76.6558 147.006 76.6558ZM124.238 92.4114C123.779 92.4191 123.322 92.3352 122.895 92.1646C122.469 91.994 122.08 91.7401 121.752 91.4178C121.425 91.0955 121.164 90.7112 120.987 90.2872C120.809 89.8633 120.718 89.4083 120.718 88.9486C120.726 88.3254 120.906 87.7165 121.237 87.1884C121.5 86.7427 121.866 86.3666 122.305 86.0918C122.854 85.7601 123.481 85.5808 124.123 85.5724C124.978 85.6352 125.778 86.0154 126.367 86.6384C126.956 87.2614 127.29 88.0821 127.305 88.9392C127.319 89.7963 127.013 90.6278 126.445 91.2703C125.878 91.9128 125.091 92.3198 124.238 92.4114Z" fill="#E35CC7"/>
<path d="M99.5082 76.6558H92.0055L66.9292 101.703C66.4004 102.236 66.0408 102.913 65.8954 103.649C65.75 104.385 65.8254 105.148 66.1121 105.842C66.3988 106.536 66.884 107.129 67.5068 107.548C68.1297 107.967 68.8623 108.192 69.6129 108.196H81.1843L112.696 76.6558H99.5082Z" fill="#8961D0"/>
<path d="M124.123 92.4406C126.019 92.4406 127.557 90.9032 127.557 89.0067C127.557 87.1102 126.019 85.5728 124.123 85.5728C122.226 85.5728 120.689 87.1102 120.689 89.0067C120.689 90.9032 122.226 92.4406 124.123 92.4406Z" fill="#8961D0"/>
<path opacity="0.48" d="M124.123 92.4406C126.019 92.4406 127.557 90.9032 127.557 89.0067C127.557 87.1102 126.019 85.5728 124.123 85.5728C122.226 85.5728 120.689 87.1102 120.689 89.0067C120.689 90.9032 122.226 92.4406 124.123 92.4406Z" fill="url(#paint2_linear)"/>
<path opacity="0.48" d="M127.557 89.0067C127.557 88.096 127.195 87.2225 126.551 86.5785C125.907 85.9346 125.034 85.5728 124.123 85.5728C123.522 85.5706 122.932 85.7303 122.414 86.0349C121.896 86.3396 121.47 86.778 121.18 87.3042C121.8 86.7088 122.628 86.3778 123.488 86.3808C124.089 86.3825 124.678 86.5417 125.198 86.8424C125.718 87.1432 126.15 87.575 126.45 88.0948C126.751 88.6146 126.91 89.2041 126.912 89.8047C126.914 90.4052 126.758 90.9957 126.46 91.5172C126.803 91.1943 127.077 90.8054 127.265 90.374C127.454 89.9425 127.553 89.4775 127.557 89.0067Z" fill="#480061"/>
<path opacity="0.75" d="M147.006 76.6558H92.496L67.0734 102.078C66.5693 102.579 66.2255 103.218 66.0859 103.915C65.9463 104.611 66.0172 105.333 66.2895 105.99C66.5619 106.646 67.0234 107.206 67.6152 107.599C68.207 107.992 68.9024 108.2 69.6128 108.196H128.682L151.623 85.255C152.221 84.3468 152.542 83.2839 152.546 82.1962C152.546 80.7268 151.963 79.3176 150.924 78.2785C149.885 77.2395 148.475 76.6558 147.006 76.6558ZM124.209 92.4114C123.755 92.423 123.303 92.3434 122.88 92.1775C122.456 92.0115 122.071 91.7626 121.745 91.4452C121.42 91.1279 121.161 90.7486 120.985 90.3297C120.808 89.9108 120.717 89.4609 120.718 89.0063C120.707 88.3624 120.888 87.7298 121.237 87.1884C121.5 86.7427 121.866 86.3666 122.305 86.0918C122.854 85.7601 123.481 85.5808 124.123 85.5724C124.977 85.6393 125.775 86.0232 126.361 86.6485C126.947 87.2739 127.277 88.0956 127.288 88.9524C127.299 89.8091 126.989 90.639 126.42 91.279C125.85 91.919 125.062 92.3229 124.209 92.4114Z" fill="url(#paint3_linear)"/>
<path d="M99.5082 76.6558H92.0055L66.9292 101.703C66.4004 102.236 66.0408 102.913 65.8954 103.649C65.75 104.385 65.8254 105.148 66.1121 105.842C66.3988 106.536 66.884 107.129 67.5068 107.548C68.1297 107.967 68.8623 108.192 69.6129 108.196H81.1843L112.696 76.6558H99.5082Z" fill="url(#paint4_linear)"/>
<path opacity="0.43" d="M135.204 108.168L151.161 85.7173L128.682 108.168H135.204Z" fill="url(#paint5_linear)"/>
</g>
<defs>
<linearGradient id="paint0_linear" x1="50.9717" y1="103.677" x2="97.9039" y2="103.677" gradientUnits="userSpaceOnUse">
<stop stop-color="#4750D9"/>
<stop offset="0.41" stop-color="#5C45DC"/>
<stop offset="1" stop-color="#8131E1"/>
</linearGradient>
<linearGradient id="paint1_linear" x1="74.9714" y1="138.043" x2="209.734" y2="138.043" gradientUnits="userSpaceOnUse">
<stop stop-color="#E96161"/>
<stop offset="0.2" stop-color="#E65B76"/>
<stop offset="0.61" stop-color="#DF4AAC"/>
<stop offset="1" stop-color="#D739E6"/>
</linearGradient>
<linearGradient id="paint2_linear" x1="120.709" y1="88.998" x2="127.563" y2="88.998" gradientUnits="userSpaceOnUse">
<stop stop-color="#B100D3"/>
<stop offset="0.23" stop-color="#9C00C0"/>
<stop offset="0.69" stop-color="#67008E"/>
<stop offset="1" stop-color="#40006A"/>
</linearGradient>
<linearGradient id="paint3_linear" x1="66.0202" y1="92.4258" x2="152.538" y2="92.4258" gradientUnits="userSpaceOnUse">
<stop stop-color="#D0D7D3"/>
<stop offset="0.52" stop-color="#D9C5E8"/>
<stop offset="1" stop-color="#E3B1FF"/>
</linearGradient>
<linearGradient id="paint4_linear" x1="65.8154" y1="92.4229" x2="112.687" y2="92.4229" gradientUnits="userSpaceOnUse">
<stop stop-color="#B277EC"/>
<stop offset="0.77" stop-color="#9336E7"/>
<stop offset="1" stop-color="#8921E6"/>
</linearGradient>
<linearGradient id="paint5_linear" x1="128.694" y1="96.9453" x2="151.156" y2="96.9453" gradientUnits="userSpaceOnUse">
<stop stop-opacity="0.5"/>
<stop offset="0.1" stop-color="#201322" stop-opacity="0.59"/>
<stop offset="0.25" stop-color="#4A2C4E" stop-opacity="0.72"/>
<stop offset="0.4" stop-color="#6D4173" stop-opacity="0.82"/>
<stop offset="0.55" stop-color="#885190" stop-opacity="0.9"/>
<stop offset="0.7" stop-color="#9B5DA4" stop-opacity="0.95"/>
<stop offset="0.85" stop-color="#A664B0" stop-opacity="0.99"/>
<stop offset="1" stop-color="#AA66B4"/>
</linearGradient>
</defs>
</svg>
