<svg width="96" height="96" viewBox="0 0 96 96" fill="none" xmlns="http://www.w3.org/2000/svg">
<path d="M48.2801 96.0001C74.6351 96.0001 96.0001 74.6351 96.0001 48.2801C96.0001 21.925 74.6351 0.560059 48.2801 0.560059C21.925 0.560059 0.560059 21.925 0.560059 48.2801C0.560059 74.6351 21.925 96.0001 48.2801 96.0001Z" fill="#38C1AD"/>
<path d="M37.7732 75.8734C36.6703 75.8734 35.6126 75.4353 34.8327 74.6555C34.0529 73.8756 33.6147 72.8179 33.6147 71.715V43.1052C33.6147 37.1647 35.973 31.4672 40.1714 27.2644C44.3698 23.0617 50.0649 20.6975 56.0054 20.6914H58.7777C59.8806 20.6914 60.9383 21.1295 61.7182 21.9094C62.498 22.6892 62.9361 23.7469 62.9361 24.8498C62.9361 25.9527 62.498 27.0104 61.7182 27.7902C60.9383 28.5701 59.8806 29.0082 58.7777 29.0082H56.0054C54.1563 29.0094 52.3255 29.3752 50.6178 30.0845C48.9101 30.7938 47.359 31.8328 46.0531 33.1421C44.7473 34.4513 43.7124 36.0052 43.0075 37.7148C42.3027 39.4243 41.9418 41.2561 41.9454 43.1052V71.715C41.9454 72.2623 41.8374 72.8042 41.6276 73.3096C41.4177 73.815 41.1102 74.2741 40.7226 74.6604C40.3349 75.0467 39.8749 75.3527 39.3688 75.5609C38.8626 75.769 38.3204 75.8753 37.7732 75.8734Z" fill="white"/>
<path d="M58.7778 54.5406H37.7732V46.1914H58.7778C59.8806 46.1914 60.9383 46.6295 61.7182 47.4094C62.498 48.1892 62.9362 49.2469 62.9362 50.3498C62.9404 50.8986 62.836 51.4428 62.629 51.9511C62.4219 52.4594 62.1163 52.9216 61.7297 53.3112C61.3431 53.7008 60.8833 54.01 60.3766 54.221C59.87 54.432 59.3266 54.5406 58.7778 54.5406Z" fill="white"/>
</svg>
