<svg width="97" height="97" viewBox="0 0 97 97" fill="none" xmlns="http://www.w3.org/2000/svg">
<g clip-path="url(#clip0)">
<path d="M96.3999 48.7222C96.3999 22.2125 74.9096 0.722168 48.3999 0.722168C21.8902 0.722168 0.399902 22.2125 0.399902 48.7222C0.399902 75.2318 21.8902 96.7222 48.3999 96.7222C74.9096 96.7222 96.3999 75.2318 96.3999 48.7222Z" fill="url(#paint0_linear)"/>
<g filter="url(#filter0_dii)">
<path d="M69.9962 24.7222L69.7389 25.4259L68.8922 27.6778L68.33 29.1298C64.0619 40.0128 60.7414 45.1779 57.2122 45.1779C55.1782 45.1779 53.9745 44.5737 52.416 43.1556L51.9662 42.7345C50.8448 41.6686 50.3727 41.4065 49.294 41.4065C48.7317 41.4065 47.7258 42.1485 46.4529 43.8802C45.1329 45.6758 43.6853 48.3287 42.1296 51.823L41.9847 52.15L57.1265 52.1508L55.2412 56.1793H41.1015V72.7222H36.9453V24.7222H69.9962ZM64.1046 28.7521L41.1012 28.7508V44.7478C43.8574 39.8242 46.4764 37.3522 49.294 37.3522C51.4846 37.3522 52.7754 37.9875 54.4039 39.4659L54.8685 39.9003C55.9154 40.8954 56.3188 41.1237 57.2122 41.1237C58.2 41.1237 60.8163 36.8475 64.1046 28.7521Z" fill="white"/>
</g>
</g>
<defs>
<filter id="filter0_dii" x="32.4453" y="20.2222" width="43.0508" height="58" filterUnits="userSpaceOnUse" color-interpolation-filters="sRGB">
<feFlood flood-opacity="0" result="BackgroundImageFix"/>
<feColorMatrix in="SourceAlpha" type="matrix" values="0 0 0 0 0 0 0 0 0 0 0 0 0 0 0 0 0 0 127 0"/>
<feOffset dx="0.5" dy="0.5"/>
<feGaussianBlur stdDeviation="2.5"/>
<feColorMatrix type="matrix" values="0 0 0 0 0.164706 0 0 0 0 0.121569 0 0 0 0 0.129412 0 0 0 0.5 0"/>
<feBlend mode="normal" in2="BackgroundImageFix" result="effect1_dropShadow"/>
<feBlend mode="normal" in="SourceGraphic" in2="effect1_dropShadow" result="shape"/>
<feColorMatrix in="SourceAlpha" type="matrix" values="0 0 0 0 0 0 0 0 0 0 0 0 0 0 0 0 0 0 127 0" result="hardAlpha"/>
<feOffset dy="-1"/>
<feGaussianBlur stdDeviation="1"/>
<feComposite in2="hardAlpha" operator="arithmetic" k2="-1" k3="1"/>
<feColorMatrix type="matrix" values="0 0 0 0 0.164706 0 0 0 0 0.121569 0 0 0 0 0.129412 0 0 0 1 0"/>
<feBlend mode="normal" in2="shape" result="effect2_innerShadow"/>
<feColorMatrix in="SourceAlpha" type="matrix" values="0 0 0 0 0 0 0 0 0 0 0 0 0 0 0 0 0 0 127 0" result="hardAlpha"/>
<feOffset dy="-1"/>
<feGaussianBlur stdDeviation="2.5"/>
<feComposite in2="hardAlpha" operator="arithmetic" k2="-1" k3="1"/>
<feColorMatrix type="matrix" values="0 0 0 0 1 0 0 0 0 1 0 0 0 0 1 0 0 0 0.75 0"/>
<feBlend mode="normal" in2="effect2_innerShadow" result="effect3_innerShadow"/>
</filter>
<linearGradient id="paint0_linear" x1="48.3999" y1="0.722168" x2="48.3999" y2="96.7222" gradientUnits="userSpaceOnUse">
<stop stop-color="#4D3936"/>
<stop offset="0.865747" stop-color="#38211D"/>
<stop offset="1" stop-color="#271B19"/>
</linearGradient>
<clipPath id="clip0">
<rect width="96" height="96" fill="white" transform="translate(0.399902 0.722168)"/>
</clipPath>
</defs>
</svg>
