<svg width="96" height="97" viewBox="0 0 96 97" fill="none" xmlns="http://www.w3.org/2000/svg">
<circle cx="48" cy="48.2607" r="48" fill="white"/>
<path d="M38.5686 26.0743C40.6744 25.232 42.9844 24.7598 45.8687 24.5938C47.5788 24.4917 50.8843 24.5811 52.2116 24.7725C54.1897 25.0533 55.9892 25.5 57.4314 26.0743L58.2482 26.3933L62.4725 22.169L66.6968 17.9447L70.0533 21.3012L73.3971 24.6449L69.2493 28.7926C66.9648 31.0771 65.1015 32.9915 65.1015 33.0553C65.1015 33.1191 65.2419 33.5402 65.4206 33.9742C66.046 35.5567 66.6585 39.0791 66.3267 39.2067C66.1098 39.2833 56.755 39.6279 56.6529 39.5641C56.5891 39.5258 56.5508 39.3854 56.5508 39.2578C56.5508 38.709 55.7595 36.5777 55.3001 35.863C54.2663 34.2805 52.9518 33.4126 50.8715 32.9277C50.0547 32.7362 49.3783 32.6852 47.5533 32.6979C45.5113 32.7107 45.1157 32.749 44.0054 33.0425C42.4611 33.4509 41.3636 34.0252 40.5085 34.8675C39.0536 36.3097 39.1046 38.5303 40.6106 40.0108C41.8613 41.2359 44.1458 42.1038 50.31 43.6608C57.4569 45.473 60.7113 46.7876 63.1106 48.8168C65.3185 50.6928 66.8372 53.1815 67.4626 55.9765C67.7561 57.2655 67.8582 60.7879 67.654 62.0896C67.4498 63.4041 66.9648 64.8973 66.3523 66.1098L65.8545 67.1308L69.5939 70.8956L73.3333 74.6733L69.9895 77.9915L66.633 81.3097L62.6001 77.2768L58.5672 73.2439L57.9291 73.4864C56.9719 73.8437 55.0065 74.316 53.3602 74.5712C51.2416 74.903 45.5751 74.8903 43.597 74.5584C41.8103 74.2649 40.1001 73.8182 38.7856 73.3205L37.7646 72.9249L33.5275 77.1492L29.3031 81.3735L25.9466 78.0298L22.6029 74.6733L26.6996 70.5766L30.7963 66.4799L30.2858 65.4078C29.6222 64.004 28.9458 61.8599 28.614 60.1497C28.2439 58.2609 28.2566 58.1716 28.7671 58.095C29.2904 58.0057 37.1775 57.2527 37.5604 57.2527C37.8284 57.2527 37.8794 57.3676 38.1219 58.363C39.245 63.034 41.8613 65.6248 46.0984 66.314C47.5788 66.5564 50.9736 66.4161 52.2754 66.0715C53.9217 65.6376 55.0831 64.9994 56.1296 63.9529C57.4314 62.6639 57.8653 61.7068 57.9291 60.0604C57.9929 58.6183 57.7249 57.7632 56.9719 56.8698C55.734 55.4277 54.2663 54.8661 46.6599 52.9135C39.5896 51.1012 36.399 49.6846 33.9997 47.3236C32.2512 45.6007 31.0133 43.4821 30.439 41.2359C30.1837 40.215 30.1072 39.6279 30.1072 38.3006C30.0944 36.4756 30.2348 35.4674 30.7325 34.038L31.0516 33.0936L26.8272 28.8692L22.6029 24.6449L25.9466 21.2884L29.3031 17.9447L33.5275 22.169L37.7518 26.3933L38.5686 26.0743Z" fill="#020212"/>
</svg>
