<svg width="96" height="96" viewBox="0 0 96 96" fill="none" xmlns="http://www.w3.org/2000/svg">
<circle cx="48" cy="48" r="48" fill="white"/>
<path d="M64.4914 12L56.8946 19.5958C54.316 17.7583 51.1671 16.6734 47.7666 16.6734C39.0726 16.6734 32 23.746 32 32.441C32 40.2403 37.692 46.7302 45.14 47.9859V53.6885C37.692 54.9433 32 61.4341 32 69.2324C32 77.9265 39.0726 85 47.7676 85C56.4626 85 63.5352 77.9265 63.5352 69.2324C63.5352 61.4331 57.8431 54.9433 50.3952 53.6875V47.9849C57.8422 46.7302 63.5352 40.2394 63.5352 32.4401C63.5352 29.0396 62.4503 25.8907 60.6128 23.3121L68.2086 15.7153L64.4914 12ZM58.279 69.2324C58.279 75.0291 53.5633 79.7438 47.7676 79.7438C41.9709 79.7438 37.2562 75.0281 37.2562 69.2324C37.2562 63.4357 41.9719 58.721 47.7676 58.721C53.5643 58.721 58.279 63.4357 58.279 69.2324ZM47.7676 42.9524C41.9709 42.9524 37.2562 38.2368 37.2562 32.441C37.2562 26.6444 41.9719 21.9296 47.7676 21.9296C53.5643 21.9296 58.279 26.6453 58.279 32.441C58.279 38.2368 53.5643 42.9524 47.7676 42.9524Z" fill="#181EA9"/>
</svg>
