<svg width="97" height="97" viewBox="0 0 97 97" fill="none" xmlns="http://www.w3.org/2000/svg">
<path d="M48.015 96.03C74.5329 96.03 96.03 74.5329 96.03 48.015C96.03 21.497 74.5329 0 48.015 0C21.497 0 0 21.497 0 48.015C0 74.5329 21.497 96.03 48.015 96.03Z" fill="white"/>
<path fill-rule="evenodd" clip-rule="evenodd" d="M44.1835 51.7143C36.0734 51.7143 29.3945 45.2143 29.3945 37.3214C29.3945 29.4286 36.0734 22.9286 44.1835 22.9286C52.2936 22.9286 58.9725 29.4286 58.9725 37.3214C59.211 45.2143 52.5321 51.7143 44.1835 51.7143ZM44.1835 15.5C56.5872 15.5 66.367 25.25 66.367 37.0893C66.367 48.9286 56.3486 58.6786 44.1835 58.6786C31.7798 58.6786 22 48.9286 22 37.0893C22 25.25 32.0184 15.5 44.1835 15.5ZM65.4128 59.8393C66.844 61.2321 66.844 63.5536 65.4128 64.9464L50.6239 79.3393C49.1927 80.7321 46.8073 80.7321 45.3762 79.3393C43.945 77.9464 43.945 75.625 45.3762 74.2321L60.1651 59.8393C61.5963 58.4464 63.9816 58.4464 65.4128 59.8393ZM74 19.2143C74 21.3036 72.3303 22.9286 70.1835 22.9286C68.0367 22.9286 66.367 21.3036 66.367 19.2143C66.367 17.125 68.0367 15.5 70.1835 15.5C72.3303 15.5 74 17.125 74 19.2143Z" fill="url(#paint0_linear)"/>
<defs>
<linearGradient id="paint0_linear" x1="48" y1="15.5" x2="48" y2="80.3839" gradientUnits="userSpaceOnUse">
<stop stop-color="#60C7FE"/>
<stop offset="1" stop-color="#108FFF"/>
</linearGradient>
</defs>
</svg>
