<svg width="96" height="96" viewBox="0 0 96 96" fill="none" xmlns="http://www.w3.org/2000/svg">
<circle cx="48" cy="48" r="39" fill="white"/>
<path d="M60.7671 24.9671C63.5625 22.1722 68.114 22.1722 70.9095 24.9671C73.7043 27.7621 73.7043 32.3124 70.9095 35.1073C69.2895 36.7263 67.0737 37.4592 64.8243 37.1353C64.722 37.1183 64.6021 37.1183 64.5005 37.1353C63.8352 37.0502 63.1364 37.1353 62.4718 37.4421C61.5339 37.8682 60.8694 38.6521 60.5456 39.5554C60.2217 40.4416 60.2385 41.4471 60.6647 42.3503C63.0684 47.5482 61.9601 53.7687 57.9036 57.8248C53.847 61.8809 47.6251 62.9886 42.4267 60.5857C41.4888 60.1596 40.4829 60.1426 39.58 60.4834C38.6933 60.8073 37.9432 61.4719 37.517 62.3922C37.2444 62.9886 37.142 63.6022 37.1764 64.2157C37.1595 64.335 37.1595 64.4543 37.1764 64.5736C37.5514 66.8573 36.8013 69.1921 35.1653 70.8281C32.3698 73.6231 27.8183 73.6231 25.0228 70.8281C23.6594 69.4648 22.9262 67.6753 22.9262 65.7495C22.9262 63.8408 23.6762 62.0342 25.0228 60.6708C26.6421 59.0519 28.8578 58.319 31.108 58.6429C31.1423 58.6429 31.1767 58.6429 31.2271 58.6429C31.4662 58.694 31.7045 58.728 31.9604 58.728C32.4889 58.728 33.0175 58.6258 33.5117 58.3872C34.432 57.9612 35.0797 57.2113 35.4204 56.3421C35.7618 55.4389 35.7618 54.4164 35.3181 53.479C32.9151 48.2811 34.0226 42.0606 38.0799 38.0046C42.1365 33.9484 48.3584 32.8407 53.5568 35.2436C54.4772 35.6697 55.4999 35.6868 56.3867 35.3629C57.2727 35.0392 58.0403 34.3745 58.4657 33.4542C58.7896 32.7384 58.8751 31.9715 58.756 31.2387V31.2217C58.3809 28.938 59.131 26.6032 60.7671 24.9671ZM53.676 53.5983C56.7785 50.4966 56.7785 45.4691 53.676 42.3674C50.5741 39.2657 45.5453 39.2657 42.4435 42.3674C39.341 45.4691 39.341 50.4966 42.4435 53.5983C45.5453 56.7 50.5741 56.7 53.676 53.5983ZM48.0001 0C74.5055 0 96.0003 21.4905 96.0003 47.9914C96.0003 74.4923 74.523 96 48.0001 96C21.4773 96 0 74.5093 0 47.9914C0 21.4734 21.4948 0 48.0001 0ZM73.5851 37.783C77.8296 33.5394 77.8296 26.6714 73.5851 22.4278C69.3407 18.1842 62.4718 18.1842 58.2274 22.4278C56.6593 23.9957 55.671 25.9385 55.2616 27.9666C47.574 25.0694 38.7444 26.9099 32.864 32.7895C26.9835 38.6691 25.142 47.4971 28.0574 55.2002C26.0119 55.6093 24.0688 56.5978 22.4832 58.1827C18.2387 62.4262 18.2387 69.2943 22.4832 73.5379C26.7276 77.7814 33.5972 77.7814 37.8409 73.5379C39.4265 71.9529 40.4317 69.9761 40.8243 67.931C43.2104 68.8171 45.6988 69.2602 48.1705 69.2602C53.676 69.2602 59.1134 67.13 63.1539 63.0909C69 57.2453 70.8583 48.4685 68.0117 40.7824C70.0396 40.3564 72.0002 39.3679 73.5851 37.783Z" fill="#474DFF"/>
</svg>
