<svg width="36" height="36" viewBox="0 0 996 996" fill="none" xmlns="http://www.w3.org/2000/svg">
<path d="M498 996C773.038 996 996 773.038 996 498C996 222.962 773.038 0 498 0C222.962 0 0 222.962 0 498C0 773.038 222.962 996 498 996Z" fill="white"/>
<path d="M668.525 207.334C691.778 207.334 711.154 187.957 711.154 162.766C711.154 137.576 691.778 118.198 668.525 118.198C645.272 118.198 625.893 137.576 625.893 162.766C625.893 186.019 645.272 207.334 668.525 207.334ZM682.088 319.724C701.465 319.724 718.906 302.284 718.906 282.906C718.906 261.591 703.403 246.089 682.088 246.089C662.71 246.089 645.27 263.529 645.27 282.906C645.27 302.284 660.773 319.724 682.088 319.724ZM780.912 335.226C800.29 335.226 817.73 317.786 817.73 298.408C817.73 279.031 802.228 261.591 780.912 261.591C759.597 261.591 744.095 279.031 744.095 298.408C744.095 317.786 761.535 335.226 780.912 335.226ZM769.286 432.113C786.726 432.113 800.29 418.548 800.29 401.109C800.29 383.669 786.726 370.105 769.286 370.105C751.847 370.105 738.283 383.669 738.283 401.109C738.283 418.548 751.847 432.113 769.286 432.113ZM848.734 463.117C866.173 463.117 879.737 449.552 879.737 432.113C879.737 414.673 866.173 401.109 848.734 401.109C831.294 401.109 817.73 414.673 817.73 432.113C817.73 449.552 833.232 463.117 848.734 463.117ZM668.525 418.548C685.964 418.548 701.466 403.047 699.528 385.607C699.528 368.167 685.964 352.665 668.525 352.665C651.085 352.665 637.519 366.229 637.519 385.607C637.519 404.984 651.085 418.548 668.525 418.548ZM639.458 496.058C654.96 496.058 666.585 484.432 666.585 468.93C666.585 453.428 654.96 441.801 639.458 441.801C623.956 441.801 612.329 453.428 612.329 468.93C612.329 484.432 623.956 496.058 639.458 496.058ZM740.22 509.622C755.722 509.622 767.349 497.996 767.349 482.494C767.349 466.992 755.722 455.366 740.22 455.366C724.718 455.366 713.091 466.992 713.091 482.494C713.091 497.996 724.718 509.622 740.22 509.622ZM819.667 540.626C835.169 540.626 846.796 529 846.796 513.498C846.796 497.996 835.169 486.369 819.667 486.369C804.165 486.369 792.538 497.996 792.538 513.498C792.538 529 804.165 540.626 819.667 540.626ZM780.912 600.696C792.539 600.696 804.167 591.008 804.167 577.443C804.167 563.879 794.477 554.19 780.912 554.19C767.348 554.19 757.66 563.879 757.66 577.443C757.66 591.008 767.348 600.696 780.912 600.696ZM699.528 569.692C713.092 569.692 722.78 560.004 722.78 546.439C722.78 532.875 713.092 523.187 699.528 523.187C685.964 523.187 676.274 532.875 676.274 546.439C676.274 558.066 687.902 569.692 699.528 569.692ZM600.703 554.19C614.268 554.19 623.955 544.502 623.955 530.938C623.955 517.373 614.268 507.685 600.703 507.685C587.139 507.685 577.449 517.373 577.449 530.938C577.449 544.502 587.139 554.19 600.703 554.19ZM654.959 610.385C666.585 610.385 674.336 600.696 674.336 591.008C674.336 579.381 664.648 571.63 654.959 571.63C643.332 571.63 635.581 581.319 635.581 591.008C635.581 600.696 645.27 610.385 654.959 610.385ZM736.346 641.389C747.972 641.389 755.723 631.7 755.723 620.074C755.723 608.447 746.034 598.759 736.346 598.759C724.719 598.759 716.968 608.447 716.968 620.074C715.031 631.7 724.719 641.389 736.346 641.389ZM689.839 664.642C699.528 664.642 705.34 656.891 705.34 649.14C705.34 639.451 697.59 633.638 689.839 633.638C680.151 633.638 674.336 641.389 674.336 649.14C674.336 656.891 682.088 664.642 689.839 664.642ZM647.207 678.206C654.958 678.206 660.773 672.393 660.773 662.704C660.773 654.953 654.958 647.202 647.207 647.202C639.457 647.202 633.644 653.015 633.644 662.704C633.644 670.455 639.457 676.268 647.207 678.206ZM610.392 635.576C620.081 635.576 627.83 627.825 627.83 618.136C627.83 608.447 620.081 600.696 610.392 600.696C600.703 600.696 592.952 608.447 592.952 618.136C592.952 627.825 600.703 635.576 610.392 635.576ZM556.134 594.883C567.761 594.883 575.512 585.194 575.512 575.506C575.512 565.817 565.823 556.128 556.134 556.128C544.508 556.128 536.757 565.817 536.757 575.506C534.819 587.132 544.508 594.883 556.134 594.883ZM718.906 848.728C742.159 848.728 761.535 829.35 761.535 806.097C761.535 782.844 742.159 763.467 718.906 763.467C695.653 763.467 676.274 782.844 676.274 806.097C676.274 829.35 695.653 848.728 718.906 848.728ZM610.392 792.533C629.77 792.533 645.27 777.031 645.27 755.716C645.27 736.338 629.77 718.899 610.392 718.899C591.015 718.899 575.512 734.401 575.512 755.716C573.574 777.031 589.077 792.533 610.392 792.533ZM548.383 871.98C567.76 871.98 585.201 856.478 585.201 835.163C585.201 815.786 569.698 798.346 548.383 798.346C529.005 798.346 511.565 813.848 511.565 835.163C511.565 856.478 527.068 871.98 548.383 871.98ZM529.005 726.65C546.445 726.65 560.009 713.085 560.009 695.646C560.009 678.206 546.445 664.642 529.005 664.642C511.566 664.642 498.002 678.206 498.002 695.646C498.002 711.148 511.566 726.65 529.005 726.65ZM466.998 806.097C484.438 806.097 498.002 792.533 498.002 775.093C498.002 757.654 484.438 744.089 466.998 744.089C449.559 744.089 435.995 757.654 435.995 775.093C435.995 792.533 449.559 806.097 466.998 806.097ZM399.177 862.292C416.617 862.292 430.181 848.727 430.181 831.288C430.181 813.848 416.617 800.284 399.177 800.284C381.738 800.284 368.174 813.848 368.174 831.288C368.174 846.79 383.675 862.292 399.177 862.292ZM344.919 790.595C360.421 790.595 372.048 778.969 372.048 763.467C372.048 747.965 360.421 736.338 344.919 736.338C329.418 736.338 317.791 747.965 317.791 763.467C317.791 778.969 329.418 790.595 344.919 790.595ZM410.803 734.401C426.305 734.401 437.932 722.774 437.932 707.272C437.932 691.77 426.305 680.144 410.803 680.144C395.301 680.144 383.674 691.77 383.674 707.272C383.674 722.774 397.239 734.401 410.803 734.401ZM472.81 654.953C488.312 654.953 499.939 643.327 499.939 627.825C499.939 612.323 488.312 600.696 472.81 600.696C457.308 600.696 445.684 612.323 445.684 627.825C447.621 641.389 459.246 654.953 472.81 654.953ZM377.863 664.642C391.427 664.642 401.115 654.953 401.115 641.389C401.115 627.825 391.427 618.136 377.863 618.136C364.298 618.136 354.608 627.825 354.608 641.389C354.608 654.953 366.236 664.642 377.863 664.642ZM311.979 720.836C325.543 720.836 335.231 711.148 335.231 697.583C335.231 684.019 325.543 674.331 311.979 674.331C298.415 674.331 288.724 684.019 288.724 697.583C288.724 709.21 298.415 720.836 311.979 720.836ZM296.476 656.891C308.102 656.891 315.853 647.202 315.853 637.513C315.853 625.887 306.165 618.136 296.476 618.136C286.787 618.136 277.098 627.825 277.098 637.513C277.098 647.202 284.849 656.891 296.476 656.891ZM294.539 598.759C304.227 598.759 311.979 591.008 311.979 581.319C311.979 571.63 304.227 563.879 294.539 563.879C284.85 563.879 277.098 571.63 277.098 581.319C279.036 591.008 286.788 598.759 294.539 598.759ZM304.227 552.253C311.978 552.253 317.791 546.439 317.791 536.751C317.791 527.062 311.978 521.249 304.227 521.249C296.476 521.249 290.664 527.062 290.664 536.751C290.664 546.439 296.476 552.253 304.227 552.253ZM362.36 544.502C372.048 544.502 379.8 536.751 379.8 527.062C379.8 517.373 372.048 509.622 362.36 509.622C352.671 509.622 344.919 517.373 344.919 527.062C344.919 536.751 352.671 544.502 362.36 544.502ZM426.306 519.311C437.933 519.311 445.684 509.622 445.684 499.934C445.684 488.307 435.995 480.556 426.306 480.556C414.68 480.556 406.929 490.245 406.929 499.934C404.991 511.56 414.68 519.311 426.306 519.311C424.369 519.311 424.369 519.311 426.306 519.311ZM439.87 585.194C453.434 585.194 463.122 575.506 463.122 561.941C463.122 548.377 453.434 538.689 439.87 538.689C426.305 538.689 416.618 548.377 416.618 561.941C416.618 573.568 428.243 583.257 439.87 585.194ZM362.36 600.696C373.986 600.696 381.737 591.008 381.737 581.319C381.737 569.692 372.048 561.941 362.36 561.941C350.733 561.941 342.982 571.63 342.982 581.319C342.982 592.945 352.671 600.696 362.36 600.696ZM145.333 571.63C168.586 571.63 187.962 552.253 187.962 529C187.962 505.747 168.586 486.369 145.333 486.369C122.08 486.369 102.701 505.747 102.701 529C102.701 552.253 122.08 571.63 145.333 571.63ZM242.22 494.12C261.598 494.12 279.036 476.681 279.036 457.303C279.036 435.988 263.536 420.486 242.22 420.486C220.905 420.486 205.403 437.926 205.403 457.303C205.403 478.618 220.905 494.12 242.22 494.12ZM203.465 399.171C222.843 399.171 240.281 381.731 240.281 362.354C240.281 341.039 224.781 325.537 203.465 325.537C184.088 325.537 166.648 342.976 166.648 362.354C166.648 381.731 184.088 399.171 203.465 399.171ZM298.413 354.603C315.853 354.603 329.419 341.039 329.419 323.599C329.419 306.159 315.853 292.595 298.413 292.595C280.973 292.595 267.41 306.159 267.41 323.599C267.41 341.039 280.973 354.603 298.413 354.603ZM335.231 449.552C352.67 449.552 366.234 435.988 366.234 418.548C366.234 401.109 352.67 387.545 335.231 387.545C317.791 387.545 304.227 401.109 304.227 418.548C304.227 435.988 317.791 449.552 335.231 449.552ZM420.492 428.237C435.994 428.237 447.621 416.611 447.621 401.109C447.621 385.607 435.994 373.98 420.492 373.98C404.99 373.98 393.363 385.607 393.363 401.109C393.363 416.611 406.928 428.237 420.492 428.237ZM494.127 430.175C507.692 430.175 517.379 420.486 517.379 406.922C517.379 393.358 507.692 383.669 494.127 383.669C480.563 383.669 470.873 393.358 470.873 406.922C470.873 420.486 482.501 430.175 494.127 430.175ZM556.134 443.739C565.823 443.739 575.512 434.05 575.512 424.362C575.512 414.673 567.761 404.984 556.134 404.984C544.508 404.984 536.757 414.673 536.757 424.362C536.757 434.05 544.508 443.739 556.134 443.739ZM563.886 372.043C573.575 372.043 581.326 364.292 581.326 354.603C581.326 344.914 573.575 337.163 563.886 337.163C554.197 337.163 546.446 344.914 546.446 354.603C546.446 364.292 554.197 372.043 563.886 372.043ZM517.379 348.79C529.006 348.79 536.757 339.101 536.757 329.412C536.757 317.786 529.006 310.035 517.379 310.035C505.753 310.035 498.002 319.724 498.002 329.412C496.064 339.101 505.753 348.79 517.379 348.79C517.379 348.79 515.442 348.79 517.379 348.79ZM457.31 333.288C470.874 333.288 480.562 323.599 480.562 310.035C480.562 296.471 470.874 286.782 457.31 286.782C443.746 286.782 434.055 296.471 434.055 310.035C434.055 323.599 443.746 333.288 457.31 333.288ZM383.674 333.288C399.176 333.288 410.803 321.661 410.803 306.159C410.803 290.657 399.176 279.031 383.674 279.031C368.172 279.031 356.546 290.657 356.546 306.159C356.546 321.661 368.172 333.288 383.674 333.288ZM284.85 267.405C302.29 267.405 315.853 253.84 315.853 236.401C315.853 218.961 302.29 205.397 284.85 205.397C267.41 205.397 253.846 218.961 253.846 236.401C253.846 253.84 267.41 267.405 284.85 267.405ZM370.111 248.027C385.613 248.027 397.24 236.401 397.24 220.899C397.24 205.397 385.613 193.77 370.111 193.77C354.609 193.77 342.982 205.397 342.982 220.899C342.982 236.401 354.609 248.027 370.111 248.027ZM441.807 248.027C455.371 248.027 465.061 238.338 465.061 224.774C465.061 211.21 455.371 201.521 441.807 201.521C428.243 201.521 418.555 211.21 418.555 224.774C420.493 238.338 430.18 248.027 441.807 248.027ZM503.816 261.591C515.443 261.591 523.194 251.903 523.194 242.214C523.194 232.525 515.443 222.836 503.816 222.836C492.19 222.836 484.439 232.525 484.439 242.214C484.439 251.903 492.19 261.591 503.816 261.591ZM550.32 286.782C560.009 286.782 567.76 279.031 567.76 269.342C567.76 259.654 560.009 251.903 550.32 251.903C540.631 251.903 532.882 259.654 532.882 269.342C532.882 279.031 540.631 286.782 550.32 286.782ZM583.263 313.91C591.014 313.91 596.827 308.097 596.827 300.346C596.827 292.595 591.014 286.782 583.263 286.782C575.512 286.782 569.698 292.595 569.698 300.346C569.698 308.097 575.512 313.91 583.263 313.91Z" fill="black"/>
</svg>
