<svg width="96" height="96" viewBox="0 0 96 96" fill="none" xmlns="http://www.w3.org/2000/svg">
<circle cx="49.5" cy="47.5" r="31.5" fill="#0A0806"/>
<path d="M48 0C21.5631 0 0 21.5631 0 48C0 74.4369 21.5631 96 48 96C74.4369 96 96 74.4369 96 48C96 21.5631 74.4369 0 48 0ZM68.0862 37.2185H65.1323L55.9754 47.8523L65.1323 58.4862H68.0862V67.0523H48.7385V58.4862H51.6923L45.6369 51.6923H43.1262V58.7815H46.5231V67.3477H27.7662V58.7815H31.9015V48.1477V37.3662H27.7662V28.8H32.4923V32.0492H35.0031V28.8H39.5815V32.0492H42.0923V28.8H46.6708V37.2185H43.2738V44.3077H45.7846L51.84 37.2185H48.8862V28.8H68.3815L68.0862 37.2185Z" fill="#48DBB4"/>
</svg>
