<svg width="96" height="96" viewBox="0 0 96 96" fill="none" xmlns="http://www.w3.org/2000/svg">
<mask id="mask0" mask-type="alpha" maskUnits="userSpaceOnUse" x="0" y="0" width="96" height="96">
<circle cx="48" cy="48" r="48" fill="#C4C4C4"/>
</mask>
<g mask="url(#mask0)">
<circle cx="48" cy="48" r="48" fill="white"/>
<path d="M44.5052 48.2732L71.8155 63.9166C72.035 64.0485 72.2857 64.1196 72.5417 64.1225C72.7978 64.1255 73.05 64.0602 73.2725 63.9334C73.495 63.8066 73.6797 63.6228 73.8076 63.401C73.9355 63.1792 74.002 62.9273 74.0004 62.6712V33.8533C74.0036 33.5968 73.9378 33.3441 73.8099 33.1218C73.682 32.8994 73.4967 32.7155 73.2734 32.5893C73.05 32.4631 72.7969 32.3993 72.5404 32.4045C72.2839 32.4097 72.0336 32.4837 71.8155 32.6189L44.5052 48.2732Z" fill="#31CB9E"/>
<path d="M71.2366 25.6929L52.5672 11.9612C52.3731 11.8129 52.1455 11.7147 51.9045 11.6753C51.6635 11.6359 51.4164 11.6566 51.1853 11.7354C50.9541 11.8143 50.746 11.9489 50.5792 12.1274C50.4125 12.3059 50.2924 12.5227 50.2294 12.7587L43.4127 43.3463L71.0727 28.0525C71.2832 27.9443 71.4621 27.7835 71.5924 27.5859C71.7226 27.3883 71.7997 27.1604 71.8162 26.9243C71.8326 26.6882 71.788 26.4519 71.6864 26.2381C71.5849 26.0243 71.43 25.8403 71.2366 25.7038" fill="#31CB9E"/>
<path d="M52.5453 84.5742L71.2366 70.8425C71.4301 70.7043 71.5851 70.519 71.687 70.3041C71.789 70.0893 71.8344 69.852 71.8191 69.6147C71.8038 69.3774 71.7282 69.1479 71.5995 68.948C71.4708 68.748 71.2933 68.5842 71.0836 68.472L43.4127 53.1781L50.2294 83.7658C50.286 84.0034 50.4007 84.2233 50.5632 84.4057C50.7257 84.588 50.931 84.7272 51.1607 84.8106C51.3903 84.894 51.637 84.919 51.8787 84.8835C52.1204 84.8479 52.3495 84.7529 52.5453 84.6069" fill="#31CB9E"/>
<path d="M37.4045 47.7161L44.5052 14.4958C44.5594 14.2206 44.5303 13.9355 44.4215 13.6769C44.3128 13.4184 44.1293 13.1982 43.8947 13.0445C43.66 12.8908 43.3849 12.8106 43.1044 12.8142C42.824 12.8178 42.5509 12.9051 42.3203 13.0647L24.1316 27.0149C23.6711 27.3682 23.2983 27.8232 23.0425 28.3443C22.7867 28.8654 22.6547 29.4385 22.6569 30.019V65.4133C22.6462 66.0029 22.7741 66.5869 23.0302 67.1181C23.2864 67.6494 23.6636 68.1131 24.1316 68.472L42.2329 82.3675C42.4636 82.5272 42.7366 82.6144 43.017 82.618C43.2975 82.6217 43.5727 82.5415 43.8073 82.3878C44.0419 82.2341 44.2254 82.0139 44.3341 81.7553C44.4429 81.4968 44.472 81.2117 44.4178 80.9365L37.4045 47.7161Z" fill="#31CB9E"/>
</g>
</svg>
