<svg width="334" height="334" viewBox="0 0 334 334" fill="none" xmlns="http://www.w3.org/2000/svg">
<g clip-path="url(#clip0)">
<circle cx="166.959" cy="166.525" r="166.525" fill="black"/>
<path d="M274.234 101.375C270.591 98.5029 266.248 94.5801 258.332 93.5994C250.907 92.6187 243.342 97.5922 238.228 100.885C233.114 104.177 223.448 113.844 219.455 116.786C215.462 119.728 205.235 122.46 188.773 132.337C172.311 142.214 107.726 183.683 107.726 183.683L124.537 183.893L49.5843 222.491H57.0796L46.292 230.687C46.292 230.687 55.8187 233.208 63.8044 228.165V230.476C63.8044 230.476 153.048 195.312 170.28 204.418L159.772 207.5C160.683 207.5 177.635 208.621 177.635 208.621C177.635 208.621 178.195 219.198 188.423 225.993C198.65 232.718 198.86 236.431 198.86 236.431C198.86 236.431 193.536 238.602 193.536 241.334C193.536 241.334 201.382 238.952 208.667 239.163C215.952 239.373 222.327 241.334 222.327 241.334C222.327 241.334 221.766 238.392 214.691 236.431C207.546 234.399 200.611 226.764 197.179 222.561C193.747 218.358 191.365 210.863 194.307 203.367C196.759 196.993 205.305 193.49 222.957 184.384C243.762 173.596 248.525 165.61 251.467 159.376C254.409 153.142 258.753 140.743 261.204 134.929C264.286 127.433 268.069 123.441 271.221 121.059C274.304 118.677 288.384 113.423 288.384 113.423C288.384 113.423 277.666 104.107 274.234 101.375Z" fill="white"/>
</g>
<defs>
<clipPath id="clip0">
<rect width="333.049" height="333.049" fill="white" transform="translate(0.434326)"/>
</clipPath>
</defs>
</svg>
