<svg id="Layer_1" data-name="Layer 1" xmlns="http://www.w3.org/2000/svg" viewBox="0 0 154.95 154.95"><title>litecoin-logo</title><path d="M78.69,80l-8,27.2h43a2.21,2.21,0,0,1,2.13,2.82L112.14,123a3,3,0,0,1-2.84,2.14l-65.85,0L54.58,87.51,42.26,91.32l2.64-8.94,12.33-3.82L72.86,25.72a3,3,0,0,1,2.84-2.14H92.37a2.22,2.22,0,0,1,2.13,2.83L81.34,71.08l12.32-3.82L91,76.2,78.69,80h0Zm-1.32,74.91h0.22A77.48,77.48,0,0,0,77.52,0H77.43A77.47,77.47,0,0,0,0,77.45v0a77.47,77.47,0,0,0,77.36,77.45h0Z" style="fill:#345d9d"/></svg>