<svg width="96" height="96" viewBox="0 0 96 96" fill="none" xmlns="http://www.w3.org/2000/svg">
<path d="M48 96C74.5097 96 96 74.5097 96 48C96 21.4903 74.5097 0 48 0C21.4903 0 0 21.4903 0 48C0 74.5097 21.4903 96 48 96Z" fill="#070E39"/>
<path fill-rule="evenodd" clip-rule="evenodd" d="M58.0559 22.625C57.7994 22.969 56.8294 24.9375 55.9004 27C51.4924 36.7885 48.3614 43.035 47.9809 42.7995C47.7504 42.6575 45.6134 39.7435 43.2314 36.324C40.8499 32.905 38.5309 29.965 38.0784 29.7915C37.6259 29.618 36.8774 29.8185 36.4149 30.237C35.9524 30.6555 32.6659 35.314 29.1119 40.589C24.2789 47.763 21.1644 51.759 16.7544 56.445C12.5899 60.8695 10.9014 63.0095 11.0044 63.73C11.1494 64.7445 11.3419 64.7505 47.3454 64.8785C85.0924 65.012 85.2794 65.0025 84.7384 62.935C84.6114 62.4485 82.0304 58.27 79.0029 53.65C75.9759 49.03 71.3684 41.425 68.7644 36.75C61.3014 23.3515 60.4469 22 59.4379 22C58.9344 22 58.3129 22.2815 58.0559 22.625ZM65.2754 37.2025C67.8194 41.703 69.9004 45.6305 69.9004 45.93C69.9004 46.5135 68.9534 46.3835 63.4004 45.0375L60.1504 44.25L60.0124 36.625C59.9364 32.4315 60.0489 29.0045 60.2624 29.0095C60.4759 29.015 62.7314 32.702 65.2754 37.2025ZM58.4004 37.4315V44.3635L54.0254 49.722L49.6504 55.0805L49.5044 51.8775C49.3659 48.8295 49.5189 48.339 52.6804 41.7125C54.5074 37.883 56.4214 33.7935 56.9334 32.625C57.4459 31.4565 57.9854 30.5 58.1324 30.5C58.2799 30.5 58.4004 33.619 58.4004 37.4315ZM43.2754 41.8735L47.9004 48.2075V51.354C47.9004 53.561 47.7139 54.487 47.2754 54.4555C46.9319 54.4315 44.4594 51.9835 41.7814 49.0155L36.9129 43.62L37.3909 39.935C37.6544 37.908 37.8764 36.0815 37.8849 35.875C37.9279 34.835 39.0404 36.073 43.2754 41.8735ZM35.9004 40.214V43.4275L32.8709 45.268C31.2049 46.28 29.7094 46.976 29.5484 46.8145C29.2819 46.5485 35.2834 37 35.7164 37C35.8174 37 35.9004 38.446 35.9004 40.214ZM37.7179 46.794C39.3384 48.9185 39.6164 48.2995 33.5139 56.147L29.1909 61.706L27.2989 57.728C26.2589 55.54 25.4619 53.19 25.5289 52.5055C25.6254 51.518 26.6819 50.6225 30.6504 48.164C33.4004 46.4605 35.8079 45.052 35.9999 45.0335C36.1924 45.015 36.9654 45.8075 37.7179 46.794ZM67.8189 47.513C69.8364 48.012 71.6074 48.54 71.7539 48.687C72.1644 49.097 71.8999 59.699 71.4689 60.131C71.0829 60.5175 61.4004 47.3855 61.4004 46.476C61.4004 45.957 61.7629 46.0155 67.8189 47.513ZM61.5224 49.625C68.7834 59.9415 69.9004 61.56 69.9004 61.769C69.9004 61.896 67.6249 62 64.8444 62C59.8694 62 59.7084 61.9625 54.8444 59.6745C52.1249 58.3955 49.9004 57.2075 49.9004 57.034C49.9004 56.517 58.4719 46.5 58.9149 46.5C59.1394 46.5 60.3129 47.9065 61.5224 49.625ZM46.9004 57.185C46.9004 57.439 46.0979 58.6265 45.1169 59.8235L43.3334 62H37.6169C34.0924 62 31.9004 61.806 31.9004 61.4935C31.9004 61.2155 33.7519 58.5165 36.0154 55.496L40.1304 50.005L43.5154 53.364C45.3769 55.2115 46.9004 56.931 46.9004 57.185ZM77.4059 57.0085C80.8034 62.0605 80.7809 62.1445 76.1044 61.902L73.1704 61.75L73.3334 57.5C73.4854 53.5265 73.6569 52.5 74.1669 52.5C74.2814 52.5 75.7389 54.529 77.4059 57.0085ZM25.6384 57.6175C26.5599 59.6075 27.2079 61.4075 27.0779 61.6175C26.7639 62.125 16.9004 62.113 16.9004 61.6055C16.9004 61.1725 23.3334 54 23.7219 54C23.8544 54 24.7169 55.628 25.6384 57.6175ZM52.3194 59.875L55.6504 61.75L53.0254 61.901C51.5819 61.9845 49.2314 61.9845 47.8024 61.901L45.2039 61.75L46.8539 59.875C47.7614 58.844 48.6129 58 48.7459 58C48.8789 58 50.4869 58.844 52.3194 59.875Z" fill="white"/>
</svg>
