<?xml version="1.0" standalone="no"?>
<!DOCTYPE svg PUBLIC "-//W3C//DTD SVG 20010904//EN"
 "http://www.w3.org/TR/2001/REC-SVG-20010904/DTD/svg10.dtd">
<svg version="1.0" xmlns="http://www.w3.org/2000/svg"
 width="96" height="96" viewBox="0 0 580.000000 580.000000"
 preserveAspectRatio="xMidYMid meet">
<g transform="translate(0.000000,580.000000) scale(0.100000,-0.100000)"
fill="#000000" stroke="none">
<path d="M2570 5784 c-533 -63 -999 -249 -1430 -572 -134 -100 -423 -384 -521
-512 -350 -455 -546 -942 -609 -1515 -15 -137 -12 -462 6 -615 62 -537 250
-998 592 -1455 102 -135 388 -419 532 -526 328 -246 674 -411 1065 -508 234
-58 429 -81 695 -81 500 0 924 105 1368 340 268 141 446 274 678 505 227 226
377 426 514 687 234 442 340 870 340 1368 0 674 -213 1283 -638 1825 -91 115
-377 393 -504 488 -427 321 -908 512 -1438 572 -165 18 -490 18 -650 -1z m282
-2079 c0 -159 2 -376 3 -482 l3 -192 -53 -16 -53 -15 -169 172 c-93 95 -214
219 -269 276 l-99 104 -11 86 c-8 62 -8 91 -1 100 42 53 238 162 369 206 69
23 212 52 260 52 17 0 18 -18 20 -291z m263 274 c86 -14 209 -55 295 -99 66
-33 164 -94 188 -117 7 -7 21 -18 31 -25 14 -10 20 -33 25 -108 l7 -95 -273
-273 -273 -272 -51 21 -51 22 -6 126 c-8 155 -9 826 -1 833 3 3 13 4 22 2 9
-1 49 -8 87 -15z m2430 -100 l7 -92 -498 -498 -499 -499 -86 0 c-47 0 -88 -2
-90 -5 -3 -2 -1 -39 4 -81 l10 -76 -314 -314 -314 -314 -278 278 -278 278 -8
89 c-7 69 -5 96 6 123 12 29 13 50 4 115 -6 44 -11 99 -11 121 0 41 3 44 458
498 l457 458 705 3 c388 1 708 3 711 5 4 1 10 -39 14 -89z m-3178 -541 l283
-283 0 -87 c0 -64 -5 -98 -20 -133 -20 -46 -20 -47 0 -87 14 -29 20 -64 21
-130 l2 -90 -444 -444 -444 -444 -732 0 -731 0 -7 86 -8 86 499 499 499 499
78 0 78 0 -2 81 -2 81 314 314 c173 172 315 318 317 324 2 5 7 10 10 10 4 0
134 -127 289 -282z m1281 -1367 l4 -88 -44 -35 c-157 -126 -400 -228 -543
-228 l-52 0 -7 77 c-3 42 -6 257 -6 479 l0 403 43 19 42 20 280 -279 280 -279
3 -89z m-799 602 c3 -2 4 -218 4 -481 l-1 -477 -29 1 c-187 7 -362 69 -534
190 -85 59 -89 68 -89 178 l0 61 281 281 281 281 42 -15 c22 -9 43 -17 45 -19z"/>
</g>
</svg>
