<svg width="96" height="96" data-name="Layer 1" xmlns="http://www.w3.org/2000/svg" viewBox="0 0 512 512"><defs><style>.cls-1{fill:#1a467e;}</style></defs><title>OAX_Logo</title><path class="cls-1" d="M97.58,189.56,80.75,172.73c.17-.13.35-.28.54-.41a63.28,63.28,0,0,1,25-10.89,75.68,75.68,0,0,1,19.53-1.16,68.16,68.16,0,0,1,19.8,4.19,66.21,66.21,0,0,1,22.62,14.48,69.33,69.33,0,0,1,13.24,17.3,63.77,63.77,0,0,1,6.41,18.43,77,77,0,0,1,1.25,15.82,67.83,67.83,0,0,1-6.67,28.43,73.82,73.82,0,0,1-13.79,19.4,62.29,62.29,0,0,1-16.95,12.48,63.1,63.1,0,0,1-16.6,5.48,80.59,80.59,0,0,1-17,1.28,67.27,67.27,0,0,1-27.46-6.39,70.5,70.5,0,0,1-18.21-12.6,64.73,64.73,0,0,1-19-33.06,72.42,72.42,0,0,1-1.78-14.37,70.34,70.34,0,0,1,3.41-24.48A63.38,63.38,0,0,1,64,189.5c.11-.15.24-.29.34-.42l16.84,16.84c-.54,1-1.12,1.93-1.64,3a42.9,42.9,0,0,0-4.42,13.95c-1.88,13.75,1.73,26,10.53,36.62A44.5,44.5,0,0,0,122,275.88a43.81,43.81,0,0,0,27.08-10.27,47.65,47.65,0,0,0,11.81-13.93,42.47,42.47,0,0,0,4.75-13.92,50.21,50.21,0,0,0,.52-12.06,45.43,45.43,0,0,0-6.67-20.44A44.85,44.85,0,0,0,142.64,189a43.31,43.31,0,0,0-14.21-4.77,53.93,53.93,0,0,0-10.54-.54A42,42,0,0,0,101,187.72C99.84,188.3,98.71,189,97.58,189.56Z"/><path class="cls-1" d="M386.48,210q1.81-2.28,3.62-4.57,17.55-22.38,35.08-44.78a1.45,1.45,0,0,1,1.28-.61q13.6,0,27.21,0h1L401,228.83l53.62,68.7h-29l-39.14-49.95c-.19.21-.33.36-.46.53q-19.09,24.36-38.2,48.73a5.07,5.07,0,0,0-.35.46.62.62,0,0,1-.62.29,3.23,3.23,0,0,0-.44,0H293c-3.82-7.61-7.63-15.2-11.47-22.87h25.35L318.07,297q26.88-34,53.64-67.89-27-34.18-54-68.37c.28,0,.45-.06.63-.06,9.46,0,18.92,0,28.38,0a1.16,1.16,0,0,1,1,.56q15,19.13,30,38.23l8,10.22a3.92,3.92,0,0,0,.34.37l.45.7q-7.11,9.18-14.24,18.37l14.24,18.37,14.47-18.67q-7-9.08-14-18.12A5,5,0,0,1,386.48,210Z"/><path class="cls-1" d="M296,251.72H270.1q-10.22-19.8-20.51-39.76l-2.41,4.72c-6,11.87-12.07,23.72-18,35.61-3.7,7.38-7.24,14.84-10.89,22.25-3,6-6,12-9,18L207,297.1c-.07.15-.15.3-.24.46H181.43Q215.81,228.79,250.18,160,273.13,205.92,296,251.72Z"/><path class="cls-1" d="M460.26,319v1.56l0,.05a.09.09,0,0,1-.07,0,1.33,1.33,0,0,1-.28,0H58.07a.93.93,0,0,1-.24-.06V319l.05,0s0,0,0,0a2.31,2.31,0,0,1,.37,0l401.79,0A.43.43,0,0,1,460.26,319Z"/><path class="cls-1" d="M448.64,351.42h-2.15v-17.5H449c.32,0,.41.21.53.41l2.65,4.28,5.28,8.56a1.87,1.87,0,0,0,.5.57V334h2.22c.14.51.2,15.91.06,17.43a14.91,14.91,0,0,1-2.5,0c-.17,0-.36-.29-.48-.49l-4.5-7.15q-1.69-2.73-3.4-5.44c-.14-.22-.29-.43-.43-.64l-.1,0a.21.21,0,0,0,0,.06.59.59,0,0,0,0,.14q0,6.68,0,13.34S448.7,351.32,448.64,351.42Z"/><path class="cls-1" d="M191.77,333.94h2.8l8.52,13.8.09,0,.06,0a.76.76,0,0,0,0-.15l0-13.49s0,0,.08-.09h2.16V351.4h-2.69c-2.86-4.56-5.76-9.17-8.65-13.79l-.14,0v13.76h-2.27Z"/><path class="cls-1" d="M99.37,342.78a11.94,11.94,0,0,1,1-4.61,7.48,7.48,0,0,1,7-4.7,13.47,13.47,0,0,1,3,.24,7.08,7.08,0,0,1,5.65,5.28,11.66,11.66,0,0,1-.18,7.45,7.83,7.83,0,0,1-7.3,5.53,9.46,9.46,0,0,1-3.88-.48,7.52,7.52,0,0,1-4.92-5.69C99.57,344.82,99.52,343.79,99.37,342.78Zm14.7-.32c0-.32,0-.64,0-.95s-.08-.63-.14-.94a5.78,5.78,0,0,0-5.29-5,5.85,5.85,0,0,0-6.26,4.14,11.06,11.06,0,0,0-.35,4.61,7.37,7.37,0,0,0,1,3,4.57,4.57,0,0,0,3.22,2.29,11,11,0,0,0,2.75.15,4.63,4.63,0,0,0,3.89-2.57A9.63,9.63,0,0,0,114.07,342.46Z"/><path class="cls-1" d="M407.71,333.35a25.93,25.93,0,0,1,2.93.48,7,7,0,0,1,5,4.76,11.56,11.56,0,0,1-.21,8.27,7.78,7.78,0,0,1-7.22,5.12,9.88,9.88,0,0,1-3.25-.32,7.32,7.32,0,0,1-5.2-5,11.8,11.8,0,0,1-.08-7.52C400.88,335.42,403.71,333.42,407.71,333.35Zm-6.07,9.47a8.11,8.11,0,0,0,1.33,4.83,4.48,4.48,0,0,0,2.26,1.76,7.67,7.67,0,0,0,3.8.34,4.68,4.68,0,0,0,3.63-2.61,9.77,9.77,0,0,0,.86-7,5.5,5.5,0,0,0-5.33-4.55,5.67,5.67,0,0,0-6,3.72A9.93,9.93,0,0,0,401.64,342.82Z"/><path class="cls-1" d="M236.87,351.41V333.92h6.72c3.88,0,6.38,1.92,7.26,5.7a12,12,0,0,1-.77,8,6.2,6.2,0,0,1-4.76,3.76,6.68,6.68,0,0,1-1.09.09h-6.92C237.17,351.45,237,351.42,236.87,351.41Zm2.44-2h4.42a4.36,4.36,0,0,0,4.28-2.93,8.78,8.78,0,0,0,.67-3,10.3,10.3,0,0,0-.74-4.78,4.05,4.05,0,0,0-3.45-2.56c-1.38-.12-2.77-.09-4.15-.12-.33,0-.67,0-1,0Z"/><path class="cls-1" d="M158.33,334h2.39a4.71,4.71,0,0,1,.05.54c0,3.26,0,6.51,0,9.77a15.37,15.37,0,0,1-.38,3.1,5.43,5.43,0,0,1-4.6,4.39,9.59,9.59,0,0,1-4.61-.17,5.37,5.37,0,0,1-3.7-3.53,9.19,9.19,0,0,1-.53-2.93c0-3.64,0-7.29,0-10.93A1.2,1.2,0,0,1,147,334h2.35v.76c0,3.23,0,6.46,0,9.69a10.55,10.55,0,0,0,.25,2.31,3.79,3.79,0,0,0,4,3.1,7,7,0,0,0,1,0,4,4,0,0,0,3.75-3.94c0-.43,0-.87,0-1.31,0-3.23,0-6.47,0-9.7Z"/><path class="cls-1" d="M286.86,333.94h2.72l6.34,17.46h-2.63l-1.8-5.13c-.19,0-.35,0-.52,0-1.92,0-3.84,0-5.76,0a.7.7,0,0,0-.79.54c-.46,1.38-1,2.74-1.48,4.11-.06.18-.14.36-.21.55h-2.46Zm1.26,2.64-2.77,7.65h5.43C289.9,341.7,289,339.22,288.12,336.58Z"/><path class="cls-1" d="M58.34,334H70.48v2.12H60.74v5.27h8.52c.08.72,0,1.38,0,2.13H60.72v7.91H58.34Z"/><path class="cls-1" d="M336.35,334V336h-5.87v15.39h-2.42V336.07h-5.88v-2C322.71,333.88,334,333.81,336.35,334Z"/><path class="cls-1" d="M368.83,334v17.41H366.5V334Z"/></svg>