<svg width="96" height="96" viewBox="0 0 96 96" fill="none" xmlns="http://www.w3.org/2000/svg">
<path d="M48 96C74.5097 96 96 74.5097 96 48C96 21.4903 74.5097 0 48 0C21.4903 0 0 21.4903 0 48C0 74.5097 21.4903 96 48 96Z" fill="#0D1F30"/>
<path d="M15.7239 80.4166L18.7717 77.1499L19.8346 78.1346C20.241 78.5097 20.4911 78.7754 20.5692 78.9161C20.7099 79.1349 20.7724 79.4006 20.7411 79.682C20.7099 79.9633 20.5848 80.229 20.3348 80.4947C20.1472 80.6979 19.9596 80.823 19.7564 80.9011C19.5532 80.9793 19.3657 80.9949 19.1781 80.9636C18.9906 80.9324 18.8343 80.8855 18.6936 80.7917C18.506 80.6823 18.256 80.4791 17.959 80.1978L17.5213 79.7914L16.3647 81.0262L15.7239 80.4166ZM18.928 78.3222L18.0684 79.2443L18.4279 79.5882C18.6936 79.8383 18.8812 79.9789 18.9906 80.0258C19.1156 80.0727 19.225 80.0884 19.3501 80.0571C19.4751 80.0258 19.5689 79.9633 19.6627 79.8695C19.7721 79.7445 19.8346 79.6195 19.8346 79.4788C19.8346 79.3381 19.7877 79.1974 19.7095 79.088C19.647 78.9943 19.4907 78.838 19.2563 78.6191L18.928 78.3222Z" fill="white"/>
<path d="M20.6631 81.933C20.9288 81.5578 21.2101 81.2921 21.5071 81.1202C21.7259 80.9951 21.9604 80.917 22.2105 80.8701C22.4605 80.8232 22.695 80.8388 22.9138 80.8857C23.2108 80.9483 23.5078 81.1046 23.8047 81.3078C24.3362 81.6985 24.6488 82.1674 24.7269 82.7301C24.8051 83.2928 24.6331 83.8711 24.1955 84.465C23.7735 85.0433 23.2733 85.3872 22.7263 85.481C22.1636 85.5748 21.6165 85.4341 21.1007 85.0433C20.5693 84.6526 20.2567 84.1681 20.1785 83.621C20.1004 83.0739 20.2411 82.5113 20.6631 81.933ZM21.429 82.4644C21.132 82.8708 20.9913 83.2459 21.0382 83.6054C21.0695 83.9492 21.2414 84.2306 21.5227 84.4494C21.8197 84.6682 22.1323 84.7307 22.4605 84.6526C22.8044 84.5744 23.117 84.34 23.4296 83.918C23.7266 83.5116 23.8672 83.1208 23.836 82.7926C23.8047 82.4487 23.6328 82.183 23.3358 81.9642C23.0389 81.7454 22.7106 81.6672 22.3824 81.7454C22.0542 81.7923 21.7416 82.0424 21.429 82.4644Z" fill="white"/>
<path d="M24.8831 87.5283L26.0397 83.0894L26.8524 83.527L26.0084 86.5436L28.1654 84.2304L29.1188 84.7305L28.3373 87.8565L30.4161 85.4339L31.2132 85.8559L28.1497 89.2789L27.3057 88.8256L28.0872 85.4651L25.7427 87.9972L24.8831 87.5283Z" fill="white"/>
<path d="M30.635 90.3734L32.198 86.1846L35.3084 87.3412L35.0427 88.0445L32.7763 87.2005L32.4325 88.1227L34.5425 88.9042L34.2768 89.6076L32.1668 88.826L31.7447 89.967L34.0893 90.8423L33.8235 91.5457L30.635 90.3734Z" fill="white"/>
<path d="M35.1831 91.9829L36.2772 87.6377L38.1216 88.1066C38.5905 88.2316 38.9187 88.341 39.1063 88.4817C39.2938 88.6224 39.4345 88.7943 39.5126 89.0288C39.5908 89.2632 39.5908 89.4977 39.5283 89.7634C39.4501 90.0916 39.2782 90.3261 39.0437 90.498C38.7937 90.6543 38.4811 90.7168 38.0903 90.6856C38.2466 90.8419 38.3716 90.9982 38.4654 91.1701C38.5592 91.3264 38.6686 91.6077 38.778 91.9985L39.0906 92.9832L38.0434 92.7175L37.6527 91.6077C37.512 91.217 37.4182 90.9669 37.3557 90.8575C37.2932 90.7481 37.215 90.6699 37.1369 90.6074C37.0587 90.5449 36.9024 90.498 36.7149 90.4511L36.5429 90.4042L36.0896 92.2173L35.1831 91.9829ZM36.6992 89.7009L37.3401 89.8572C37.7621 89.9666 38.0278 90.0135 38.1372 89.9978C38.2466 89.9822 38.3404 89.9509 38.4342 89.8728C38.5123 89.7946 38.5748 89.7009 38.6061 89.5758C38.6374 89.4351 38.6374 89.2945 38.5748 89.1851C38.5123 89.0757 38.4185 88.9975 38.2935 88.935C38.231 88.9037 38.0121 88.8412 37.6527 88.7631L36.9649 88.5911L36.6992 89.7009Z" fill="white"/>
<path d="M40.2007 93.1396L40.8103 88.7007L44.0926 89.154L43.9832 89.9042L41.5918 89.576L41.4511 90.5607L43.6706 90.8733L43.5612 91.6235L41.3417 91.3109L41.1697 92.5144L43.6393 92.8583L43.5299 93.6085L40.2007 93.1396Z" fill="white"/>
<path d="M45.1084 89.248L46.7652 89.2949C47.1403 89.3106 47.4217 89.3418 47.6093 89.4043C47.875 89.4825 48.0938 89.6388 48.2657 89.8264C48.4533 90.0296 48.5783 90.2796 48.6721 90.561C48.7659 90.8423 48.7971 91.2018 48.7971 91.6238C48.7815 91.9989 48.7346 92.3115 48.6408 92.5773C48.5158 92.9055 48.3595 93.1556 48.1407 93.3588C47.9844 93.5151 47.7655 93.6245 47.4998 93.7026C47.2966 93.7651 47.0309 93.7808 46.7027 93.7808L44.999 93.7339L45.1084 89.248ZM45.9993 90.0296L45.9212 92.9993L46.5933 93.0149C46.8434 93.0149 47.0309 93.0149 47.1403 92.9836C47.281 92.9524 47.4061 92.8899 47.5155 92.8117C47.6092 92.7336 47.703 92.5773 47.7656 92.3897C47.8281 92.1865 47.875 91.9208 47.875 91.5769C47.875 91.2331 47.8593 90.9674 47.7968 90.7798C47.7343 90.5922 47.6561 90.4516 47.5467 90.3422C47.4373 90.2327 47.2966 90.1546 47.1403 90.1233C47.0153 90.0921 46.7652 90.0764 46.4057 90.0608L45.9993 90.0296Z" fill="white"/>
<path d="M52.0327 89.1383L53.7989 88.8882C54.1428 88.8413 54.4085 88.8257 54.596 88.8257C54.7836 88.8257 54.9399 88.8726 55.0806 88.9507C55.2369 89.0289 55.3619 89.1383 55.4713 89.279C55.5807 89.4196 55.6589 89.5916 55.6745 89.7791C55.7058 89.9823 55.6745 90.1855 55.5807 90.3731C55.487 90.5606 55.3619 90.7169 55.1744 90.8263C55.4557 90.8732 55.6745 90.967 55.8465 91.1389C56.0184 91.3109 56.1278 91.5141 56.1591 91.7798C56.1903 91.983 56.1591 92.1862 56.0965 92.3893C56.034 92.5925 55.9246 92.7645 55.7683 92.9051C55.612 93.0458 55.4244 93.1396 55.19 93.2021C55.0493 93.2334 54.6898 93.2959 54.1115 93.374L52.5954 93.5772L52.0327 89.1383ZM53.033 89.7635L53.1737 90.7951L53.7677 90.7169C54.1115 90.67 54.3303 90.6388 54.4085 90.6075C54.5648 90.5606 54.6742 90.4981 54.7523 90.4043C54.8305 90.3105 54.8618 90.1855 54.8305 90.0448C54.8149 89.9042 54.7523 89.7947 54.6742 89.7322C54.5804 89.6541 54.471 89.6228 54.3147 89.6228C54.2209 89.6228 53.9708 89.6541 53.5488 89.7166L53.033 89.7635ZM53.2675 91.5141L53.4238 92.7019L54.2522 92.5925C54.5804 92.5457 54.7836 92.5144 54.8618 92.4831C54.9868 92.4362 55.0962 92.3737 55.1587 92.2643C55.2369 92.1549 55.2525 92.0299 55.2369 91.8736C55.2213 91.7329 55.1744 91.6391 55.0962 91.5453C55.0181 91.4672 54.9087 91.4046 54.7836 91.3734C54.6586 91.3421 54.3929 91.3578 53.9865 91.4203L53.2675 91.5141Z" fill="white"/>
<path d="M58.7848 92.4987L58.3159 90.67L56.0808 88.5599L57.1124 88.2942L58.566 89.7478L59.1287 87.7784L60.1446 87.5127L59.1912 90.4355L59.6601 92.2486L58.7848 92.4987Z" fill="white"/>
<path d="M65.5212 89.5604L65.0054 88.3881C64.5991 88.435 64.2552 88.4038 63.9895 88.2631C63.7238 88.1224 63.5362 87.9036 63.3955 87.6066C63.2549 87.294 63.2392 86.997 63.3487 86.7157C63.4581 86.4187 63.6613 86.1843 63.9582 86.028L63.8332 85.7466L64.2396 85.5747L64.3646 85.856C64.6772 85.7623 64.9586 85.7623 65.2086 85.856C65.4587 85.9498 65.6619 86.1218 65.8338 86.3875L65.1617 86.7939C65.0211 86.5907 64.8491 86.4969 64.6303 86.4969L65.0992 87.591C65.5994 87.5128 65.9745 87.5441 66.2246 87.6691C66.4747 87.7942 66.6622 87.9974 66.7873 88.31C66.9279 88.6538 66.9592 88.9821 66.8498 89.2947C66.7404 89.6073 66.5216 89.873 66.1777 90.0918L66.4122 90.6076L66.0058 90.7795L65.7869 90.2637C65.4431 90.3575 65.1305 90.3575 64.8491 90.2481C64.5522 90.1387 64.3021 89.9042 64.0989 89.5604L64.8023 89.1696C64.896 89.3103 65.0054 89.4041 65.1461 89.4822C65.2712 89.5291 65.3962 89.5604 65.5212 89.5604ZM64.2396 86.6219C64.1458 86.7001 64.0833 86.8095 64.052 86.9345C64.0207 87.0596 64.0364 87.169 64.0833 87.2784C64.1302 87.3722 64.1927 87.4503 64.2865 87.5128C64.3802 87.5754 64.5053 87.6066 64.646 87.6066L64.2396 86.6219ZM65.9433 89.4353C66.0683 89.3416 66.1621 89.2321 66.1933 89.0915C66.2402 88.9508 66.2246 88.8101 66.1621 88.6695C66.1152 88.5444 66.0214 88.4506 65.912 88.3881C65.8026 88.3256 65.6463 88.31 65.4587 88.3412L65.9433 89.4353Z" fill="white"/>
<path d="M70.7887 85.7777L71.6796 85.5745C71.8046 86.0591 71.8046 86.4967 71.6483 86.8562C71.492 87.2157 71.2107 87.5127 70.8043 87.7628C70.2885 88.0597 69.7727 88.1222 69.2257 87.9659C68.6942 87.8096 68.241 87.4189 67.8971 86.8093C67.522 86.1685 67.3969 85.5745 67.522 85.0119C67.647 84.4492 67.9753 84.0272 68.5223 83.7146C68.9912 83.4332 69.4601 83.3551 69.9134 83.4645C70.1791 83.527 70.4604 83.6833 70.7262 83.949L70.0541 84.5898C69.8978 84.4179 69.7102 84.3085 69.4914 84.2772C69.2726 84.246 69.0694 84.2929 68.8662 84.4023C68.5848 84.5742 68.4129 84.8087 68.3504 85.1213C68.2879 85.4339 68.3973 85.809 68.663 86.2779C68.9443 86.7624 69.2413 87.0594 69.5383 87.1688C69.8352 87.2782 70.1166 87.247 70.3979 87.075C70.6011 86.95 70.7418 86.7781 70.8199 86.5592C70.8981 86.356 70.8825 86.0903 70.7887 85.7777Z" fill="white"/>
<path d="M74.0241 85.6527L71.3201 82.0891L72.0391 81.542L73.1019 82.9487L74.5086 81.8859L73.4458 80.4792L74.1647 79.9321L76.8688 83.4958L76.1498 84.0428L74.9619 82.4798L73.5552 83.5427L74.7431 85.1057L74.0241 85.6527Z" fill="white"/>
<path d="M78.0254 82.5267L77.4627 81.9328L77.1657 78.2128L75.6496 79.6508L75.1338 79.1038L77.5096 76.853L77.9941 77.3688L78.2911 81.2451L80.1354 79.4945L80.6512 80.0416L78.0254 82.5267Z" fill="white"/>
<path d="M9.11229 28.2591C8.72154 28.0246 8.42457 27.7745 8.22138 27.5088C8.0807 27.3056 7.97129 27.0868 7.89314 26.8367C7.83062 26.5867 7.79936 26.3522 7.83062 26.1334C7.86188 25.8364 7.97129 25.5238 8.15886 25.2112C8.48709 24.6329 8.92473 24.2734 9.48741 24.1484C10.0345 24.0077 10.6284 24.1171 11.2692 24.4922C11.8944 24.8517 12.2852 25.305 12.4571 25.852C12.6134 26.3991 12.5353 26.9618 12.207 27.5245C11.8788 28.1028 11.4255 28.4623 10.8785 28.6029C10.3158 28.728 9.73749 28.6186 9.11229 28.2591ZM9.54993 27.4307C9.98758 27.6808 10.3783 27.7745 10.7222 27.6964C11.0661 27.6182 11.3318 27.4307 11.5037 27.1181C11.6756 26.8055 11.7225 26.4772 11.6131 26.149C11.5037 25.8208 11.2224 25.5238 10.7691 25.2581C10.3158 25.008 9.94069 24.9142 9.59682 24.9768C9.26859 25.0393 9.00288 25.2425 8.81532 25.5707C8.62776 25.8989 8.5965 26.2272 8.70591 26.5398C8.83095 26.8836 9.09666 27.1806 9.54993 27.4307Z" fill="white"/>
<path d="M13.9265 24.5861L10.3315 21.9134L12.1603 19.4438L12.7698 19.8971L11.4725 21.6321L12.3166 22.2573L13.4263 20.7568L14.0359 21.21L12.9261 22.7105L14.4579 23.8515L13.9265 24.5861Z" fill="white"/>
<path d="M16.5367 21.2102L13.2388 18.1936L15.3176 15.9272L15.8803 16.443L14.411 18.0373L15.1925 18.7563L16.4586 17.3808L17.0213 17.8966L15.7552 19.2721L17.1619 20.5538L16.5367 21.2102Z" fill="white"/>
<path d="M19.4751 18.1463L16.4272 14.8796L17.0837 14.27L20.1316 17.5367L19.4751 18.1463Z" fill="white"/>
<path d="M22.4293 13.5201L23.289 13.2075C23.4765 13.6764 23.5234 14.0984 23.4296 14.4735C23.3202 14.8487 23.0858 15.1925 22.7107 15.4739C22.2417 15.8334 21.726 15.974 21.1789 15.8802C20.6318 15.7865 20.1317 15.4739 19.7097 14.9112C19.2564 14.3172 19.0532 13.7546 19.1001 13.1919C19.147 12.6292 19.4283 12.1603 19.9285 11.7852C20.3661 11.4569 20.8038 11.3006 21.2727 11.3475C21.554 11.3788 21.8354 11.5038 22.1323 11.7226L21.554 12.4416C21.3665 12.2853 21.1789 12.2072 20.9601 12.2072C20.7413 12.2072 20.5381 12.2697 20.3505 12.426C20.0848 12.6292 19.9441 12.8793 19.9285 13.2075C19.9129 13.5201 20.0692 13.8952 20.3818 14.3172C20.7256 14.7705 21.0539 15.0206 21.3665 15.0831C21.6791 15.1456 21.9604 15.0831 22.2105 14.8799C22.398 14.7392 22.5231 14.5517 22.5544 14.3172C22.6169 14.0828 22.57 13.8171 22.4293 13.5201Z" fill="white"/>
<path d="M25.4144 13.4262L22.9917 9.65934L23.7576 9.1748L26.1802 12.9417L25.4144 13.4262Z" fill="white"/>
<path d="M30.9631 10.3316L30.0878 10.7849L29.2751 10.0659L27.6808 10.8943L27.8215 11.9727L26.9775 12.4104L26.4617 7.62758L27.3057 7.18994L30.9631 10.3316ZM28.6655 9.51882L27.3526 8.33094L27.587 10.0815L28.6655 9.51882Z" fill="white"/>
<path d="M31.948 9.94091L30.3538 5.79893L31.1978 5.4707L32.5107 8.90932L34.6051 8.11219L34.8709 8.81554L31.948 9.94091Z" fill="white"/>
<path d="M38.6846 7.11172L38.4188 5.86131C37.9968 5.83005 37.6842 5.72064 37.4498 5.53308C37.2153 5.34552 37.0747 5.09543 36.9965 4.7672C36.934 4.43897 36.9652 4.142 37.1372 3.87629C37.2935 3.61058 37.5436 3.42301 37.8718 3.3136L37.8093 3.01663L38.2469 2.92285L38.3094 3.21982C38.6377 3.18856 38.9034 3.25108 39.1378 3.37612C39.3566 3.51679 39.5286 3.71999 39.6536 4.01696L38.919 4.28267C38.8252 4.06385 38.6689 3.92318 38.4501 3.87629L38.7002 5.04854C39.2004 5.0798 39.5755 5.17358 39.7787 5.34552C39.9819 5.51745 40.1382 5.76753 40.2163 6.08013C40.2945 6.43962 40.2476 6.76785 40.0913 7.06483C39.9193 7.3618 39.6536 7.58062 39.2785 7.72129L39.3879 8.28397L38.9503 8.37775L38.8409 7.8307C38.4814 7.86196 38.1844 7.79944 37.9187 7.62751C37.653 7.45558 37.4498 7.18987 37.3091 6.79911L38.075 6.54903C38.1375 6.70533 38.2313 6.83037 38.3407 6.92415C38.4501 7.01793 38.5751 7.08045 38.6846 7.11172ZM38.0125 3.97007C37.9031 4.03259 37.8249 4.12637 37.778 4.23578C37.7311 4.34519 37.7155 4.4546 37.7468 4.57964C37.7624 4.68905 37.8249 4.78283 37.9031 4.86098C37.9812 4.93913 38.1062 4.98602 38.2469 5.01728L38.0125 3.97007ZM39.1378 7.04919C39.2785 6.98667 39.3879 6.89289 39.4504 6.76785C39.513 6.64281 39.5442 6.50214 39.513 6.34584C39.4817 6.20517 39.4192 6.11139 39.3254 6.03324C39.2316 5.95509 39.0753 5.9082 38.8877 5.89257L39.1378 7.04919Z" fill="white"/>
<path d="M41.6385 4.93903C41.5916 4.48575 41.6229 4.095 41.7323 3.7824C41.8105 3.54795 41.9355 3.32913 42.0918 3.12594C42.2481 2.92274 42.4357 2.78207 42.6232 2.67266C42.8889 2.53199 43.2015 2.43821 43.561 2.40695C44.2175 2.34443 44.7646 2.50073 45.2022 2.87585C45.6398 3.25098 45.8899 3.79803 45.9524 4.51701C46.015 5.236 45.8743 5.81431 45.5304 6.26758C45.1709 6.70523 44.6708 6.97094 44.0143 7.03346C43.3578 7.09598 42.8108 6.93968 42.3731 6.58019C41.9355 6.22069 41.7011 5.64238 41.6385 4.93903ZM42.5607 4.81399C42.6076 5.31415 42.7639 5.68927 43.014 5.92372C43.2641 6.15817 43.5767 6.26758 43.9362 6.23632C44.2956 6.20506 44.577 6.04876 44.7802 5.76742C44.9834 5.48608 45.0615 5.09533 45.0146 4.57953C44.9677 4.06374 44.8114 3.70425 44.577 3.4698C44.3269 3.23535 44.0143 3.14157 43.6548 3.17283C43.2797 3.20409 42.9983 3.36039 42.7952 3.64173C42.592 3.90744 42.5138 4.29819 42.5607 4.81399Z" fill="white"/>
<path d="M49.5317 5.1112L49.5474 4.36096L51.5011 4.42348L51.4542 6.20531C51.2667 6.37724 50.9853 6.53354 50.6102 6.65858C50.2507 6.78362 49.8756 6.84614 49.5161 6.83051C49.0472 6.81488 48.6408 6.70547 48.297 6.50228C47.9531 6.29909 47.703 6.00212 47.5311 5.64262C47.3592 5.2675 47.2966 4.87675 47.2966 4.43911C47.3123 3.9702 47.4217 3.56382 47.6249 3.20433C47.8281 2.84484 48.125 2.57913 48.5001 2.39157C48.7971 2.25089 49.1566 2.18837 49.5786 2.204C50.1413 2.21963 50.5633 2.34468 50.8759 2.59476C51.1885 2.84484 51.3761 3.15744 51.4542 3.57945L50.5477 3.72012C50.4852 3.5013 50.3758 3.31374 50.2038 3.1887C50.0319 3.06366 49.8131 2.98551 49.563 2.98551C49.1722 2.96988 48.844 3.09492 48.6096 3.32937C48.3751 3.57945 48.2344 3.93894 48.2188 4.43911C48.2032 4.97053 48.3126 5.37691 48.5314 5.64262C48.7659 5.90833 49.0628 6.06464 49.4536 6.06464C49.6411 6.06464 49.8287 6.03338 50.0319 5.97086C50.2195 5.90834 50.3914 5.81455 50.5321 5.72077L50.5477 5.15809L49.5317 5.1112Z" fill="white"/>
<path d="M54.7837 7.28366L55.6746 2.8916L58.6756 3.50117L58.5193 4.23579L56.3936 3.81378L56.1904 4.84536L58.0191 5.22048L57.8628 5.9551L56.0341 5.57998L55.659 7.43996L54.7837 7.28366Z" fill="white"/>
<path d="M62.4111 9.28437L61.4733 8.9874L61.4107 7.8933L59.7071 7.36187L59.0506 8.22153L58.1284 7.94019L61.1294 4.18896L62.0359 4.47031L62.4111 9.28437ZM61.3482 7.09616L61.2701 5.32996L60.1916 6.73667L61.3482 7.09616Z" fill="white"/>
<path d="M63.3645 9.67515L65.2245 5.61133L66.0216 5.97082L66.4436 9.45633L67.694 6.73669L68.4599 7.08056L66.5999 11.1444L65.7715 10.7693L65.3495 7.3619L64.1304 10.019L63.3645 9.67515Z" fill="white"/>
<path d="M70.6636 13.5513L72.7424 10.4721L71.6326 9.72188L72.0547 9.09668L75.0087 11.0817L74.5867 11.7069L73.4926 10.9723L71.4138 14.0514L70.6636 13.5513Z" fill="white"/>
<path d="M74.6805 13.6605C74.9775 13.3167 75.2744 13.0666 75.587 12.9259C75.8059 12.8165 76.0559 12.754 76.306 12.7384C76.5561 12.7227 76.7906 12.7384 77.0094 12.8165C77.2907 12.9103 77.5721 13.0666 77.8534 13.3167C78.3536 13.7543 78.6193 14.2388 78.6505 14.8172C78.6818 15.3798 78.463 15.9425 77.9941 16.5052C77.5252 17.0523 77.0094 17.3492 76.4467 17.4118C75.884 17.4586 75.3526 17.2711 74.8524 16.8491C74.3523 16.4114 74.0866 15.9113 74.0397 15.3486C73.9928 14.7546 74.2116 14.192 74.6805 13.6605ZM75.3995 14.2388C75.0712 14.6296 74.8993 14.9891 74.9149 15.3486C74.9149 15.6924 75.0556 15.9894 75.337 16.2239C75.6027 16.4583 75.9153 16.5521 76.2591 16.5052C76.603 16.4583 76.9469 16.2395 77.2907 15.8487C77.619 15.458 77.7909 15.0985 77.7909 14.7546C77.7909 14.4108 77.6346 14.1294 77.3532 13.8794C77.0719 13.6293 76.7593 13.5355 76.4154 13.5824C76.0872 13.6293 75.7433 13.8481 75.3995 14.2388Z" fill="white"/>
<path d="M77.4001 19.0688L80.7137 16.0679L81.3233 16.74L79.8541 18.0685L82.5581 18.0842L83.3708 18.9907L80.9482 18.9125L80.1198 22.0698L79.3383 21.2102L80.0729 18.8813L79.0257 18.8344L78.0253 19.7409L77.4001 19.0688Z" fill="white"/>
<path d="M80.573 22.6796L84.1992 20.0537L86.1373 22.7421L85.5277 23.1797L84.1054 21.226L83.3083 21.8043L84.6212 23.6174L84.0116 24.055L82.6987 22.2419L81.714 22.9609L83.1832 24.9928L82.5736 25.4305L80.573 22.6796Z" fill="white"/>
<path d="M83.1208 26.3054L87.0284 24.1172L87.4504 24.8831L85.7311 27.9466L88.3413 26.493L88.7477 27.2276L84.8402 29.4158L84.4025 28.6187L86.0749 25.6177L83.5272 27.04L83.1208 26.3054Z" fill="white"/>
<circle cx="48.0001" cy="48.0003" r="38.45" fill="white"/>
<path fill-rule="evenodd" clip-rule="evenodd" d="M47.9222 83.3431C67.4845 83.3431 83.3429 67.4848 83.3429 47.9225C83.3429 28.3602 67.4845 12.5019 47.9222 12.5019C28.36 12.5019 12.5016 28.3602 12.5016 47.9225C12.5016 67.4848 28.36 83.3431 47.9222 83.3431ZM47.9222 85.052C68.4283 85.052 85.0518 68.4285 85.0518 47.9225C85.0518 27.4164 68.4283 10.793 47.9222 10.793C27.4162 10.793 10.7927 27.4164 10.7927 47.9225C10.7927 68.4285 27.4162 85.052 47.9222 85.052Z" fill="#142C51"/>
<path d="M48.0001 20.1592L68.9988 32.2828V63.7176L48.0001 75.8412L27.0015 63.7176L27.0015 32.2828L48.0001 20.1592Z" fill="#142C51"/>
<path fill-rule="evenodd" clip-rule="evenodd" d="M45.9582 30.2995V25.6709L30.7537 34.4492L30.7537 61.5511L45.9582 70.3295L45.9582 30.2995ZM41.9498 32.6137L34.7621 36.7635L34.7621 59.2368L41.9498 63.3866L41.9498 32.6137Z" fill="white"/>
<path d="M50.0417 70.3295L50.0417 25.6709L65.2463 34.4492V45.2062H61.2378V36.7635L54.0502 32.6137L54.0502 63.3866L61.2378 59.2368L61.2378 53.2231H57.644L57.644 49.2146L65.2463 49.2146V61.5511L50.0417 70.3295Z" fill="white"/>
</svg>
