<svg width="96" height="96" viewBox="0 0 96 96" fill="none" xmlns="http://www.w3.org/2000/svg">
<circle cx="48" cy="48" r="48" fill="#313A53"/>
<path fill-rule="evenodd" clip-rule="evenodd" d="M38.0437 20.9309C39.3679 19.6067 41.5149 19.6067 42.8391 20.9309L60.6718 38.7636L53.9283 45.5071L40.4414 32.0201L26.9545 45.5071L33.6979 52.2505L40.4414 45.5071L47.1849 52.2505L40.4414 58.994L51.5307 70.0832C52.8549 71.4074 52.8549 73.5544 51.5307 74.8786L49.5825 76.8267C48.2583 78.1509 46.1114 78.1509 44.7872 76.8267L15.8652 47.9047C14.541 46.5805 14.541 44.4336 15.8652 43.1094L38.0437 20.9309Z" fill="#3CEAAA"/>
<path fill-rule="evenodd" clip-rule="evenodd" d="M51.5305 20.9309C52.8547 19.6067 55.0017 19.6067 56.3259 20.9309L78.5044 43.1094C79.8286 44.4336 79.8286 46.5805 78.5044 47.9047L49.5824 76.8267C48.2582 78.1509 46.1113 78.1509 44.7871 76.8267L40.4413 72.4809L53.9282 58.994L40.4413 45.5071L47.1848 38.7636L60.6717 52.2505L67.4152 45.5071L47.1848 25.2767L51.5305 20.9309Z" fill="#03BCE4"/>
<rect x="40.4414" y="32.0195" width="9.5367" height="9.5367" transform="rotate(45 40.4414 32.0195)" fill="#029ABB"/>
<rect opacity="0.95" x="53.9282" y="32.0195" width="9.5367" height="9.5367" transform="rotate(45 53.9282 32.0195)" fill="#3CEAAA"/>
</svg>
