<svg width="96" height="96" viewBox="0 0 96 96" fill="none" xmlns="http://www.w3.org/2000/svg">
<circle cx="48" cy="48" r="48" fill="white"/>
<path fill-rule="evenodd" clip-rule="evenodd" d="M55.3285 26.9893C54.9061 26.5684 54.4044 26.2349 53.8522 26.0078C53.3 25.7807 52.7081 25.6646 52.1107 25.666H52.099C51.5004 25.6659 50.9078 25.7844 50.3556 26.0148C49.8034 26.2451 49.3028 26.5825 48.8829 27.0075L13.3285 62.5922C12.905 63.0133 12.5696 63.5138 12.3416 64.0649C12.1135 64.6159 11.9975 65.2065 12 65.8025C12.0034 67.0146 12.4811 68.1538 13.3434 69.0094C13.7649 69.4302 14.2657 69.7637 14.8171 69.9908C15.3685 70.2179 15.9596 70.3341 16.5563 70.3327C17.7765 70.3327 18.9268 69.8568 19.7891 68.9962L55.3419 33.4098C56.1928 32.5555 56.6692 31.4002 56.6667 30.1968C56.6642 28.9934 56.183 27.84 55.3285 26.9893Z" fill="#2DB8E3"/>
<path fill-rule="evenodd" clip-rule="evenodd" d="M76.1163 26.0146C75.2632 25.6679 74.3231 25.5772 73.4166 25.7542C72.5101 25.9312 71.6787 26.3677 71.0292 27.0078L34.6265 62.5929C33.7545 63.4469 33.2666 64.6026 33.2698 65.8063C33.273 67.01 33.7671 68.1633 34.6435 69.0129C35.5218 69.8611 36.7101 70.3355 37.9477 70.3321C39.1852 70.3287 40.3707 69.8477 41.2441 68.9946L69.6675 41.209V65.7929C69.6684 66.9967 70.1603 68.1509 71.0352 69.0021C71.9101 69.8532 73.0964 70.3318 74.3337 70.3327C75.571 70.3318 76.7573 69.8532 77.6322 69.0021C78.5071 68.1509 78.999 66.9967 78.9999 65.7929V30.2111C79.0026 29.312 78.7297 28.4324 78.2161 27.6849C77.7025 26.9374 76.9714 26.3559 76.1163 26.0146Z" fill="#3840C7"/>
</svg>
