<svg width="96" height="96" viewBox="0 0 96 96" fill="none" xmlns="http://www.w3.org/2000/svg">
<path d="M48 96C74.51 96 96 74.5097 96 48C96 21.4903 74.51 0 48 0C21.49 0 0 21.4903 0 48C0 74.5097 21.49 96 48 96Z" fill="#353030"/>
<path fill-rule="evenodd" clip-rule="evenodd" d="M44.4817 85.6689H51.8598C45.2635 75.0436 38.6689 64.4156 32.0819 53.7867C31.0887 52.1812 30.7986 50.6898 31.5435 48.7894C31.8973 47.8873 32.6497 47.0297 33.3779 46.3871C33.1626 46.0958 32.9564 45.7978 32.7603 45.4931C31.703 43.8521 30.9292 42.0308 30.4751 40.0938C23.7369 43.3601 22.22 49.8903 26.1013 56.3907L44.4817 85.6689ZM41.6723 62.3399C45.9726 62.8325 49.9641 62.8118 54.2679 62.3458C59.467 61.7838 64.1597 60.5214 67.0639 58.6131C70.0796 56.6327 72.1084 53.482 72.1084 49.804C72.1116 45.5487 69.4915 42.2345 65.925 40.3353C65.6137 41.9161 65.0895 43.4064 64.3655 44.7807C63.981 45.5117 63.5417 46.2061 63.0485 46.8603C63.8685 47.6971 64.5942 48.7639 64.5942 49.8048C64.5942 51.4952 62.6534 53.359 61.2374 54.1661C59.6019 55.0935 57.1834 55.6845 55.314 55.883C52.8839 56.1464 50.4133 56.2559 47.9701 56.3028C46.6729 56.3028 45.3089 56.2304 44.0117 56.156C41.8387 56.0318 39.4675 55.9069 37.3634 55.3287L41.6723 62.3399Z" fill="white"/>
<path fill-rule="evenodd" clip-rule="evenodd" d="M48.1878 8C54.8144 18.8145 52.4897 25.2876 51.5924 29.3354C50.1986 35.6231 58.1539 37.7137 58.7378 30.3849C58.8738 28.6757 58.774 26.6872 58.6734 24.8151C66.8511 37.9301 61.5084 49.7746 48.1878 49.7751C37.0058 49.7757 30.7169 39.5517 35.1417 29.3695C34.6613 34.7575 38.4505 36.4888 37.828 34.0296C37.6696 33.4029 37.322 32.3263 37.1032 30.1471C36.0511 19.6842 48.9221 17.0115 48.1878 8Z" fill="#EA7437"/>
</svg>
