<svg width="96" height="96" viewBox="0 0 96 96" fill="none" xmlns="http://www.w3.org/2000/svg">
<path d="M48 96C74.5097 96 96 74.5097 96 48C96 21.4903 74.5097 0 48 0C21.4903 0 0 21.4903 0 48C0 74.5097 21.4903 96 48 96Z" fill="#5F2652"/>
<path d="M75.2931 60.432L50.1795 15.3888C49.9663 14.994 49.6504 14.6641 49.265 14.4343C48.8797 14.2044 48.4394 14.083 47.9907 14.083C47.542 14.083 47.1016 14.2044 46.7163 14.4343C46.331 14.6641 46.015 14.994 45.8019 15.3888L20.6979 60.432C20.0451 61.5936 20.4195 63.1008 21.5907 63.792L46.7331 78.8256C47.131 79.052 47.5809 79.1711 48.0387 79.1711C48.4965 79.1711 48.9464 79.052 49.3443 78.8256L74.4483 63.8208C75.5619 63.1008 75.9747 61.5936 75.2931 60.432V60.432ZM56.3139 42.2784L55.6995 41.76L55.6611 41.7216C55.4656 41.5619 55.2604 41.4144 55.0467 41.28L55.0083 41.2416C54.8067 41.1072 54.5955 40.9632 54.3555 40.8288C54.3171 40.8288 54.3171 40.7904 54.2883 40.7904C54.0867 40.656 53.8467 40.5504 53.6355 40.4448C53.5971 40.4448 53.5971 40.4064 53.5683 40.4064C53.3667 40.3008 53.1267 40.2048 52.8867 40.0992C52.8483 40.0992 52.8483 40.0608 52.8195 40.0608C52.6179 39.9936 52.4067 39.888 52.2051 39.8208C51.65 39.6129 51.0784 39.4523 50.4963 39.3408C50.0547 40.1952 49.4307 40.9536 48.7491 41.5968C49.8147 41.664 50.8419 41.9424 51.7635 42.3168C52.3086 42.5514 52.8349 42.8274 53.3379 43.1424C53.3511 43.1438 53.3639 43.1479 53.3755 43.1545C53.3871 43.1611 53.3972 43.1701 53.4051 43.1808C53.5395 43.248 53.6451 43.3536 53.7795 43.4592C53.8437 43.4947 53.902 43.5401 53.9523 43.5936C54.0766 43.6745 54.1924 43.7678 54.2979 43.872C54.3651 43.9392 54.4323 43.9776 54.4995 44.0448C54.6051 44.1504 54.7011 44.2176 54.8067 44.3232L55.0083 44.5248L55.2867 44.8032L55.4883 45.0048C55.561 45.1036 55.6413 45.1967 55.7283 45.2832C55.7955 45.36 55.8627 45.456 55.9299 45.5232L56.1315 45.8304C56.1987 45.936 56.2659 46.0032 56.3043 46.1088L56.5059 46.416C56.5731 46.5216 56.6115 46.6176 56.6787 46.6944C56.7459 46.8 56.7843 46.896 56.8515 47.0016C56.9187 47.1072 56.9571 47.2032 57.0243 47.3088C57.0627 47.4144 57.1299 47.5104 57.1587 47.616C57.2259 47.7504 57.2643 47.8944 57.3315 47.9904C57.6197 48.6919 57.8165 49.4275 57.9171 50.1792L58.2243 51.3792C58.3587 51.8976 59.5971 56.2752 62.4675 57.7536C65.7603 59.4624 70.1091 61.5936 71.8179 62.4096L49.2579 75.9072V66.6624C49.2579 65.1936 52.1667 63.4752 53.5011 62.8992L53.5683 62.8608C53.8467 62.7264 54.1155 62.5824 54.3939 62.4192L54.4995 62.352C55.0839 62.0056 55.6337 61.6038 56.1411 61.152C56.1795 61.1136 56.2467 61.0848 56.2755 61.0176C56.3427 60.9792 56.3811 60.912 56.4483 60.8832C56.6211 60.7488 56.7555 60.576 56.9283 60.4416L56.9955 60.3744C57.1731 60.2082 57.3339 60.025 57.4755 59.8272C57.5139 59.76 57.5811 59.7216 57.6099 59.6544C57.7443 59.52 57.8499 59.3472 57.9843 59.1744C58.0227 59.136 58.0515 59.0688 58.0899 59.04L58.5027 58.4256C58.5027 58.3872 58.5411 58.3872 58.5411 58.3584C58.7139 58.08 58.8867 57.7728 59.0595 57.504C58.3779 56.6784 57.8595 55.7952 57.4467 54.9696C57.2718 55.4771 57.0534 55.9685 56.7939 56.4384C56.6883 56.64 56.5539 56.8512 56.4483 57.0528C56.4099 57.0912 56.4099 57.12 56.3811 57.12C56.2751 57.2864 56.1597 57.4467 56.0355 57.6C55.9971 57.6384 55.9683 57.7056 55.9299 57.7344C55.8234 57.8962 55.6977 58.0445 55.5555 58.176C55.5171 58.2144 55.5171 58.2432 55.4883 58.2432C54.6627 59.1648 53.6739 59.952 52.5411 60.4992L52.3395 60.6048C51.7539 60.8448 46.7235 63.1392 46.7235 66.5952V75.84L24.1155 62.3808C25.5843 61.488 29.8371 58.9536 33.3315 57.8592C34.7043 57.4176 37.6131 59.2608 39.2547 60.5952L39.3603 60.7008C39.5719 60.9135 39.7997 61.1093 40.0419 61.2864L40.1091 61.3536C40.6275 61.7664 41.1747 62.1792 41.7891 62.4864L42.2019 62.688C42.2151 62.6894 42.2279 62.6935 42.2395 62.7001C42.2511 62.7068 42.2611 62.7157 42.2691 62.7264C42.6435 62.928 43.0179 63.1008 43.4307 63.2736C43.4866 63.3002 43.5443 63.3226 43.6035 63.3408C43.6419 63.3408 43.6707 63.3792 43.7379 63.3792C44.3235 63.5808 44.8995 63.7536 45.4851 63.8976C45.9267 63.0432 46.5795 62.2848 47.2707 61.6416C46.308 61.5762 45.3602 61.3692 44.4579 61.0272C44.4195 60.9888 44.3523 60.9888 44.3235 60.96C44.2161 60.9275 44.113 60.8823 44.0163 60.8256C43.9779 60.7872 43.9107 60.7872 43.8819 60.7584C43.7763 60.72 43.6803 60.6528 43.6035 60.624C42.9219 60.2784 42.2979 59.904 41.7219 59.424L40.8291 58.5984C40.004 57.8732 39.1101 57.2302 38.1603 56.6784C35.9331 55.4112 34.0515 54.9984 32.6115 55.4496C29.6355 56.4096 26.2371 58.224 24.1827 59.424L46.7523 18.8736V36.6528C46.7523 37.2672 45.8307 38.9088 42.7107 40.32L42.5091 40.4256C42.2019 40.56 41.9235 40.7328 41.6163 40.9056L41.5491 40.944C40.9585 41.2993 40.3967 41.7006 39.8691 42.144C39.5367 42.4144 39.2283 42.7131 38.9475 43.0368L38.9091 43.0752C38.6056 43.3698 38.3293 43.6911 38.0835 44.0352L38.0451 44.0736C37.9107 44.2464 37.8051 44.4192 37.6707 44.592C37.6707 44.6304 37.6323 44.6304 37.6323 44.6592C37.5267 44.832 37.4307 44.9664 37.3251 45.1392C37.3251 45.1776 37.2867 45.1776 37.2867 45.2064L36.9795 45.7248C36.9411 45.7632 36.9411 45.792 36.9123 45.8592C36.8067 46.032 36.7395 46.2048 36.6723 46.3392C36.6709 46.3525 36.6668 46.3653 36.6601 46.3768C36.6535 46.3884 36.6446 46.3985 36.6339 46.4064C36.5667 46.5792 36.4995 46.7136 36.4323 46.8864C36.4057 46.9423 36.3833 47.0001 36.3651 47.0592L36.1635 47.5776C36.1369 47.6335 36.1145 47.6913 36.0963 47.7504C36.0644 47.8795 36.0193 48.0049 35.9619 48.1248C35.9235 48.192 35.9235 48.2592 35.8947 48.3264C35.8563 48.4992 35.7891 48.672 35.7603 48.8064C35.7219 48.8736 35.7219 48.9792 35.6931 49.0464C35.6547 49.152 35.6547 49.2864 35.6259 49.392C35.5875 49.4976 35.5875 49.5936 35.5587 49.6992C35.5203 49.8336 35.5203 49.9776 35.4915 50.112C35.4915 50.2176 35.4531 50.2848 35.4531 50.3904C35.4531 50.5248 35.4147 50.6304 35.4147 50.7648C35.4209 50.8908 35.408 51.0171 35.3763 51.1392V51.6576C35.3722 52.2778 35.4171 52.8973 35.5107 53.5104C36.4035 53.712 37.3251 54.096 38.3235 54.576C38.0451 53.6832 37.9107 52.7616 37.8819 51.8016V51.6288C37.8755 51.4009 37.8884 51.1729 37.9203 50.9472V50.7744C37.9203 50.5728 37.9587 50.4 37.9875 50.1888V50.1216C38.0259 49.92 38.0547 49.7088 38.0931 49.4688C38.0931 49.4016 38.1315 49.3632 38.1315 49.296C38.1699 49.1232 38.2371 48.9504 38.2659 48.7776C38.2659 48.7392 38.3043 48.7104 38.3043 48.672L38.5059 48.0576C38.5443 48.0192 38.5443 47.952 38.5731 47.9232C38.6403 47.7504 38.7075 47.5776 38.7747 47.4432C38.8131 47.4048 38.8131 47.376 38.8419 47.3088C38.9475 47.1072 39.0147 46.9344 39.1491 46.7616C39.1748 46.7287 39.1973 46.6933 39.2163 46.656C39.3219 46.4832 39.3891 46.3488 39.4947 46.176C39.5204 46.1431 39.5429 46.1077 39.5619 46.0704C39.6771 45.8909 39.8021 45.7178 39.9363 45.552C39.9361 45.5469 39.937 45.5419 39.9389 45.5372C39.9408 45.5324 39.9436 45.5282 39.9472 45.5246C39.9508 45.521 39.9551 45.5181 39.9598 45.5163C39.9645 45.5144 39.9696 45.5135 39.9747 45.5136C40.1091 45.3408 40.2147 45.2064 40.3491 45.0336C40.3748 45.0007 40.3973 44.9653 40.4163 44.928C41.0343 44.2454 41.7377 43.6452 42.5091 43.1424L43.5747 42.624C44.1603 42.384 49.1619 40.0224 49.1619 36.5568V18.8448L71.9427 59.7408C69.9171 58.752 66.3267 56.9664 63.5523 55.5264C61.9395 54.7008 60.8835 51.792 60.5763 50.7264L60.2691 49.4976C60.2691 48.8448 60.0963 48.192 59.8947 47.5488C59.1714 45.5147 57.9385 43.7001 56.3139 42.2784" fill="white"/>
</svg>
