<svg width="96" height="96" viewBox="0 0 96 96" fill="none" xmlns="http://www.w3.org/2000/svg">
<path d="M96 48C96 74.5097 74.5097 96 48 96C21.4903 96 0 74.5097 0 48C0 21.4903 21.4903 0 48 0C74.5097 0 96 21.4903 96 48Z" fill="#1D53AB"/>
<path d="M60.0763 65.53V59.58H42.6463V53.28H55.1763C64.0663 53.28 69.3163 48.03 69.3163 39.21C69.3163 30.39 64.0663 25.14 55.1763 25.14H34.7363V47.33H28.9263V53.28H34.7363V59.58H28.9263V65.53H34.7363V74H42.6463V65.53H60.0763ZM42.6463 31.79H54.6163C58.6763 31.79 60.9863 33.89 60.9863 37.81V41.31C60.9863 45.23 58.6763 47.33 54.6163 47.33H42.6463V31.79Z" fill="white"/>
</svg>
