<svg xmlns="http://www.w3.org/2000/svg" width="96" height="96" viewBox="0 0 96 96" fill="none">
<path d="M48 96C74.5097 96 96 74.5097 96 48C96 21.4903 74.5097 0 48 0C21.4903 0 0 21.4903 0 48C0 74.5097 21.4903 96 48 96Z" fill="#EF0601"/>
<path d="M15.6462 33.8726C15.7045 33.7651 15.6731 33.6531 15.6507 33.5455C15.4043 32.2955 15.2026 31.0364 15.0324 29.7729C14.8532 28.4198 14.7187 27.0622 14.6246 25.7001C14.5216 24.2484 14.5081 22.7967 14.5664 21.345C14.6157 20.077 14.7232 18.809 15.0548 17.5769C15.2833 16.7346 15.57 15.9101 16.1167 15.2067C16.2914 14.9827 16.493 14.7855 16.7305 14.6287C16.8694 14.5391 17.0397 14.5839 17.1875 14.5973C17.7341 14.6466 18.2808 14.6959 18.8095 14.8483C20.0192 15.2022 21.1483 15.7399 22.2192 16.403C23.3796 17.1199 24.4639 17.9398 25.5034 18.8225C26.3144 19.508 27.1029 20.2159 27.8646 20.9597C28.1872 21.2778 28.5278 21.578 28.8593 21.8827C29.5717 22.613 30.2841 23.3478 30.9965 24.0826C31.2833 24.3784 31.5656 24.6741 31.8433 24.9743C32.838 26.0541 33.8327 27.1339 34.8229 28.2137C34.917 28.3123 34.9887 28.3167 35.1141 28.2719C35.7862 28.0255 36.4583 27.7925 37.1438 27.573C40.1413 26.6097 43.2239 26.1885 46.3603 26.1078C48.2466 26.0586 50.1329 26.0675 52.0103 26.2691C53.1349 26.3901 54.255 26.5425 55.3707 26.753C57.2704 27.1115 59.1298 27.6267 60.9489 28.2764C61.1013 28.3302 61.1774 28.2899 61.2626 28.1734C61.5224 27.8284 61.7868 27.4878 62.0511 27.1473C63.234 25.6419 64.4661 24.1767 65.7879 22.7922C66.1329 22.4293 66.4779 22.0664 66.8184 21.708C66.9977 21.5556 67.1858 21.4078 67.3561 21.242C68.6286 20.0053 69.9862 18.8718 71.4513 17.8592C73.1942 16.6494 75.0626 15.704 77.1057 15.1126C77.863 14.8931 78.6426 14.79 79.4222 14.7138C79.5476 14.7004 79.6148 14.7362 79.691 14.8483C80.2735 15.6861 80.6274 16.6225 80.9142 17.5948C81.2413 18.6926 81.3399 19.8216 81.416 20.9552C81.4743 21.82 81.4743 22.6847 81.4384 23.5495C81.3667 25.1804 81.1875 26.8023 80.9321 28.4198C80.6857 29.988 80.39 31.5472 80.0315 33.093C80.0091 33.2005 80.0181 33.3125 80.0091 33.4246C79.9419 33.4828 79.9374 33.5679 79.9195 33.6486C79.7448 34.3565 79.5745 35.0644 79.3998 35.7724C78.9472 37.6094 78.423 39.4285 77.8674 41.2341C77.518 42.3722 77.1506 43.5058 76.7921 44.6438C76.7563 44.7603 76.7428 44.8679 76.81 44.9843C77.3432 45.8939 77.8181 46.8393 78.2796 47.7892C79.0727 49.4201 79.7269 51.1048 80.26 52.8342C80.7081 54.2815 81.0621 55.7466 81.3175 57.2386C81.5728 58.7127 81.761 60.1958 81.8551 61.6923C81.8954 62.324 81.9492 62.9558 81.9671 63.5875C81.9761 63.8833 82.0926 64.1745 81.994 64.4702C80.1301 64.1476 78.2528 64.0042 76.3575 64.1073C74.2024 64.2238 72.1189 64.6494 70.1116 65.4425C67.2889 66.5536 64.8784 68.2742 62.7635 70.4338C62.5888 70.613 62.5888 70.613 62.5171 70.38C62.1408 69.1837 61.6837 68.0188 61.1237 66.8942C60.1066 64.8466 58.7848 63.0364 57.015 61.5668C53.7129 58.8292 48.5065 57.7539 44.1424 59.0308C41.248 59.8821 38.9092 61.5399 36.996 63.8384C35.3651 65.8009 34.1777 68.0233 33.1965 70.3666C33.0979 70.5996 33.0979 70.5996 32.9276 70.4204C31.8882 69.3137 30.768 68.3011 29.5269 67.4184C26.5742 65.3215 23.29 64.1834 19.6787 63.9684C18.5003 63.8967 17.3219 63.9236 16.148 64.0311C15.3326 64.1073 14.5171 64.2103 13.7151 64.3761C13.6837 64.1431 13.7285 63.9146 13.7375 63.6861C13.7868 62.4136 13.9212 61.1456 14.0959 59.8821C14.5306 56.7771 15.3057 53.7617 16.3631 50.818C17.0665 48.8645 17.882 46.9647 18.8184 45.1143C18.9125 44.9306 18.9125 44.7827 18.8319 44.5945C18.0299 42.6813 17.3891 40.7144 16.8335 38.7206C16.4034 37.1837 16.0495 35.629 15.7269 34.0698C15.7179 33.9981 15.7313 33.9085 15.6462 33.8726ZM17.1965 22.5145C17.1069 23.0387 17.0352 23.5719 17.0262 24.105C17.0083 25.0773 16.9993 26.0541 17.1024 27.0264C17.1786 27.7567 17.2592 28.4825 17.3712 29.2084C17.6132 30.7721 17.9582 32.3089 18.348 33.8412C18.8812 35.9247 19.5353 37.9678 20.2119 40.0065C20.2612 40.1543 20.3284 40.3022 20.4001 40.4814C20.5031 40.3201 20.5793 40.1947 20.6599 40.0692C21.2827 39.1148 21.9414 38.1919 22.6403 37.2957C23.3707 36.3593 24.1458 35.4542 24.9702 34.5985C25.3959 34.1594 25.817 33.7248 26.2606 33.3036C26.7759 32.8107 27.3135 32.3403 27.8512 31.8743C27.9901 31.7981 28.0931 31.6816 28.2186 31.5831C29.1864 30.8303 30.1497 30.0776 31.1982 29.4369C31.3505 29.3428 31.3729 29.2711 31.234 29.1367C30.2124 28.1375 29.2178 27.107 28.1603 26.1437C27.5331 25.5747 26.8968 25.0191 26.2516 24.468C25.257 23.6211 24.2085 22.837 23.1287 22.1067C22.0982 21.4122 21.0184 20.7984 19.8848 20.2742C19.3919 20.0457 18.8901 19.8396 18.3749 19.6693C18.218 19.6155 18.1195 19.6469 18.0523 19.8037C17.9671 20.0098 17.8596 20.207 17.7745 20.4131C17.4967 21.0941 17.295 21.7886 17.1965 22.5145ZM67.3023 31.8743C67.9341 32.3806 68.5345 32.9272 69.1125 33.4918C69.5605 33.9264 69.9996 34.37 70.4253 34.8314C70.8554 35.2974 71.281 35.7634 71.6843 36.2473C72.5849 37.3271 73.4317 38.4428 74.2068 39.6167C74.395 39.8989 74.5787 40.1812 74.7848 40.4859C74.8207 40.3918 74.8431 40.3291 74.8655 40.2708C75.4703 38.4965 76.0483 36.7133 76.5457 34.9076C76.8952 33.6441 77.2133 32.3672 77.4687 31.0812C77.6927 29.9611 77.8764 28.841 78.0108 27.7074C78.0959 26.9636 78.1183 26.2154 78.1766 25.4671C78.2214 24.9026 78.1587 24.338 78.1273 23.7735C78.1004 23.3568 78.0735 22.9311 77.957 22.5189C77.975 22.3083 77.9167 22.1067 77.8674 21.9051C77.7017 21.1613 77.4463 20.4489 77.0968 19.7724C77.0565 19.6917 77.0385 19.5931 76.8907 19.6469C76.1514 19.9068 75.4345 20.2115 74.7311 20.552C73.8125 21 72.9388 21.5243 72.092 22.0888C71.3975 22.5503 70.7255 23.0387 70.0713 23.5495C69.2917 24.1588 68.5345 24.7861 67.7952 25.4447C67.4233 25.7763 67.0604 26.1168 66.693 26.4528C65.8193 27.2549 64.968 28.0793 64.1435 28.9261C63.7896 29.2935 63.803 29.3069 64.2287 29.5847C64.2332 29.5892 64.2421 29.5937 64.2466 29.5982C65.304 30.3061 66.3256 31.0588 67.3023 31.8743ZM26.8296 52.5161C26.8431 52.8432 26.8834 53.1524 26.8655 53.457C26.8341 54.053 27.1209 54.4607 27.551 54.8281C28.3172 55.4822 29.1729 55.9885 30.078 56.4142C32.0091 57.3193 34.0433 57.9017 36.1402 58.2826C37.0945 58.4573 38.0579 58.5783 39.0301 58.5559C39.402 58.5469 39.7784 58.5201 40.1279 58.3722C40.4191 58.2512 40.4863 58.1302 40.4325 57.8211C40.3653 57.3999 40.1861 57.028 39.9576 56.6741C39.5454 56.0423 39.0122 55.5226 38.4208 55.0611C37.4306 54.2859 36.3418 53.6676 35.271 53.0224C33.658 52.0502 32.0181 51.1182 30.2572 50.4327C29.5 50.137 28.7294 49.8816 27.905 49.8681C27.3494 49.8592 27.3314 49.8771 27.1298 50.4013C26.8655 51.0958 26.852 51.8172 26.8296 52.5161ZM69.4082 52.3996C69.4216 52.0546 69.4037 51.6783 69.3589 51.3109C69.2962 50.8359 69.2021 50.37 68.9646 49.9488C68.9064 49.8413 68.8347 49.7875 68.7047 49.774C68.3194 49.7337 67.9475 49.7785 67.5712 49.8547C66.6258 50.0518 65.7386 50.4237 64.8739 50.8449C62.6963 51.8978 60.6532 53.1837 58.6414 54.5144C58.0366 54.9132 57.4855 55.3882 57.0061 55.9303C56.5266 56.4724 56.1368 57.0594 55.9979 57.7942C55.9531 58.0317 55.9531 58.1661 56.2712 58.3274C56.5625 58.4708 56.8851 58.5066 57.2077 58.5201C58.5429 58.5738 59.8512 58.3587 61.1506 58.072C63.1623 57.6284 65.1113 56.9967 66.9304 56.002C67.7773 55.5405 68.5703 54.9983 69.1976 54.2456C69.2603 54.1739 69.3141 54.1022 69.323 53.9947C69.3679 53.4705 69.4171 52.9507 69.4082 52.3996ZM63.4132 47.9057C64.0539 47.9146 64.6947 47.8833 65.3309 47.8071C65.6356 47.7668 65.9806 47.7847 66.218 47.5517C66.9573 46.8079 67.3113 45.9208 67.0873 44.8679C66.8229 43.6178 66.0433 42.7441 64.9724 42.1168C63.9733 41.5299 62.9024 41.3148 61.7733 41.6956C61.0072 41.951 60.3978 42.4663 59.8243 43.0129C59.2194 43.5909 58.7355 44.254 58.5966 45.0964C58.3995 46.324 58.6863 47.2425 60.0125 47.5562C61.1371 47.8116 62.2707 47.8922 63.4132 47.9057ZM31.9554 47.9012C32.7305 47.9101 33.5056 47.8653 34.2763 47.7578C34.8543 47.6816 35.4233 47.5696 35.961 47.3366C36.3418 47.1708 36.5882 46.8975 36.7137 46.5032C37.0049 45.5937 36.8347 44.7514 36.3463 43.9583C35.8445 43.1384 35.1231 42.5425 34.33 42.0227C33.7924 41.6732 33.192 41.5075 32.5558 41.4985C30.898 41.485 29.1505 42.65 28.5098 44.2092C28.0215 45.3921 28.2231 46.4674 29.0654 47.4262C29.2043 47.5875 29.3701 47.6772 29.5762 47.7175C30.3603 47.8743 31.1578 47.9012 31.9554 47.9012Z" fill="#FEA309"/>
<path d="M81.9935 64.4667C81.989 66.3441 81.5275 68.1184 80.8465 69.8523C80.3357 71.1517 79.6054 72.3256 78.8526 73.495C76.572 77.0391 73.5073 79.7991 70.1111 82.2097C65.9487 85.1668 61.4189 87.3981 56.5306 88.8901C54.8907 89.392 53.224 89.7818 51.5258 90.0282C49.9442 90.2567 48.3536 90.3777 46.7585 90.2567C44.8409 90.1133 42.9635 89.7594 41.1175 89.2351C41.0907 89.2262 41.0593 89.2262 41.0503 89.1903C41.1131 89.1187 41.1803 89.1769 41.234 89.1903C41.9196 89.3696 42.6051 89.5264 43.304 89.6518C43.7387 89.7325 44.1822 89.7907 44.6213 89.8624C43.6222 89.6922 42.632 89.4995 41.6552 89.2486C41.0235 89.0828 40.3917 88.9081 39.7599 88.7378L39.7644 88.7423C39.7286 88.693 39.6748 88.702 39.6255 88.693L39.63 88.6975C39.4866 88.6348 39.3433 88.5631 39.1775 88.5586L39.182 88.5631C39.1506 88.5003 39.0923 88.5138 39.0431 88.5138L39.0475 88.5183C39.0162 88.4555 38.9624 88.469 38.9086 88.469L38.9131 88.4735C38.8369 88.4018 38.7429 88.3749 38.6398 88.3794L38.6443 88.3838C38.5368 88.2673 38.3799 88.2673 38.2455 88.2181C36.189 87.4788 34.1951 86.5961 32.2506 85.6014C32.1878 85.5701 32.1385 85.4984 32.0534 85.5387C32.0445 85.5387 32.0355 85.5342 32.0265 85.5297C31.8787 85.3595 31.6771 85.2923 31.4709 85.2206C31.462 85.2206 31.453 85.2161 31.4441 85.2161C31.4485 85.1668 31.4306 85.1534 31.3858 85.1758C31.3769 85.1758 31.3679 85.1713 31.3545 85.1713C31.3634 85.1131 31.3365 85.1131 31.2962 85.131C31.2872 85.1265 31.2783 85.1265 31.2693 85.1265C31.2066 85.01 31.0946 84.9786 30.9781 84.9562C30.9691 84.9562 30.9602 84.9518 30.9512 84.9473C30.9557 84.898 30.9333 84.8845 30.893 84.9069C30.884 84.9069 30.875 84.9025 30.8661 84.898C30.875 84.8442 30.8482 84.8397 30.8078 84.8577L30.7944 84.8532H30.7809C30.772 84.786 30.7272 84.7636 30.6645 84.7725C30.6555 84.768 30.6465 84.768 30.6376 84.768C30.6376 84.7277 30.6196 84.7098 30.5793 84.7277C30.5704 84.7277 30.5614 84.7232 30.548 84.7188C30.548 84.674 30.53 84.6605 30.4897 84.6784C30.4807 84.674 30.4718 84.6695 30.4628 84.6695C30.427 84.5799 30.3508 84.553 30.2657 84.544C30.2567 84.5395 30.2433 84.5395 30.2343 84.5351C30.2343 84.4903 30.2164 84.4768 30.1761 84.4992C30.1671 84.4947 30.1581 84.4903 30.1492 84.4903C30.1537 84.441 30.1268 84.441 30.0909 84.4454L30.082 84.4365C30.0775 84.3827 30.0372 84.3962 30.0058 84.3962L29.9969 84.3872C29.9924 84.3558 29.9789 84.3514 29.952 84.3648C29.9431 84.3603 29.9341 84.3558 29.9207 84.3558C29.9207 84.3155 29.8983 84.3066 29.8624 84.3155L29.849 84.3066C29.849 84.2528 29.8087 84.2662 29.7773 84.2662L29.7683 84.2528C29.7683 84.2214 29.7504 84.2169 29.728 84.2304C29.7191 84.2259 29.7056 84.2214 29.6967 84.2169C29.6967 84.1766 29.6787 84.1632 29.6429 84.1811C29.6339 84.1766 29.625 84.1721 29.616 84.1721C29.6205 84.1273 29.5891 84.1273 29.5578 84.1318L29.5443 84.1184C29.5398 84.0691 29.4995 84.0825 29.4726 84.0825L29.4637 84.0691C29.4592 84.0377 29.4457 84.0332 29.4233 84.0467C29.4144 84.0422 29.4054 84.0377 29.392 84.0377C29.392 83.9974 29.3696 83.9929 29.3382 83.9974C29.3382 83.9974 29.3203 83.984 29.3248 83.984C29.3203 83.9391 29.2844 83.9481 29.2531 83.9481L29.2396 83.9347C29.2352 83.9078 29.2217 83.8988 29.1993 83.9123C29.1904 83.9078 29.1814 83.9033 29.1724 83.9033C29.1724 83.863 29.15 83.8585 29.1187 83.863C27.3802 82.8056 25.7 81.663 24.1005 80.4085C21.9588 78.7283 19.9515 76.9137 18.1906 74.8347C16.609 72.9708 15.2514 70.9635 14.4001 68.6516C13.8893 67.2715 13.616 65.8512 13.728 64.3682C14.5345 64.2069 15.3455 64.0993 16.161 64.0232C17.3349 63.9156 18.5132 63.8932 19.6916 63.9604C23.3029 64.1755 26.5872 65.3136 29.5398 67.4104C30.7809 68.2931 31.9011 69.3057 32.9406 70.4124C33.1108 70.5916 33.1108 70.5916 33.2094 70.3586C34.1862 68.0153 35.378 65.793 37.0089 63.8305C38.9221 61.532 41.2564 59.8742 44.1553 59.0229C48.5194 57.7414 53.7258 58.8213 57.0279 61.5589C58.8022 63.0285 60.1195 64.8386 61.1366 66.8862C61.6966 68.0108 62.1492 69.1758 62.53 70.3721C62.6017 70.6051 62.6062 70.6051 62.7765 70.4258C64.8913 68.2662 67.2973 66.5457 70.1245 65.4345C72.1318 64.646 74.2197 64.2158 76.3704 64.0993C78.2522 64.0008 80.1296 64.1441 81.9935 64.4667ZM75.8148 77.1511C75.8014 77.1646 75.7835 77.1825 75.77 77.1959C75.7566 77.2094 75.7387 77.2273 75.7252 77.2407C75.7118 77.2542 75.6938 77.2721 75.6804 77.2856C75.667 77.299 75.649 77.3169 75.6356 77.3304C75.6222 77.3438 75.6042 77.3617 75.5908 77.3752C75.5774 77.3886 75.5594 77.4065 75.546 77.42C75.5325 77.4334 75.5146 77.4513 75.5012 77.4648C75.4877 77.4782 75.4698 77.4961 75.4564 77.5096C75.4429 77.523 75.425 77.5409 75.4116 77.5544C75.3981 77.5678 75.3802 77.5857 75.3668 77.5992C75.3533 77.6126 75.3354 77.6306 75.322 77.644C75.3085 77.6574 75.2906 77.6754 75.2772 77.6888H75.2682L75.2772 77.6843C75.2906 77.6709 75.3085 77.653 75.322 77.6395C75.3354 77.6261 75.3533 77.6082 75.3668 77.5947C75.3802 77.5813 75.3981 77.5633 75.4116 77.5499C75.425 77.5365 75.4429 77.5185 75.4564 77.5051C75.4698 77.4917 75.4877 77.4737 75.5012 77.4603C75.5146 77.4469 75.5325 77.4289 75.546 77.4155C75.5594 77.402 75.5774 77.3841 75.5908 77.3707C75.6042 77.3572 75.6222 77.3393 75.6356 77.3259C75.649 77.3124 75.667 77.2945 75.6804 77.2811C75.6938 77.2676 75.7118 77.2497 75.7252 77.2363C75.7387 77.2228 75.7566 77.2049 75.77 77.1915C75.779 77.178 75.7924 77.1601 75.8148 77.1511C75.8283 77.1332 75.8417 77.1153 75.8596 77.1018C75.8641 77.075 75.9134 77.0705 75.891 77.0302C75.882 77.0526 75.8731 77.0794 75.8641 77.1018C75.8417 77.1198 75.8283 77.1332 75.8148 77.1511ZM76.6572 76.2013C76.6527 76.2057 76.6482 76.2102 76.6437 76.2147C76.6437 76.2192 76.6437 76.2192 76.6437 76.2237C76.6437 76.2147 76.6482 76.2057 76.6572 76.2013C76.6885 76.2013 76.702 76.1833 76.702 76.152C76.7916 76.1385 76.814 76.0624 76.8409 75.9952C76.7961 76.0489 76.7513 76.1027 76.7064 76.1565C76.6885 76.1699 76.6706 76.1878 76.6572 76.2013ZM76.5765 76.3446C76.5451 76.3446 76.5317 76.3581 76.5272 76.385C76.4959 76.385 76.4824 76.3984 76.4824 76.4298C76.4511 76.4298 76.4376 76.4477 76.4376 76.4746C76.4063 76.4746 76.3973 76.4925 76.3928 76.5194C76.3435 76.5328 76.3166 76.5642 76.3032 76.609C76.2898 76.6224 76.2718 76.6404 76.2584 76.6538C76.245 76.6672 76.227 76.6807 76.2136 76.6986C76.2001 76.712 76.1822 76.73 76.1688 76.7434C76.1553 76.7568 76.1374 76.7748 76.124 76.7882C76.1105 76.8017 76.0926 76.8196 76.0792 76.833C76.0657 76.8465 76.0523 76.8599 76.0344 76.8778C76.0164 76.8913 76.003 76.9047 75.9851 76.9226C75.9806 76.9271 75.9806 76.9316 75.9761 76.9361H75.9806C75.9806 76.9316 75.9806 76.9226 75.9806 76.9181C75.994 76.9047 76.012 76.8913 76.0254 76.8733C76.0389 76.8599 76.0523 76.8465 76.0702 76.8285C76.0971 76.8285 76.115 76.8106 76.115 76.7837C76.1464 76.7837 76.1598 76.7703 76.1598 76.7389C76.1912 76.7389 76.2046 76.7255 76.2046 76.6941C76.2315 76.6941 76.2494 76.6807 76.2494 76.6493C76.2629 76.6359 76.2808 76.6179 76.2942 76.6045C76.3435 76.5911 76.3704 76.5597 76.3839 76.5149C76.3973 76.5015 76.4152 76.4835 76.4287 76.4701C76.4421 76.4566 76.46 76.4432 76.4735 76.4253C76.4869 76.4118 76.5048 76.3939 76.5183 76.3805C76.5407 76.3715 76.5586 76.3581 76.5765 76.3446C76.5765 76.3357 76.581 76.3312 76.581 76.3267C76.581 76.3222 76.581 76.3222 76.581 76.3178C76.581 76.3267 76.5765 76.3357 76.5765 76.3446ZM75.089 77.8143C75.0755 77.8277 75.0576 77.8456 75.0442 77.8591C75.0307 77.8725 75.0173 77.8859 75.0038 77.9039C74.9904 77.9173 74.9725 77.9352 74.959 77.9487C74.9456 77.9621 74.9277 77.98 74.9142 77.9935C74.9008 78.0069 74.8829 78.0248 74.8694 78.0383C74.856 78.0517 74.8381 78.0696 74.8246 78.0831C74.8112 78.0965 74.7933 78.1144 74.7798 78.1279C74.7753 78.1324 74.7709 78.1324 74.7664 78.1369C74.7619 78.1369 74.7619 78.1413 74.7619 78.1458C74.7664 78.1369 74.7709 78.1324 74.7798 78.1234C74.7933 78.11 74.8112 78.092 74.8246 78.0786C74.8381 78.0652 74.856 78.0472 74.8694 78.0338C74.8829 78.0204 74.9008 78.0024 74.9142 77.989C74.9277 77.9756 74.9456 77.9576 74.959 77.9442C74.9725 77.9263 74.9904 77.9128 75.0038 77.8949C75.0173 77.8815 75.0307 77.868 75.0486 77.8546C75.0531 77.8411 75.0711 77.8277 75.089 77.8143L75.0979 77.8098L75.089 77.8143ZM55.1551 81.2329C55.4911 80.3995 55.8137 79.5975 56.1363 78.8C56.208 78.6297 56.2304 78.3967 56.3603 78.2982C56.4992 78.1906 56.7322 78.2623 56.9249 78.2713C57.0772 78.2757 57.1444 78.2399 57.1803 78.0831C57.3729 77.2945 57.5746 76.5104 57.7896 75.7263C57.8389 75.5426 57.7851 75.5247 57.6194 75.5247C56.8577 75.5337 56.096 75.5426 55.3343 75.5202C55.0789 75.5157 54.9042 75.565 54.8056 75.807C54.7608 75.9145 54.6891 75.9593 54.5636 75.9548C53.4883 75.9414 52.413 75.9324 51.3421 75.9324C51.2167 75.9324 51.1405 75.9011 51.0733 75.789C50.921 75.5337 50.7373 75.2962 50.5984 75.0318C50.4774 74.8078 50.3206 74.7003 50.0697 74.7451C49.9397 74.7675 49.877 74.7316 49.877 74.5703C49.886 73.7997 49.886 73.0335 49.877 72.2629C49.877 72.1329 49.9218 72.0836 50.0383 72.0478C50.6342 71.8462 51.1853 71.5594 51.7006 71.1965C53.0447 70.2421 53.8243 68.9876 53.8019 67.2984C53.7975 66.7921 53.8109 66.2858 53.8199 65.775C53.8378 64.6415 52.6728 63.7678 51.8439 63.7543C49.7605 63.7274 47.6815 63.7409 45.5981 63.7498C44.5362 63.7543 43.7476 64.5743 43.7476 65.6406C43.7476 66.2679 43.7476 66.8952 43.7476 67.5225C43.7476 67.7241 43.7745 67.9257 43.8193 68.1184C44.0254 69.001 44.5631 69.6686 45.2262 70.2421C46.1357 71.0307 47.1932 71.5773 48.3043 72.0254C48.4432 72.0792 48.497 72.1419 48.4925 72.2987C48.4835 73.038 48.4791 73.7773 48.4925 74.5166C48.497 74.7048 48.4253 74.754 48.264 74.7227C48.0489 74.6779 47.928 74.7764 47.8249 74.9601C47.6591 75.2514 47.4665 75.5247 47.2962 75.8115C47.2335 75.9145 47.1707 75.9548 47.0498 75.9548C45.7683 75.9503 44.4824 75.9324 43.201 75.8831C43.1069 75.8787 43.0397 75.8607 43.0397 75.7532C43.0397 75.5785 42.9456 75.5337 42.7843 75.5337C41.9016 75.5337 41.0235 75.5247 40.1408 75.5247C40.0646 75.5247 39.9481 75.462 39.9123 75.5874C39.8809 75.6994 39.8899 75.8115 40.0064 75.9055C40.208 76.0668 40.3917 76.2595 40.5888 76.4298C40.6785 76.5059 40.7277 76.5911 40.7322 76.712C40.7546 77.1915 40.8442 77.6574 40.9607 78.1234C40.9876 78.2354 41.0324 78.2713 41.1399 78.2578C41.2878 78.2354 41.4357 78.2309 41.5835 78.2085C41.709 78.1906 41.7627 78.213 41.7896 78.3564C41.8748 78.7776 41.9912 79.1943 42.1346 79.602C42.3363 80.171 42.5782 80.7132 42.9456 81.2239C43.0352 81.085 43.1024 80.9596 43.1876 80.8521C43.3489 80.6504 43.3892 80.4264 43.3802 80.1665C43.3444 79.1674 43.3354 78.1682 43.304 77.1691C43.2996 76.9764 43.3444 76.9316 43.5326 76.9629C44.7154 77.178 45.9072 77.3035 47.108 77.3707C49.5678 77.5051 52.0142 77.3528 54.4382 76.9405C54.6219 76.9092 54.6443 76.9495 54.6398 77.1198C54.6264 78.1503 54.6264 79.1808 54.6219 80.2069C54.6219 80.2965 54.6174 80.3816 54.6712 80.4623C54.8325 80.7132 54.9848 80.9596 55.1551 81.2329ZM48.5687 78.1458C48.5687 78.1413 48.5687 78.1324 48.5687 78.1279C47.6457 78.1279 46.7182 78.1279 45.7952 78.1279C45.3158 78.1279 45.3248 78.1279 45.3113 78.6118C45.3068 78.7776 45.3606 78.8672 45.504 78.9389C45.7863 79.0867 46.082 79.2032 46.3867 79.3063C46.5748 79.3735 46.6555 79.3376 46.7317 79.1539C46.9154 78.7193 46.9243 78.7283 47.3993 78.7372C47.5606 78.7417 47.6502 78.7955 47.7353 78.9299C47.91 79.2256 48.1027 79.5079 48.2909 79.7947C48.4925 80.1083 48.954 80.1441 49.2049 79.8663C49.4245 79.6244 49.644 79.378 49.8591 79.1315C50.1772 78.7731 50.1772 78.7686 50.5536 79.0733C50.9523 79.4004 50.9523 79.4004 51.3914 79.1405C51.8439 78.8761 51.8305 78.8761 51.8439 78.3519C51.8484 78.1593 51.7767 78.1369 51.6154 78.1369C50.5984 78.1503 49.5813 78.1458 48.5687 78.1458Z" fill="#FEFEFE"/>
<path d="M77.9573 22.5156C78.0738 22.9234 78.1007 23.349 78.1276 23.7702C78.1634 24.3347 78.2217 24.8993 78.1769 25.4638C78.1186 26.2121 78.0962 26.9558 78.0111 27.7041C77.8767 28.8377 77.693 29.9623 77.4689 31.0779C77.2135 32.3683 76.8954 33.6408 76.5459 34.9043C76.0486 36.71 75.4706 38.4932 74.8657 40.2675C74.8433 40.3302 74.8209 40.3885 74.7851 40.4826C74.579 40.1734 74.3952 39.8911 74.2071 39.6134C73.4364 38.4439 72.5851 37.3238 71.6845 36.2485C71.2812 35.7646 70.8556 35.2986 70.4255 34.8326C69.9998 34.3711 69.5607 33.9276 69.1126 33.4929C68.5347 32.9284 67.9343 32.3818 67.3025 31.8755C67.3025 31.7859 67.3742 31.7321 67.41 31.6604C67.7998 30.8718 68.2345 30.1146 68.7049 29.3753C69.3008 28.4434 69.9371 27.5383 70.6584 26.696C71.2633 25.988 71.9175 25.3294 72.6389 24.738C73.4319 24.0928 74.2922 23.5506 75.2421 23.1608C76.1158 22.7979 77.0074 22.5425 77.9573 22.5156Z" fill="#FE8300"/>
<path d="M27.8508 31.8755C27.3131 32.3414 26.7754 32.8119 26.2602 33.3048C25.8166 33.7259 25.3909 34.1605 24.9698 34.5996C24.1454 35.4554 23.3702 36.3605 22.6399 37.2969C21.9409 38.193 21.2823 39.1205 20.6595 40.0704C20.5788 40.1958 20.5027 40.3168 20.3996 40.4826C20.3279 40.3034 20.2607 40.1555 20.2114 40.0076C19.5304 37.969 18.8807 35.9259 18.3475 33.8424C17.9532 32.3101 17.6082 30.7733 17.3708 29.2095C17.2588 28.4837 17.1781 27.7579 17.1019 27.0275C16.9989 26.0552 17.0078 25.0785 17.0258 24.1062C17.0347 23.573 17.1064 23.0443 17.196 22.5156C17.3887 22.5201 17.5769 22.5201 17.774 22.5515C18.6388 22.6904 19.4632 22.9278 20.2562 23.3042C21.2106 23.7567 22.0798 24.3213 22.8684 25.0247C23.7107 25.773 24.4724 26.5884 25.1624 27.4801C25.8748 28.3986 26.4932 29.3753 27.0756 30.3745C27.3579 30.8629 27.6581 31.3423 27.8508 31.8755Z" fill="#FE8300"/>
<path d="M26.8296 52.5166C26.852 51.8176 26.8654 51.0918 27.1298 50.4018C27.3314 49.8776 27.3493 49.8596 27.9049 49.8686C28.7293 49.882 29.5 50.1374 30.2572 50.4331C32.0181 51.1187 33.6535 52.0551 35.2709 53.0229C36.3418 53.6681 37.435 54.2864 38.4207 55.0615C39.0122 55.523 39.5454 56.0427 39.9576 56.6745C40.1861 57.0284 40.3653 57.4003 40.4325 57.8215C40.4818 58.1306 40.4146 58.2516 40.1278 58.3726C39.7783 58.516 39.402 58.5473 39.0301 58.5563C38.0578 58.5787 37.0945 58.4577 36.1401 58.283C34.0477 57.9021 32.0136 57.3197 30.078 56.4146C29.1729 55.989 28.3171 55.4827 27.551 54.8285C27.1208 54.4611 26.8341 54.0489 26.8654 53.4575C26.8834 53.1528 26.8475 52.8481 26.8296 52.5166Z" fill="#010000"/>
<path d="M69.4077 52.3991C69.4212 52.9502 69.3674 53.47 69.3226 53.9897C69.3136 54.0972 69.2599 54.1689 69.1971 54.2406C68.5698 54.9933 67.7768 55.531 66.93 55.997C65.1153 56.9872 63.1663 57.6189 61.1501 58.067C59.8507 58.3537 58.5424 58.5688 57.2072 58.515C56.8846 58.5016 56.5665 58.4658 56.2707 58.3224C55.9526 58.1656 55.9526 58.0267 55.9974 57.7892C56.1363 57.0589 56.5261 56.4674 57.0056 55.9253C57.485 55.3787 58.0361 54.9082 58.641 54.5094C60.6527 53.1787 62.6959 51.8928 64.8734 50.8399C65.7381 50.4187 66.6208 50.0468 67.5707 49.8497C67.9426 49.7735 68.3189 49.7287 68.7043 49.769C68.8342 49.7825 68.9014 49.8362 68.9641 49.9438C69.2016 50.3694 69.2957 50.8354 69.3584 51.3059C69.4032 51.6777 69.4212 52.0496 69.4077 52.3991Z" fill="#010000"/>
<path d="M77.9569 22.5137C77.007 22.5406 76.1109 22.796 75.2417 23.1545C74.2918 23.5443 73.4315 24.0864 72.6385 24.7316C71.9171 25.3186 71.2674 25.9817 70.6581 26.6896C69.9367 27.5319 69.3005 28.437 68.7046 29.369C68.2341 30.1083 67.795 30.8699 67.4097 31.654C67.3738 31.7257 67.2977 31.7795 67.3022 31.8691C66.3254 31.0581 65.3038 30.3054 64.2464 29.5975C64.2419 29.593 64.233 29.5885 64.2285 29.584C63.8028 29.3062 63.7849 29.2883 64.1434 28.9254C64.9678 28.0741 65.8191 27.2542 66.6928 26.4521C67.0602 26.1161 67.4231 25.7756 67.795 25.444C68.5298 24.7854 69.2915 24.1536 70.0711 23.5487C70.7253 23.038 71.4019 22.5496 72.0919 22.0881C72.9432 21.5235 73.8169 20.9993 74.7309 20.5513C75.4343 20.2063 76.1512 19.9016 76.8905 19.6462C77.0429 19.5924 77.0563 19.691 77.0966 19.7717C77.4506 20.4482 77.7015 21.1606 77.8673 21.9044C77.9166 22.1015 77.9748 22.3032 77.9569 22.5137Z" fill="#FE9200"/>
<path d="M27.8509 31.8752C27.6537 31.342 27.3535 30.8626 27.0713 30.3742C26.4888 29.3751 25.8705 28.3938 25.1581 27.4798C24.4681 26.5926 23.7064 25.7727 22.864 25.0245C22.0754 24.321 21.2017 23.7565 20.2519 23.3039C19.4633 22.9276 18.6344 22.6901 17.7696 22.5512C17.577 22.5198 17.3843 22.5198 17.1917 22.5154C17.2902 21.7895 17.4918 21.095 17.7696 20.4185C17.8548 20.2124 17.9578 20.0152 18.0474 19.8091C18.1146 19.6523 18.2132 19.6209 18.37 19.6747C18.8853 19.8495 19.3871 20.0556 19.88 20.2796C21.0091 20.7993 22.0889 21.4132 23.1239 22.1121C24.2082 22.8424 25.2522 23.6265 26.2468 24.4734C26.892 25.02 27.5283 25.58 28.1555 26.1491C29.2174 27.1124 30.2076 28.1384 31.2292 29.1421C31.3681 29.281 31.3457 29.3526 31.1934 29.4423C30.1449 30.083 29.1816 30.8357 28.2138 31.5884C28.0973 31.678 27.9898 31.7945 27.8509 31.8752Z" fill="#FE9200"/>
<path d="M63.4134 47.9051C62.2709 47.8917 61.1418 47.8155 60.0216 47.5511C58.6954 47.242 58.4086 46.319 58.6058 45.0913C58.7402 44.249 59.2286 43.5814 59.8335 43.0079C60.407 42.4613 61.0118 41.946 61.7825 41.6906C62.9116 41.3098 63.9825 41.5248 64.9816 42.1118C66.0525 42.7391 66.8321 43.6172 67.0965 44.8628C67.3205 45.9157 66.9665 46.8029 66.2272 47.5467C65.9942 47.7796 65.6492 47.7617 65.3401 47.8021C64.6949 47.8827 64.0542 47.9141 63.4134 47.9051Z" fill="#FEFEFE"/>
<path d="M31.9549 47.9022C31.1574 47.8977 30.3598 47.8753 29.5713 47.723C29.3651 47.6827 29.1994 47.5931 29.0605 47.4318C28.2181 46.4729 28.0165 45.3976 28.5049 44.2147C29.1456 42.6555 30.8975 41.4906 32.5508 41.504C33.1915 41.5085 33.7874 41.6743 34.3251 42.0282C35.1182 42.5435 35.8395 43.1439 36.3413 43.9638C36.8297 44.7569 37 45.5992 36.7087 46.5088C36.5833 46.9031 36.3369 47.1764 35.956 47.3421C35.4183 47.5751 34.8493 47.6872 34.2713 47.7633C33.5052 47.8664 32.7345 47.9112 31.9549 47.9022Z" fill="#FEFEFE"/>
<path d="M55.1552 81.2323C54.9849 80.959 54.8371 80.7125 54.6802 80.4661C54.6265 80.3855 54.631 80.3003 54.631 80.2107C54.6354 79.1802 54.6354 78.1497 54.6489 77.1236C54.6489 76.9534 54.631 76.913 54.4473 76.9444C52.0188 77.3566 49.5769 77.5134 47.1171 77.3745C45.9163 77.3073 44.7245 77.1819 43.5416 76.9668C43.3489 76.931 43.3041 76.9758 43.3131 77.1729C43.3444 78.1721 43.3534 79.1712 43.3893 80.1704C43.3982 80.4303 43.3579 80.6498 43.1966 80.8559C43.1115 80.9634 43.0442 81.0889 42.9546 81.2278C42.5872 80.717 42.3453 80.1704 42.1437 79.6058C42.0003 79.1981 41.8838 78.7814 41.7987 78.3603C41.7718 78.2169 41.7135 78.1945 41.5925 78.2124C41.4447 78.2348 41.2968 78.2393 41.149 78.2617C41.0414 78.2751 40.9966 78.2438 40.9698 78.1273C40.8533 77.6613 40.7636 77.1953 40.7412 76.7159C40.7368 76.5904 40.6875 76.5098 40.5979 76.4336C40.4007 76.2634 40.217 76.0752 40.0154 75.9094C39.8989 75.8153 39.8899 75.7078 39.9213 75.5913C39.9527 75.4658 40.0736 75.5286 40.1498 75.5286C41.0325 75.5286 41.9107 75.5375 42.7933 75.5375C42.9546 75.5375 43.0487 75.5778 43.0487 75.7571C43.0487 75.8646 43.1159 75.8825 43.21 75.887C44.4915 75.9363 45.7774 75.9542 47.0588 75.9587C47.1798 75.9587 47.247 75.9184 47.3053 75.8153C47.4755 75.5286 47.6727 75.2552 47.834 74.964C47.937 74.7803 48.0535 74.6817 48.2731 74.7265C48.4344 74.7579 48.5016 74.7086 48.5016 74.5204C48.4881 73.7811 48.4926 73.0419 48.5016 72.3026C48.5016 72.1502 48.4523 72.0875 48.3134 72.0293C47.2022 71.5857 46.1493 71.0391 45.2352 70.246C44.5721 69.668 44.0345 69.0049 43.8283 68.1222C43.7835 67.9251 43.7567 67.7279 43.7567 67.5263C43.7611 66.8991 43.7567 66.2718 43.7567 65.6445C43.7567 64.5781 44.5452 63.7582 45.6071 63.7537C47.6906 63.7448 49.7696 63.7358 51.853 63.7582C52.6774 63.7672 53.8424 64.6409 53.8289 65.7789C53.82 66.2852 53.8065 66.7915 53.811 67.3023C53.8334 68.9915 53.0538 70.2505 51.7096 71.2004C51.1944 71.5633 50.6433 71.85 50.0474 72.0517C49.9353 72.092 49.8861 72.1368 49.8861 72.2667C49.895 73.0374 49.895 73.8036 49.8861 74.5742C49.8861 74.7355 49.9488 74.7713 50.0787 74.7489C50.3341 74.7041 50.4909 74.8117 50.6074 75.0357C50.7463 75.2956 50.93 75.5375 51.0824 75.7929C51.1496 75.9049 51.2257 75.9363 51.3512 75.9363C52.4265 75.9408 53.5019 75.9452 54.5727 75.9587C54.6982 75.9587 54.7743 75.9139 54.8147 75.8108C54.9132 75.5689 55.088 75.5196 55.3434 75.5241C56.1051 75.542 56.8668 75.5375 57.6284 75.5286C57.7942 75.5286 57.848 75.5465 57.7987 75.7302C57.5881 76.5143 57.3865 77.2984 57.1894 78.0869C57.149 78.2438 57.0863 78.2841 56.934 78.2751C56.7413 78.2662 56.5083 78.1989 56.3694 78.302C56.244 78.4006 56.2171 78.6291 56.1454 78.8038C55.8138 79.6014 55.4912 80.3989 55.1552 81.2323Z" fill="#010000"/>
<path d="M48.569 78.1443C49.5816 78.1443 50.5986 78.1488 51.6112 78.1398C51.777 78.1398 51.8442 78.1622 51.8397 78.3549C51.8263 78.8791 51.8397 78.8791 51.3872 79.1435C50.9526 79.3989 50.9526 79.3989 50.5493 79.0763C50.173 78.7716 50.173 78.7716 49.8549 79.1345C49.6398 79.381 49.4203 79.6274 49.2007 79.8693C48.9498 80.1471 48.4883 80.1113 48.2867 79.7977C48.103 79.5109 47.9058 79.2286 47.7311 78.9329C47.6505 78.794 47.5564 78.7447 47.3951 78.7402C46.9201 78.7313 46.9112 78.7223 46.7275 79.1569C46.6513 79.3406 46.5706 79.372 46.3825 79.3093C46.0823 79.2017 45.7821 79.0897 45.4998 78.9419C45.3564 78.8657 45.3027 78.7761 45.3071 78.6148C45.3206 78.1309 45.3116 78.1309 45.791 78.1309C46.714 78.1309 47.6415 78.1309 48.5645 78.1309C48.569 78.1309 48.569 78.1398 48.569 78.1443Z" fill="#010000"/>
</svg>