<svg width="97" height="96" viewBox="0 0 97 96" fill="none" xmlns="http://www.w3.org/2000/svg">
<circle cx="48.2476" cy="48" r="48" fill="white"/>
<path fill-rule="evenodd" clip-rule="evenodd" d="M84.3372 58.736L69.9794 78.7495C67.7213 81.9277 63.3399 83.4579 57.644 82.9894C50.2965 82.3828 40.556 78.4999 31.22 71.803C21.884 65.1027 15.0761 57.1216 12.1102 50.364C9.85199 45.1264 9.88543 40.5024 12.1773 37.3207L26.5014 17.3073C28.7933 14.129 33.1747 12.5988 38.8369 13.0673C46.1844 13.674 55.9585 17.5601 65.2945 24.257C74.6304 30.954 81.4385 38.9351 84.3707 45.6927C86.6626 50.9303 86.5953 55.5577 84.3372 58.736ZM30.3438 20.0576C31.8268 18.0016 34.7926 17.4692 38.4663 17.7725C45.1734 18.3253 54.0039 21.9786 62.531 28.0925C71.0581 34.203 77.3607 41.4056 80.057 47.5734C81.5063 50.9539 81.9778 53.9332 80.4948 55.9892L82.4163 57.361L80.4948 55.9892L66.1371 76.0025C64.6878 78.055 61.7219 78.5909 58.0481 78.2842C51.3411 77.7348 42.4769 74.078 33.9499 67.9675C25.4228 61.8536 19.12 54.6512 16.4574 48.4868C14.9745 45.1029 14.5367 42.1234 16.0197 40.0709L30.3438 20.0576Z" fill="white"/>
<path fill-rule="evenodd" clip-rule="evenodd" d="M28.4495 19.1291C33.1343 12.5905 49.0086 15.9475 63.9057 26.6181C78.8028 37.2921 87.0941 51.269 82.4093 57.8075L68.0851 77.821C63.4003 84.3595 47.4918 81.0026 32.5947 70.3286C17.6976 59.6546 9.40694 45.6809 14.0918 39.1424L28.4495 19.1291Z" fill="white"/>
<path fill-rule="evenodd" clip-rule="evenodd" d="M27.4229 17.9309C29.5069 15.0132 33.536 13.7282 38.7461 14.1451C45.9362 14.7355 55.4534 18.5909 64.6233 25.121C73.7584 31.6858 80.4624 39.5012 83.3107 46.1007C85.3947 50.894 85.4639 55.1314 83.3799 58.0491L69.0696 78.0563C66.9855 80.974 62.9217 82.259 57.7463 81.8422C50.5562 81.217 41.0043 77.3965 31.8691 70.8317C22.6993 64.3016 16.0301 56.4861 13.1472 49.8865C11.0631 45.0932 10.9939 40.8558 13.078 37.9381L27.4229 17.9309ZM81.4003 56.6252V56.5906C83.0675 54.2981 82.72 50.894 81.0875 47.0732C78.3435 40.7863 71.9178 33.3877 63.1647 27.1355C54.4464 20.8833 45.3806 17.1668 38.5379 16.6111C34.3697 16.2637 31.0704 17.028 29.4031 19.3552L29.3333 19.4939C27.7702 21.8212 28.118 25.1209 29.7505 28.8722C32.4945 35.1939 38.9204 42.5923 47.6387 48.8445C56.357 55.0967 65.4222 58.8136 72.2649 59.3693C76.3635 59.6819 79.5938 58.9525 81.2958 56.7642L81.4003 56.5906V56.6252ZM59.1011 32.7975C63.4776 35.9236 66.7075 39.6401 68.0621 42.8009C68.861 44.5724 69.0693 46.1355 68.2704 47.2123C67.5062 48.289 65.9435 48.6016 64.0331 48.428C60.5944 48.1501 56.0789 46.2744 51.7024 43.1483C47.3258 40.0222 44.0952 36.3403 42.7406 33.1794C41.9764 31.408 41.7682 29.8449 42.5323 28.7681C43.2965 27.6913 44.8598 27.3789 46.8049 27.5178C50.2089 27.8304 54.7593 29.6714 59.1011 32.7975Z" fill="#0E0F23"/>
<mask id="mask0" mask-type="alpha" maskUnits="userSpaceOnUse" x="11" y="14" width="74" height="68">
<path fill-rule="evenodd" clip-rule="evenodd" d="M27.4229 17.9309C29.5069 15.0132 33.536 13.7282 38.7461 14.1451C45.9362 14.7355 55.4534 18.5909 64.6233 25.121C73.7584 31.6858 80.4624 39.5012 83.3107 46.1007C85.3947 50.894 85.4639 55.1314 83.3799 58.0491L69.0696 78.0563C66.9855 80.974 62.9217 82.259 57.7463 81.8422C50.5562 81.217 41.0043 77.3965 31.8691 70.8317C22.6993 64.3016 16.0301 56.4861 13.1472 49.8865C11.0631 45.0932 10.9939 40.8558 13.078 37.9381L27.4229 17.9309ZM81.4003 56.6252V56.5906C83.0675 54.2981 82.72 50.894 81.0875 47.0732C78.3435 40.7863 71.9178 33.3877 63.1647 27.1355C54.4464 20.8833 45.3806 17.1668 38.5379 16.6111C34.3697 16.2637 31.0704 17.028 29.4031 19.3552L29.3333 19.4939C27.7702 21.8212 28.118 25.1209 29.7505 28.8722C32.4945 35.1939 38.9204 42.5923 47.6387 48.8445C56.357 55.0967 65.4222 58.8136 72.2649 59.3693C76.3635 59.6819 79.5938 58.9525 81.2958 56.7642L81.4003 56.5906V56.6252ZM59.1011 32.7975C63.4776 35.9236 66.7075 39.6401 68.0621 42.8009C68.861 44.5724 69.0693 46.1355 68.2704 47.2123C67.5062 48.289 65.9435 48.6016 64.0331 48.428C60.5944 48.1501 56.0789 46.2744 51.7024 43.1483C47.3258 40.0222 44.0952 36.3403 42.7406 33.1794C41.9764 31.408 41.7682 29.8449 42.5323 28.7681C43.2965 27.6913 44.8598 27.3789 46.8049 27.5178C50.2089 27.8304 54.7593 29.6714 59.1011 32.7975Z" fill="#0E0F23"/>
</mask>
<g mask="url(#mask0)">
<path fill-rule="evenodd" clip-rule="evenodd" d="M8.50195 57.2312C8.88403 57.2312 9.50939 58.1369 9.85673 58.3841C11.0724 59.2904 12.288 60.1971 13.5384 60.9386C17.1856 63.163 20.9713 64.3982 24.7227 63.5743C30.6275 62.2561 35.9766 51.9583 41.9162 53.3588C45.2507 54.1003 47.6129 58.7964 50.5306 62.0094C53.3093 65.2225 56.3657 66.6229 59.4571 65.9638C68.6617 64.1513 72.1353 46.0263 81.4788 47.0149C89.2246 47.8388 86.2027 57.1483 93.6359 60.4438C93.7053 60.5262 111.593 44.7905 111.732 42.0717C112.253 31.6086 102.32 -91.6414 102.771 -91.6414L14.1639 -59.0988L8.50195 57.2312Z" fill="url(#paint0_linear)"/>
</g>
<path fill-rule="evenodd" clip-rule="evenodd" d="M25.947 24.5063C26.2345 24.4943 26.4773 24.7176 26.4893 25.0051C26.4967 25.1809 26.5074 25.3566 26.5213 25.5322C26.544 25.819 26.3298 26.07 26.043 26.0927C25.7561 26.1154 25.5052 25.9013 25.4825 25.6144C25.4676 25.4261 25.4561 25.2375 25.4482 25.0487C25.4362 24.7612 25.6595 24.5183 25.947 24.5063ZM26.2202 26.8816C26.5048 26.8385 26.7703 27.0342 26.8134 27.3187C27.435 31.4247 29.5797 34.7184 32.5834 38.4364C32.7643 38.6602 32.7294 38.9883 32.5056 39.1691C32.2818 39.3499 31.9537 39.3151 31.7729 39.0912C28.7181 35.3101 26.4446 31.8443 25.7831 27.4747C25.74 27.1902 25.9357 26.9247 26.2202 26.8816ZM41.4505 48.0903C41.6382 47.8722 41.9671 47.8475 42.1852 48.0352C42.3233 48.154 42.4607 48.2717 42.5972 48.3884C42.7678 48.5337 42.9402 48.6784 43.1145 48.8224C43.3363 49.0057 43.3675 49.3341 43.1842 49.556C43.0009 49.7778 42.6725 49.809 42.4507 49.6257C42.2725 49.4784 42.096 49.3303 41.9215 49.1816C41.7838 49.064 41.6448 48.9449 41.5056 48.825C41.2874 48.6373 41.2628 48.3084 41.4505 48.0903ZM43.4409 49.7617C43.6178 49.5348 43.9452 49.4942 44.1721 49.6711C48.4659 53.0186 53.694 55.9535 58.8877 58.0532C59.1545 58.161 59.2833 58.4647 59.1754 58.7315C59.0676 58.9982 58.7639 59.1271 58.4971 59.0192C53.2232 56.8871 47.9091 53.9058 43.5314 50.4929C43.3045 50.316 43.264 49.9886 43.4409 49.7617ZM76.536 61.6586C76.5817 61.9427 76.3883 62.21 76.1042 62.2556C75.8746 62.2925 75.6408 62.3242 75.4031 62.3509C75.1171 62.3829 74.8593 62.1771 74.8273 61.8911C74.7952 61.6051 75.0011 61.3474 75.287 61.3153C75.509 61.2904 75.7264 61.2609 75.939 61.2268C76.2231 61.1811 76.4904 61.3745 76.536 61.6586Z" fill="white"/>
<defs>
<linearGradient id="paint0_linear" x1="40.1796" y1="13.978" x2="49.8733" y2="62.7794" gradientUnits="userSpaceOnUse">
<stop stop-color="#27B0E6"/>
<stop offset="0.52" stop-color="#C26BB3"/>
<stop offset="1" stop-color="#FA52A0"/>
</linearGradient>
</defs>
</svg>
