<svg width="96" height="96" viewBox="0 0 96 96" fill="none" xmlns="http://www.w3.org/2000/svg">
<circle cx="48" cy="48" r="48" fill="url(#paint0_linear)"/>
<path fill-rule="evenodd" clip-rule="evenodd" d="M15.0098 49.42C15.0581 45.4344 16.0726 42.4696 18.2465 39.8936C18.7296 39.3103 19.3093 38.7757 19.8407 38.241C20.7586 37.2689 21.6764 36.3455 22.5943 35.3734C23.802 34.1583 25.0098 32.9918 26.2175 31.7767C26.9904 30.999 27.7634 30.2213 28.5363 29.4437C29.3576 28.6174 30.2272 27.7911 31.0484 26.9648C31.8697 26.1872 32.6426 25.4095 33.4156 24.5832C34.9614 23.0279 36.5073 21.4726 38.0532 19.9172C40.2271 17.7786 42.8358 16.5149 45.8793 16.1261C48.5363 15.7859 51.0967 16.1261 53.5121 17.244C54.5266 17.73 55.4445 18.4105 56.3141 19.0424C56.8938 19.4798 56.8455 19.577 56.4107 20.1603C56.3141 20.3061 56.1691 20.4033 56.0725 20.5491C54.1885 22.4447 52.2561 24.3888 50.372 26.2844C49.5025 27.1593 48.6329 27.9855 47.7633 28.8118C46.7489 29.8325 45.7827 30.8046 44.8165 31.8253C44.0919 32.5543 43.3189 33.2834 42.5943 34.0125C41.3866 35.2276 40.2754 36.4913 39.0677 37.7064C38.1498 38.6299 37.232 39.5047 36.3141 40.4282C35.3479 41.4489 34.3817 42.4696 33.3672 43.4903C32.4977 44.4138 31.5798 45.2886 30.7102 46.1635C29.8407 47.1356 28.9711 48.1077 28.0532 49.0312C27.6185 49.4686 27.1837 49.8574 26.7972 50.2949C25.9276 51.2183 25.0581 52.1418 24.1885 53.0653C23.3673 53.9402 22.4977 54.8151 21.6764 55.6413C21.0967 56.2246 20.517 56.8564 19.9373 57.4397C19.8407 57.5369 19.7441 57.6341 19.6475 57.7313C19.0678 58.2174 18.7296 58.2174 18.2948 57.5855C17.6185 56.7106 16.9422 55.7871 16.4591 54.7665C15.5412 52.9195 14.9132 50.9267 15.0098 49.42ZM80.8551 50.7323C80.4686 54.1346 78.971 56.4676 78.5845 57.0995C78.1498 57.7313 77.57 58.4118 76.3623 59.7241C75.3961 60.7934 74.3817 61.8141 73.3672 62.8348C72.3527 63.8068 71.3382 64.7789 70.3237 65.7996C69.4058 66.6745 68.5363 67.598 67.6667 68.4728C66.7005 69.4449 65.7343 70.417 64.7681 71.3891C63.7537 72.4098 62.6909 73.4791 61.6764 74.4998C60.2754 75.9093 58.9227 77.3674 57.4252 78.6797C55.3962 80.4781 53.029 81.596 50.3237 81.8876C47.6184 82.1792 44.9614 81.9362 42.4977 80.7697C41.4832 80.2837 40.5653 79.6032 39.6474 78.9713C39.116 78.5825 39.116 78.2909 39.5508 77.8048C40.2754 77.0272 41.0967 76.2495 41.8696 75.4718C42.3044 75.0344 42.7392 74.5484 43.2223 74.1109C44.1885 73.1874 45.1547 72.2154 46.1208 71.2919C46.2175 71.1947 46.3141 71.1461 46.3624 71.0489C47.2803 70.1254 48.1498 69.2019 49.0677 68.2784C49.9373 67.4035 50.8068 66.5773 51.6281 65.751C52.0145 65.3622 52.401 64.9733 52.7875 64.5845C52.9807 64.3901 53.1257 64.1957 53.3189 64.0013C54.4783 62.8347 55.6377 61.6682 56.7971 60.5017C57.715 59.6269 58.6329 58.752 59.5025 57.8285C60.7585 56.5648 62.0628 55.3497 63.2706 54.0374C64.3334 52.9195 64.8648 51.51 65.058 50.0032C65.2995 48.2049 64.7681 46.5523 63.802 45.0456C63.2706 44.2193 62.5942 44.1221 61.8696 44.8512C60.2271 46.4551 58.5846 48.0591 56.9421 49.663C55.2029 51.3642 53.4638 53.0653 51.6764 54.7665C50.4203 56.0302 49.116 57.2453 47.8117 58.4604C46.2658 59.9671 44.7199 61.5224 43.174 63.0778C42.401 63.8554 41.5798 64.5845 40.8068 65.3622C39.6957 66.4315 38.5846 67.5008 37.4735 68.6186C36.8455 69.2019 36.0726 69.5421 35.2996 69.7852C34.1885 70.1254 33.0774 70.0768 31.9663 69.8824C30.8069 69.6879 29.8407 69.1047 28.9711 68.2784C27.6185 66.9175 26.2658 65.5566 24.8648 64.1957C24.2851 63.6124 24.3334 63.5638 24.8648 63.0292C27.7151 60.2101 30.517 57.3911 33.3672 54.5234C35.4928 52.3848 37.6668 50.2463 39.7924 48.1077C40.9518 46.9412 42.1112 45.7747 43.2706 44.6568C44.2368 43.6847 45.203 42.8098 46.1691 41.8377C47.087 40.9143 47.9566 39.9908 48.8745 39.0673C49.744 38.1924 50.6136 37.3175 51.5315 36.4427C52.5943 35.3734 53.6571 34.3041 54.7199 33.2834C55.7343 32.2627 56.7971 31.2906 57.8116 30.2699C57.9083 30.1727 58.0049 30.0755 58.1015 29.9783C59.2609 28.5688 60.8068 27.9855 62.5942 27.9369C64.6232 27.8397 66.2657 28.5688 67.6667 30.0269C70.4203 32.846 73.2222 35.665 76.0242 38.4354C77.9082 40.331 78.2464 40.7198 78.8744 41.6919C80.5652 44.2679 80.9034 46.6496 81 47.2814C80.8551 47.7188 81.0483 49.0312 80.8551 50.7323Z" fill="white"/>
<defs>
<linearGradient id="paint0_linear" x1="48" y1="0" x2="48" y2="96" gradientUnits="userSpaceOnUse">
<stop stop-color="#F16154"/>
<stop offset="1" stop-color="#C35348"/>
</linearGradient>
</defs>
</svg>
