<svg width="96" height="97" viewBox="0 0 96 97" fill="none" xmlns="http://www.w3.org/2000/svg">
<g clip-path="url(#clip0)">
<circle cx="48" cy="48.5" r="48" fill="#C4C4C4"/>
<ellipse cx="48" cy="48.5" rx="46" ry="46" fill="white"/>
<path fill-rule="evenodd" clip-rule="evenodd" d="M48 8.564C70.0645 8.564 87.871 26.42 87.871 48.5C87.871 70.58 69.871 88.436 48 88.436C26.129 88.436 8.12903 70.58 8.12903 48.5C8.12903 26.42 25.9355 8.564 48 8.564ZM48 3.188V5.876C24.3871 5.876 5.41935 24.884 5.41935 48.5C5.41935 72.116 24.5806 91.124 48 91.124C71.4194 91.124 90.5807 72.116 90.5807 48.5C90.5807 24.884 71.4194 5.876 48 5.876V3.188ZM48 3.188V0.5C74.5161 0.5 96 22.004 96 48.5C96 74.996 74.5161 96.5 48 96.5C21.4839 96.5 0 74.996 0 48.5C0 22.004 21.4839 0.5 48 0.5V3.188Z" fill="#2862FF"/>
<path fill-rule="evenodd" clip-rule="evenodd" d="M59.1222 33.139V71.539H51.3802V33.139H43.6383V71.539H35.8964V33.139H25.8318V25.459H69.3802V33.139H59.1222Z" fill="white"/>
<path d="M43.2512 48.5003H32.4125C30.2835 48.5003 28.5416 50.2283 28.5416 52.3403C28.5416 54.4523 30.2835 56.1803 32.4125 56.1803H43.2512H66.8641C68.9931 56.1803 70.7351 57.9083 70.7351 60.0203C70.7351 62.1323 68.9931 63.8603 66.8641 63.8603H32.219L32.6061 56.1803H43.0577C41.5093 60.5963 37.2512 63.8603 32.219 63.8603C25.8319 63.8603 20.6061 58.6763 20.6061 52.3403C20.6061 46.0043 25.6383 40.8203 32.0254 40.8203H66.6706C68.7996 40.8203 70.5415 42.5483 70.5415 44.6603C70.5415 46.7723 68.7996 48.5003 66.6706 48.5003H43.2512Z" fill="white"/>
</g>
<defs>
<clipPath id="clip0">
<rect width="96" height="96" fill="white" transform="translate(0 0.5)"/>
</clipPath>
</defs>
</svg>
