<svg width="96" height="96" viewBox="0 0 96 96" fill="none" xmlns="http://www.w3.org/2000/svg">
<circle cx="48" cy="48" r="48" fill="white"/>
<path d="M47.7447 38C44.298 38.0493 41.9789 40.8345 42.0001 44.9014C42.0001 49.2148 44.3405 52 47.8936 52H48V38H47.7447Z" fill="#17A84B"/>
<path d="M54.9999 44.9261C54.9502 41.1056 51.8474 38.0246 48 38V52C51.8971 51.9754 55.0247 48.8204 54.9999 44.9261C54.9999 44.9507 54.9999 44.9507 54.9999 44.9261Z" fill="#077FA2"/>
<path d="M48 53.5273L46.7546 53.5728C43.9693 53.5728 41.8181 55.7364 41.4558 58.5833C41.2747 60.0181 41.2747 60.4736 41.2294 60.9519C41.1614 62.0906 40.8671 62.5689 39.7348 61.9084C38.1045 60.9746 36.5194 59.927 35.0475 58.7655C26.3974 50.6121 27.2126 37.266 37.8327 29.9325C40.3236 28.2244 41.7955 26.3113 41.1841 23.1229C40.3009 18.6818 36.4741 16.6776 32.5793 18.9323C22.3667 24.831 17.385 33.9181 17 43.9163C17 46.7859 17.3623 49.6555 18.0643 52.4568C18.0869 52.6163 18.1096 52.7529 18.1322 52.9123C19.9211 61.9995 25.0387 68.8092 33.7115 73.1592C35.5909 74.0474 37.5157 74.7762 39.5084 75.3456C40.5047 75.5278 41.2294 76.4388 41.1841 77.4636C41.2067 78.1013 41.2747 78.7162 41.3879 79.3539C41.886 82.2008 44.1052 83.9772 47.0489 84H47.9547V83.9089L48 53.5273Z" fill="#17A84B"/>
<path d="M63.8599 18.9329C59.8423 16.6767 55.8949 18.6822 55.0073 23.1264C54.3533 26.3171 55.8949 28.2315 58.4642 29.9408C69.3956 37.2793 70.2599 50.6346 61.3372 58.7936C59.7956 59.956 58.1839 61.0043 56.5022 61.9387C55.3109 62.5997 55.0307 62.1211 54.9606 60.9815C54.9606 60.1839 54.8905 59.3862 54.7504 58.6113C54.3766 55.7625 52.181 53.6202 49.2847 53.5974L48 53.5518V83.9316V84H48.981C52.0175 84 54.3066 82.1995 54.8204 79.3507C54.9372 78.7354 55.0073 78.0972 55.0307 77.4591C55.0073 76.4335 55.7314 75.5219 56.7825 75.3396C58.838 74.7698 60.8234 74.0405 62.762 73.1517C71.708 68.7531 76.9869 61.9843 78.8321 52.8909C78.8555 52.7313 78.8788 52.5718 78.9022 52.4351C79.6263 49.6546 80 46.783 80 43.8886C79.5328 33.9063 74.3942 24.8357 63.8599 18.9329Z" fill="#077FA2"/>
</svg>
