<svg width="568" height="568" viewBox="0 0 568 568" fill="none" xmlns="http://www.w3.org/2000/svg">
<path d="M284 568C440.849 568 568 440.849 568 284C568 127.151 440.849 0 284 0C127.151 0 0 127.151 0 284C0 440.849 127.151 568 284 568Z" fill="white"/>
<mask id="mask0" mask-type="alpha" maskUnits="userSpaceOnUse" x="0" y="0" width="568" height="568">
<path d="M284 568C440.849 568 568 440.849 568 284C568 127.151 440.849 0 284 0C127.151 0 0 127.151 0 284C0 440.849 127.151 568 284 568Z" fill="#282929"/>
</mask>
<g mask="url(#mask0)">
<path d="M568 0H0V568H568V0Z" fill="#282929"/>
<path d="M459.648 330.531C456.817 330.531 454.74 328.266 454.74 325.623V288.247H428.313C419.441 288.247 412.268 281.074 412.268 272.202V243.698C412.268 240.866 414.533 238.79 417.176 238.79C420.007 238.79 422.083 241.055 422.083 243.698V272.202C422.083 275.6 424.915 278.431 428.313 278.431H488.718C492.116 278.431 494.948 275.6 494.948 272.202V243.698C494.948 240.866 497.213 238.79 499.855 238.79C502.498 238.79 504.763 241.055 504.763 243.698V272.202C504.763 281.074 497.59 288.247 488.718 288.247H464.556V325.623C464.556 328.266 462.48 330.531 459.648 330.531Z" fill="#86DDFF"/>
<path d="M372.438 238.029H315.242C305.803 238.029 297.875 245.768 297.875 255.395V312.592C297.875 322.03 305.615 329.958 315.242 329.958H372.438C381.877 329.958 389.805 322.219 389.805 312.592V255.395C389.616 245.768 381.877 238.029 372.438 238.029ZM379.8 312.403C379.8 316.556 376.402 319.765 372.438 319.765H315.242C311.089 319.765 307.88 316.367 307.88 312.403V255.206C307.88 251.053 311.278 247.844 315.242 247.844H372.438C376.591 247.844 379.8 251.242 379.8 255.206V312.403Z" fill="#86DDFF"/>
<path d="M187.068 330.152C184.237 330.152 182.16 327.887 182.16 325.244V251.247C182.16 243.697 188.201 237.656 195.751 237.656H262.197C269.748 237.656 275.789 243.697 275.789 251.247V275.221C275.789 282.771 269.748 288.812 262.197 288.812H241.056L274.467 321.657C276.355 323.545 276.355 326.754 274.467 328.642C272.58 330.529 269.371 330.529 267.483 328.642L227.653 289.378C226.52 288.246 225.765 286.547 225.765 285.036C225.765 281.639 228.597 278.807 231.995 278.807H262.197C264.274 278.807 265.973 277.108 265.973 275.032V251.058C265.973 248.982 264.274 247.283 262.197 247.283H195.751C193.675 247.283 191.976 248.982 191.976 251.058V325.055C191.976 327.887 189.711 330.152 187.068 330.152Z" fill="#86DDFF"/>
<path d="M158.187 237.466H68.1454C65.3139 237.466 62.8599 239.92 63.2374 242.94C63.4262 245.583 65.8802 247.47 68.3341 247.47H108.164V325.242C108.164 328.074 110.429 330.15 113.072 330.15C115.903 330.15 117.98 327.885 117.98 325.242V247.47H157.998C160.83 247.47 162.906 245.205 162.906 242.562C163.095 239.731 160.83 237.466 158.187 237.466Z" fill="#86DDFF"/>
</g>
</svg>
