<svg width="97" height="96" viewBox="0 0 97 96" fill="none" xmlns="http://www.w3.org/2000/svg">
<circle cx="48.1646" cy="48" r="48" fill="white"/>
<path d="M66.6097 28.5059C64.1684 28.5059 61.9306 29.7943 60.7778 31.8965L45.5876 58.3436H34.2628V71.9063H49.453C51.8264 71.9063 54.0642 70.6178 55.2849 68.5156L70.4072 42.0685H81.732V28.5059H66.6097Z" fill="#1A5AFF"/>
<path d="M26.261 71.9063L14.5971 65.1249L33.6526 31.8965C34.8732 29.7943 37.0433 28.5059 39.4845 28.5059H54.6069V42.0685H43.3499L26.261 71.9063Z" fill="#1A5AFF"/>
<path d="M74.9507 63.7697C78.6804 63.7697 81.732 60.7181 81.732 56.9883C81.732 53.2586 78.6804 50.207 74.9507 50.207C71.221 50.207 68.1694 53.2586 68.1694 56.9883C68.1694 60.7181 71.221 63.7697 74.9507 63.7697Z" fill="#1A5AFF"/>
<path d="M15.9532 28.5059V42.0685C23.4805 42.0685 29.5159 36.0331 29.5159 28.5059H15.9532Z" fill="#1A5AFF"/>
</svg>
