<svg width="96" height="96" viewBox="0 0 96 96" fill="none" xmlns="http://www.w3.org/2000/svg">
<path fill-rule="evenodd" clip-rule="evenodd" d="M47.9912 96C21.4818 95.9956 -0.00527085 74.5015 9.69868e-07 47.9912C0.00527279 21.4809 21.4994 -0.00527086 48.0088 9.69909e-07C74.512 0.0052728 95.9955 21.488 95.9999 47.9912C95.9709 74.4936 74.4935 95.971 47.9912 96Z" fill="white"/>
<path fill-rule="evenodd" clip-rule="evenodd" d="M78.278 20.1474L75.6421 22.7834C88.6784 37.0401 88.6784 58.8901 75.6421 73.1469L78.278 75.7828C92.7869 60.0525 92.7869 35.8171 78.278 20.0859V20.1474Z" fill="#5A5564"/>
<path fill-rule="evenodd" clip-rule="evenodd" d="M22.8356 20.3751C37.0924 7.33782 58.9423 7.33782 73.1991 20.3751L75.835 17.7391C60.1039 3.23018 35.8693 3.23018 20.1382 17.7391L22.8356 20.3751Z" fill="#5A5564"/>
<path fill-rule="evenodd" clip-rule="evenodd" d="M20.376 73.1743C7.35549 58.921 7.35549 37.0904 20.376 22.8371L17.7401 20.2012C3.23116 35.9323 3.23116 60.1669 17.7401 75.898L20.376 73.1743Z" fill="#5A5564"/>
<path fill-rule="evenodd" clip-rule="evenodd" d="M73.1727 75.6074C58.916 88.6447 37.066 88.6447 22.8093 75.6074L20.1733 78.2433C35.9045 92.7523 60.139 92.7523 75.8702 78.2433L73.1727 75.6074Z" fill="#5A5564"/>
<path fill-rule="evenodd" clip-rule="evenodd" d="M55.987 41.2876C55.987 46.5594 47.7454 45.918 45.127 45.918V36.6308C47.7454 36.6308 55.987 35.8049 55.987 41.2876ZM58.1396 55.7061C58.1396 61.4699 48.2637 60.8109 45.1182 60.8109V50.5836C48.2637 50.5924 58.1396 49.6874 58.1396 55.7061ZM64.6415 39.2052C64.1144 33.705 59.3697 31.8598 53.3686 31.2975V23.7148H48.7294V31.1481C47.5081 31.1481 46.2605 31.1481 45.0216 31.1921V23.7148H40.4087V31.3414H37.4565H31.0073V36.3057C31.0073 36.3057 34.434 36.2442 34.3813 36.3057C35.6658 36.1643 36.8309 37.0657 37.0172 38.3442V59.2294C36.961 60.1353 36.1816 60.8232 35.2757 60.7679C35.2705 60.7679 35.2652 60.7679 35.2599 60.767C35.3214 60.8197 31.8859 60.767 31.8859 60.767L30.9634 66.3112H37.0084H40.3297V74.0608H44.9689V66.4254H48.6767V74.0257H53.3247V66.3639C61.1621 65.8895 66.6273 63.9565 67.3126 56.6198C67.8661 50.7154 65.0897 48.0795 60.6525 47.0163C63.35 45.6456 65.0457 43.2294 64.6415 39.2052Z" fill="#F6921A"/>
<path fill-rule="evenodd" clip-rule="evenodd" d="M47.9912 3.743C23.5633 3.75794 3.77199 23.5721 3.78693 48C3.80186 72.4279 23.616 92.2192 48.0439 92.2043C72.4551 92.1902 92.2385 72.4015 92.2481 47.9912C92.2191 23.5668 72.4155 3.77902 47.9912 3.76936V3.743ZM47.9912 96C21.4818 95.9956 -0.00527085 74.5015 9.69868e-07 47.9912C0.00527279 21.4809 21.4994 -0.00527086 48.0088 9.69909e-07C74.512 0.0052728 95.9955 21.488 95.9999 47.9912C95.9709 74.4936 74.4935 95.971 47.9912 96Z" fill="#282138"/>
</svg>
