<svg width="40" height="40" viewBox="0 0 40 40" fill="none" xmlns="http://www.w3.org/2000/svg">
<circle cx="20" cy="20" r="20" fill="white"/>
<path d="M30.0481 11.1002L26.6766 12.8179L10.3962 21.1104C10.3411 20.6905 10.3134 20.2675 10.3133 19.844C10.3155 18.1544 10.7591 16.4946 11.6001 15.0291C12.4412 13.5637 13.6505 12.3434 15.1083 11.4891C16.5661 10.6348 18.2218 10.1762 19.9113 10.1587C21.6009 10.1412 23.2657 10.5654 24.7409 11.3893L26.6707 10.406L26.9585 10.2591C25.1907 8.97605 23.1026 8.20672 20.9249 8.03617C18.7472 7.86562 16.5648 8.3005 14.6188 9.29274C12.6728 10.285 11.0391 11.7959 9.89812 13.6586C8.75717 15.5213 8.15344 17.6632 8.15366 19.8476C8.15366 20.1493 8.16512 20.4498 8.18802 20.7491C8.22009 21.1729 8.12609 21.5968 7.91783 21.9674C7.70956 22.338 7.39635 22.6387 7.0176 22.8317L6 23.3505V25.7707L8.99594 24.2437L9.96615 23.7486L10.9222 23.2617L28.0851 14.5167L30.0137 13.5347L34 11.503V9.08398L30.0481 11.1002Z" fill="black"/>
<path d="M34 13.9244L11.8971 25.1785L9.96852 26.1629L6 28.1851V30.6029L9.94128 28.5949L13.3127 26.8772L29.6097 18.5729C29.6648 18.9956 29.6925 19.4214 29.6927 19.8476C29.6916 21.5392 29.2481 23.2011 28.4063 24.6684C27.5644 26.1356 26.3534 27.3571 24.8935 28.2117C23.4336 29.0662 21.7756 29.5241 20.0841 29.5398C18.3925 29.5555 16.7263 29.1285 15.2508 28.3012L15.1323 28.3639L13.0403 29.4301C14.8077 30.7132 16.8954 31.4828 19.0727 31.6538C21.2501 31.8247 23.4323 31.3904 25.3783 30.3989C27.3243 29.4073 28.9583 27.8971 30.0997 26.035C31.2412 24.173 31.8456 22.0317 31.8463 19.8476C31.8463 19.5432 31.8345 19.2387 31.812 18.9378C31.78 18.5141 31.8739 18.0903 32.0819 17.7198C32.2899 17.3493 32.6028 17.0485 32.9812 16.8552L34 16.3364V13.9244Z" fill="black"/>
</svg>
