<svg width="96" height="96" viewBox="0 0 96 96" fill="none" xmlns="http://www.w3.org/2000/svg">
<g clip-path="url(#clip0)">
<g opacity="0.9">
<path d="M48.3433 95.8936C74.8529 95.8936 96.3433 74.4032 96.3433 47.8936C96.3433 21.3839 74.8529 -0.106445 48.3433 -0.106445C21.8336 -0.106445 0.343262 21.3839 0.343262 47.8936C0.343262 74.4032 21.8336 95.8936 48.3433 95.8936Z" fill="url(#paint0_linear)"/>
<path d="M72.8369 50.5654H60.9256H54.589H40.2485H33.9119H23.8497C22.2202 50.5654 20.8866 51.8985 20.8866 53.5285C20.8866 55.158 22.2197 56.4916 23.8497 56.4916H36.1563L44.4967 78.5165C44.9618 79.7454 46.1695 80.4857 47.4188 80.4245C48.668 80.4857 49.8757 79.7454 50.3409 78.5165L58.6816 56.4912H72.8369C74.4664 56.4912 75.8 55.158 75.8 53.5281C75.8 51.8985 74.4669 50.5654 72.8369 50.5654ZM47.4188 69.4999L42.4925 56.4912H52.345L47.4188 69.4999Z" fill="white"/>
<path d="M23.8497 45.0342H31.8177H38.1544H56.6836H63.0202H72.8374C74.4669 45.0342 75.8005 43.7011 75.8005 42.0711C75.8005 40.4411 74.4674 39.108 72.8374 39.108H65.2642L71.3719 22.9792C71.9491 21.4553 71.1744 19.7362 69.65 19.159C68.1256 18.5817 66.407 19.3564 65.8297 20.8808L58.9271 39.108H35.9099L29.0073 20.8808C28.4301 19.3569 26.711 18.5822 25.187 19.159C23.6631 19.7362 22.8884 21.4553 23.4656 22.9792L29.5733 39.108H23.8497C22.2202 39.108 20.8866 40.4411 20.8866 42.0711C20.8866 43.7011 22.2197 45.0342 23.8497 45.0342Z" fill="white"/>
</g>
</g>
<defs>
<linearGradient id="paint0_linear" x1="10.443" y1="78.0795" x2="85.1921" y2="18.5447" gradientUnits="userSpaceOnUse">
<stop stop-color="#F8B342"/>
<stop offset="1" stop-color="#F2C35E"/>
</linearGradient>
<clipPath id="clip0">
<rect width="96" height="96" fill="white"/>
</clipPath>
</defs>
</svg>
