<svg width="335" height="334" viewBox="0 0 335 334" fill="none" xmlns="http://www.w3.org/2000/svg">
<g opacity="0.9">
<g clip-path="url(#clip0)">
<circle cx="167.957" cy="166.523" r="166.523" fill="url(#paint0_linear)"/>
<path d="M219.477 117.96C220.865 97.3174 210.457 78.5834 192.07 68.5225C184.611 64.5329 180.274 63.4921 169.693 62.9717C161.54 62.6248 154.428 63.3186 150.439 64.8798C126.848 73.8999 112.277 96.797 114.705 120.388C116.44 137.734 125.46 150.224 147.837 166.182L154.607 171.039C154.498 164.709 154.434 158.383 154.434 152.051C154.434 152.051 151.751 148.919 147.143 145.367C133.96 135.306 128.583 121.949 131.705 107.552C138.123 78.9303 172.469 68.696 193.111 89.1646C202.651 98.8785 206.988 115.011 202.825 125.592C201.437 129.408 200.223 128.194 198.488 121.082C197.968 118.48 196.753 114.49 195.713 112.062C194.152 108.072 193.631 107.899 188.427 109.633C185.305 110.674 182.009 112.062 181.315 112.756C180.274 113.796 191.203 157.162 193.111 159.244C193.458 159.591 203.692 156.295 216.008 152.132L238.211 144.326L237.864 138.949C237.517 129.408 234.915 128.02 224.855 132.01C216.702 135.132 216.181 135.132 217.396 132.357C218.263 130.622 219.13 124.204 219.477 117.96Z" fill="white"/>
<path d="M176.632 239.557V171.039V102.348H168.826H161.02L161.367 170.345L161.887 238.516L169.346 239.037L176.632 239.557Z" fill="white"/>
<path d="M213.753 201.222C210.457 195.324 204.212 188.212 197.274 182.661C191.203 177.631 184.091 173.468 184.091 173.468L183.571 191.081C183.571 191.081 183.663 191.081 191.029 198.446C207.161 214.058 208.722 233.833 195.192 249.271C181.836 264.536 156.684 266.27 142.286 252.74C131.878 243.2 127.889 225.16 133.613 214.405L136.215 209.375L137.256 220.303C137.95 226.374 138.817 231.578 139.164 232.098C139.684 232.445 143.153 232.272 146.97 231.578C152.867 230.537 154.082 229.67 154.082 226.547C154.082 221.864 149.051 185.61 148.184 182.835C147.663 181.447 140.205 182.314 123.379 185.784C110.195 188.559 99.2672 190.814 98.9203 190.814C98.5734 190.814 98.7468 192.202 99.0938 193.763C99.6142 195.498 100.481 199.14 101.002 201.742C102.216 206.946 102.043 206.946 117.134 203.477L120.95 202.609L117.307 211.977C108.808 234.527 121.991 263.322 145.929 274.25C155.122 278.239 174.55 278.586 185.825 274.77C196.233 271.301 207.508 261.067 213.926 249.618C218.61 241.292 219.13 238.69 219.13 225.507C219.13 212.15 218.61 209.895 213.753 201.222Z" fill="white"/>
</g>
</g>
<defs>
<linearGradient id="paint0_linear" x1="1.43433" y1="-1.4636" x2="334.484" y2="331.586" gradientUnits="userSpaceOnUse">
<stop stop-color="#0075FC"/>
<stop offset="1" stop-color="#085FB7"/>
</linearGradient>
<clipPath id="clip0">
<rect width="333.049" height="333.049" fill="white" transform="translate(1.43433)"/>
</clipPath>
</defs>
</svg>
