  <svg width="20" height="20" viewBox="0 0 20 20" fill="none" xmlns="http://www.w3.org/2000/svg">
    <path
      fillRule="evenodd"
      clipRule="evenodd"
      d="M12.4266 0.944824L13.8274 3.37111H16.6287V6.1725L19.0554 7.57355L17.6545 9.99984L19.0553 12.4261L16.6287 13.8272V16.6286H13.8275L12.4266 19.0548L10.0003 17.6541L7.57404 19.0548L6.17322 16.6286H3.37126V13.8267L0.945357 12.4261L2.34615 9.99984L0.945312 7.57354L3.37126 6.17294V3.37111H6.17325L7.57407 0.944824L10.0003 2.3456L12.4266 0.944824ZM8.18412 3.22152L7.1355 5.03778H5.03793V7.13519L3.22203 8.18359L4.27065 9.99983L3.22205 11.8161L5.03793 12.8645V14.9619H7.13547L8.18409 16.7782L10.0003 15.7296L11.8166 16.7782L12.8652 14.9619H14.962V12.8649L16.7786 11.8161L15.73 9.99983L16.7787 8.18358L14.962 7.13474V5.03778H12.8652L11.8166 3.22152L10.0003 4.27009L8.18412 3.22152Z"
      fill="#0ECB81"
    />
    <path
      d="M5.49145 10.3415L8.67518 13.5333L14.1005 8.11642L12.917 6.93308L8.67518 11.1749L6.66638 9.16656L5.49145 10.3415Z"
      fill="#0ECB81"
    />
  </svg>