  <svg width="16" height="16" viewBox="0 0 16 16" fill="none" xmlns="http://www.w3.org/2000/svg">
    <path
      fillRule="evenodd"
      clipRule="evenodd"
      d="M8 3C8 1.61929 9.11929 0.5 10.5 0.5C11.8807 0.5 13 1.61929 13 3C13 4.38071 11.8807 5.5 10.5 5.5C9.11929 5.5 8 4.38071 8 3ZM10.5 2.16667C10.0398 2.16667 9.66667 2.53976 9.66667 3C9.66667 3.46024 10.0398 3.83333 10.5 3.83333C10.9602 3.83333 11.3333 3.46024 11.3333 3C11.3333 2.53976 10.9602 2.16667 10.5 2.16667Z"
      fill="#0ECB81"
    />
    <path d="M10.9167 9.66667L9.66667 10.9167L10.9167 12.1667L12.1667 10.9167L10.9167 9.66667Z" fill="#0ECB81" />
    <path
      fillRule="evenodd"
      clipRule="evenodd"
      d="M6.33333 10.9167C6.33333 8.38536 8.38536 6.33333 10.9167 6.33333C13.448 6.33333 15.5 8.38536 15.5 10.9167C15.5 13.448 13.448 15.5 10.9167 15.5C8.38536 15.5 6.33333 13.448 6.33333 10.9167ZM10.9167 8C9.30584 8 8 9.30584 8 10.9167C8 12.5275 9.30584 13.8333 10.9167 13.8333C12.5275 13.8333 13.8333 12.5275 13.8333 10.9167C13.8333 9.30584 12.5275 8 10.9167 8Z"
      fill="#0ECB81"
    />
    <path
      fillRule="evenodd"
      clipRule="evenodd"
      d="M3 10.5C1.61929 10.5 0.5 11.6193 0.5 13C0.5 14.3807 1.61929 15.5 3 15.5C4.38071 15.5 5.5 14.3807 5.5 13C5.5 11.6193 4.38071 10.5 3 10.5ZM2.16667 13C2.16667 12.5398 2.53976 12.1667 3 12.1667C3.46024 12.1667 3.83333 12.5398 3.83333 13C3.83333 13.4602 3.46024 13.8333 3 13.8333C2.53976 13.8333 2.16667 13.4602 2.16667 13Z"
      fill="#0ECB81"
    />
    <path
      fillRule="evenodd"
      clipRule="evenodd"
      d="M0.5 3.83333C0.5 1.99238 1.99238 0.5 3.83333 0.5C5.67428 0.5 7.16667 1.99238 7.16667 3.83333C7.16667 5.67428 5.67428 7.16667 3.83333 7.16667C1.99238 7.16667 0.5 5.67428 0.5 3.83333ZM3.83333 2.16667C2.91286 2.16667 2.16667 2.91286 2.16667 3.83333C2.16667 4.75381 2.91286 5.5 3.83333 5.5C4.75381 5.5 5.5 4.75381 5.5 3.83333C5.5 2.91286 4.75381 2.16667 3.83333 2.16667Z"
      fill="#0ECB81"
    />
    <path
      d="M4.66667 9.66667C5.1269 9.66667 5.5 9.29357 5.5 8.83333C5.5 8.3731 5.1269 8 4.66667 8C4.20643 8 3.83333 8.3731 3.83333 8.83333C3.83333 9.29357 4.20643 9.66667 4.66667 9.66667Z"
      fill="#0ECB81"
    />
    <path
      d="M15.5 5.5C15.5 5.96024 15.1269 6.33333 14.6667 6.33333C14.2064 6.33333 13.8333 5.96024 13.8333 5.5C13.8333 5.03976 14.2064 4.66667 14.6667 4.66667C15.1269 4.66667 15.5 5.03976 15.5 5.5Z"
      fill="#0ECB81"
    />
  </svg>