<svg width="14" height="19" viewBox="0 0 14 19" fill="none" xmlns="http://www.w3.org/2000/svg">
<path d="M6.99967 14L5.74967 12.75L6.99967 11.5L8.24967 12.75L6.99967 14Z" fill="#0ECB81"/>
<path fill-rule="evenodd" clip-rule="evenodd" d="M13.6663 0.666626H0.333008V5.17847L3.64858 8.49404C2.39059 9.48594 1.58301 11.0236 1.58301 12.75C1.58301 15.7415 4.00813 18.1666 6.99967 18.1666C9.99122 18.1666 12.4163 15.7415 12.4163 12.75C12.4163 11.0236 11.6088 9.48594 10.3508 8.49404L13.6663 5.17847V0.666626ZM6.16634 7.397C5.83919 7.44752 5.52171 7.5273 5.21665 7.6336L1.99967 4.41663V2.33329H6.16634V7.397ZM7.83301 7.397C8.16015 7.44751 8.47764 7.5273 8.7827 7.6336L11.9997 4.41663V2.33329H7.83301V7.397ZM10.7497 12.75C10.7497 10.6789 9.07074 8.99996 6.99967 8.99996C4.92861 8.99996 3.24967 10.6789 3.24967 12.75C3.24967 14.821 4.92861 16.5 6.99967 16.5C9.07074 16.5 10.7497 14.821 10.7497 12.75Z" fill="#0ECB81"/>
</svg>