<svg width="20" height="20" viewBox="0 0 20 20" fill="none" xmlns="http://www.w3.org/2000/svg">
<path d="M6.50032 12L5 13.5L6.5 15L8 13.5001L6.50032 12Z" fill="#707A8A"/>
<path fill-rule="evenodd" clip-rule="evenodd" d="M7 7.01894V6.5C7 2.91015 9.91015 0 13.5 0C17.0899 0 20 2.91015 20 6.5C20 10.0899 17.0899 13 13.5 13H12.9811C12.9936 13.165 13 13.3318 13 13.5C13 17.0899 10.0899 20 6.5 20C2.91015 20 0 17.0899 0 13.5C0 9.91015 2.91015 7 6.5 7C6.66824 7 6.83498 7.00639 7 7.01894ZM9 6.5C9 4.01472 11.0147 2 13.5 2C15.9853 2 18 4.01472 18 6.5C18 8.98528 15.9853 11 13.5 11H12.5018C11.8432 9.42064 10.5794 8.15679 9 7.49816V6.5ZM6.5 9C4.01472 9 2 11.0147 2 13.5C2 15.9853 4.01472 18 6.5 18C8.98528 18 11 15.9853 11 13.5C11 11.0147 8.98528 9 6.5 9Z" fill="#707A8A"/>
<path d="M6 1V3H3L3 6H1V1H6Z" fill="#707A8A"/>
<path d="M14 17H17V14H19V19H14V17Z" fill="#707A8A"/>
</svg>
