<svg viewBox="0 0 500 360" xmlns="http://www.w3.org/2000/svg" xmlns:xlink="http://www.w3.org/1999/xlink"><radialGradient id="a" cx="250" cy="180" gradientUnits="userSpaceOnUse" r="216.11"><stop offset="0" stop-color="#808080"/><stop offset="1" stop-color="#808080" stop-opacity=".3"/></radialGradient><linearGradient id="b" gradientUnits="userSpaceOnUse" x1="202.25" x2="245.04" y1="248.5" y2="248.5"><stop offset="0" stop-color="#808080"/><stop offset="1" stop-color="#808080" stop-opacity="0"/></linearGradient><linearGradient id="c" x1="202.52" x2="242.9" xlink:href="#b" y1="268.43" y2="268.43"/><linearGradient id="d" x1="202.33" x2="245.22" xlink:href="#b" y1="288.37" y2="288.37"/><linearGradient id="e" x1="113.17" x2="57.72" xlink:href="#b" y1="50.08" y2="50.08"/><linearGradient id="f" x1="111.05" x2="57.92" xlink:href="#b" y1="76.07" y2="76.07"/><linearGradient id="g" x1="113.31" x2="57.86" xlink:href="#b" y1="102.05" y2="102.05"/><linearGradient id="h" x1="130.83" x2="53.51" xlink:href="#b" y1="313.5" y2="313.5"/><linearGradient id="i" x1="128.61" x2="53.64" xlink:href="#b" y1="276.55" y2="276.55"/><linearGradient id="j" x1="130.84" x2="53.69" xlink:href="#b" y1="239.61" y2="239.61"/><linearGradient id="k" x1="413.04" x2="453.88" xlink:href="#b" y1="73.84" y2="73.84"/><linearGradient id="l" x1="415.2" x2="453.64" xlink:href="#b" y1="92.55" y2="92.55"/><linearGradient id="m" x1="413.01" x2="453.86" xlink:href="#b" y1="111.25" y2="111.25"/><path d="m2 206.86 1.65 1.66 1.66-1.66-1.65-1.66zm.05-17.68 1.65 1.66 1.66-1.65-1.66-1.66zm-.13 35.4 1.65 1.66 1.66-1.66-1.66-1.66zm-.2 70.48 1.66 1.65 1.62-1.65-1.61-1.66zm.16-52.86 1.66 1.66 1.66-1.66-1.65-1.66zm0 35.24 1.66 1.65 1.66-1.65-1.7-1.66zm0-17.64 1.66 1.65 1.65-1.65-1.65-1.66zm8.65 44.06 1.66 1.66 1.66-1.66-1.66-1.66zm-.29-88.18 2.24 2.25 2.25-2.25-2.25-2.25zm9 96.92 1.67 1.67 1.66-1.67-1.66-1.67zm-9-114.6 2.24 2.24 2.29-2.24-2.24-2.25zm-.18-18 2.42 2.42 2.46-2.42-2.42-2.42zm.1 106.26 2.08 2.07 2.08-2.07-2.08-2.08zm-.06-17.72 2.16 2.17 2.16-2.16-2.16-2.17zm-.01-17.54 2.25 2.25 2.25-2.25-2.25-2.25zm0-17.62 2.24 2.25 2.25-2.25-2.25-2.25zm9-26.55 2.24 2.24 2.25-2.24-2.25-2.25zm0-17.67 2.25 2.25 2.24-2.24-2.24-2.25zm-.25 70.57 2.32 2.27 2.29-2.29-2.29-2.29zm.16-35.26 2.25 2.25 2.24-2.25-2.24-2.25zm0 52.9 2.17 2.16 2.16-2.16-2.16-2.17zm0 17.63 2.08 2.08 2.05-2.08-2.08-2zm4.44-52.86-2.25-2.25-2.25 2.24 2.25 2.25zm-2.44 89.86-1.67-1.67 1.67-1.69 1.66 1.67zm0 17.7-1.69-1.7 1.69-1.65 1.63 1.65zm-19.27-36.96 1.65-1.66 1.62 1.66-1.61 1.66zm10.46 10.35-1.66-1.65 1.66-1.66 1.65 1.66zm0 17.58-1.66-1.67 1.65-1.65 1.66 1.65zm0 17.58-1.66-1.66 1.66-1.66 1.66 1.66zm-10.46-27.82 1.65-1.66 1.62 1.66-1.65 1.65zm0 17.68 1.65-1.66 1.62 1.66-1.65 1.66zm1.93-193.31 1.66-1.66-1.66-1.66-1.66 1.66zm0 17.67 1.66-1.66-1.66-1.65-1.65 1.66zm-.13-35.39 1.66-1.66-1.66-1.66-1.65 1.66zm-.14-70.48 1.61-1.66-1.61-1.65-1.66 1.65zm.16 52.86 1.65-1.66-1.65-1.66-1.66 1.66zm0-35.24 1.66-1.66-1.71-1.65-1.66 1.65zm0 17.64 1.65-1.66-1.66-1.65-1.66 1.65zm8.64-44.06 1.66-1.66-1.66-1.66-1.66 1.66zm.29 88.77 2.25-2.25-2.25-2.25-2.24 2.25zm8.45-97.5 1.66-1.67-1.66-1.67-1.67 1.67zm-8.4 115.18 2.24-2.25-2.25-2.24-2.24 2.24zm-.25-88.43 2.08-2.08-2.08-2.07-2.08 2.07zm0 17.8 2.16-2.17-2.14-2.16-2.16 2.17zm.07 35.26 2.25-2.25-2.25-2.25-2.24 2.25zm9 26.55 2.25-2.25-2.25-2.24-2.24 2.24zm0 17.66 2.24-2.25-2.24-2.24-2.25 2.25zm-.21-70.52 2.29-2.29-2.27-2.28-2.29 2.29zm.12 35.21 2.24-2.25-2.24-2.25-2.26 2.25zm-.15-53 2.16-2.17-2.16-2.16-2.11 2.18zm-.08-17.75 2.1-2.03-2.07-2.08-2.06 2.08zm.12 48.54-2.25 2.25 2.25 2.24 2.25-2.25zm1.44-85.9-1.59 1.69-1.72-1.66 1.72-1.7zm0-17.7-1.59 1.68-1.69-1.65 1.69-1.67zm-19.2 33.63 1.61 1.66-1.62 1.66-1.65-1.66zm10.45-7-1.65 1.66-1.66-1.66 1.66-1.65zm0-17.58-1.66 1.66-1.65-1.68 1.65-1.66zm0-17.57-1.66 1.62-1.66-1.66 1.66-1.66zm-10.45 24.47 1.61 1.65-1.62 1.66-1.65-1.66zm0-17.69 1.61 1.66-1.62 1.66-1.65-1.66zm24.72 293.63 1.66 1.66 1.66-1.66-1.66-1.66zm-.29-88.18 2.24 2.25 2.25-2.25-2.25-2.25zm9 96.92 1.67 1.67 1.66-1.67-1.66-1.67zm-9-114.6 2.24 2.24 2.29-2.24-2.24-2.25zm-.18-18 2.42 2.42 2.46-2.42-2.42-2.42zm.1 106.26 2.08 2.07 2.08-2.07-2.08-2.08zm-.06-17.72 2.16 2.17 2.16-2.16-2.16-2.17zm0-17.55 2.25 2.25 2.24-2.24-2.25-2.25zm0-17.62 2.32 2.25 2.25-2.25-2.25-2.25zm9-26.55 2.24 2.24 2.25-2.24-2.25-2.25zm0-17.67 2.32 2.25 2.24-2.24-2.24-2.25zm-.25 70.57 2.31 2.28 2.26-2.28-2.29-2.29zm.16-35.25 2.25 2.25 2.24-2.25-2.24-2.25zm-.07 52.9 2.17 2.16 2.16-2.16-2.16-2.17zm0 17.66 2.08 2.08 2.11-2.11-2.08-2zm4.48-52.86-2.25-2.25-2.25 2.24 2.25 2.25zm-2.47 89.83-1.67-1.67 1.67-1.66 1.66 1.67zm0 17.7-1.65-1.7 1.67-1.66 1.66 1.66zm-8.78-26.58-1.66-1.65 1.66-1.66 1.65 1.66zm0 17.58-1.64-1.7 1.65-1.65 1.66 1.65zm0 17.58-1.66-1.66 1.66-1.66 1.66 1.66zm0-300.45 1.66-1.66-1.66-1.66-1.66 1.66zm.29 88.77 2.25-2.25-2.25-2.25-2.24 2.25zm8.45-97.5 1.66-1.67-1.66-1.67-1.65 1.64zm-8.4 115.18 2.26-2.28-2.25-2.24-2.24 2.24zm-.25-88.43 2.08-2.08-2.08-2.07-2.08 2.07zm0 17.8 2.16-2.2-2.16-2.16-2.16 2.17zm0 17.63 2.33-2.28-2.25-2.24-2.25 2.24zm0 17.63 2.25-2.25-2.09-2.28-2.24 2.25zm9 26.55 2.25-2.25-2.25-2.24-2.24 2.24zm0 17.66 2.24-2.25-2.08-2.27-2.25 2.25zm-.21-70.52 2.37-2.32-2.26-2.28-2.29 2.29zm.12 35.21 2.24-2.25-2.24-2.25-2.25 2.25zm-.15-53 2.16-2.17-2.16-2.16-2.17 2.16zm-.08-17.75 2.19-2.06-2.07-2.08-2.08 2.08zm.12 48.54-2.25 2.25 2.25 2.24 2.36-2.26zm1.44-85.9-1.66 1.67-1.56-1.67 1.67-1.7zm0-17.7-1.66 1.66-1.54-1.66 1.67-1.66zm-8.66 26.56-1.65 1.66-1.66-1.66 1.66-1.65zm0-17.58-1.66 1.66-1.65-1.64 1.65-1.66zm0-17.57-1.66 1.66-1.66-1.66 1.66-1.66zm14.27 300.45 1.66 1.66 1.65-1.66-1.66-1.66zm-.29-88.18 2.24 2.25 2.25-2.25-2.25-2.25zm0-17.68 2.24 2.24 2.29-2.24-2.24-2.25zm-.18-18 2.42 2.42 2.46-2.42-2.42-2.42zm.1 106.26 2.08 2.07 2.08-2.07-2.08-2.08zm-.06-17.72 2.16 2.17 2.16-2.16-2.16-2.17zm0-17.55 2.25 2.25 2.24-2.24-2.25-2.25zm0-17.62 2.24 2.25 2.25-2.25-2.25-2.25zm9-44.22 2.25 2.25 2.24-2.24-2.24-2.25zm-.26 70.57 2.32 2.28 2.29-2.29-2.29-2.29zm.16-35.25 2.25 2.25 2.24-2.25-2.24-2.25zm-.07 52.9 2.17 2.16 2.16-2.16-2.16-2.17zm0 17.66 2.08 2.08 2.12-2.11-2.08-2zm4.44-52.86-2.25-2.25-2.25 2.24 2.25 2.25zm-2.42 89.83-1.67-1.67 1.67-1.66 1.66 1.67zm0 17.7-1.65-1.7 1.67-1.66 1.66 1.66zm-8.78-26.58-1.66-1.65 1.66-1.66 1.67 1.63zm0 17.58-1.64-1.7 1.65-1.65 1.66 1.65zm0 17.58-1.66-1.66 1.66-1.66 1.67 1.63zm0-300.45 1.67-1.69-1.66-1.66-1.66 1.66zm.29 88.77 2.25-2.25-2.25-2.25-2.24 2.25zm8.45-97.5 1.66-1.67-1.66-1.67-1.65 1.64zm-8.4 115.18 2.26-2.28-2.25-2.24-2.24 2.24zm-.25-88.43 2.08-2.08-2.08-2.07-2.08 2.07zm0 17.8 2.16-2.17-2.16-2.16-2.12 2.14zm0 17.63 2.33-2.28-2.25-2.24-2.25 2.24zm0 17.63 2.25-2.25-2.25-2.25-2.24 2.25zm9 26.55 2.25-2.25-2.25-2.24-2.24 2.24zm0 17.66 2.24-2.25-2.24-2.24-2.25 2.25zm-.21-70.52 2.29-2.29-2.18-2.31-2.32 2.28zm.12 35.21 2.24-2.25-2.24-2.25-2.25 2.25zm-.15-53 2.16-2.17-2.16-2.16-2.17 2.16zm-.08-17.75 2.19-2.06-2.07-2.08-2.08 2.08zm.12 48.54-2.25 2.25 2.25 2.24 2.25-2.25zm1.44-85.9-1.66 1.67-1.56-1.67 1.67-1.7zm0-17.7-1.66 1.66-1.54-1.66 1.67-1.66zm-8.66 26.56-1.65 1.66-1.66-1.66 1.66-1.65zm0-17.56-1.66 1.66-1.65-1.66 1.65-1.66zm0-17.59-1.66 1.66-1.66-1.66 1.66-1.66zm23 309.19 1.67 1.67 1.66-1.67-1.66-1.67zm-9-114.6 2.24 2.24 2.27-2.24-2.24-2.25zm-.18-18 2.42 2.42 2.44-2.42-2.42-2.42zm.1 106.26 2.08 2.07 2.08-2.07-2.08-2.08zm-.06-17.72 2.14 2.17 2.16-2.16-2.16-2.17zm-.03-17.54 2.25 2.25 2.25-2.25-2.25-2.25zm0-17.62 2.24 2.25 2.25-2.25-2.25-2.25zm9-26.55 2.24 2.24 2.25-2.24-2.25-2.25zm0-17.67 2.25 2.25 2.24-2.24-2.24-2.25zm-.25 70.57 2.32 2.27 2.29-2.29-2.29-2.29zm.09 17.65 2.17 2.16 2.16-2.17-2.16-2.17zm4.46-35.2-2.25-2.25-2.25 2.24 2.25 2.25zm-2.44 89.82-1.69-1.7 1.67-1.66 1.66 1.67zm0 17.7-1.69-1.7 1.67-1.66 1.7 1.66zm-8.78-26.58-1.66-1.65 1.66-1.66 1.65 1.66zm0 17.58-1.64-1.7 1.65-1.65 1.66 1.65zm0 17.58-1.66-1.66 1.66-1.66 1.66 1.66zm.3-211.68 2.25-2.25-2.25-2.25-2.21 2.22zm8.45-97.5 1.66-1.67-1.66-1.67-1.66 1.64zm-8.4 115.18 2.25-2.28-2.25-2.24-2.26 2.24zm-.26-88.46 2.08-2.08-2.08-2.07-2.08 2.07zm0 17.8 2.16-2.17-2.16-2.16-2.16 2.17zm0 17.63 2.33-2.25-2.25-2.24-2.25 2.24zm0 17.63 2.25-2.25-2.25-2.25-2.24 2.25zm9 26.55 2.25-2.25-2.25-2.24-2.24 2.24zm0 17.66 2.24-2.25-2.24-2.24-2.25 2.25zm-.21-70.52 2.29-2.29-2.18-2.28-2.29 2.29zm.21 35.21 2.24-2.25-2.24-2.25-2.25 2.25zm-.15-53 2.15-2.15-2.16-2.16-2.14 2.16zm0 30.79-2.25 2.25 2.25 2.24 2.25-2.25zm1.44-85.9-1.66 1.67-1.63-1.64 1.69-1.7zm0-17.7-1.66 1.66-1.63-1.63 1.67-1.66zm-8.71 26.59-1.65 1.66-1.66-1.66 1.66-1.65zm0-17.58-1.66 1.66-1.65-1.64 1.65-1.66zm0-17.57-1.66 1.66-1.66-1.66 1.66-1.66zm14.27 300.45 1.66 1.66 1.66-1.66-1.66-1.66zm-.29-88.18 2.24 2.25 2.25-2.25-2.25-2.25zm9 96.92 1.67 1.67 1.66-1.67-1.66-1.67zm-8.96-114.6 2.24 2.24 2.25-2.24-2.25-2.25zm-.18-18 2.42 2.42 2.42-2.42-2.42-2.42zm0 88.54 2.16 2.17 2.16-2.16-2.16-2.17zm0-17.55 2.25 2.25 2.24-2.24-2.25-2.25zm9-44.17 2.24 2.24 2.25-2.24-2.25-2.25zm-.23 52.9 2.29 2.28 2.29-2.29-2.29-2.29zm.16-35.25 2.25 2.25 2.24-2.25-2.24-2.25zm0 70.56 2.08 2.08 2.02-2.11-2.08-2zm4.44-52.86-2.25-2.25-2.25 2.24 2.25 2.25zm-2.52 89.83-1.67-1.7 1.67-1.66 1.66 1.67zm0 17.7-1.65-1.7 1.67-1.66 1.71 1.66zm-8.78-26.58-1.66-1.65 1.66-1.66 1.65 1.66zm0 17.58-1.64-1.7 1.65-1.65 1.66 1.65zm0 17.58-1.66-1.66 1.66-1.66 1.66 1.66zm0-300.45 1.66-1.66-1.66-1.66-1.66 1.66zm.29 88.77 2.25-2.25-2.25-2.25-2.24 2.25zm8.45-97.5 1.66-1.67-1.66-1.67-1.65 1.64zm-8.39 115.15 2.25-2.25-2.25-2.24-2.24 2.24zm-.22-70.63 2.16-2.17-2.16-2.16-2.16 2.17zm0 17.63 2.29-2.25-2.25-2.24-2.25 2.24zm0 17.63 2.25-2.25-2.25-2.25-2.24 2.25zm9 26.55 2.25-2.25-2.25-2.24-2.24 2.24zm-.18-52.86 2.29-2.29-2.25-2.28-2.29 2.29zm.12 35.21 2.24-2.25-2.24-2.25-2.25 2.25zm-.23-70.73 2.12-2.05-2.07-2.08-2.08 2.08zm.12 48.54-2.25 2.25 2.25 2.24 2.25-2.25zm1.44-85.9-1.66 1.67-1.63-1.66 1.67-1.7zm.11-17.69-1.66 1.66-1.72-1.66 1.67-1.66zm-8.84 26.56-1.65 1.66-1.66-1.66 1.66-1.65zm0-17.58-1.66 1.66-1.65-1.64 1.65-1.66zm0-17.57-1.66 1.66-1.66-1.66 1.66-1.66zm14.27 300.45 1.66 1.66 1.66-1.66-1.66-1.66zm-.29-88.18 2.24 2.25 2.25-2.25-2.25-2.25zm9 96.92 1.67 1.67 1.66-1.67-1.66-1.67zm-9.14-132.6 2.42 2.42 2.42-2.42-2.42-2.42zm.1 106.26 2.08 2.07 2.08-2.07-2.08-2.08zm-.1-35.26 2.25 2.25 2.25-2.24-2.25-2.25zm0-17.62 2.24 2.25 2.25-2.25-2.25-2.25zm9-44.22 2.25 2.25 2.24-2.24-2.24-2.25zm-.09 35.32 2.25 2.25 2.24-2.25-2.24-2.25zm-.07 52.9 2.17 2.16 2.16-2.16-2.17-2.18zm0 17.66 2.08 2.08 2.08-2.12-2-2zm4.43-52.86-2.24-2.25-2.25 2.24 2.25 2.25zm-2.42 89.82-1.67-1.67 1.67-1.66 1.66 1.67zm0 17.7-1.65-1.7 1.67-1.66 1.66 1.66zm-8.78-26.58-1.66-1.65 1.66-1.66 1.65 1.66zm0 17.58-1.64-1.7 1.65-1.65 1.66 1.66zm0 17.58-1.66-1.66 1.66-1.66 1.66 1.66zm0-300.45 1.66-1.66-1.66-1.66-1.66 1.66zm.29 88.77 2.25-2.25-2.25-2.25-2.24 2.25zm8.45-97.5 1.66-1.67-1.66-1.67-1.67 1.67zm-8.65 26.75 2.08-2.08-2.08-2.07-2.06 2.04zm.06 35.43 2.25-2.25-2.25-2.24-2.22 2.21zm0 17.63 2.25-2.25-2.25-2.25-2.22 2.22zm9 44.21 2.24-2.25-2.24-2.24-2.22 2.22zm-.09-35.31 2.24-2.25-2.24-2.25-2.25 2.25zm-.15-53 2.16-2.17-2.14-2.17-2.17 2.16zm.02-17.76 2-2.05-2-2.11-2.12 2.11zm.12 48.54-2.25 2.25 2.25 2.24 2.24-2.25zm1.44-85.9-1.66 1.67-1.67-1.66 1.62-1.7zm0-17.7-1.66 1.66-1.7-1.65 1.67-1.66zm-8.79 26.57-1.65 1.66-1.66-1.66 1.66-1.65zm0-17.58-1.66 1.66-1.68-1.64 1.65-1.66zm0-17.57-1.66 1.66-1.69-1.66 1.66-1.66zm14 194.59 2.24 2.24 2.25-2.24-2.26-2.25zm-.18-18 2.42 2.42 2.42-2.42-2.43-2.42zm.1 106.26 2.08 2.07 2.08-2.07-2.08-2.08zm-.06-17.72 2.16 2.17 2.16-2.16-2.16-2.17zm0-35.17 2.24 2.25 2.25-2.25-2.25-2.25zm9-26.55 2.24 2.24 2.25-2.24-2.25-2.25zm0-17.67 2.25 2.25 2.24-2.24-2.24-2.25zm-.25 70.57 2.29 2.29 2.29-2.29-2.29-2.29zm.09 17.65 2.17 2.16 2.16-2.16-2.16-2.17zm0 17.66 2.07 2.08 2.08-2.08-2.09-2.03zm2 36.94-1.67-1.67 1.67-1.66 1.66 1.67zm0 17.7-1.69-1.67 1.67-1.66 1.66 1.66zm-8.78-26.58-1.69-1.65 1.66-1.66 1.65 1.66zm0 17.58-1.69-1.67 1.65-1.65 1.66 1.66zm0 17.58-1.69-1.66 1.66-1.66 1.66 1.66zm0-300.45 1.66-1.66-1.66-1.66-1.69 1.66zm8.74-8.73 1.66-1.67-1.66-1.67-1.67 1.67zm-8.43 115.18 2.25-2.25-2.25-2.24-2.24 2.24zm-.24-88.43 2.08-2.08-2.08-2.07-2.08 2.07zm0 17.8 2.16-2.17-2.16-2.16-2.16 2.17zm0 17.63 2.25-2.25-2.25-2.24-2.19 2.24zm0 17.63 2.25-2.25-2.25-2.25-2.24 2.25zm9 26.55 2.25-2.25-2.25-2.24-2.24 2.24zm0 17.66 2.24-2.25-2.24-2.24-2.25 2.25zm-.21-70.52 2.29-2.29-2.2-2.28-2.29 2.29zm0-17.77 2.16-2.17-2.16-2.16-2.17 2.16zm-.08-17.75 2.14-2.05-2.08-2.08-2.07 2.08zm.12 48.54-2.25 2.25 2.25 2.24 2.24-2.25zm1.44-85.9-1.66 1.67-1.67-1.66 1.73-1.7zm0-17.7-1.66 1.66-1.59-1.65 1.67-1.66zm-8.79 26.57-1.65 1.66-1.59-1.66 1.66-1.65zm0-17.58-1.66 1.66-1.58-1.64 1.65-1.66zm0-17.57-1.66 1.66-1.58-1.66 1.66-1.66zm14.27 300.45 1.66 1.66 1.66-1.66-1.66-1.66zm-.3-88.18 2.25 2.25 2.25-2.25-2.25-2.25zm9 96.92 1.67 1.67 1.66-1.67-1.54-1.67zm-9-114.6 2.24 2.24 2.25-2.24-2.25-2.25zm-.18-18 2.42 2.42 2.55-2.42-2.41-2.42zm.1 106.26 2.08 2.07 2.08-2.07-2.08-2.08zm-.06-17.72 2.16 2.17 2.16-2.16-2.16-2.17zm0-17.55 2.25 2.25 2.25-2.24-2.25-2.25zm0-17.62 2.24 2.25 2.25-2.25-2.25-2.25zm9-26.55 2.24 2.24 2.25-2.24-2.25-2.25zm-.23 52.9 2.29 2.29 2.29-2.29-2.29-2.29zm.16-35.25 2.25 2.25 2.24-2.25-2.24-2.25zm-.07 52.9 2.17 2.16 2.16-2.16-2.16-2.17zm.07 17.63 2.07 2.08 2.08-2.08-2.04-2zm2 37-1.67-1.67 1.67-1.66 1.66 1.67zm0 17.7-1.64-1.7 1.67-1.66 1.66 1.66zm-8.79-9-1.62-1.7 1.65-1.65 1.66 1.65zm0 17.58-1.66-1.66 1.66-1.66 1.66 1.66zm0-300.45 1.66-1.66-1.66-1.66-1.66 1.66zm.29 88.77 2.25-2.25-2.25-2.25-2.25 2.25zm8.5-97.53 1.66-1.67-1.66-1.67-1.67 1.67zm-8.41 115.18 2.25-2.25-2.25-2.24-2.25 2.24zm-.24-88.43 2.08-2.08-2.08-2.07-2.08 2.07zm0 17.8 2.16-2.17-2.16-2.16-2.16 2.17zm0 17.63 2.25-2.25-2.25-2.24-2.2 2.24zm9 44.18 2.25-2.25-2.25-2.24-2.24 2.24zm0 17.66 2.24-2.25-2.24-2.24-2.25 2.25zm-.21-70.52 2.29-2.29-2.21-2.28-2.29 2.29zm.12 35.21 2.24-2.25-2.24-2.25-2.25 2.25zm-.15-53 2.16-2.17-2.16-2.16-2.11 2.18zm-.08-17.75 2.16-2.03-2.08-2.08-2.11 2.08zm1.56-37.36-1.59 1.69-1.67-1.66 1.67-1.7zm0-17.7-1.59 1.68-1.64-1.65 1.64-1.67zm-8.69 26.59-1.65 1.66-1.66-1.66 1.66-1.65zm0-17.58-1.66 1.66-1.65-1.64 1.65-1.66zm0-17.57-1.66 1.66-1.66-1.66 1.66-1.66zm14.27 300.45 1.66 1.66 1.66-1.66-1.66-1.66zm-.3-88.18 2.25 2.25 2.25-2.25-2.25-2.25zm9 96.92 1.67 1.67 1.66-1.67-1.66-1.67zm-9.13-132.6 2.42 2.42 2.41-2.42-2.41-2.42zm.1 106.26 2.08 2.07 2.08-2.07-2.08-2.08zm-.06-17.72 2.16 2.17 2.16-2.16-2.16-2.17zm0-35.17 2.24 2.25 2.25-2.25-2.27-2.25zm9-44.22 2.22 2.25 2.24-2.24-2.24-2.25zm-.09 35.32 2.25 2.25 2.24-2.25-2.24-2.25zm-.07 52.9 2.17 2.16 2.16-2.16-2.16-2.17zm0 17.66 2.07 2.08 2.08-2.08-2.08-2.03zm4.43-52.86-2.24-2.25-2.25 2.24 2.25 2.25zm-2.46 89.83-1.67-1.67 1.67-1.66 1.66 1.67zm0 17.7-1.65-1.7 1.67-1.66 1.66 1.66zm-8.78-26.58-1.66-1.65 1.66-1.66 1.65 1.66zm0 17.58-1.64-1.7 1.65-1.65 1.66 1.66zm0 17.58-1.66-1.66 1.66-1.66 1.66 1.66zm0-300.45 1.66-1.66-1.66-1.66-1.66 1.66zm.29 88.77 2.25-2.25-2.25-2.25-2.25 2.25zm8.45-97.5 1.66-1.67-1.66-1.67-1.65 1.64zm-8.41 115.18 2.25-2.25-2.25-2.24-2.22 2.21zm-.24-88.43 2.1-2.11-2.08-2.07-2.08 2.07zm0 17.8 2.16-2.17-2.16-2.16-2.16 2.17zm0 17.63 2.25-2.25-2.15-2.27-2.27 2.24zm0 17.63 2.25-2.25-2.15-2.28-2.24 2.25zm9 26.55 2.25-2.25-2.15-2.27-2.24 2.24zm0 17.66 2.24-2.25-2.14-2.27-2.25 2.25zm-.21-70.52 2.29-2.29-2.18-2.31-2.29 2.29zm.12 35.21 2.24-2.25-2.24-2.25-2.25 2.25zm-.15-53 2.16-2.17-2.16-2.16-2.17 2.16zm-.08-17.75 2.19-2.06-2.08-2.08-2.07 2.08zm1.56-37.36-1.66 1.67-1.67-1.66 1.78-1.71zm0-17.7-1.66 1.66-1.54-1.66 1.67-1.66zm-8.79 26.57-1.65 1.66-1.66-1.66 1.66-1.65zm0-17.58-1.66 1.66-1.52-1.65 1.65-1.66zm0-17.57-1.66 1.66-1.66-1.66 1.66-1.66zm14.27 300.45 1.66 1.66 1.66-1.66-1.66-1.66zm8.73 8.74 1.67 1.67 1.66-1.67-1.66-1.67zm-9-114.6 2.24 2.24 2.41-2.25-2.25-2.25zm-.18-18 2.42 2.42 2.41-2.42-2.41-2.42zm.1 106.26 2.08 2.07 2.08-2.07-2.08-2.08zm.04-35.27 2.25 2.25 2.25-2.24-2.25-2.25zm0-17.62 2.24 2.25 2.25-2.25-2.25-2.25zm9-26.55 2.24 2.24 2.25-2.24-2.25-2.25zm0-17.67 2.25 2.25 2.24-2.24-2.24-2.25zm-.25 70.57 2.29 2.29 2.29-2.29-2.29-2.29zm.09 17.65 2.17 2.16 2.16-2.16-2.16-2.17zm0 17.66 2.07 2.08 2.08-2.08-2.03-2.04zm4.43-52.86-2.24-2.25-2.25 2.24 2.25 2.25zm-2.41 89.82-1.67-1.67 1.67-1.66 1.66 1.67zm0 17.7-1.65-1.7 1.67-1.66 1.66 1.66zm-8.78-26.58-1.66-1.65 1.66-1.66 1.65 1.66zm0 17.58-1.64-1.7 1.65-1.65 1.66 1.66zm0 17.58-1.66-1.66 1.66-1.66 1.65 1.66zm0-300.45 1.66-1.66-1.66-1.66-1.66 1.66zm.29 88.77 2.25-2.25-2.25-2.25-2.25 2.25zm8.45-97.5 1.66-1.67-1.66-1.67-1.67 1.67zm-8.41 115.18 2.28-2.28-2.25-2.24-2.25 2.24zm-.24-88.43 2.08-2.08-2.08-2.07-2.08 2.07zm0 17.8 2.16-2.17-2.16-2.16-2.16 2.17zm0 17.63 2.25-2.25-2.25-2.24-2.17 2.21zm9 44.18 2.25-2.25-2.25-2.24-2.24 2.24zm0 17.66 2.24-2.25-2.24-2.24-2.25 2.25zm-.21-70.52 2.29-2.29-2.18-2.31-2.29 2.29zm-.11-35.52 2.19-2.08-2.08-2.08-2.07 2.08zm.12 48.54-2.25 2.25 2.25 2.24 2.24-2.25zm1.44-85.9-1.66 1.67-1.56-1.69 1.67-1.7zm0-17.7-1.66 1.66-1.54-1.68 1.67-1.66zm-8.79 26.57-1.65 1.66-1.66-1.66 1.66-1.65zm0-17.58-1.66 1.66-1.52-1.67 1.65-1.66zm0-17.57-1.53 1.63-1.66-1.66 1.66-1.66zm14.28 300.45 1.66 1.66 1.66-1.66-1.53-1.69zm-.3-88.18 2.25 2.25 2.25-2.25-2.25-2.25zm9 96.92 1.67 1.67 1.66-1.67-1.66-1.67zm-9-114.6 2.24 2.24 2.25-2.24-2.25-2.25zm-.18-18 2.42 2.42 2.41-2.42-2.41-2.42zm0 88.54 2.16 2.17 2.16-2.16-2.16-2.17zm.16-17.57 2.25 2.25 2.25-2.24-2.25-2.25zm9-44.17 2.24 2.24 2.25-2.24-2.25-2.25zm-.23 52.9 2.34 2.27 2.29-2.29-2.29-2.28zm.16-35.25 2.25 2.25 2.24-2.25-2.25-2.25zm-.07 52.9 2.17 2.16 2.16-2.16-2.17-2.17zm4.45-35.2-2.2-2.26-2.25 2.24 2.25 2.25zm-2.45 89.82-1.67-1.67 1.67-1.66 1.66 1.67zm0 17.7-1.65-1.7 1.67-1.66 1.66 1.66zm-8.75-26.61-1.66-1.65 1.66-1.66 1.65 1.66zm0 17.58-1.67-1.67 1.65-1.65 1.66 1.66zm0 17.58-1.66-1.66 1.66-1.66 1.65 1.66zm0-300.45 1.66-1.66-1.66-1.66-1.66 1.66zm.29 88.77 2.25-2.25-2.25-2.25-2.29 2.25zm8.45-97.5 1.66-1.67-1.66-1.67-1.67 1.67zm-8.41 115.18 2.25-2.25-2.25-2.24-2.25 2.24zm-.22-70.63 2.16-2.17-2.16-2.16-2.16 2.17zm0 17.63 2.25-2.25-2.25-2.24-2.22 2.24zm9 44.18 2.25-2.25-2.25-2.24-2.24 2.24zm-.11-52.86 2.29-2.29-2.29-2.28-2.29 2.29zm.11 35.21 2.25-2.25-2.24-2.25-2.25 2.25zm-.15-53 2.17-2.17-2.16-2.16-2.17 2.16zm1.49-55.11-1.66 1.67-1.67-1.66 1.63-1.68zm0-17.7-1.66 1.66-1.69-1.63 1.67-1.66zm-8.79 26.57-1.66 1.68-1.66-1.66 1.66-1.65zm0-17.58-1.66 1.68-1.67-1.64 1.67-1.67zm0-17.57-1.66 1.68-1.66-1.66 1.66-1.66zm14 212.27 2.25 2.25 2.25-2.25-2.25-2.25zm-.18-35.66 2.42 2.42 2.41-2.42-2.41-2.42zm.1 106.26 2.08 2.07 2.08-2.07-2.08-2.08zm-.06-17.72 2.16 2.17 2.16-2.16-2.16-2.17zm9-79.39 2.25 2.25 2.24-2.24-2.24-2.25zm-.16 88.22 2.17 2.16 2.16-2.16-2.17-2.17zm0 17.66 2.07 2.08 2.08-2.08-2.08-2.03zm4.43-52.86-2.24-2.25-2.25 2.24 2.25 2.25zm-2.46 89.83-1.67-1.67 1.67-1.66 1.66 1.67zm0 17.7-1.65-1.7 1.67-1.66 1.65 1.66zm-8.78-26.58-1.66-1.65 1.66-1.66 1.65 1.66zm0 17.58-1.64-1.7 1.65-1.65 1.66 1.66zm0 17.58-1.66-1.66 1.66-1.66 1.65 1.66zm.3-211.68 2.25-2.25-2.25-2.25-2.25 2.25zm8.45-97.5 1.7-1.7-1.66-1.67-1.67 1.67zm-8.65 26.75 2.08-2.08-2.08-2.07-2.08 2.07zm0 17.8 2.16-2.17-2.16-2.16-2.16 2.17zm.07 35.26 2.25-2.25-2.25-2.25-2.24 2.25zm9 44.21 2.24-2.25-2.24-2.24-2.25 2.25zm-.1-35.31 2.25-2.25-2.24-2.25-2.25 2.25zm-.15-53 2.17-2.17-2.16-2.16-2.17 2.16zm-.07-17.75 2.11-2.06-2.08-2.08-2.07 2.08zm.12 48.54-2.25 2.25 2.25 2.24 2.24-2.25zm1.48-85.91-1.66 1.67-1.67-1.66 1.66-1.7zm0-17.69-1.66 1.66-1.66-1.66 1.67-1.66zm-8.79 26.57-1.65 1.66-1.66-1.66 1.66-1.65zm0-17.58-1.66 1.66-1.64-1.65 1.65-1.66zm0-17.57-1.65 1.66-1.66-1.67 1.66-1.66zm14.28 300.45 1.66 1.66 1.66-1.66-1.66-1.66zm-.3-88.18 2.25 2.25 2.25-2.25-2.25-2.25zm9 96.92 1.67 1.67 1.66-1.67-1.66-1.67zm-9-114.6 2.24 2.24 2.25-2.24-2.25-2.25zm-.18-18 2.42 2.42 2.41-2.42-2.41-2.42zm.1 106.26 2.08 2.07 2.08-2.07-2.08-2.08zm-.06-35.27 2.25 2.25 2.25-2.24-2.25-2.25zm0-17.62 2.24 2.25 2.25-2.25-2.25-2.25zm9-26.55 2.24 2.24 2.25-2.24-2.25-2.25zm0-17.67 2.25 2.25 2.24-2.24-2.24-2.25zm-.25 70.57 2.29 2.29 2.29-2.29-2.29-2.29zm.11 35.31 2.07 2.08 2.08-2.08-2.06-2.04zm4.43-52.86-2.24-2.25-2.25 2.24 2.25 2.25zm-2.44 107.5-1.64-1.68 1.67-1.66 1.66 1.66zm-8.79-9-1.62-1.68 1.65-1.65 1.66 1.65zm0 17.58-1.66-1.66 1.66-1.66 1.65 1.66zm0-300.45 1.66-1.66-1.66-1.66-1.66 1.66zm8.74-8.73 1.66-1.67-1.66-1.67-1.67 1.67zm-8.41 115.18 2.25-2.25-2.25-2.24-2.2 2.23zm-.24-88.43 2.08-2.08-2.08-2.07-2.08 2.07zm.06 35.43 2.25-2.25-2.25-2.24-2.21 2.23zm0 17.63 2.25-2.25-2.25-2.25-2.24 2.25zm9 26.55 2.25-2.25-2.25-2.24-2.24 2.24zm0 17.66 2.24-2.25-2.24-2.24-2.25 2.25zm-.21-70.52 2.29-2.29-2.22-2.29-2.29 2.29zm-.05-35.53 2.09-2.05-2.09-2.11-2.06 2.11zm.12 48.54-2.25 2.25 2.25 2.24 2.24-2.25zm1.44-85.9-1.66 1.67-1.67-1.66 1.68-1.7zm0-17.7-1.66 1.66-1.64-1.65 1.67-1.66zm-8.76 26.57-1.65 1.66-1.66-1.66 1.66-1.65zm0-17.58-1.66 1.66-1.65-1.64 1.65-1.66zm0-17.57-1.65 1.66-1.66-1.66 1.66-1.66zm14.28 300.45 1.66 1.66 1.66-1.66-1.66-1.66zm-.3-88.18 2.25 2.25 2.25-2.25-2.28-2.25zm9 96.92 1.67 1.67 1.66-1.67-1.66-1.67zm-9-114.6 2.24 2.24 2.25-2.24-2.25-2.25zm-.18-18 2.42 2.42 2.41-2.42-2.41-2.42zm0 88.54 2.16 2.17 2.16-2.16-2.16-2.17zm.03-17.54 2.25 2.25 2.25-2.24-2.25-2.25zm9-44.17 2.24 2.24 2.25-2.24-2.25-2.25zm0-17.67 2.25 2.25 2.24-2.24-2.24-2.25zm-.25 70.57 2.32 2.27 2.29-2.29-2.29-2.29zm.16-35.25 2.25 2.25 2.24-2.25-2.25-2.25zm-.07 52.9 2.17 2.16 2.16-2.16-2.17-2.17zm0 17.66 2.07 2.08 2.08-2.08-2.03-2.04zm4.53-52.87-2.24-2.25-2.25 2.24 2.25 2.25zm-2.51 89.83-1.67-1.67 1.67-1.66 1.66 1.67zm0 17.7-1.65-1.7 1.67-1.66 1.66 1.66zm-8.78-26.58-1.66-1.65 1.66-1.66 1.65 1.66zm0 35.16-1.66-1.66 1.66-1.66 1.65 1.66zm0-300.45 1.66-1.66-1.66-1.66-1.66 1.66zm.29 88.77 2.25-2.25-2.25-2.28-2.25 2.25zm8.45-97.5 1.66-1.67-1.66-1.67-1.65 1.64zm-8.41 115.18 2.25-2.25-2.25-2.24-2.22 2.21zm-.22-70.63 2.18-2.2-2.16-2.16-2.16 2.17zm0 17.63 2.25-2.25-2.25-2.24-2.19 2.21zm9 44.18 2.25-2.25-2.25-2.24-2.24 2.24zm0 17.66 2.24-2.25-2.24-2.24-2.25 2.25zm-.21-70.52 2.29-2.29-2.2-2.31-2.29 2.29zm.11 35.21 2.25-2.25-2.24-2.25-2.25 2.25zm-.15-53 2.17-2.17-2.16-2.16-2.17 2.16zm-.07-17.75 2.17-2.06-2.08-2.08-2.07 2.08zm.12 48.54-2.25 2.25 2.25 2.24 2.24-2.25zm1.44-85.9-1.66 1.67-1.67-1.66 1.76-1.71zm-8.77 8.87-1.65 1.66-1.66-1.66 1.66-1.65zm0-17.58-1.66 1.66-1.57-1.65 1.66-1.66zm0-17.57-1.65 1.66-1.66-1.66 1.66-1.66zm14.28 300.45 1.66 1.66 1.65-1.66-1.65-1.66zm-.3-88.18 2.25 2.25 2.25-2.25-2.25-2.25zm9 96.92 1.67 1.67 1.66-1.67-1.66-1.67zm-9-114.6 2.24 2.24 2.25-2.24-2.25-2.25zm-.18-18 2.42 2.42 2.41-2.42-2.41-2.42zm0 88.54 2.16 2.17 2.16-2.16-2.16-2.17zm.12-17.55 2.25 2.25 2.25-2.24-2.25-2.25zm9-44.17 2.24 2.24 2.25-2.24-2.25-2.25zm0-17.67 2.25 2.25 2.24-2.24-2.24-2.25zm-.21 70.56 2.29 2.29 2.29-2.29-2.29-2.29zm.1 35.31 2.08 2.08 2.08-2.08-2.09-2.03zm4.44-52.86-2.24-2.25-2.3 2.24 2.25 2.25zm-2.44 107.5-1.68-1.67 1.67-1.66 1.66 1.66zm-8.78-26.58-1.66-1.65 1.66-1.66 1.65 1.66zm0 35.16-1.66-1.66 1.66-1.66 1.65 1.66zm0-300.45 1.68-1.66-1.65-1.66-1.66 1.66zm.29 88.77 2.25-2.25-2.25-2.25-2.25 2.25zm8.45-97.5 1.66-1.67-1.66-1.67-1.67 1.67zm-8.41 115.18 2.25-2.25-2.25-2.24-2.25 2.24zm-.22-70.63 2.16-2.17-2.16-2.16-2.16 2.17zm0 17.63 2.25-2.25-2.25-2.24-2.22 2.24zm0 17.63 2.25-2.25-2.25-2.25-2.24 2.25zm9 26.55 2.25-2.25-2.25-2.24-2.24 2.24zm0 17.66 2.24-2.25-2.24-2.24-2.25 2.25zm-.21-70.52 2.29-2.29-2.23-2.28-2.28 2.28zm.11 35.21 2.25-2.25-2.24-2.25-2.25 2.25zm-.22-70.73 2.14-2.05-2.08-2.08-2.08 2.08zm.12 48.54-2.23 2.25 2.25 2.24 2.24-2.25zm1.52-103.59-1.66 1.66-1.67-1.66 1.67-1.66zm-8.75 26.56-1.65 1.66-1.66-1.66 1.66-1.65zm0-35.15-1.7 1.66-1.66-1.66 1.66-1.66zm14.28 300.45 1.66 1.66 1.65-1.66-1.65-1.66zm-.28-105.86 2.24 2.24 2.25-2.24-2.25-2.25zm-.18-18 2.42 2.42 2.41-2.42-2.41-2.42zm.1 106.26 2.08 2.07 2.08-2.07-2.08-2.08zm-.13-35.26 2.25 2.25 2.25-2.24-2.29-2.26zm0-17.62 2.24 2.25 2.25-2.25-2.25-2.25zm9-44.22 2.25 2.25 2.24-2.24-2.24-2.25zm-.09 35.32 2.25 2.25 2.24-2.25-2.19-2.26zm-.07 52.9 2.17 2.16 2.16-2.16-2.17-2.17zm0 17.66 2.08 2.08 2.08-2.08-2.04-2.04zm4.44-52.86-2.24-2.25-2.25 2.24 2.25 2.25zm-2.42 89.82-1.65-1.7 1.67-1.66 1.66 1.67zm0 17.7-1.65-1.7 1.67-1.66 1.66 1.66zm-8.79-9-1.64-1.7 1.66-1.65 1.66 1.66zm0 17.58-1.66-1.66 1.66-1.66 1.65 1.66zm0-300.45 1.65-1.66-1.65-1.66-1.66 1.66zm.33 106.45 2.25-2.25-2.25-2.24-2.19 2.21zm-.19-88.46 2.08-2.08-2.08-2.07-2.08 2.07zm.06 35.43 2.25-2.25-2.31-2.24-2.21 2.24zm9 61.84 2.24-2.25-2.24-2.24-2.25 2.25zm-.1-35.31 2.25-2.25-2.21-2.25-2.25 2.25zm-.15-53 2.19-2.15-2.16-2.16-2.17 2.16zm-.07-17.75 2.09-2.03-2.08-2.08-2.08 2.08zm1.56-37.36-1.66 1.67-1.64-1.64 1.65-1.7zm0-17.7-1.66 1.66-1.64-1.63 1.67-1.66zm-8.79 9-1.66 1.66-1.63-1.63 1.66-1.66zm0-17.57-1.65 1.66-1.66-1.66 1.66-1.66zm14 212.27 2.25 2.25 2.25-2.25-2.25-2.25zm9 96.92 1.67 1.67 1.66-1.67-1.66-1.67zm-9.13-132.59 2.42 2.42 2.41-2.42-2.41-2.42zm.1 106.26 2.08 2.07 2.08-2.07-2.08-2.08zm-.06-17.72 2.16 2.17 2.16-2.16-2.16-2.17zm0-35.17 2.24 2.25 2.25-2.25-2.25-2.25zm9-26.55 2.24 2.24 2.25-2.24-2.25-2.25zm-.23 52.9 2.29 2.29 2.29-2.29-2.29-2.29zm.16-35.25 2.25 2.25 2.24-2.25-2.25-2.25zm-.07 52.9 2.17 2.16 2.16-2.16-2.17-2.17zm2 54.6-1.67-1.67 1.67-1.66 1.66 1.67zm0 17.7-1.7-1.67 1.67-1.66 1.66 1.66zm-8.78-26.58-1.66-1.65 1.66-1.66 1.65 1.66zm0 17.58-1.7-1.67 1.66-1.65 1.66 1.66zm0 17.58-1.66-1.66 1.66-1.66 1.65 1.66zm.3-211.68 2.25-2.25-2.25-2.25-2.25 2.25zm8.45-97.5 1.66-1.67-1.66-1.67-1.67 1.67zm-8.65 26.75 2.08-2.08-2.08-2.07-2.08 2.07zm0 17.8 2.16-2.17-2.16-2.16-2.16 2.17zm0 17.63 2.25-2.25-2.25-2.24-2.23 2.24zm0 17.63 2.25-2.25-2.25-2.25-2.24 2.25zm9 26.55 2.25-2.25-2.25-2.24-2.24 2.24zm-.07-17.65 2.25-2.25-2.24-2.25-2.25 2.25zm-.15-53 2.17-2.17-2.16-2.16-2.17 2.16zm1.49-55.11-1.66 1.67-1.67-1.66 1.69-1.68zm0-17.7-1.66 1.66-1.63-1.63 1.67-1.66zm-8.79 26.57-1.65 1.66-1.66-1.66 1.66-1.65zm0-17.58-1.66 1.66-1.62-1.62 1.66-1.66zm0-17.57-1.65 1.66-1.63-1.64 1.66-1.66zm14.28 300.45 1.66 1.66 1.65-1.66-1.65-1.66zm8.73 8.74 1.67 1.67 1.66-1.67-1.66-1.67zm-9-114.6 2.24 2.24 2.25-2.24-2.25-2.25zm-.09-17.98 2.42 2.42 2.41-2.42-2.41-2.42zm0 88.54 2.16 2.17 2.16-2.16-2.16-2.17zm0-17.54 2.25 2.25 2.25-2.24-2.25-2.25zm9-44.17 2.24 2.24 2.25-2.24-2.25-2.25zm0-17.67 2.25 2.25 2.24-2.24-2.24-2.25zm-.25 70.57 2.25 2.27 2.29-2.29-2.29-2.28zm.1 35.31 2.08 2.08 2.07-2.12-2.09-2zm4.44-52.86-2.29-2.26-2.25 2.24 2.25 2.25zm-2.48 89.82-1.67-1.67 1.67-1.66 1.66 1.67zm0 17.7-1.65-1.7 1.67-1.66 1.66 1.66zm-8.78-26.58-1.66-1.65 1.66-1.66 1.65 1.66zm0 17.58-1.65-1.7 1.66-1.65 1.66 1.65zm0 17.58-1.66-1.66 1.66-1.66 1.65 1.66zm0-300.45 1.65-1.66-1.65-1.66-1.66 1.66zm.29 88.77 2.25-2.25-2.25-2.25-2.25 2.25zm8.45-97.5 1.66-1.67-1.66-1.67-1.67 1.67zm-8.41 115.18 2.25-2.25-2.25-2.24-2.22 2.21zm-.18-53 2.25-2.25-2.25-2.24-2.18 2.21zm9 44.18 2.25-2.25-2.25-2.24-2.18 2.21zm0 17.66 2.24-2.25-2.24-2.24-2.18 2.22zm-.18-70.55 2.29-2.29-2.29-2.28-2.29 2.29zm0-17.77 2.17-2.17-2.17-2.16-2.17 2.16zm-.07-17.75 2.07-2.05-2.08-2.08-2.09 2.08zm.12 48.54-2.25 2.25 2.25 2.24 2.24-2.25zm1.44-85.9-1.66 1.67-1.67-1.66 1.65-1.7zm0-17.7-1.66 1.66-1.67-1.65 1.67-1.66zm-8.79 26.57-1.65 1.66-1.66-1.66 1.66-1.65zm0-17.58-1.7 1.66-1.62-1.64 1.62-1.67zm0-17.57-1.7 1.66-1.66-1.66 1.66-1.66zm14.3 300.45 1.66 1.66 1.65-1.66-1.65-1.66zm8.73 8.74 1.67 1.67 1.6-1.67-1.66-1.67zm-9-114.6 2.24 2.24 2.25-2.24-2.22-2.25zm-.18-18 2.42 2.42 2.41-2.42-2.38-2.42zm.1 106.26 2.08 2.07 2.08-2.07-2.08-2.08zm-.06-17.72 2.16 2.17 2.16-2.16-2.16-2.17zm-.06-17.54 2.25 2.25 2.22-2.25-2.25-2.25zm9-61.84 2.25 2.25 2.24-2.24-2.25-2.25zm-.09 35.32 2.25 2.25 2.24-2.25-2.25-2.25zm-.03 70.52 2.08 2.08 2.08-2.08-2.08-2zm4.44-52.86-2.24-2.25-2.25 2.24 2.25 2.25zm-2.46 89.86-1.67-1.67 1.67-1.66 1.66 1.67zm0 17.7-1.65-1.7 1.67-1.66 1.66 1.66zm-8.78-26.58-1.61-1.68 1.66-1.66 1.65 1.66zm0 17.58-1.61-1.7 1.66-1.65 1.66 1.66zm0 17.58-1.61-1.69 1.66-1.66 1.65 1.66zm0-300.45 1.65-1.66-1.65-1.66-1.61 1.63zm8.74-8.73 1.65-1.7-1.66-1.67-1.64 1.67zm-8.35 115.15 2.25-2.25-2.25-2.24-2.28 2.24zm-.24-88.43 2.08-2.08-2.08-2.07-2.08 2.07zm0 17.8 2.16-2.17-2.16-2.16-2.16 2.17zm0 17.63 2.24-2.25-2.25-2.24-2.22 2.24zm0 17.63 2.25-2.25-2.25-2.25-2.24 2.25zm9 44.21 2.25-2.25-2.24-2.24-2.25 2.25zm-.2-70.52 2.29-2.29-2.25-2.28-2.29 2.29zm.11 35.21 2.25-2.25-2.24-2.25-2.25 2.25zm-.15-53 2.17-2.17-2.16-2.16-2.17 2.16zm-.07-17.75 2.12-2.03-2.08-2.08-2.08 2.08zm.12 48.54-2.25 2.25 2.25 2.24 2.24-2.25zm1.44-85.9-1.66 1.67-1.67-1.66 1.71-1.68zm0-17.7-1.66 1.66-1.61-1.63 1.67-1.66zm-8.79 26.57-1.65 1.66-1.57-1.64 1.66-1.65zm0-17.58-1.66 1.66-1.56-1.62 1.66-1.66zm0-17.57-1.65 1.66-1.57-1.64 1.66-1.66zm14.28 300.45 1.66 1.66 1.65-1.66-1.65-1.66zm-.3-88.18 2.25 2.25 2.25-2.25-2.25-2.25zm9 96.92 1.67 1.67 1.66-1.67-1.53-1.65zm-9.08-132.58 2.42 2.42 2.46-2.42-2.41-2.42zm0 88.54 2.16 2.17 2.16-2.16-2.16-2.17zm0-35.17 2.24 2.25 2.25-2.25-2.25-2.25zm9-26.55 2.24 2.24 2.25-2.24-2.25-2.25zm-.23 52.9 2.29 2.29 2.29-2.29-2.29-2.29zm.16-35.25 2.25 2.25 2.24-2.25-2.25-2.25zm-.07 52.9 2.17 2.16 2.16-2.16-2.17-2.17zm2 54.6-1.67-1.67 1.67-1.66 1.66 1.67zm0 17.7-1.66-1.67 1.67-1.66 1.66 1.66zm-8.78-26.58-1.66-1.65 1.66-1.66 1.65 1.66zm0 17.58-1.66-1.67 1.66-1.65 1.66 1.66zm0 17.58-1.66-1.66 1.66-1.66 1.65 1.66zm0-300.45 1.65-1.66-1.65-1.66-1.66 1.66zm.29 88.77 2.25-2.25-2.25-2.25-2.25 2.25zm8.51-97.5 1.66-1.67-1.66-1.67-1.67 1.67zm-8.7 26.75 2.08-2.08-2.08-2.07-2.08 2.07zm0 17.8 2.16-2.17-2.16-2.16-2.16 2.17zm0 17.63 2.25-2.25-2.25-2.24-2.19 2.24zm9 44.18 2.25-2.25-2.25-2.24-2.24 2.24zm-.18-52.86 2.29-2.29-2.23-2.28-2.29 2.29zm.11 35.21 2.25-2.25-2.24-2.25-2.25 2.25zm-.15-53 2.17-2.17-2.16-2.16-2.09 2.18zm-.07-17.75 2.14-2.03-2.08-2.08-2.07 2.08zm1.56-37.36-1.57 1.69-1.7-1.66 1.7-1.7zm0-17.7-1.57 1.68-1.68-1.65 1.68-1.67zm-8.79 26.57-1.65 1.66-1.66-1.66 1.66-1.65zm0-17.58-1.66 1.66-1.58-1.62 1.66-1.66zm0-17.57-1.58 1.68-1.66-1.66 1.66-1.66zm14 212.27 2.25 2.25 2.25-2.25-2.25-2.25zm.05-17.68 2.24 2.24 2.25-2.24-2.25-2.25zm-.18-18 2.42 2.42 2.41-2.42-2.41-2.42zm.1 106.26 2.08 2.07 2.08-2.07-2.08-2.08zm-.06-17.72 2.16 2.17 2.16-2.16-2.16-2.17zm0-17.52 2.25 2.25 2.25-2.24-2.25-2.25zm9-44.17 2.24 2.24 2.25-2.24-2.25-2.25zm0-17.67 2.31 2.24 2.24-2.24-2.24-2.25zm-.25 70.57 2.29 2.29 2.29-2.29-2.29-2.29zm.09 17.65 2.17 2.16 2.16-2.16-2.17-2.17zm0 17.66 2.08 2.08 2.08-2.08-2.04-2.04zm4.47-52.87-2.24-2.25-2.25 2.24 2.25 2.25zm-2.45 89.83-1.67-1.67 1.67-1.66 1.66 1.67zm0 17.7-1.65-1.7 1.67-1.66 1.66 1.66zm-8.78-26.58-1.66-1.65 1.65-1.66 1.66 1.66zm0 17.58-1.65-1.7 1.66-1.65 1.66 1.66zm0 17.58-1.66-1.66 1.66-1.66 1.65 1.66zm0-300.45 1.65-1.66-1.65-1.66-1.66 1.66zm.29 88.77 2.25-2.25-2.25-2.25-2.25 2.25zm8.45-97.5 1.66-1.67-1.66-1.67-1.67 1.67zm-8.41 115.18 2.25-2.25-2.25-2.24-2.22 2.21zm-.24-88.43 2.14-2.11-2.08-2.07-2.08 2.07zm0 17.8 2.16-2.17-2.16-2.16-2.16 2.17zm.07 35.26 2.25-2.25-2.18-2.28-2.24 2.25zm9 26.55 2.25-2.25-2.25-2.24-2.24 2.24zm0 17.66 2.25-2.25-2.18-2.27-2.25 2.25zm-.09-35.31 2.25-2.25-2.24-2.25-2.25 2.25zm-.15-53 2.17-2.17-2.16-2.16-2.17 2.16zm-.07-17.75 2.11-2.06-2.08-2.08-2.08 2.08zm.12 48.54-2.25 2.25 2.25 2.24 2.24-2.25zm1.44-85.9-1.66 1.67-1.67-1.66 1.7-1.71zm0-17.7-1.66 1.66-1.62-1.66 1.67-1.66zm-8.79 9-1.66 1.66-1.61-1.66 1.66-1.66zm0-17.57-1.65 1.66-1.66-1.66 1.66-1.66zm14.28 300.45 1.66 1.66 1.65-1.66-1.65-1.66zm8.73 8.74 1.67 1.67 1.66-1.67-1.66-1.67zm-9-114.6 2.24 2.24 2.36-2.26-2.25-2.25zm-.18-18 2.42 2.42 2.41-2.42-2.41-2.42zm.1 106.26 2.08 2.07 2.08-2.07-2.08-2.08zm-.06-17.72 2.16 2.17 2.16-2.16-2.16-2.17zm.01-17.56 2.25 2.25 2.25-2.24-2.25-2.25zm0-17.62 2.24 2.25 2.25-2.25-2.25-2.25zm9-44.22 2.25 2.25 2.24-2.24-2.25-2.25zm-.25 70.57 2.29 2.29 2.29-2.29-2.29-2.29zm.16-35.25 2.24 2.25 2.25-2.25-2.25-2.25zm-.07 52.9 2.17 2.16 2.16-2.16-2.17-2.17zm0 17.66 2.08 2.08 2.08-2.08-2.04-2.04zm4.44-52.86-2.24-2.25-2.25 2.24 2.25 2.25zm-2.42 89.82-1.67-1.67 1.67-1.66 1.66 1.67zm0 17.7-1.65-1.7 1.67-1.66 1.66 1.66zm-8.78-26.58-1.66-1.65 1.65-1.66 1.66 1.66zm0 17.58-1.65-1.7 1.66-1.65 1.64 1.65zm0 17.58-1.66-1.66 1.66-1.66 1.65 1.66zm0-300.45 1.65-1.69-1.65-1.66-1.66 1.66zm8.74-8.73 1.66-1.67-1.66-1.67-1.67 1.67zm-8.39 115.15 2.3-2.25-2.25-2.24-2.29 2.24zm-.24-88.43 2.08-2.08-2.08-2.07-2.08 2.07zm.06 35.43 2.25-2.25-2.25-2.24-2.25 2.24zm0 17.63 2.25-2.25-2.25-2.25-2.24 2.25zm9 44.21 2.25-2.25-2.24-2.24-2.25 2.25zm-.2-70.52 2.29-2.29-2.27-2.28-2.29 2.29zm.11 35.21 2.25-2.25-2.25-2.25-2.24 2.25zm-.15-53 2.17-2.17-2.16-2.16-2.17 2.16zm-.07-17.75 2.1-2.03-2.08-2.08-2.08 2.08zm.12 48.54-2.25 2.25 2.25 2.24 2.24-2.25zm1.44-85.9-1.66 1.67-1.67-1.66 1.69-1.68zm0-17.7-1.66 1.66-1.63-1.63 1.67-1.66zm-8.77 26.59-1.66 1.66-1.65-1.66 1.66-1.65zm0-17.56-1.66 1.66-1.64-1.66 1.66-1.66zm0-17.57-1.65 1.66-1.65-1.68 1.66-1.66zm14.28 300.45 1.66 1.66 1.65-1.66-1.59-1.68zm-.3-88.18 2.25 2.25 2.25-2.25-2.25-2.25zm9 96.92 1.67 1.67 1.66-1.67-1.66-1.67zm-9.12-132.62 2.42 2.42 2.41-2.42-2.41-2.42zm.1 106.26 2.08 2.07 2.08-2.07-2.12-2.08zm-.06-17.72 2.16 2.17 2.16-2.16-2.16-2.17zm0-17.55 2.25 2.25 2.25-2.24-2.25-2.25zm0-17.62 2.24 2.25 2.25-2.25-2.25-2.25zm9-26.55 2.24 2.24 2.25-2.24-2.25-2.25zm-.23 52.9 2.29 2.29 2.29-2.29-2.29-2.29zm.16-35.25 2.24 2.25 2.25-2.25-2.32-2.25zm-.07 52.9 2.17 2.16 2.16-2.16-2.17-2.17zm0 17.66 2.08 2.08 2.08-2.08-2.11-2.03zm4.44-52.86-2.24-2.25-2.25 2.24 2.25 2.25zm-2.49 89.83-1.71-1.7 1.67-1.66 1.66 1.67zm0 17.7-1.65-1.7 1.67-1.66 1.66 1.66zm-8.71-26.61-1.66-1.65 1.65-1.66 1.66 1.66zm0 17.58-1.72-1.67 1.66-1.65 1.66 1.65zm0 17.58-1.66-1.66 1.66-1.66 1.65 1.66zm0-300.45 1.65-1.66-1.65-1.66-1.66 1.66zm.29 88.77 2.25-2.25-2.25-2.25-2.29 2.25zm8.45-97.5 1.66-1.67-1.66-1.67-1.74 1.67zm-8.74 26.75 2.08-2.08-2.08-2.07-2 2.07zm0 17.8 2.16-2.17-2.16-2.16-2.16 2.17zm0 17.63 2.25-2.25-2.25-2.24-2.15 2.24zm0 17.63 2.25-2.25-2.25-2.25-2.24 2.25zm9 26.55 2.25-2.25-2.25-2.24-2.24 2.24zm-.18-52.86 2.29-2.29-2.19-2.28-2.29 2.29zm.11 35.21 2.25-2.25-2.18-2.25-2.24 2.25zm-.15-53 2.17-2.17-2.16-2.16-2.17 2.16zm-.07-17.75 2.18-2.03-2.08-2.08-2.08 2.08zm.12 48.54-2.25 2.25 2.25 2.24 2.24-2.25zm1.44-85.9-1.66 1.67-1.61-1.64 1.71-1.7zm0-17.7-1.66 1.66-1.55-1.63 1.67-1.66zm-8.67 26.59-1.66 1.66-1.65-1.66 1.71-1.65zm0-17.58-1.66 1.66-1.66-1.64 1.66-1.66zm0-17.57-1.65 1.66-1.66-1.66 1.66-1.66zm14.28 300.45 1.66 1.66 1.65-1.66-1.65-1.66zm-.3-88.18 2.25 2.25 2.25-2.25-2.25-2.25zm9 96.92 1.67 1.67 1.66-1.67-1.66-1.67zm-9-114.6 2.24 2.24 2.25-2.24-2.25-2.25zm-.18-18 2.42 2.42 2.41-2.42-2.41-2.42zm.1 106.26 2.08 2.07 2.08-2.07-2.08-2.08zm-.06-17.72 2.16 2.17 2.16-2.16-2.16-2.17zm9-61.72 2.24 2.24 2.25-2.24-2.25-2.25zm0-17.67 2.25 2.25 2.24-2.24-2.25-2.25zm-.16 88.22 2.16 2.16 2.17-2.16-2.17-2.17zm0 17.66 2.08 2.08 2.08-2.08-2.05-2.03zm4.44-52.86-2.24-2.25-2.25 2.24 2.25 2.25zm-2.43 89.83-1.67-1.67 1.67-1.66 1.66 1.67zm0 17.7-1.65-1.7 1.67-1.66 1.69 1.66zm-8.78-26.58-1.66-1.65 1.65-1.66 1.66 1.66zm0 17.58-1.65-1.7 1.66-1.65 1.66 1.66zm0 17.58-1.66-1.66 1.66-1.66 1.65 1.66zm0-300.45 1.65-1.66-1.65-1.66-1.66 1.66zm.29 88.77 2.25-2.25-2.25-2.25-2.25 2.25zm8.45-97.5 1.66-1.67-1.66-1.67-1.65 1.64zm-8.41 115.18 2.25-2.25-2.25-2.24-2.22 2.21zm-.24-88.43 2.08-2.08-2.08-2.07-2.08 2.07zm0 17.8 2.16-2.17-2.16-2.16-2.16 2.17zm.07 35.26 2.25-2.25-2.25-2.25-2.24 2.25zm9 26.55 2.25-2.25-2.25-2.24-2.24 2.24zm0 17.66 2.25-2.25-2.24-2.24-2.25 2.25zm-.09-35.31 2.25-2.25-2.25-2.25-2.24 2.25zm-.15-53 2.17-2.17-2.17-2.16-2.16 2.16zm-.07-17.75 2.11-2.06-2.08-2.08-2.08 2.08zm.12 48.54-2.25 2.25 2.25 2.24 2.24-2.25zm1.52-85.91-1.66 1.67-1.67-1.66 1.62-1.7zm0-17.69-1.66 1.66-1.7-1.66 1.67-1.66zm-8.79 26.57-1.66 1.66-1.65-1.66 1.66-1.65zm0-17.58-1.66 1.66-1.69-1.65 1.66-1.66zm0-17.57-1.65 1.66-1.66-1.66 1.66-1.66zm14.28 300.45 1.66 1.66 1.65-1.66-1.65-1.66zm-.3-88.18 2.25 2.25 2.25-2.25-2.25-2.25zm9 96.92 1.67 1.67 1.66-1.67-1.66-1.67zm-9-114.6 2.24 2.24 2.25-2.24-2.25-2.25zm-.19-18.01 2.42 2.42 2.41-2.42-2.41-2.42zm.1 106.26 2.08 2.07 2.08-2.07-2.08-2.08zm-.1-35.26 2.25 2.25 2.25-2.24-2.25-2.25zm0-17.62 2.24 2.25 2.25-2.25-2.25-2.25zm9-26.55 2.24 2.24 2.25-2.24-2.25-2.25zm0-17.67 2.25 2.25 2.24-2.24-2.25-2.25zm-.25 70.57 2.29 2.29 2.29-2.29-2.29-2.29zm.16-35.25 2.24 2.25 2.25-2.25-2.25-2.25zm-.07 52.9 2.16 2.16 2.17-2.16-2.17-2.18zm0 17.66 2.08 2.08 2.08-2.08-2-2.04zm4.44-52.86-2.24-2.25-2.25 2.24 2.25 2.25zm-2.41 89.82-1.67-1.67 1.67-1.66 1.66 1.67zm0 17.7-1.65-1.7 1.67-1.66 1.66 1.66zm-8.78-26.58-1.66-1.65 1.65-1.66 1.66 1.66zm0 17.58-1.65-1.7 1.66-1.65 1.66 1.66zm0 17.58-1.66-1.66 1.66-1.66 1.65 1.66zm0-300.45 1.65-1.66-1.65-1.66-1.66 1.66zm.29 88.77 2.25-2.25-2.25-2.25-2.25 2.25zm8.45-97.5 1.66-1.67-1.66-1.67-1.67 1.67zm-8.41 115.18 2.25-2.25-2.25-2.24-2.22 2.21zm-.24-88.43 2.08-2.08-2.08-2.07-2.08 2.07zm.06 35.43 2.25-2.25-2.25-2.24-2.24 2.21zm0 17.63 2.25-2.25-2.25-2.25-2.24 2.25zm9 26.55 2.25-2.25-2.25-2.24-2.24 2.21zm0 17.66 2.25-2.25-2.24-2.24-2.25 2.22zm-.2-70.52 2.29-2.29-2.25-2.31-2.29 2.29zm.11 35.21 2.25-2.25-2.25-2.25-2.15 2.22zm-.15-70.76 2.05-2.05-2.05-2.11-2.11 2.11zm.12 48.54-2.25 2.25 2.25 2.24 2.24-2.25zm1.44-85.9-1.66 1.67-1.7-1.66 1.67-1.7zm0-17.7-1.66 1.66-1.68-1.65 1.67-1.66zm-8.79 26.57-1.66 1.66-1.65-1.66 1.66-1.65zm0-17.58-1.66 1.66-1.67-1.64 1.66-1.66zm0-17.57-1.67 1.66-1.66-1.66 1.66-1.66zm14.23 300.45 1.66 1.66 1.65-1.66-1.65-1.66zm-.3-88.18 2.25 2.25 2.25-2.25-2.2-2.25zm9 96.92 1.67 1.67 1.66-1.67-1.66-1.67zm-9-114.6 2.24 2.24 2.25-2.24-2.19-2.25zm-.18-18 2.42 2.42 2.41-2.42-2.35-2.42zm.1 106.26 2.08 2.07 2.08-2.07-2.08-2.08zm-.06-17.72 2.16 2.17 2.16-2.16-2.16-2.17zm.03-17.54 2.25 2.25 2.25-2.24-2.25-2.25zm0-17.62 2.24 2.25 2.25-2.25-2.25-2.25zm9-26.55 2.24 2.24 2.25-2.24-2.25-2.25zm0-17.67 2.24 2.25 2.25-2.24-2.25-2.25zm-.25 70.57 2.29 2.29 2.29-2.29-2.29-2.29zm.16-35.25 2.24 2.25 2.25-2.25-2.25-2.25zm-.07 52.9 2.16 2.16 2.17-2.16-2.17-2.17zm0 17.66 2.08 2.08 2.08-2.08-2.04-2.04zm4.44-52.86-2.24-2.25-2.25 2.24 2.25 2.25zm-2.42 89.82-1.67-1.67 1.67-1.66 1.66 1.67zm0 17.7-1.65-1.7 1.67-1.66 1.66 1.66zm-8.78-26.58-1.67-1.68 1.65-1.66 1.66 1.66zm0 17.58-1.67-1.7 1.66-1.65 1.66 1.66zm0 17.58-1.67-1.69 1.66-1.66 1.65 1.66zm0-300.45 1.65-1.66-1.65-1.66-1.67 1.63zm.29 88.77 2.25-2.25-2.21-2.28-2.25 2.25zm8.45-97.5 1.66-1.67-1.66-1.67-1.67 1.67zm-8.41 115.15 2.25-2.25-2.25-2.24-2.22 2.24zm-.24-88.43 2.08-2.08-2.08-2.07-2.08 2.07zm0 17.8 2.24-2.17-2.16-2.16-2.16 2.17zm0 17.63 2.25-2.25-2.25-2.24-2.17 2.24zm0 17.63 2.25-2.25-2.25-2.25-2.24 2.25zm9 26.55 2.25-2.25-2.25-2.24-2.24 2.24zm0 17.66 2.25-2.25-2.25-2.24-2.24 2.25zm-.2-70.52 2.29-2.29-2.19-2.28-2.29 2.29zm.11 35.21 2.25-2.25-2.25-2.25-2.24 2.25zm-.15-53 2.17-2.17-2.17-2.16-2.16 2.16zm-.07-17.75 2.18-2.03-2.08-2.08-2.08 2.08zm.12 48.54-2.25 2.25 2.25 2.24 2.24-2.25zm1.44-85.9-1.66 1.67-1.67-1.66 1.77-1.68zm0-17.7-1.66 1.66-1.55-1.63 1.67-1.66zm-8.79 26.57-1.66 1.66-1.56-1.64 1.66-1.65zm0-17.58-1.66 1.66-1.56-1.62 1.66-1.66zm0-17.57-1.65 1.66-1.57-1.64 1.66-1.66zm14.28 300.45 1.66 1.66 1.65-1.66-1.65-1.66zm-.3-88.18 2.25 2.25 2.25-2.25-2.25-2.25zm9 96.92 1.67 1.67 1.66-1.67-1.53-1.65zm-9-114.6 2.24 2.24 2.25-2.24-2.25-2.25zm-.18-18 2.42 2.42 2.56-2.4-2.41-2.42zm.1 106.26 2.08 2.07 2.08-2.07-2.08-2.08zm-.06-17.72 2.16 2.17 2.16-2.16-2.16-2.17zm.11-17.52 2.25 2.25 2.25-2.24-2.25-2.25zm0-17.62 2.24 2.25 2.25-2.25-2.25-2.25zm9-26.55 2.24 2.24 2.25-2.24-2.25-2.25zm0-17.67 2.24 2.25 2.25-2.24-2.25-2.25zm-.17 70.56 2.29 2.29 2.29-2.29-2.29-2.29zm.16-35.25 2.24 2.25 2.25-2.25-2.25-2.25zm-.07 52.9 2.16 2.16 2.17-2.16-2.17-2.17zm0 17.66 2.08 2.08 2.08-2.08-2.12-2.03zm4.44-52.86-2.24-2.25-2.29 2.24 2.25 2.25zm-2.53 89.83-1.67-1.67 1.67-1.66 1.66 1.67zm0 17.7-1.62-1.7 1.67-1.66 1.66 1.66zm-8.78-26.58-1.66-1.65 1.65-1.66 1.66 1.66zm0 17.58-1.62-1.7 1.66-1.65 1.66 1.66zm0 17.58-1.66-1.66 1.66-1.66 1.65 1.66zm0-300.45 1.65-1.66-1.65-1.66-1.66 1.66zm.29 88.77 2.25-2.25-2.25-2.25-2.25 2.25zm8.49-97.53 1.66-1.67-1.66-1.67-1.67 1.67zm-8.4 115.18 2.25-2.25-2.25-2.24-2.24 2.24zm-.24-88.43 2.08-2.08-2.08-2.07-2.08 2.07zm0 17.8 2.16-2.17-2.16-2.16-2.16 2.17zm0 17.63 2.25-2.25-2.25-2.24-2.19 2.24zm0 17.63 2.25-2.25-2.25-2.25-2.24 2.25zm9 26.55 2.25-2.25-2.25-2.24-2.24 2.24zm-.18-52.86 2.29-2.29-2.23-2.28-2.24 2.28zm.11 35.21 2.25-2.25-2.25-2.25-2.24 2.25zm-.15-53 2.17-2.17-2.17-2.16-2.14 2.18zm-.07-17.75 2.14-2.03-2.08-2.08-2.08 2.08zm.12 48.54-2.19 2.27 2.25 2.24 2.24-2.25zm1.44-85.9-1.63 1.69-1.67-1.66 1.67-1.7zm0-17.7-1.66 1.66-1.59-1.63 1.67-1.66zm-8.79 26.57-1.66 1.66-1.65-1.66 1.66-1.65zm0-17.58-1.66 1.66-1.58-1.62 1.66-1.66zm0-17.57-1.65 1.66-1.59-1.64 1.66-1.66zm14.28 300.45 1.66 1.66 1.65-1.66-1.65-1.66zm-.3-88.18 2.25 2.25 2.25-2.25-2.25-2.25zm9 96.92 1.67 1.67 1.66-1.67-1.66-1.67zm-9-114.6 2.24 2.24 2.25-2.24-2.25-2.25zm-.18-18 2.42 2.42 2.41-2.42-2.41-2.42zm.1 106.26 2.08 2.07 2.08-2.07-2.08-2.08zm-.06-17.72 2.16 2.17 2.16-2.16-2-2.15zm.07-17.52 2.25 2.25 2.24-2.24-2.24-2.26zm0-17.62 2.25 2.25 2.25-2.25-2.25-2.26zm9-26.55 2.24 2.24 2.25-2.24-2.24-2.26zm0-17.67 2.25 2.24 2.25-2.24-2.25-2.25zm-.25 70.57 2.29 2.29 2.29-2.29-2.29-2.29zm.16-35.25 2.24 2.25 2.25-2.25-2.25-2.25zm-.07 52.9 2.16 2.16 2.17-2.16-2.17-2.17zm0 17.66 2.08 2.08 2.08-2.08-2.04-2.04zm4.44-52.86-2.24-2.25-2.25 2.24 2.25 2.25zm-2.42 89.82-1.67-1.67 1.67-1.66 1.66 1.67zm0 17.7-1.61-1.7 1.67-1.66 1.66 1.66zm-8.78-26.58-1.66-1.65 1.65-1.66 1.66 1.66zm0 17.58-1.65-1.7 1.66-1.65 1.66 1.65zm0 17.58-1.66-1.66 1.66-1.66 1.65 1.66zm0-300.45 1.65-1.66-1.65-1.66-1.66 1.66zm.29 88.77 2.25-2.25-2.25-2.25-2.25 2.25zm8.45-97.5 1.66-1.67-1.66-1.67-1.67 1.67zm-8.41 115.18 2.25-2.25-2.25-2.24-2.22 2.21zm-.24-88.43 2.08-2.11-2.08-2.07-2.08 2.07zm0 17.8 2.16-2.17-2.08-2.19-2.16 2.17zm0 17.63 2.24-2.25-2.16-2.27-2.25 2.24zm0 17.63 2.25-2.25-2.17-2.28-2.25 2.25zm9 26.55 2.25-2.25-2.17-2.27-2.24 2.24zm0 17.66 2.25-2.25-2.17-2.27-2.24 2.25zm-.2-70.52 2.29-2.29-2.19-2.31-2.29 2.29zm.11 35.21 2.25-2.25-2.25-2.25-2.24 2.25zm-.15-53 2.32-2.18-2.17-2.16-2.16 2.16zm-.07-17.75 2.18-2.06-2.08-2.08-2.08 2.08zm.12 48.54-2.25 2.25 2.25 2.24 2.24-2.25zm1.44-85.9-1.66 1.67-1.67-1.66 1.77-1.71zm0-17.7-1.66 1.66-1.51-1.66 1.67-1.66zm-8.67 26.56-1.66 1.66-1.65-1.66 1.66-1.65zm0-17.58-1.66 1.66-1.66-1.64 1.66-1.66zm0-17.57-1.65 1.66-1.66-1.66 1.66-1.66z" fill="url(#a)" opacity=".5"/><path d="m288.31 134.51h2.5v46.5h-2.5z" fill="#808080" transform="matrix(.71202605 -.70215305 .70215305 .71202605 -27.38 248.75)"/><path d="m183.46 147.67h71.32v2.5h-71.32z" fill="#808080" transform="matrix(.70240155 -.7117809 .7117809 .70240155 -40.79 200.28)"/><path d="m235.74 218.47h2.5v21.32h-2.5z" fill="#808080" transform="matrix(.7116583 -.70252577 .70252577 .7116583 -92.64 232.57)"/><path d="m204.94 180.85h2.5v34.18h-2.5z" fill="#808080" transform="matrix(.7116583 -.70252577 .70252577 .7116583 -79.61 201.95)"/><path d="m254 236.08 1.76-1.77 1.78 1.76-1.77 1.77zm4.23-4.26 1.76-1.77 1.78 1.76-1.77 1.77zm4.23-4.25 1.76-1.78 1.77 1.76-1.76 1.78zm4.23-4.26 1.76-1.78 1.77 1.77-1.76 1.77zm4.22-4.26 1.77-1.77 1.77 1.76-1.76 1.77zm4.23-4.25 1.77-1.78 1.77 1.76-1.76 1.78zm4.23-4.26 1.77-1.77 1.77 1.76-1.76 1.77zm4.23-4.26 1.76-1.77 1.78 1.76-1.8 1.73zm4.2-4.28 1.76-1.77 1.78 1.76-1.77 1.78zm4.23-4.25 1.76-1.77 1.77 1.76-1.76 1.77zm4.23-4.26 1.76-1.77 1.77 1.76-1.79 1.79zm4.22-4.25 1.77-1.78 1.77 1.76-1.76 1.78z" fill="#808080"/><path d="m246.87 114.89h5.89v5.89h-5.89z" fill="#f0b90b" transform="matrix(.70698336 -.70723018 .70723018 .70698336 -10.13 211.2)"/><path d="m185.53 177.05h5.89v5.89h-5.89z" fill="#f0b90b" transform="matrix(.70698336 -.70723018 .70723018 .70698336 -72.07 186.04)"/><path d="m308.54 177.05h5.89v5.89h-5.89z" fill="#f0b90b" transform="matrix(.70698336 -.70723018 .70723018 .70698336 -36.03 273.04)"/><path d="m246.9 239.22h5.89v5.89h-5.89z" fill="#f0b90b" transform="matrix(.70698336 -.70723018 .70723018 .70698336 -98.06 247.66)"/><g fill="#808080"><path d="m287.2 104.29-1.77-1.77 1.77-1.77 1.76 1.77z"/><path d="m282.81 99.87-1.81-1.78 1.77-1.77 1.76 1.77zm-4.4-4.42-1.78-1.79 1.77-1.76 1.76 1.76zm-4.41-4.45-1.78-1.78 1.78-1.75 1.76 1.77zm-4.4-4.43-1.78-1.78 1.78-1.79 1.76 1.77zm-4.4-4.42-1.78-1.79 1.77-1.76 1.81 1.78zm-4.43-4.43-1.77-1.79 1.8-1.74 1.73 1.8z"/><path d="m256.35 73.31-1.71-1.83 1.82-1.71 1.71 1.83z"/><path d="m357.12 174.64-1.72-1.84 1.83-1.7 1.71 1.83z"/><path d="m352.81 170.25-1.81-1.78 1.77-1.77 1.77 1.77zm-4.37-4.39-1.78-1.79 1.77-1.76 1.77 1.76zm-4.37-4.4-1.78-1.78 1.77-1.77 1.76 1.77zm-4.37-4.39-1.78-1.79 1.76-1.76 1.77 1.76zm-4.37-4.4-1.78-1.78 1.76-1.77 1.77 1.77zm-4.33-4.39-1.79-1.79 1.77-1.76 1.77 1.76zm-4.44-4.4-1.76-1.88 1.83-1.71 1.71 1.83zm-4.31-4.39-1.78-1.79 1.77-1.76 1.76 1.76zm-4.37-4.4-1.78-1.78 1.77-1.77 1.76 1.77zm-4.37-4.4-1.78-1.78 1.77-1.76 1.76 1.76zm-4.37-4.39-1.78-1.78 1.76-1.77 1.77 1.77zm-4.43-4.4-1.71-1.84 1.82-1.7 1.71 1.82z"/><path d="m300.35 117.51-1.77-1.78 1.77-1.76 1.77 1.76z"/><path d="m324.43 221.84-1.77-1.76 1.77-1.77 1.77 1.76z"/><path d="m328.51 217.74-1.78-1.74 1.78-1.78 1.76 1.77zm4.14-4.1-1.85-1.64 1.71-1.85 1.84 1.7zm4-4.09-1.78-1.76 1.78-1.78 1.77 1.77zm4.08-4.1-1.73-1.75 1.78-1.79 1.77 1.77zm4.07-4.1-1.8-1.75 1.78-1.78 1.77 1.76zm4.08-4.1-1.79-1.75 1.79-1.78 1.76 1.77zm4.07-4.09-1.78-1.76 1.78-1.78 1.77 1.77z"/><path d="m357.02 189.06-1.78-1.76 1.78-1.77 1.76 1.77z"/><path d="m256.75 290.04-1.78-1.76 1.78-1.77 1.76 1.76z"/><path d="m261 285.76-1.79-1.76 1.79-1.78 1.76 1.77zm4.3-4.27-1.84-1.7 1.72-1.84 1.83 1.71zm4.19-4.28-1.78-1.75 1.78-1.78 1.77 1.76zm4.25-4.28-1.74-1.75 1.78-1.78 1.77 1.77zm4.25-4.27-1.78-1.76 1.78-1.78 1.77 1.77zm4.25-4.28-1.78-1.75 1.78-1.78 1.77 1.76zm4.31-4.28-1.84-1.69 1.72-1.84 1.82 1.71zm4.19-4.27-1.74-1.76 1.78-1.78 1.76 1.77zm4.19-4.28-1.72-1.81 1.84-1.72 1.7 1.82zm4.36-4.28-1.84-1.69 1.72-1.84 1.83 1.71zm4.25-4.27-1.84-1.7 1.72-1.84 1.83 1.71zm4.13-4.28-1.67-1.81 1.84-1.72 1.66 1.81zm4.31-4.28-1.78-1.75 1.78-1.78 1.77 1.77z"/><path d="m316.34 230.17-1.89-1.64 1.66-1.89 1.88 1.65z"/></g><path d="m204.13 250.26-1.88-1.64 1.64-1.89 1.89 1.65z" fill="url(#b)"/><path d="m239.07 285.72-1.76-1.72 1.75-1.78 1.78 1.78zm-4.44-4.43-1.71-1.83 1.81-1.72 1.73 1.84zm-4.32-4.44-1.77-1.76 1.75-1.79 1.79 1.79zm-4.38-4.43-1.77-1.76 1.75-1.79 1.78 1.79zm-4.39-4.42-1.76-1.77 1.75-1.78 1.78 1.78zm-4.38-4.43-1.77-1.77 1.76-1.78 1.78 1.78zm-4.44-4.43-1.72-1.83 1.81-1.73 1.72 1.84zm-4.33-4.43-1.76-1.77 1.75-1.78 1.78 1.78z" fill="url(#c)"/><path d="m243.45 290.14-1.77-1.77 1.76-1.77 1.78 1.77z" fill="url(#d)"/><g fill="#808080" opacity=".5"><path d="m410.12 174.85-1.78-1.77 1.77-1.77 1.77 1.77z"/><path d="m405.77 170.48-1.77-1.78 1.77-1.77 1.77 1.77zm-4.33-4.38-1.82-1.76 1.74-1.79 1.8 1.74zm-4.44-4.38-1.72-1.85 1.82-1.7 1.7 1.83zm-4.3-4.38-1.78-1.79 1.76-1.76 1.77 1.76zm-4.37-4.34-1.78-1.79 1.76-1.76 1.77 1.76zm-4.33-4.43-1.78-1.78 1.78-1.79 1.76 1.77z"/><path d="m379.55 144.19-1.71-1.83 1.82-1.71 1.71 1.83z"/></g><g fill="#808080" opacity=".5"><path d="m334.72 264.62-1.77-1.76 1.77-1.78 1.77 1.77z"/><path d="m338.93 260.38-1.78-1.76 1.78-1.78 1.77 1.77zm4.27-4.24-1.84-1.7 1.72-1.84 1.82 1.71zm4.21-4.24-1.84-1.7 1.72-1.84 1.82 1.71zm4.21-4.24-1.84-1.7 1.72-1.84 1.82 1.71zm4.14-4.24-1.76-1.76 1.78-1.78 1.77 1.77zm4.21-4.24-1.78-1.76 1.78-1.78 1.77 1.77zm4.21-4.24-1.78-1.76 1.78-1.78 1.77 1.77zm4.27-4.25-1.84-1.69 1.72-1.84 1.83 1.71zm4.21-4.24-1.84-1.69 1.72-1.84 1.83 1.71zm4.21-4.24-1.87-1.69 1.72-1.84 1.83 1.71zm4.13-4.21-1.78-1.75 1.78-1.78 1.77 1.77zm4.21-4.24-1.76-1.76 1.78-1.78 1.77 1.78zm4.21-4.24-1.78-1.75 1.78-1.78 1.76 1.77zm4.27-4.24-1.84-1.69 1.71-1.84 1.83 1.7zm4.21-4.24-1.85-1.69 1.72-1.84 1.83 1.7zm4.2-4.24-1.84-1.69 1.72-1.84 1.83 1.7zm4.15-4.24-1.78-1.75 1.78-1.78 1.77 1.76z"/><path d="m410.36 188.29-1.66-1.87 1.89-1.65 1.65 1.88z"/></g><path d="m248.28 348.11 1.76-1.77 1.77 1.76-1.76 1.77zm4.22-4.25 1.77-1.78 1.77 1.76-1.76 1.78zm4.23-4.26 1.77-1.77 1.77 1.75-1.76 1.78zm4.23-4.26 1.76-1.77 1.78 1.76-1.77 1.77zm4.23-4.25 1.76-1.78 1.78 1.76-1.73 1.78zm4.23-4.26 1.76-1.78 1.77 1.76-1.76 1.78zm4.23-4.26 1.76-1.77 1.77 1.76-1.76 1.77zm4.22-4.26 1.76-1.77 1.78 1.76-1.76 1.77zm4.23-4.25 1.76-1.78 1.78 1.76-1.76 1.78zm4.23-4.26 1.76-1.78 1.77 1.77-1.76 1.77zm4.23-4.26 1.76-1.77 1.77 1.76-1.76 1.77zm4.23-4.26 1.76-1.77 1.77 1.76-1.76 1.78zm4.21-4.28 1.76-1.78 1.78 1.76-1.76 1.78zm4.23-4.26 1.77-1.74 1.77 1.76-1.77 1.77zm4.23-4.26 1.76-1.77 1.78 1.79-1.76 1.77zm4.23-4.25 1.76-1.78 1.77 1.76-1.75 1.79zm4.23-4.26 1.76-1.77 1.77 1.75-1.76 1.78zm4.22-4.26 1.76-1.77 1.78 1.76-1.76 1.77z" fill="#808080" opacity=".5"/><path d="m141.95 241.21-1.65-1.89 1.88-1.65 1.65 1.89z" fill="#808080"/><path d="m168.76 268-1.83-1.71 1.7-1.83 1.84 1.72zm-4.56-4.46-1.71-1.83 1.81-1.71 1.73 1.84zm-4.38-4.47-1.77-1.77 1.76-1.78 1.78 1.78zm-4.44-4.47-1.76-1.77 1.75-1.78 1.78 1.78zm-4.38-4.46-1.82-1.71 1.69-1.84 1.84 1.73zm-4.5-4.46-1.76-1.77 1.75-1.78 1.78 1.78z" fill="#808080"/><path d="m173.25 272.47-1.88-1.65 1.64-1.88 1.89 1.65z" fill="#808080"/><path d="m89.45 188.38-1.64-1.88 1.87-1.65 1.66 1.89z" fill="#808080"/><path d="m124.73 223.77-1.73-1.77 1.75-1.78 1.78 1.78zm-4.4-4.43-1.77-1.76 1.76-1.79 1.78 1.79zm-4.39-4.42-1.77-1.77 1.75-1.78 1.79 1.78zm-4.4-4.42-1.76-1.77 1.75-1.78 1.78 1.78zm-4.39-4.42-1.77-1.77 1.75-1.78 1.79 1.78zm-4.45-4.43-1.7-1.82 1.81-1.72 1.72 1.83zm-4.34-4.42-1.77-1.77 1.76-1.78 1.78 1.78zm-4.36-4.42-1.8-1.81 1.8-1.74 1.73 1.74z" fill="#808080"/><path d="m129.11 228.18-1.76-1.77 1.76-1.77 1.77 1.77z" fill="#808080"/><path d="m146.07 117.44-1.82-1.71 1.7-1.82 1.84 1.69z" fill="#808080"/><path d="m94.08 170.45-1.77-1.77 1.77-1.76 1.78 1.75zm4.33-4.45-1.77-1.76 1.77-1.77 1.78 1.75zm4.35-4.41-1.76-1.71 1.74-1.8 1.81 1.72zm4.3-4.42-1.77-1.77 1.77-1.77 1.78 1.76zm4.33-4.42-1.77-1.75 1.77-1.76 1.78 1.75zm4.33-4.42-1.72-1.73 1.77-1.77 1.78 1.75zm4.39-4.42-1.83-1.7 1.71-1.83 1.84 1.69zm4.26-4.41-1.76-1.77 1.76-1.77 1.79 1.76zm4.36-4.42-1.8-1.74 1.74-1.79 1.81 1.72zm4.3-4.42-1.77-1.76 1.77-1.77 1.78 1.75zm4.39-4.42-1.83-1.7 1.71-1.83 1.84 1.69zm4.27-4.41-1.77-1.77 1.77-1.77 1.78 1.76z" fill="#808080"/><path d="m89.7 174.86-1.71-1.82 1.82-1.71 1.72 1.81z" fill="#808080"/><path d="m80.05 177.05h5.89v5.89h-5.89z" fill="#f0b90b" transform="matrix(.70698336 -.70723018 .70723018 .70698336 -102.98 111.44)"/><path d="m361.33 177.05h5.89v5.89h-5.89z" fill="#f0b90b" transform="matrix(.70698336 -.70723018 .70723018 .70698336 -20.56 310.37)"/><path d="m414.07 177.05h5.89v5.89h-5.89z" fill="#f0b90b" transform="matrix(.70698336 -.70723018 .70723018 .70698336 -5.11 347.67)"/><path d="m246.9 292.08h5.89v5.89h-5.89z" fill="#f0b90b" transform="matrix(.70698336 -.70723018 .70723018 .70698336 -135.44 263.15)"/><path d="m270.11 121.11h21.26v2.5h-21.26z" fill="#808080" transform="matrix(.70574793 -.70846302 .70846302 .70574793 -4.08 234.9)"/><path d="m264.68 132.57h5.89v5.89h-5.89z" fill="#f0b90b" transform="matrix(.70698336 -.70723018 .70723018 .70698336 -17.42 228.98)"/><path d="m59.54 51.85-1.82-1.7 1.7-1.84 1.83 1.72z" fill="url(#e)"/><path d="m107.24 99.5-1.8-1.74 1.73-1.76 1.83 1.7zm-4.34-4.33-1.79-1.74 1.72-1.81 1.81 1.75zm-4.37-4.34-1.76-1.76 1.75-1.79 1.78 1.79zm-4.3-4.33-1.8-1.73 1.72-1.77 1.85 1.71zm-4.43-4.33-1.71-1.83 1.81-1.72 1.72 1.85zm-4.34-4.33-1.71-1.84 1.81-1.72 1.72 1.85zm-4.31-4.33-1.74-1.8 1.79-1.71 1.8 1.77zm-4.31-4.33-1.77-1.77 1.76-1.78 1.78 1.78zm-4.34-4.33-1.77-1.77 1.76-1.78 1.78 1.78zm-4.31-4.33-1.79-1.74 1.72-1.78 1.81 1.75zm-4.37-4.33-1.76-1.77 1.75-1.78 1.78 1.78z" fill="url(#f)"/><path d="m111.48 103.82-1.7-1.83 1.82-1.71 1.71 1.83z" fill="url(#g)"/><path d="m53.57 44.16h5.89v5.89h-5.89z" fill="#808080" transform="matrix(.70698336 -.70723018 .70723018 .70698336 -16.76 53.77)"/><path d="m115.34 105.64h5.89v5.89h-5.89z" fill="#f0b90b" transform="matrix(.70698336 -.70723018 .70723018 .70698336 -42.13 115.47)"/><g fill="#808080" opacity=".5"><path d="m374.04 316.88-1.66-1.88 1.89-1.65 1.64 1.88z"/><path d="m369.8 312.54-1.8-1.78 1.77-1.77 1.77 1.77zm-4.36-4.35-1.78-1.78 1.77-1.77 1.77 1.77zm-4.36-4.35-1.78-1.78 1.77-1.77 1.77 1.77zm-4.3-4.35-1.84-1.72 1.71-1.83 1.83 1.71zm-4.42-4.35-1.78-1.78 1.77-1.77 1.77 1.77zm-4.36-4.35-1.78-1.79 1.77-1.76 1.77 1.76zm-4.35-4.35-1.79-1.79 1.77-1.76 1.77 1.76zm-4.36-4.36-1.79-1.78 1.77-1.77 1.73 1.77z"/><path d="m335.04 277.73-1.89-1.66 1.65-1.88 1.88 1.65z"/></g><path d="m325.37 266.41h5.89v5.89h-5.89z" fill="#f0b90b" transform="matrix(.70698336 -.70723018 .70723018 .70698336 -94.29 311.12)"/><path d="m377.94 318.68h5.89v5.89h-5.89z" fill="#f0b90b" transform="matrix(.70698336 -.70723018 .70723018 .70698336 -115.86 363.62)"/><path d="m55.28 315.26-1.77-1.76 1.77-1.77 1.77 1.77z" fill="url(#h)"/><path d="m59.62 310.92-1.78-1.76 1.78-1.78 1.77 1.77zm4.4-4.35-1.84-1.69 1.72-1.88 1.83 1.7zm4.29-4.35-1.79-1.75 1.79-1.78 1.76 1.77zm4.4-4.35-1.84-1.69 1.72-1.84 1.82 1.71zm4.29-4.34-1.78-1.75 1.78-1.78 1.77 1.77zm4.34-4.35-1.78-1.75 1.78-1.78 1.77 1.76zm4.34-4.35-1.78-1.75 1.78-1.78 1.77 1.77zm4.32-4.34-1.72-1.82 1.79-1.67 1.71 1.83zm4.4-4.35-1.78-1.75 1.78-1.78 1.77 1.76zm4.35-4.35-1.84-1.79 1.79-1.78 1.76 1.77zm4.34-4.34-1.79-1.76 1.79-1.78 1.76 1.77zm4.34-4.35-1.78-1.75 1.78-1.78 1.77 1.76zm4.4-4.35-1.84-1.69 1.72-1.84 1.83 1.7zm4.28-4.34-1.78-1.76 1.78-1.78 1.77 1.77zm4.4-4.35-1.84-1.69 1.72-1.84 1.83 1.7zm4.28-4.35-1.79-1.71 1.78-1.78 1.77 1.77z" fill="url(#i)"/><path d="m129.19 241.37-1.88-1.64 1.65-1.89 1.88 1.65z" fill="url(#j)"/><path d="m45.45 317.43h5.89v5.89h-5.89z" fill="#808080" transform="matrix(.70698336 -.70723018 .70723018 .70698336 -212.4 128.1)"/><path d="m132.69 229.89h5.89v5.89h-5.89z" fill="#f0b90b" transform="matrix(.70698336 -.70723018 .70723018 .70698336 -124.93 164.15)"/><path d="m369.86 132.61h5.89v5.89h-5.89z" fill="#f0b90b" transform="matrix(.70698336 -.70723018 .70723018 .70698336 13.37 303.38)"/><path d="m172.9 99.22h83.72v2.5h-83.72z" fill="#808080" transform="matrix(.70215305 -.71202605 .71202605 .70215305 -7.58 182.83)"/><path d="m246.87 62.03h5.89v5.89h-5.89z" fill="#f0b90b" transform="matrix(.70698336 -.70723018 .70723018 .70698336 27.25 195.71)"/><path d="m165.15 174.73h2.5v72.02h-2.5z" fill="#808080" transform="matrix(.70797015 -.70624236 .70624236 .70797015 -100.24 179.08)"/><path d="m132.79 177.05h5.89v5.89h-5.89z" fill="#f0b90b" transform="matrix(.70698336 -.70723018 .70723018 .70698336 -87.53 148.74)"/><g fill="#808080" opacity=".5"><path d="m256.23 20.12-1.77-1.77 1.77-1.77 1.77 1.77z"/><path d="m309.61 73.83-1.77-1.77 1.76-1.78 1.78 1.78zm-4.1-4.13-1.77-1.77 1.75-1.78 1.78 1.78zm-4.14-4.13-1.74-1.8 1.79-1.77 1.75 1.81zm-4.08-4.14-1.76-1.76 1.75-1.78 1.78 1.78zm-4.1-4.13-1.77-1.76 1.75-1.79 1.83 1.79zm-4.14-4.13-1.74-1.8 1.79-1.75 1.75 1.82zm-4.05-4.17-1.76-1.77 1.76-1.74 1.78 1.78zm-4.1-4.13-1.77-1.77 1.76-1.78 1.78 1.78zm-4.14-4.13-1.76-1.74 1.78-1.75 1.75 1.75zm-4.07-4.13-1.77-1.77 1.75-1.78 1.78 1.78zm-4.11-4.14-1.77-1.76 1.73-1.71 1.78 1.79zm-4.14-4.13-1.73-1.8 1.78-1.75 1.75 1.82zm-4.07-4.13-1.77-1.77 1.75-1.78 1.79 1.78z"/><path d="m313.65 77.95-1.71-1.82 1.82-1.72 1.72 1.84z"/></g><path d="m246.87 9.04h5.89v5.89h-5.89z" fill="#f0b90b" transform="matrix(.70698336 -.70723018 .70723018 .70698336 64.72 180.19)"/><g fill="#808080" opacity=".5"><path d="m186.13 285.7-1.65-1.88 1.87-1.66 1.66 1.89z"/><path d="m238.78 338.82-1.78-1.77 1.76-1.78 1.78 1.78zm-4.38-4.42-1.76-1.77 1.75-1.78 1.78 1.78zm-4.4-4.4-1.76-1.77 1.75-1.78 1.78 1.78zm-4.37-4.43-1.77-1.77 1.75-1.78 1.78 1.78zm-4.38-4.42-1.77-1.77 1.75-1.78 1.79 1.78zm-4.38-4.43-1.77-1.77 1.76-1.78 1.78 1.78zm-4.38-4.43-1.77-1.77 1.76-1.78 1.78 1.78zm-4.44-4.43-1.7-1.82 1.81-1.72 1.72 1.84zm-4.32-4.42-1.73-1.8 1.75-1.78 1.78 1.78zm-4.35-4.44-1.77-1.77 1.75-1.78 1.78 1.78zm-4.38-4.45-1.77-1.76 1.77-1.79 1.79 1.79zm-4.38-4.42-1.77-1.77 1.76-1.78 1.78 1.78z"/><path d="m243.03 343.24-1.64-1.88 1.87-1.66 1.66 1.89z"/></g><path d="m246.9 345.06h5.89v5.89h-5.89z" fill="#f0b90b" transform="matrix(.70698336 -.70723018 .70723018 .70698336 -172.91 278.67)"/><path d="m176.58 274.42h5.89v5.89h-5.89z" fill="#f0b90b" transform="matrix(.70698336 -.70723018 .70723018 .70698336 -143.56 208.24)"/><path d="m300.5 104.32-1.83-1.7 1.71-1.83 1.83 1.7z" fill="#808080"/><path d="m304.93 99.82-1.81-1.72 1.75-1.81 1.8 1.74zm4.46-4.5-1.82-1.72 1.76-1.81 1.79 1.74z" fill="#808080"/><path d="m313.87 90.83-1.84-1.69 1.72-1.84 1.82 1.7z" fill="#808080"/><path d="m290.9 106.05h5.89v5.89h-5.89z" fill="#f0b90b" transform="matrix(.70698336 -.70723018 .70723018 .70698336 9.02 239.76)"/><path d="m317.43 79.69h5.89v5.89h-5.89z" fill="#f0b90b" transform="matrix(.70698336 -.70723018 .70723018 .70698336 35.44 250.79)"/><path d="m319.05 206.62h2.5v35.29h-2.5z" fill="#808080" transform="matrix(.70611878 -.7080934 .7080934 .70611878 -64.67 292.7)"/><path d="m299.85 203.85h5.89v5.89h-5.89z" fill="#f0b90b" transform="matrix(.70698336 -.70723018 .70723018 .70698336 -57.53 274.74)"/><path d="m335.07 238.77h5.89v5.89h-5.89z" fill="#f0b90b" transform="matrix(.70698336 -.70723018 .70723018 .70698336 -71.91 309.89)"/><path d="m424.38 243.19h2.5v32.78h-2.5z" fill="#808080" transform="matrix(.70611878 -.7080934 .7080934 .70611878 -58.72 377.67)"/><path d="m440.41 274.09h5.89v5.89h-5.89z" fill="#f0b90b" transform="matrix(.70698336 -.70723018 .70723018 .70698336 -66.02 394.73)"/><path d="m410.89 227.47h21.34v2.5h-21.34z" fill="#808080" transform="matrix(.70550059 -.70870933 .70870933 .70550059 -37.95 366.09)"/><path d="m405.5 238.93h5.89v5.89h-5.89z" fill="#f0b90b" transform="matrix(.70698336 -.70723018 .70723018 .70698336 -51.38 359.74)"/><path d="m431.72 212.4h5.89v5.89h-5.89z" fill="#f0b90b" transform="matrix(.70698336 -.70723018 .70723018 .70698336 -24.93 370.51)"/><path d="m452.17 75.61-1.82-1.71 1.7-1.83 1.83 1.7z" fill="url(#k)"/><path d="m418.92 108.87-1.77-1.77 1.77-1.76 1.78 1.75zm4.09-4.16-1.71-1.83 1.83-1.7 1.72 1.81zm4.24-4.16-1.8-1.73 1.74-1.8 1.81 1.72zm4.12-4.15-1.77-1.77 1.77-1.77 1.78 1.76zm4.15-4.16-1.77-1.77 1.77-1.77 1.78 1.76zm4.11-4.16-1.73-1.8 1.8-1.73 1.75 1.78zm4.18-4.16-1.76-1.77 1.76-1.76 1.79 1.75zm4.19-4.16-1.8-1.76 1.8-1.77 1.74 1.77z" fill="url(#l)"/><path d="m414.84 113.02-1.83-1.7 1.71-1.83 1.83 1.7z" fill="url(#m)"/><path d="m405.25 114.9h5.89v5.89h-5.89z" fill="#f0b90b" transform="matrix(.70698336 -.70723018 .70723018 .70698336 36.27 323.22)"/><path d="m449.17 70.67h5.89v5.89h-5.89z" fill="#808080" transform="matrix(.70698336 -.70723018 .70723018 .70698336 80.42 341.33)"/><path d="m68.72 196.65h2.5v47.3h-2.5z" fill="#808080" transform="matrix(.70636591 -.70784687 .70784687 .70636591 -135.4 114.23)"/><path d="m44.85 195.22h5.89v5.89h-5.89z" fill="#f0b90b" transform="matrix(.70698336 -.70723018 .70723018 .70698336 -126.15 91.87)"/><path d="m89.07 239.14h5.89v5.89h-5.89z" fill="#f0b90b" transform="matrix(.70698336 -.70723018 .70723018 .70698336 -144.25 136.02)"/><path d="m334.43 107.91h59.25v2.5h-59.25z" fill="#808080" transform="matrix(.70636591 -.70784687 .70784687 .70636591 29.64 289.76)"/><path d="m334.74 132.61h5.89v5.89h-5.89z" fill="#f0b90b" transform="matrix(.70698336 -.70723018 .70723018 .70698336 3.08 278.55)"/><path d="m387.46 79.6h5.89v5.89h-5.89z" fill="#f0b90b" transform="matrix(.70698336 -.70723018 .70723018 .70698336 56.02 300.29)"/><path d="m165 111.47h2.5v22.23h-2.5z" fill="#808080" transform="matrix(.70587157 -.70833984 .70833984 .70587157 -37.93 153.83)"/><path d="m176.76 132.83h5.89v5.89h-5.89z" fill="#f0b90b" transform="matrix(.70698336 -.70723018 .70723018 .70698336 -43.37 166.88)"/><path d="m149.74 106.34h5.89v5.89h-5.89z" fill="#f0b90b" transform="matrix(.70698336 -.70723018 .70723018 .70698336 -32.55 140)"/><path d="m121.55 297.64h2.5v21.77h-2.5z" fill="#808080" transform="matrix(.70574793 -.70846302 .70846302 .70574793 -182.43 177.76)"/><path d="m106.71 292.46h5.89v5.89h-5.89z" fill="#f0b90b" transform="matrix(.70698336 -.70723018 .70723018 .70698336 -176.79 164.11)"/><path d="m133.23 318.69h5.89v5.89h-5.89z" fill="#f0b90b" transform="matrix(.70698336 -.70723018 .70723018 .70698336 -187.57 190.55)"/><path d="m360.98 35.62h5.89v5.89h-5.89z" fill="#808080" opacity=".5" transform="matrix(.70698336 -.70723018 .70723018 .70698336 79.37 268.68)"/><path d="m475.65 167.9h5.89v5.89h-5.89z" fill="#808080" opacity=".5" transform="matrix(.70698336 -.70723018 .70723018 .70698336 19.41 388.54)"/><path d="m9.55 106.06h5.89v5.89h-5.89z" fill="#808080" opacity=".5" transform="matrix(.70698336 -.70723018 .70723018 .70698336 -73.43 40.77)"/><path d="m202.79 53.12h5.89v5.89h-5.89z" fill="#f0b90b" transform="matrix(.70698336 -.70723018 .70723018 .70698336 20.64 161.93)"/><path d="m176.3 79.61h5.89v5.89h-5.89z" fill="#f0b90b" transform="matrix(.70698336 -.70723018 .70723018 .70698336 -5.87 150.96)"/><path d="m199.33 227.74h22.04v2.5h-22.04z" fill="#808080" transform="matrix(.71251607 -.70165579 .70165579 .71251607 -100.2 213.41)"/><path d="m220.84 213.01h5.89v5.89h-5.89z" fill="#f0b90b" transform="matrix(.70698336 -.70723018 .70723018 .70698336 -87.16 221.55)"/><path d="m193.97 239.27h5.89v5.89h-5.89z" fill="#f0b90b" transform="matrix(.70698336 -.70723018 .70723018 .70698336 -113.6 210.24)"/><path d="m249.81 202.19 22.7-22.69-22.7-22.69-22.69 22.69z" fill="#f0b90b"/><path d="m249.74 38.46-140.44 141.54 140.44 141.54 140.95-141.54z" fill="#808080" opacity=".1"/><path d="m249.84 91.46-87.86 88.54 87.86 88.54 88.17-88.54z" fill="#808080" opacity=".15"/><path d="m249.93 143.34-36.38 36.66 36.38 36.66 36.51-36.66z" fill="#808080" opacity=".15"/><g fill="#808080" opacity=".5"><path d="m199.45 64.27-1.83-1.7 1.71-1.83 1.83 1.7z"/><path d="m190.29 73.34-1.74-1.79 1.79-1.74 1.76 1.78zm4.59-4.53-1.8-1.74 1.74-1.8 1.81 1.73z"/><path d="m185.67 77.86-1.64-1.88 1.88-1.64 1.65 1.87z"/></g></svg>