<svg viewBox="0 0 500 360" xmlns="http://www.w3.org/2000/svg" xmlns:xlink="http://www.w3.org/1999/xlink"><radialGradient id="a" cx="250" cy="180" gradientUnits="userSpaceOnUse" r="216.72"><stop offset="0" stop-color="#808080"/><stop offset="1" stop-color="#808080" stop-opacity=".3"/></radialGradient><circle cx="259.03" cy="179.5" fill="#808080" opacity=".1" r="52.99"/><circle cx="259.03" cy="179.5" fill="#808080" opacity=".1" r="106.38"/><circle cx="259.03" cy="179.5" fill="#808080" opacity=".05" r="158.97"/><path d="m495.29 180h-2.5v-.5c0-.66 0-1.32 0-2h2.5v2zm-2.55-5.48c0-.82 0-1.65-.07-2.48l2.5-.08c0 .84.05 1.67.07 2.51zm-.18-5.46c0-.83-.08-1.66-.13-2.49l2.5-.13c.05.83.09 1.67.12 2.51zm-.31-5.47-.18-2.47 2.49-.2c.07.84.13 1.67.19 2.51zm-.43-5.45-.24-2.47 2.49-.26.24 2.5zm-.56-5.44-.3-2.47 2.48-.31c.11.83.21 1.66.3 2.5zm-.69-5.43c-.11-.82-.23-1.64-.35-2.46l2.47-.37.36 2.49zm-.81-5.4c-.13-.82-.27-1.64-.41-2.46l2.46-.42.42 2.48zm-.94-5.39c-.15-.82-.31-1.63-.47-2.44l2.45-.49c.17.82.32 1.65.48 2.47zm-1.06-5.37c-.17-.81-.35-1.62-.53-2.43l2.44-.54c.18.82.36 1.64.53 2.46zm-1.19-5.34c-.19-.8-.39-1.61-.59-2.41l2.43-.6c.2.81.4 1.63.59 2.44zm-1.32-5.3c-.21-.81-.42-1.61-.64-2.41l2.42-.65c.22.81.43 1.62.64 2.43zm-1.43-5.28c-.23-.8-.46-1.59-.7-2.39l2.4-.71c.24.81.47 1.61.7 2.41zm-1.57-5.19q-.36-1.18-.75-2.37l2.38-.77c.26.8.51 1.6.76 2.4zm-1.68-5.2c-.26-.79-.53-1.57-.8-2.35l2.36-.83.81 2.38zm-1.8-5.16-.86-2.34 2.34-.87.87 2.35zm-1.93-5.12c-.3-.77-.6-1.54-.91-2.31l2.32-.93c.31.77.62 1.55.92 2.33zm-2-5.07c-.32-.77-.64-1.53-1-2.29l2.29-1c.34.77.66 1.54 1 2.32z" fill="#808080" opacity=".25"/><path d="m41.94 273.38c-.34-.77-.66-1.55-1-2.32l2.3-1 1 2.29zm-2.13-5.11c-.31-.78-.62-1.55-.92-2.33l2.33-.91c.3.77.6 1.54.91 2.31zm-2-5.15-.87-2.36 2.35-.85c.29.78.57 1.56.86 2.33zm-1.88-5.2-.81-2.37 2.37-.8c.26.79.53 1.57.8 2.35zm-1.75-5.24c-.26-.79-.51-1.59-.76-2.39l2.39-.74q.36 1.19.75 2.37zm-1.64-5.27c-.24-.81-.47-1.61-.7-2.42l2.41-.68c.22.79.45 1.59.69 2.38zm-1.54-5.32c-.22-.81-.43-1.62-.64-2.43l2.42-.63c.21.8.42 1.6.64 2.4zm-1.38-5.35c-.2-.82-.4-1.63-.59-2.45l2.43-.57c.19.81.39 1.61.59 2.42zm-1.26-5.38c-.18-.82-.36-1.64-.53-2.46l2.45-.51c.17.81.34 1.62.52 2.42zm-1.1-5.36c-.17-.83-.32-1.65-.48-2.47l2.46-.46c.15.81.31 1.63.47 2.44zm-1-5.44-.43-2.56 2.47-.4c.14.82.27 1.64.41 2.45zm-.88-5.46-.38-2.53 2.48-.35c.11.82.23 1.64.35 2.46zm-.75-5.47-.3-2.5 2.48-.28.3 2.46zm-.62-5.5c-.09-.83-.17-1.66-.25-2.5l2.49-.22.24 2.47zm-.5-5.5c-.07-.84-.13-1.67-.18-2.51l2.49-.17.18 2.48zm-.37-5.52c0-.84-.09-1.67-.12-2.51l2.49-.11c0 .83.08 1.66.13 2.48zm-.24-5.52c0-.84-.05-1.68-.06-2.51l2.5-.06q0 1.25.06 2.49zm-.12-5.59c0-.67 0-1.34 0-2v-.51h2.5v.51 2z" fill="#808080" opacity=".25"/><path d="m144.86 291.91c-.59-.6-1.17-1.2-1.75-1.81l1.81-1.72c.57.59 1.14 1.19 1.72 1.78zm-3.82-4c-.57-.62-1.13-1.24-1.69-1.87l1.87-1.66c.55.61 1.1 1.23 1.66 1.84zm-3.68-4.15q-.83-1-1.62-1.92l1.92-1.6c.53.64 1.06 1.27 1.6 1.89zm-3.53-4.27q-.79-1-1.56-2l2-1.53 1.54 1.95zm-3.39-4.39c-.5-.67-1-1.35-1.49-2l2-1.46c.48.67 1 1.34 1.46 2zm-3.24-4.5-1.42-2.09 2.08-1.39c.46.69.93 1.38 1.4 2.06zm-3.07-4.6c-.46-.71-.91-1.42-1.35-2.14l2.12-1.31c.44.7.88 1.4 1.33 2.1zm-2.92-4.72-1.27-2.18 2.17-1.24 1.25 2.14zm-2.75-4.82c-.41-.73-.8-1.48-1.2-2.22l2.21-1.17c.39.74.78 1.46 1.18 2.19zm-2.58-4.91c-.38-.75-.76-1.5-1.12-2.26l2.25-1.09c.36.75.73 1.49 1.1 2.23zm-2.42-5c-.35-.76-.69-1.53-1-2.3l2.28-1 1 2.26zm-2.23-5.07q-.49-1.17-1-2.34l2.32-.93c.31.77.62 1.54.94 2.3zm-2.06-5.16c-.3-.79-.59-1.58-.88-2.37l2.36-.85c.28.78.56 1.56.86 2.33zm-1.88-5.22c-.27-.8-.53-1.6-.79-2.4l2.38-.77c.25.79.51 1.58.78 2.36zm-1.69-5.29c-.24-.81-.48-1.62-.71-2.43l2.4-.68c.23.8.46 1.59.7 2.39zm-1.51-5.35c-.22-.81-.42-1.63-.63-2.44l2.43-.6c.2.8.41 1.61.62 2.41zm-1.32-5.39c-.19-.82-.37-1.64-.54-2.47l2.45-.51c.17.81.34 1.62.53 2.43zm-1.14-5.44c-.15-.83-.3-1.65-.45-2.49l2.47-.42c.14.81.29 1.63.44 2.44zm-.94-5.48c-.13-.83-.25-1.66-.36-2.5l2.47-.34.36 2.46zm-.75-5.5c-.1-.84-.19-1.67-.28-2.51l2.49-.26c.08.83.17 1.65.27 2.47zm-.56-5.53c-.07-.84-.14-1.68-.19-2.52l2.49-.17c.06.82.12 1.65.19 2.48zm-.38-5.56c0-.84-.08-1.68-.11-2.52l2.5-.08c0 .82.06 1.65.11 2.47zm-.17-5.56c0-.84 0-1.68 0-2.52h2.5v2.48z" fill="#808080" opacity=".5"/><path d="m1.71 170.81.83.83.83-.83-.83-.81zm-.05 36.05.83.83.82-.82-.82-.87zm.05-17.67.82.83.83-.83-.83-.83zm-.13 35.4.82.83.83-.83-.83-.83zm-.2 70.47.83.83.83-.82-.83-.83zm.16-52.85.83.83.83-.83-.83-.83zm0 35.23.82.83.83-.83-.83-.83zm0-17.64.83.83.83-.82-.84-.81zm10.75-150.8-1.12-1.13-1.12 1.13 1.12 1.12zm-.08-17.55-1.08-1.08-1.08 1.08 1.08 1.08zm-10.54 61.68.82.83.83-.83-.83-.82zm10.48-79.39-1-1-1 1 1 1zm-10.57 61.67.83.83.83-.83-.83-.83zm10.27-79.28-.85-.83-.83.83.83.87zm-1.66 88.18 1.12 1.13 1.13-1.13-1.13-1.12zm-.11-17.69 1.12 1.12 1.13-1.12-1.13-1.12zm-8.54-26.42.83.82.83-.83-.83-.82zm1.46-35.27-.82-.82-.83.83.83.82zm-1.5 17.63.83.82.83-.82-.83-.83zm.05 35.23.83.83.82-.83-.82-.79zm25.93 62.21 1.52 1.53 1.53-1.53-1.53-1.52zm.11 18 1.41 1.4 1.43-1.4-1.43-1.44zm-.12 35.29 1.42 1.42 1.42-1.42-1.42-1.42zm.07-17.65 1.46 1.36 1.42-1.42-1.42-1.38zm-17.31-53.64 1.13 1.12 1.12-1.12-1.12-1.13zm17.14 89 1.42 1.42 1.42-1.42-1.42-1.42zm.14 35.24 1.25 1.25 1.24-1.28-1.24-1.21zm-.12-17.75 1.34 1.34 1.33-1.34-1.33-1.33zm9.13 61.75.83.83.83-.83-.83-.84zm-.18-105.8 1.41 1.42 1.42-1.42-1.42-1.44zm0-17.64 1.42 1.42 1.42-1.42-1.42-1.41zm-8.8 97 1 1 1-1-1-1zm-17.4.13.83.83.83-.83-.8-.93zm26.25-150.7 1.42 1.41 1.42-1.42-1.42-1.41zm-.15 124.08 1.33 1.33 1.34-1.33-1.34-1.31zm.06 17.69 1.25 1.26 1.25-1.26-1.25-1.26zm-.16-35.34 1.47 1.46 1.46-1.46-1.47-1.47zm.12 52.76 1 1 1-1-1-1zm0-70.35 1.41 1.42 1.42-1.42-1.42-1.42zm-26.1-26.38 1.13 1.12 1.12-1.12-1.12-1.13zm8.74 96.92.83.83.83-.83-.83-.84zm-8.68-114.61 1.13 1.13 1.12-1.13-1.12-1.13zm-.09-18 1.21 1.21 1.21-1.21-1.21-1.21zm17.47 141.29.83.83.83-.83-.83-.83zm-17.53-35 1 1 1-1-1-1zm0-17.71 1.08 1.08 1.09-1.08-1.09-1.08zm-.07-17.58 1.12 1.13 1.17-1.13-1.13-1.12zm0-17.62 1.13 1.12 1.12-1.12-1.12-1.12zm9-26.56 1.17 1.18 1.12-1.13-1.12-1.12zm0-17.66 1.12 1.13 1.12-1.13-1.05-1.16zm0-18.32 1.2 1.16 1.12-1.12-1.12-1.13zm-.23 88.89 1.23 1.15 1.15-1.15-1.15-1.15zm.23-35.25 1.13 1.12 1.12-1.12-1.12-1.13zm-.1 52.9 1.1 1.08 1-1.08-1-1.09zm0 17.65 1 1 1-1-1-1.05zm54.02-161.39-2 2 2 2 2-2zm-7.69-95-1.23-1.31-1.26 1.26 1.26 1.25zm-.18-17.71-1-1-1 1 1 1.05zm.28 35.42-1.46-1.46-1.47 1.41 1.47 1.46zm-3.17 88.1 2 2 2-2-2-2zm3.62-52.68-1.84-1.84-1.84 1.79 1.84 1.84zm-3.63 35.16 2 2 2-2-2-2zm0-17.65 2 2 2-2-2-2zm2.74-106.19-.83-.83-.83.83.83.83zm.85 70.79-1.67-1.67-1.67 1.67 1.67 1.68zm-9.42-26.38-1.25-1.26-1.26 1.26 1.26 1.25zm-.14-17.75-1-1-1 1 1 1zm-.18-17.75-.83-.83-.87.83.84.83zm.72 53-1.46-1.47-1.5 1.47 1.46 1.46zm-3.12 53 1.71 1.71 1.69-1.71-1.71-1.71zm.06 35.16 1.71 1.71 1.72-1.71-1.72-1.72zm1.75-19.28-1.72 1.71 1.71 1.71 1.72-1.71zm1.39-51.12-1.59-1.59-1.59 1.59 1.59 1.59zm.28 124-1.72-1.71-1.71 1.71 1.71 1.72zm18-53.53-2-2-2 2 2 2zm9-43.94-2.38-2.29-2.3 2.3 2.3 2.31zm-21.85 52.78 2 2 2-2-2-2zm8.72-44 2 2 2-2-2-2zm12.65-44.14-1.88-1.88-1.89 1.88 1.89 1.89zm-.32-17.71-1.67-1.68-1.68 1.68 1.68 1.67zm.35 35.59-2.09-2.09-2.09 2.09 2.09 2.09zm-38.2 247.31.83.83.83-.83-.83-.84zm29.57-238.63-2.14-2.09-2.1 2.09 2.1 2.1zm-.27-17.67-1.9-1.82-1.83 1.82 1.84 1.84zm-.73-70.82-1-1.06-1.13 1.06 1.06 1zm1 212.4-2-2-2 2 2 2zm-.43-159.35-1.67-1.67-1.68 1.68 1.67 1.67zm-.47-35.33-1.26-1.25-1.25 1.25 1.25 1.28zm.14 17.67-1.46-1.46-1.47 1.46 1.47 1.46zm-45-8.68-.83-.83-.83.83.83.83zm27.76 61.71-1.77-1.78-1.78 1.78 1.77 1.78zm-26.93-8.88-1.34-1.34-1.33 1.34 1.33 1.33zm-.07-17.75-1.25-1.26-1.26 1.26 1.27 1.21zm8.9 8.9-1.34-1.33-1.33 1.33 1.35 1.31zm-9.23-26.43-1-1-1.05 1 1.05 1zm9.4 44.08-1.46-1.46-1.46 1.46 1.46 1.47zm-11.47 61.66 1.4 1.44 1.44-1.44-1.44-1.4zm-.05-17.64 1.45 1.44 1.42-1.42-1.42-1.38zm-.07-17.65 1.42 1.42 1.42-1.42-1.42-1.42zm-6.56-61.71-1-1-1 1 1 1zm-2 17.66 1.08 1.05 1-1.09-1-1.08zm1.71-35.23-.83-.83-.83.83.83.84zm.55 52.88-1.18-1.19-1.14 1.15 1.14 1.15zm-2.09 52.91 1.12 1.12 1.13-1.12-1.12-1.13zm.91-36.52-1.12 1.13 1.12 1.17 1.12-1.12zm10.22-7.7-1.42-1.41-1.42 1.41 1.42 1.41zm-11.22 26.52 1.13 1.13 1.12-1.13-1.12-1.12zm2.13 106.65-1.13-1.12-1.12 1.12 1.12 1.13zm26.14-203.51-1-1-1 1 1 1zm-.17-17.78-.83-.83-.83.83.83.84zm.3 35.54-1.25-1.26-1.26 1.26 1.26 1.25zm.52 35.21-1.58-1.63-1.59 1.59 1.59 1.59zm-2.92-17.79 1.46 1.46 1.46-1.47-1.46-1.46zm-.11 53 1.71 1.71 1.72-1.71-1.72-1.72zm1.75 15.93-1.71 1.71 1.71 1.72 1.72-1.72zm-1.78 19.23 1.72 1.72 1.71-1.72-1.71-1.71zm-8.55-97 1.25 1.25 1.25-1.25-1.25-1.25zm1.88-35.21-.83-.79-.83.83.83.84zm.16 17.79-1-1-1.05 1 1.05 1zm-2.07 70.35 1.42 1.42 1.42-1.42-1.42-1.42zm1.5 51.44-1.41 1.42 1.41 1.41 1.42-1.42zm10.39-60.2-1.72-1.71-1.71 1.71 1.71 1.72zm-11.81 80 1.42 1.42 1.42-1.41-1.42-1.42zm2.82-53.62-1.42-1.42-1.42 1.42 1.42 1.45zm31.82 141.62 1.83 1.83 1.84-1.84-1.84-1.85zm34.67-106.09 2.69 2.69 2.71-2.69-2.7-2.7zm0 17.84 2.7 2.7 2.7-2.7-2.7-2.69zm.25 88.26 2.3 2.3 2.31-2.3-2.31-2.31zm-.38-17.68 2.54 2.54 2.54-2.54-2.56-2.5zm-.21-17.79 2.7 2.7 2.7-2.7-2.73-2.71zm.07-17.55 2.81 2.82 2.81-2.81-2.81-2.81zm.16-17.57 2.75 2.75 2.75-2.75-2.75-2.74zm8.89 61.82 2.55 2.59 2.54-2.54-2.54-2.59zm-.27-17.78 2.77 2.77 2.78-2.77-2.78-2.78zm.83 53.18 2.16 2.16 2.16-2.16-2.16-2.16zm-.24-17.81 2.3 2.31 2.31-2.31-2.31-2.3zm1.15 71.19 1.47 1.46 1.46-1.46-1.46-1.47zm-.25-17.7 1.68 1.67 1.67-1.67-1.67-1.67zm-.28-17.82 1.94 1.93 1.93-1.93-1.93-1.94zm-13.39-123.88-2.51-2.5-2.5 2.5 2.51 2.5zm-5.35 52.79 2.5 2.5 2.5-2.5-2.5-2.5zm.35 17.69 2.3 2.3 2.31-2.3-2.32-2.27zm-.31-35.27 2.64 2.64 2.67-2.64-2.64-2.64zm.16-17.6 2.6 2.6 2.61-2.6-2.61-2.6zm.63 88.32 1.89 1.88 1.88-1.88-1.88-1.89zm-.21-17.72 2.09 2.09 2.1-2.09-2.1-2.1zm.4 35.55 1.72 1.72 1.72-1.72-1.72-1.72zm16.33-88.7 2.89 2.89 2.9-2.89-2.9-2.9zm-7.27 97.76 1.71 1.71 1.72-1.71-1.72-1.72zm-.58-35.73 2.1 2.1 2.09-2.09-2.09-2.1zm-9.29-114.88 2.8 2.8 2.8-2.8-2.8-2.8zm9.49 132.66 1.94 1.94 1.94-1.94-1.94-1.94zm.71 35.69 1.46 1.46 1.46-1.46-1.46-1.46zm26.32 8.75 1.67 1.67 1.67-1.67-1.67-1.67zm-.18-17.67 1.88 1.88 1.88-1.88-1.88-1.89zm4.66-124.29-3.29-3.29-3.29 3.29 3.29 3.29zm-4.86 106.63 2.09 2.09 2.1-2.09-2.1-2.1zm-1.09-53.37 2.78 2.78 2.78-2.78-2.78-2.77zm-.5-70.79 3.32 3.32 3.32-3.32-3.33-3.31zm.12-17.6 3.44 3.44 3.44-3.44-3.41-3.44zm-.17 52.92 3.25 3.25 3.25-3.25-3.25-3.25zm1.29 71.07 2.38 2.38 2.38-2.38-2.41-2.38zm-1-53.32 3 3 3-3-3-3zm5.67 35.52-2.6-2.6-2.6 2.6 2.6 2.6zm-14.32-115.07 3 3 3-3-3-3zm-.19 70.64 3 3 3-3-3-3zm.19-52.9 3 3 3-3-3-3zm-24.9 150.57 1.5 1.49 1.49-1.49-1.49-1.5zm16.1-159.44 3.13 3.12 3.12-3.12-3.12-3.12zm.06 17.72 2.89 2.89 2.9-2.89-2.9-2.9zm-69.08 123.62 1 1 1-1-1-1zm83.62-97.34-3.09-3.09-3.09 3.09 3.09 3.09zm-5.73 35.53 2.77 2.77 2.78-2.77-2.78-2.78zm1.3 71.09 1.88 1.88 1.88-1.88-1.88-1.89zm-1.63-124.16 3.15 3.14 3.15-3.14-3.15-3.15zm-8.69 8.86 3 3 3-3-3-3zm9.25 61.95 2.54 2.54 2.54-2.54-2.55-2.54zm.73 35.56 2.16 2.16 2.16-2.15-2.16-2.17zm-.42-17.83 2.38 2.38 2.39-2.38-2.38-2.41zm.93 53.43 1.68 1.67 1.67-1.67-1.68-1.68zm-62.14-44.73 1.46 1.46 1.46-1.46-1.46-1.46zm0-17.58 1.67 1.67 1.67-1.67-1.67-1.68zm.33 35.29 1.27 1.26 1.25-1.26-1.25-1.25zm-.62-70.64 2 2 2-2-2-2zm0 17.51 1.84 1.84 1.84-1.84-1.84-1.84zm-8.36-97.42 1.72 1.72 1.71-1.72-1.71-1.71zm9.25 168.26 1 1 1-1-1-1.05zm.27 17.79.83.83.83-.83-.83-.83zm-1.13-123.79 2 2 2-2-2-2zm9.08 61.82 1.67 1.68 1.67-1.68-1.67-1.67zm-17.49-105.8 1.71 1.71 1.72-1.71-1.72-1.72zm17.58 123.47 1.46 1.46 1.46-1.46-1.46-1.46zm27.15 44.55 1.26 1.25 1.25-1.25-1.25-1.25zm-36.29-177.16 2.16 2.16 2.17-2.16-2.17-2.17zm0 35.59 2 2 2-2-2-2zm.08-17.67 2 2 2-2-2-2zm9.62 150.08 1 1 1-1-1-1.05zm-27-132.47 1.72 1.71 1.71-1.71-1.71-1.72zm-.15 35.26 1.72 1.71 1.71-1.71-1.71-1.72zm.11-17.62 1.72 1.72 1.71-1.72-1.72-1.71zm3.45-35.17-1.71-1.72-1.71 1.72 1.71 1.71zm-3.54 70.36 1.59 1.64 1.59-1.59-1.59-1.59zm.15 35.21 1.25 1.26 1.25-1.26-1.25-1.25zm8.79-79.21 1.72 1.71 1.71-1.71-1.71-1.71zm-8.86-44.36 1.85 1.84 1.85-1.84-1.85-1.85zm.18 106.16 1.46 1.47 1.46-1.46-1.46-1.47zm8.66-8.92 1.59 1.59 1.59-1.59-1.59-1.59zm.64 70.76.83.84.87-.84-.83-.84zm-.71-106 1.72 1.72 1.69-1.72-1.71-1.71zm-.14 17.62 1.78 1.78 1.77-1.82-1.78-1.78zm.31 35.38 1.46 1.47 1.46-1.47-1.46-1.47zm.33 35.28 1 1 1-1-1-1zm-.28-17.75 1.25 1.26 1.25-1.26-1.25-1.25zm17.77 17.78 1.25 1.25 1.26-1.25-1.26-1.31zm17.1-35.37 1.88 1.89 1.88-1.88-1.88-1.95zm.11 17.74 1.68 1.67 1.67-1.67-1.68-1.68zm-.43-35.54 2.09 2.09 2.1-2.09-2.1-2.1zm3.7 53.29-1.5-1.5-1.49 1.5 1.49 1.5zm-4-71 2.3 2.3 2.31-2.3-2.3-2.43zm1.45 88.89 1.27 1.27 1.28-1.27-1.27-1.32zm-10-168.32 2.49 2.49 2.48-2.49-2.48-2.48zm8.65 61.89 2.3 2.3 2.31-2.3-2.31-2.31zm.28-70.89 2.3 2.3 2.31-2.3-2.31-2.31zm-.15 53.32 2.3 2.3 2.31-2.3-2.31-2.32zm-5.18-185.8-1.46-1.46-1.47 1.46 1.46 1.48zm5.24 168.1 2.3 2.31 2.35-2.31-2.31-2.3zm.08-17.62 2.3 2.31 2.27-2.31-2.31-2.3zm-17.34 0 2 2 2-2-2-2zm0-18.14 2 2 2-2-2-2zm9.81 186.22 1.1 1.05 1-1.05-1-1.08zm-.42-17.88 1.28 1.28 1.24-1.28-1.27-1.27zm-9.48-132.47 2 2 2-2-2-2zm-.27 52.78 2.09 2.09 2.1-2.09-2.1-2.1zm.27-17.58 2 2 2-2-2-2zm8.53-26.45 2.31 2.31 2.3-2.31-2.3-2.3zm-.09 35.18 2.3 2.31 2.31-2.3-2.31-2.31zm0-17.5 2.3 2.3 2.31-2.3-2.31-2.3zm.17-35.29 2.31 2.3 2.3-2.3-2.3-2.3zm-.15 70.32 2.09 2.09 2.1-2.09-2.1-2.1zm.73 53.29 1.47 1.46 1.46-1.46-1.48-1.48zm-.25-17.7 1.68 1.68 1.67-1.68-1.67-1.67zm-.09-17.71 1.86 1.93 1.88-1.88-1.88-1.89zm129.23-230.36-3.08-3.09-3.09 3.09 3.09 3.1zm-.43-17.52-2.81-2.8-2.84 2.81 2.84 2.8zm.77 35.3-3.48-3.49-3.49 3.49 3.49 3.51zm-1.42-52.9-2.3-2.3-2.31 2.31 2.31 2.3zm1.56 70.67-3.7-3.71-3.7 3.71 3.7 3.71zm17.82-.07-3.76-3.75-3.76 3.76 3.78 3.8zm-17.38 35.57-4.15-4.15-4.15 4.15 4.15 4.15zm-.21-17.76-3.93-3.92-3.92 3.92 3.92 3.93zm.27 53.49-4.48-4.49-4.48 4.48 4.48 4.48zm-.06-17.82-4.37-4.37-4.37 4.37 4.36 4.37zm6.81-132.88-2.3-2.3-2.3 2.3 2.3 2.31zm10.82 97.21-4-4-4 4 4 4zm.28 17.73-4.31-4.31-4.32 4.32 4.32 4.26zm-9.11-8.87-4.07-4.07-4.08 4.08 4.08 4.08zm-1.63-88.37-2.59-2.6-2.6 2.6 2.6 2.6zm1.83 106.14-4.37-4.37-4.36 4.37 4.36 4.38zm-.53-35.52-3.78-3.78-3.69 3.78 3.78 3.78zm-.82-53.11-3-3-3 3 3 3zm.62 35.32-3.48-3.48-3.48 3.48 3.48 3.49zm-.13-17.78-3.28-3.28-3.29 3.29 3.29 3.29zm-10.48-61.62-2-2-2 2 2 2zm-15.74 141.8-4.08-4.07-4.07 4.07 4.07 4.07zm-.09-17.78-3.93-3.94-3.9 3.94 3.92 3.92zm.17 35.52-4.15-4.15-4.15 4.15 4.14 4.15zm-.21-53.41-3.7-3.71-3.7 3.71 3.7 3.71zm-.54-53.26-3-3-3 3 3 3zm.39 35.48-3.48-3.48-3.48 3.48 3.48 3.49zm-.23-17.73-3.25-3.25-3.25 3.25 3.25 3.25zm-9.07-8.84-3-3-3 3 3 3zm-.42-35.56-2.5-2.5-2.5 2.5 2.5 2.51zm.62 53.27-3.24-3.25-3.25 3.25 3.25 3.25zm-.39-35.48-2.77-2.77-2.78 2.78 2.78 2.77zm-.51-35.24-2.3-2.3-2.34 2.31 2.31 2.3zm19.22 106.21-3.92-3.9-3.94 3.9 3.93 3.93zm.17 35.69-4.32-4.31-4.31 4.31 4.31 4.31zm-.11-17.79-4.15-4.15-4.15 4.15 4.14 4.14zm-.41-53.4-3.51-3.48-3.49 3.49 3.49 3.48zm.21 17.72-3.7-3.7-3.71 3.71 3.71 3.71zm-1.1-70.79-2.62-2.64-2.64 2.65 2.64 2.66zm.7 35.3-3.25-3.25-3.25 3.25 3.25 3.25zm-.27-17.76-2.89-2.87-2.9 2.9 2.9 2.89zm-9.05-8.87-2.69-2.69-2.71 2.69 2.7 2.7zm-.9-35-2-2-2 2 2 2zm.32 17.5-2.3-2.3-2.31 2.3 2.31 2.31zm10.78 150.83-4.49-4.48-4.48 4.48 4.48 4.47zm-2-159.61-2.31-2.3-2.3 2.31 2.3 2.3zm47 203.84-4.81-4.82-4.81 4.82 4.81 4.81zm-8.92-8.92-4.81-4.82-4.81 4.81 4.81 4.81zm-18-18-4.83-4.81-4.8 4.81 4.81 4.81zm-4.76 22.38 4.59-4.59-4.6-4.58-4.58 4.58zm13.62 4.45-4.59-4.6-4.59 4.6 4.59 4.59zm18.61-150.61 3.19 3.19h.05l.07.06 3.18-3.19-3.19-3.19-.05.06-.06-.07-3.19 3.19zm.25-17.65 2.9 2.89.05-.05.07.06 2.89-2.9-2.9-2.9-.05.06-.06-.06-2.9 2.89zm-.59 35.25 3.53 3.54.05-.06.06.07 3.49-3.49-3.49-3.52h-.05l-.06-.06-3.49 3.48zm-45.48 97.54 4.72 4.71 4.71-4.71-4.71-4.72zm45.15-80 3.86 3.86.05-.05.06.06 3.86-3.86-3.86-3.85h-.05l-.06-.06zm-63.36.18-3.48-3.48-3.49 3.49 3.49 3.48zm64.62-70.58 2.6 2.6.05-.05.07.06 2.6-2.6-2.6-2.6-.05.06-.06-.07-2.6 2.6zm.29-17.66 2.31 2.3.05-.06.07.07 2.3-2.31-2.3-2.31-.06.06-.06-.07-2.31 2.31zm-29.07 150.46 4.81 4.81 4.82-4.81-4.82-4.81zm8.64 8.86 5 5 5-5-5-5zm9-9 5 5 5-5-5-5zm13.7-40.2.1-.06.06.06 4.23-4.22-4.23-4.22h-.05l-.06-.06-4.22 4.22zm-26.63 63 5-5-5-5-5 5zm26.73 9.05.05-.05.06.06 5.25-5.26-5.25-5.26-.05.05-.06-.06-5.26 5.26zm0 34.9h.05l.06.06 4.59-4.59-4.59-4.59h-.05l-.06-.06-4.59 4.6zm-26.59-26.6 4.82-4.81-4.82-4.81-4.81 4.81zm12.82-22.41 5 5 5-5-5-5zm10.06 17.77-5-5-5 5 5 5zm-27.29-53.27 4.59 4.59 4.59-4.59-4.59-4.59zm8.65 8.87 4.81 4.81 4.8-4.82-4.8-4.8zm-17.69.17 4.59 4.58 4.6-4.58-4.65-4.54zm4.53 22.59 4.82-4.8-4.81-4.81-4.81 4.81zm22.08-31.69 4.81 4.82 4.81-4.82-4.81-4.81zm.74 44.29-5-5-5 5 5 5zm12.69 23h.05l.06.06 5-5-5-5-.05.05-.06-.06-5 5zm-13.34-93.89-4.15-4.15-4.14 4.15 4.14 4.15zm-.29-17.78-3.82-3.82-3.81 3.82 3.81 3.82zm-.37-17.78-3.48-3.49-3.48 3.49 3.48 3.49zm-153-61.48-1.27-1.28-1.24 1.28 1.28 1.27zm144.19 52.63-3.48-3.43-3.48 3.48 3.48 3.49zm7.25-61.53-2.31-2.3-2.3 2.3 2.3 2.31zm1.27 52.85-3.32-3.32-3.31 3.32 3.31 3.32zm-.54-17.6-2.89-2.89-2.9 2.9 2.9 2.89zm-9-8.86-2.75-2.74-2.74 2.74 2.73 2.71zm-.47-17.64-2.31-2.3-2.3 2.3 2.3 2.31zm1 35.24-3.14-3.14-3.15 3.15 3.13 3.1zm-1.42-52.89-2-2-2 2 2 2zm9.44 26.45-2.5-2.5-2.5 2.5 2.5 2.5zm9.06 8.86-2.7-2.7-2.7 2.7 2.7 2.7zm-.84-35.21-2-2-2 2 2 2zm.33 17.63-2.3-2.3-2.3 2.31 2.33 2.26zm.9 35.28-3-3-3 3 3 3.05zm-97.25 150.28-3.5-3.48-3.48 3.48 3.49 3.49zm97.8-132.7-3.48-3.48-3.48 3.49 3.48 3.49zm.52 17.55-3.82-3.81-3.81 3.81 3.81 3.86zm.28 17.79-4.15-4.15-4.14 4.15 4.14 4.15zm.29 17.78-4.48-4.48-4.48 4.48 4.48 4.48zm-8.87 8.86-4.47-4.47-4.47 4.48 4.48 4.48zm-117.67-97.28-1.94-1.93-1.93 1.93 1.93 1.94zm0 17.9-2.11-2.19-2.16 2.19 2.16 2.16zm.2 35.4-2.47-2.54-2.54 2.54 2.54 2.54zm-.47-71.12-1.67-1.67-1.68 1.67 1.68 1.67zm.38 53.53-2.3-2.31-2.31 2.31 2.31 2.3zm-.52-71.19-1.47-1.46-1.46 1.46 1.46 1.47zm.86 106.6-2.78-2.77-2.78 2.77 2.78 2.78zm-9.72-97.77-1.46-1.46-1.47 1.46 1.47 1.46zm9.79 115.51-2.9-2.89-2.89 2.89 2.89 2.9zm-14.39 8.69 2.81 2.8 2.81-2.81-2.82-2.83zm.16 17.57 2.75 2.74 2.75-2.74-2.75-2.75zm17.2.12 3.15 3.15 3.15-3.15-3.15-3.14zm5.14-141.93-1.68-1.67-1.67 1.67 1.67 1.68zm.45 35.55-2.15-2.15-2.2 2.16 2.15 2.16zm-.21-17.78-1.88-1.88-1.89 1.88 1.89 1.88zm9.73 115.48-3.29-3.29-3.29 3.29 3.29 3.29zm-23.81-.18 3 3 3-3-3-3zm14.75-8.67-3.09-3.09-3.1 3.09 3.09 3.09zm-14.54 26.28 2.89 2.9 2.9-2.9-2.9-2.89zm-4.12-132.89-1.72-1.71-1.71 1.71 1.71 1.72zm18.48 71.07-2.78-2.77-2.78 2.77 2.78 2.78zm-.24-17.74-2.55-2.54-2.54 2.54 2.54 2.54zm0-17.69-2.39-2.38-2.38 2.35 2.38 2.41zm.44 53.2-3-3-3 3 3 3zm-40.53 17.48 2.3 2.3 2.31-2.3-2.31-2.3zm3.78-123.95-1.28-1.27-1.27 1.27 1.27 1.24zm0 17.84-1.49-1.5-1.5 1.5 1.5 1.5zm.39 35.48-1.9-1.88-1.89 1.89 1.88 1.91zm-.3-17.73-1.68-1.67-1.69 1.67 1.67 1.65zm-3.8 106 2.31 2.3 2.3-2.3-2.3-2.31zm-.19-35.28 2.3 2.31 2.31-2.31-2.3-2.3zm43.28 44.29 3.31 3.31 3.32-3.31-3.32-3.32zm-52-35.55 2.31 2.3 2.3-2.3-2.3-2.3zm30.82-79.51-1.94-1.94-1.94 1.94 1.94 1.94zm-17.73 35.59-2.09-2.09-2.09 2.09 2.09 2.11zm.14 17.76-2.31-2.3-2.3 2.3 2.3 2.31zm-13.2 43.87 2.3 2.3 2.31-2.3-2.3-2.31zm.11 17.61 2.3 2.3 2.31-2.3-2.31-2.3zm3.4-159.21-1-1.05-1 1 1 1.13zm16.49 161.79 2.51-2.5-2.51-2.5-2.5 2.5zm-2.79-37.71 2.64 2.64 2.66-2.64-2.64-2.64zm14-8.68-2.7-2.7-2.7 2.7 2.7 2.68zm-11.24 23.68-2.6 2.6 2.6 2.6 2.6-2.6zm2.19-32.55-2.5-2.5-2.5 2.5 2.5 2.5zm8.87-26.6-2.31-2.3-2.3 2.3 2.3 2.31zm.09 17.68-2.54-2.53-2.54 2.54 2.54 2.54zm-.28-35.39-2.09-2.14-2.1 2.1 2.09 2.09zm-8.87 8.86-2.09-2.09-2.09 2.09 2.09 2.1zm.15 17.75-2.31-2.3-2.3 2.28 2.3 2.27zm-.35-35.48-1.89-1.88-1.88 1.88 1.88 1.89zm-.15-17.82-1.71-1.74-1.72 1.72 1.72 1.72zm-.11-35.61-1.27-1.25-1.26 1.25 1.26 1.25zm.12 17.72-1.5-1.49-1.49 1.49 1.49 1.5zm45.7 97.6-3.25-3.25-3.25 3.25 3.24 3.25zm17.18-88.87-2.3-2.3-2.31 2.31 2.31 2.3zm-.13-17.76-2.09-2.09-2.1 2.1 2.1 2.09zm.47 53.18-2.78-2.77-2.78 2.77 2.78 2.78zm-.21-17.71-2.53-2.54-2.55 2.54 2.54 2.55zm-9.46-44.17-1.84-1.83-1.83 1.83 1.84 1.84zm10.09 115.33-3.48-3.49-3.49 3.49 3.48 3.48zm-.16-17.79-3.26-3.27-3.27 3.27 3.26 3.26zm0-17.88-3-3-3 3 3 3zm-9.59-62-2.09-2.09-2.1 2.1 2.09 2.09zm17.6-17.6-2.11-2.13-2.1 2.09 2.1 2.15zm-34.7 124.22-3.25-3.25-3.25 3.25 3.24 3.25zm35.09-106.73-2.3-2.31-2.31 2.31 2.31 2.3zm10 133.21-4-4-4 4 4 4zm-.11-17.73-3.89-3.93-3.93 3.93 3.93 3.92zm-9.05-8.86-3.71-3.7-3.71 3.7 3.71 3.7zm-.15-17.78-3.49-3.48-3.48 3.48 3.48 3.48zm.21 35.5-3.79-3.72-3.78 3.78 3.78 3.77zm-.66-88.89-2.77-2.77-2.78 2.78 2.78 2.77zm.39 35.49-3.26-3.26-3.26 3.26 3.26 3.27zm-.63-53.26-2.53-2.54-2.47 2.54 2.54 2.55zm.43 35.51-3-3-3 3 3 3zm.42 88.93-3.82-3.82-3.82 3.82 3.81 3.81zm-27-8.79-3.48-3.49-3.37 3.49 3.48 3.48zm-.46-71-2.82-2.82-2.82 2.82 2.82 2.82zm.53 53.26-3.49-3.48-3.43 3.44 3.49 3.49zm-.4-35.47-3-3-3 3 3 3zm36.17 17.63-3.7-3.71-3.71 3.71 3.7 3.7zm-45.2-26.53-2.77-2.78-2.78 2.78 2.77 2.77zm.24 17.72-3-3-3 3 3 3zm-1-106.43-1.67-1.67-1.67 1.67 1.67 1.67zm.64 70.91-2.6-2.6-2.6 2.6 2.6 2.6zm-.37-53.24-1.88-1.88-1.88 1.88 1.88 1.89zm.42 35.44-2.42-2.38-2.34 2.38 2.34 2.38zm-.21-17.77-2.09-2.09-2.12 2.09 2.1 2.1zm9.19 26.53-2.6-2.6-2.6 2.6 2.6 2.61zm9.5 62.24-3.49-3.48-3.49 3.48 3.49 3.49zm-.06 17.77-3.48-3.49-3.49 3.49 3.48 3.48zm-.07 17.77-3.49-3.49-3.48 3.49 3.48 3.48zm-.11-53.27-3.25-3.27-3.25 3.25 3.25 3.25zm-.39-53.45-2.54-2.54-2.54 2.54 2.54 2.54zm-.14-17.63-2.3-2.31-2.31 2.31 2.31 2.3zm.42 53.32-3.05-3-3 3 3 3zm-.05-17.9-2.82-2.82-2.83 2.83 2.83 2.82zm-9.42-44.27-2.08-2.07-2.1 2.1 2.1 2.09zm.18 17.71-2.3-2.3-2.3 2.3 2.3 2.31zm-.44-35.36-1.88-1.88-1.89 1.88 1.89 1.89zm57.18 310.11 2.81 2.81 2.81-2.8-2.79-2.81zm-.85-53.06 3.7 3.71 3.71-3.71-3.69-3.74zm-16.93 35.46 3 3 3-3-3-3zm26.34-8.78 3.29 3.29 3.29-3.28-3.29-3.3zm-7.93 61.66 2 2 2-2-2-2zm-1.7-106.08 3.93 3.93 3.92-3.92-3.92-3.94zm1 53.27 3.1 3.09 3.08-3.09-3.09-3.1zm9.32 43.92 2.3 2.3 2.31-2.3-2.31-2.31zm-.56-35.19 3 3 3-3-3-3zm.28 17.57 2.6 2.6 2.6-2.6-2.6-2.6zm-10.32-97.3 4.14 4.15 4.15-4.15-4.15-4.15zm-.39-17.91 4.37 4.37 4.37-4.37-4.38-4.36zm2.14 124.04 2.31 2.31 2.3-2.31-2.3-2.3zm-19.71-141.86 4.15 4.15 4.15-4.15-4.15-4.15zm17.5-8.87-4.49-4.47-4.47 4.47 4.48 4.48zm-17.43 26.61 4.08 4.07 4.07-4.07-4.08-4.07zm1.15 71.18 3.25 3.25 3.24-3.25-3.24-3.25zm-.94-53.4 3.93 3.94 3.93-3.93-3.94-3.92zm.7 35.67 3.48 3.48 3.49-3.48-3.49-3.49zm-.29-17.73 3.7 3.7 3.71-3.7-3.71-3.71zm9.15 26.64 3.49 3.49 3.48-3.48-3.5-3.54zm16.53-80-4.49-4.48-4.48 4.48 4.48 4.48zm-16.76 62.23 3.71 3.71 3.7-3.7-3.7-3.72zm-.91-53.46 4.32 4.31 4.31-4.31-4.32-4.31zm.22 17.79 4.15 4.15 4.15-4.15-4.16-4.14zm.4 17.9 3.92 3.93 3.93-3.93-3.93-3.93zm1.32 88.57 2.64 2.64 2.64-2.64-2.61-2.67zm-.51-35.3 3.25 3.25 3.24-3.25-3.24-3.25zm.71 52.9 2.31 2.31 2.3-2.3-2.3-2.31zm-.27-35.15 2.89 2.9 2.89-2.89-2.89-2.9zm8.18-26.62 3.49 3.49 3.48-3.48-3.48-3.51zm25.87-44.34 4.15 4.15 4.14-4.15-4.14-4.16zm.37 17.78 3.82 3.82 3.81-3.82-3.81-3.82zm.39 17.78 3.48 3.49 3.48-3.49-3.48-3.49zm16.73-44.43-4.48-4.48-4.48 4.48 4.48 4.48zm-16.43 79.55 2.9 2.9 2.89-2.89-2.89-2.9zm.45 35.26 2.31 2.3 2.3-2.3-2.3-2.31zm-.75-52.85 3.32 3.32 3.31-3.32-3.32-3.32zm.64 35.26 2.5 2.5 2.5-2.5-2.5-2.5zm7.51-79.44 4.15 4.15 4.14-4.15-4.14-4.15zm.53 35.33 3.48 3.49 3.49-3.48-3.49-3.5zm-.15-17.54 3.82 3.81 3.81-3.81-3.82-3.86zm.48 35.13 3 3 3-3-3-3.05zm.3 17.66 2.69 2.7 2.7-2.7-2.7-2.7zm.54 35.25 2 2 2-2-2-2zm-.26-17.64 2.3 2.31 2.31-2.3-2.27-2.27zm-18.28-35.16 3.15 3.15 3.15-3.14-3.15-3.11zm.28 17.61 2.74 2.74 2.75-2.74-2.75-2.71zm.6 35.25 2 2 2-2-2-2zm-.19-17.61 2.3 2.3 2.31-2.3-2.31-2.35zm-10.13-79.46 3.78 3.78 3.78-3.78-3.78-3.78zm-.29-17.73 4.07 4.08 4.07-4.07-4.07-4.09zm-.35-17.79 4.37 4.37 4.36-4.37-4.36-4.37zm26.63.06-4.47-4.49-4.46 4.48 4.48 4.48zm-17.38 26.57 4 4 4-4-4-4zm.32 17.77 3.76 3.76 3.76-3.76-3.76-3.77zm-.59-35.51 4.31 4.31 4.31-4.3-4.31-4.27zm.94 53.28 3.48 3.48 3.49-3.48-3.49-3.49zm-8.92-8.92 3.48 3.48 3.49-3.48-3.49-3.49zm-46.3-106.2-3.82-3.82-3.82 3.82 3.81 3.81zm-15.81 79.29 3.25 3.25 3.25-3.25-3.26-3.25zm.29 17.76 3 3 3-3-3-3zm-.56-35.47 3.48 3.48 3.49-3.48-3.49-3.49zm2.08 124.17 1.84 1.84 1.84-1.84-1.84-1.84zm14-168.59-3.83-3.81-3.81 3.81 3.82 3.82zm-14.48 133.21 2.3 2.31 2.3-2.31-2.3-2.3zm14.48-115.43-3.77-3.76-3.76 3.76 3.77 3.76zm-14.21 133.18 2.1 2.1 2.09-2.09-2.09-2.1zm-.94-53.18 2.82 2.83 2.82-2.82-2.82-2.83zm.33 17.8 2.54 2.54 2.54-2.54-2.54-2.54zm-1.29-124.16 3.76 3.76 3.76-3.76-3.76-3.76zm10.16 133 2.54 2.54 2.54-2.54-2.54-2.55zm.38 17.67 2.3 2.31 2.3-2.31-2.3-2.3zm.28 17.76 2.1 2.1 2.09-2.09-2.09-2.1zm-1.22-71 3 3.05 3-3-3-3.05zm.33 17.79 2.77 2.77 2.78-2.77-2.78-2.78zm-16.94 35.34 2.1 2.1 2.09-2.09-2.09-2.1zm.17 17.65 1.88 1.89 1.88-1.88-1.88-1.89zm-.4-35.35 2.3 2.3 2.31-2.3-2.26-2.24zm-.45-17.69 2.6 2.6 2.6-2.6-2.6-2.61zm44.39 26.83 2.7 2.7 2.71-2.7-2.69-2.71zm-44.78-44.65 2.82 2.82 2.83-2.82-2.83-2.82zm17.25-17.7 3.27 3.27 3.27-3.27-3.27-3.26zm-2.3-62.19-3.49-3.46-3.48 3.48 3.49 3.49zm.08 17.77-3.5-3.48-3.48 3.48 3.49 3.49zm-15.72-44 3.48 3.48 3.49-3.48-3.49-3.49zm-.12 52.84 3.48 3.48 3.49-3.48-3.49-3.49zm.28 17.77 3.25 3.25 3.25-3.25-3.25-3.25zm-.18-53.08 3.48 3.49 3.49-3.49-3.49-3.48zm.45 70.78 3 3 3-3-3-3zm36.36 71.32 2.5 2.5 2.5-2.5-2.5-2.51zm-.33-17.8 2.78 2.78 2.77-2.77-2.77-2.78zm-.28-17.77 3 3 3-3-3-3zm-.57-35.49 3.49 3.49 3.48-3.48-3.48-3.49zm.3 17.79 3.25 3.25 3.25-3.25-3.25-3.25zm-.7-35.68 3.71 3.71 3.71-3.71-3.72-3.7zm1.67 106.39 2.3 2.31 2.3-2.3-2.3-2.31zm-2-124.16 3.93 3.93 3.93-3.93-3.86-3.92zm10.75 115.4 2.31 2.3 2.3-2.3-2.3-2.31zm-28-97.7 3.49 3.49 3.49-3.49-3.5-3.48zm28.31 115.16 2 2 2-2-2-2zm-11.13-150.59 4 4 4-4-4-4zm17.45-26.41-4.4-4.4-4.4 4.4 4.4 4.39zm-17.6 8.62 4.15 4.15 4.15-4.15-4.16-4.15zm0-17.26 4.14 4.15 4.16-4.15-4.15-4.15zm-6.78 150.58 2.54 2.54 2.54-2.54-2.54-2.55zm.44 35.21 2.09 2.09 2.09-2.09-2.09-2.1zm-11-203.51 3.76 3.75 3.77-3.75-3.77-3.76zm.11 70.48 3.71 3.71 3.71-3.71-3.72-3.7zm0-88.24 3.7 3.7 3.71-3.7-3.7-3.71zm10.79 203.74 2.3 2.31 2.3-2.31-2.3-2.3zm-1.64-88.85 3.48 3.48 3.49-3.48-3.49-3.49zm-.38-35.5 3.78 3.78 3.78-3.78-3.79-3.77zm.09 17.72 3.7 3.7 3.71-3.7-3.71-3.71zm-.18-53 4.08 4.08 4.09-4.07-4.08-4.08zm1.44 124.14 2.78 2.78 2.77-2.77-2.77-2.78zm-.24-17.72 3 3 3-3-3-3zm6.44-88.93-3.83-3.81-3.81 3.81 3.82 3.82zm-6.78 71.17 3.27 3.26 3.26-3.26-3.27-3.27zm148.91-141.71-3.9-3.94-3.93 3.93 3.94 3.92zm.21 17.78-4.08-4.07-4.07 4.07 4.08 4.07zm-.62-35.67-3.7-3.7-3.71 3.7 3.71 3.71zm-.29-17.78-3.48-3.48-3.49 3.48 3.49 3.49zm-33.85 71.13-4.81-4.81-4.82 4.81 4.82 4.81zm33.64-88.86-3.25-3.25-3.24 3.25 3.24 3.25zm-52.35 97.73 5 5 5-5-5-5zm53.57-8.81-4.15-4.15-4.16 4.15 4.15 4.15zm8.35-44.37-3.66-3.71-3.71 3.71 3.72 3.7zm-74.61 12.91h-.05l-.06-.06-4.59 4.59 4.59 4.59h.05l.06.06 4.59-4.6zm75 22.6-4-4-4 4 4.05 4zm-.05-17.74-4-3.93-3.93 3.93 3.93 3.92zm-10.59-97.86-2.7-2.7-2.71 2.7 2.69 2.71zm34.8-17.56-2.1-2.1-2.11 2.11 2.09 2.1zm-35 0-2.31-2.3-2.3 2.3 2.3 2.31zm-.27-17.44-2-2-2 2 2 2zm-32.5 194.6-4.81-4.81-4.82 4.81 4.82 4.81zm-8.64-8.86-5-5-5 5 5 5zm-9 9-5-5-5 5 5 5zm234.7 62-.83-.82-.83.83.83.82zm0 17.64-.83-.82-.83.82.83.83zm-221.81-102.38-5 5 5 5 5-5zm47.57-74.76-3.49-3.49-3.48 3.48 3.48 3.49zm-33.89 71.13-4.81-4.81-4.82 4.81 4.83 4.81zm-27.58-18 4.81 4.82 4.81-4.81-4.81-4.81zm9.09-8.86 4.59 4.6 4.59-4.6-4.59-4.59zm13.62 4.49-4.59 4.59 4.6 4.58 4.58-4.58zm-35.45 16.94-.05.05-.06-.06-5.25 5.26 5.25 5.26.05-.05.06.06 5.26-5.26zm0-17.62h-.05l-.06-.06-5 5 5 5 .05-.05.06.06 5-5zm3.66 13.95 5 5 5-5-5-5zm10.06 17.73-5-5-5 5 5 5zm233.23 115.07.82.82.83-.83-.83-.82zm-156.43-265.77-2.3-2.3-2.27 2.3 2.3 2.3zm.43 17.7-2.54-2.54-2.59 2.54 2.54 2.55zm-.66-35.43-2.1-2.1-2.09 2.09 2.09 2.1zm.89 53.17-2.77-2.77-2.78 2.77 2.78 2.78zm-6.23 88.9 3.77 3.76 3.76-3.76-3.77-3.76zm7.41-17.76-3.71-3.71-3.7 3.71 3.72 3.7zm-.51-35.51-3.27-3.27-3.27 3.27 3.27 3.26zm.28 17.79-3.49-3.49-3.49 3.49 3.5 3.48zm-.71-35.66-3-3-3 3 3 3.05zm9.33 26.79-3.21-3.29-3.25 3.25 3.26 3.25zm-.29-17.76-3-3-3.05 3 3.05 3zm-1.07-53.32-2.3-2.31-2.3 2.31 2.3 2.3zm.34 17.63-2.54-2.54-2.54 2.54 2.54 2.54zm.33 17.8-2.82-2.83-2.82 2.82 2.82 2.83zm-96.28 70.8 4.81 4.82 4.81-4.82-4.81-4.81zm90.29.35 3.5 3.48 3.48-3.48-3.49-3.49zm6.96-17.79-3.48-3.48-3.49 3.48 3.49 3.49zm-18.76-71.15-2.78-2.78-2.77 2.77 2.77 2.78zm1.35 88.88-3.78-3.73-3.78 3.78 3.79 3.77zm-7.55 17.77 3.83 3.81 3.81-3.81-3.82-3.82zm-2.43-97.79-3-3-3 3 3 3zm-.28-17.77-2.78-2.78-2.77 2.77 2.77 2.78zm-.41-35.24-2.3-2.31-2.3 2.3 2.3 2.31zm.11 17.44-2.5-2.5-2.5 2.5 2.5 2.51zm8.49-26.29-2.09-2.09-2.09 2.09 2.09 2.15zm0 17.53-2.3-2.31-2.3 2.31 2.3 2.3zm.4 17.68-2.54-2.54-2.46 2.54 2.54 2.55zm.52 35.51-3-3-3 3 3 3zm-8.52 8.84-3.25-3.25-3.25 3.25 3.25 3.25zm8.94 8.92-3.27-3.26-3.26 3.26 3.27 3.27zm.39 17.9-3.48-3.48-3.49 3.48 3.49 3.49zm.29 17.78-3.7-3.7-3.71 3.7 3.71 3.71zm-18.84-71.21-3-3-3 3 3 3zm-25.43 62-4.07-4.08-4.07 4.07 4.07 4.09zm.35 17.79-4.37-4.37-4.33 4.41 4.36 4.38zm-10.36-97.3-2.74-2.74-2.75 2.74 2.75 2.71zm.28 17.61-3.15-3.15-3.15 3.14 3.15 3.16zm9.44 44.21-3.78-3.78-3.78 3.78 3.78 3.78zm-10.32-97.11-2-2-2 2 2 2zm.19 17.61-2.3-2.3-2.31 2.3 2.31 2.39zm.85 52.78-3.48-3.39-3.49 3.48 3.49 3.49zm8.53-26.39-3-3-3 3 3 3zm.13 17.55-3.29-3.29-3.29 3.28 3.29 3.3zm.26 17.77-3.48-3.48-3.49 3.48 3.49 3.49zm-.7-52.86-2.6-2.6-2.6 2.6 2.6 2.6zm-.24-17.67-2.3-2.3-2.31 2.3 2.31 2.31zm-26.68-8.69-2-2-2 2 2 2zm-6.88 123.61 4.48 4.48 4.48-4.48-4.48-4.48zm17.49-8.87-4.15-4.15-4.14 4.15 4.14 4.16zm-.37-17.78-3.82-3.81-3.81 3.81 3.81 3.82zm-.39-17.78-3.48-3.49-3.45 3.49 3.48 3.49zm0-17.53-3.32-3.32-3.31 3.32 3.32 3.32zm9.2 26.45-3.76-3.76-3.76 3.76 3.76 3.8zm18.61 53.47-4.37-4.37-4.37 4.37 4.38 4.37zm-28.11-97.51-2.9-2.9-2.89 2.89 2.89 2.9zm-7.56 88.41 4.47 4.49 4.48-4.48-4.48-4.48zm17.65-8.86-4.31-4.31-4.31 4.3 4.31 4.33zm-.27-17.71-4-4-4 4 4 4zm-10.27-97.1-2.31-2.3-2.3 2.3 2.3 2.31zm.11 17.59-2.5-2.5-2.5 2.5 2.5 2.5zm26.31-8.89-2.31-2.31-2.29 2.31 2.3 2.3zm-6.51 185.86-4.59-4.58-4.6 4.58 4.6 4.59zm-4.53-22.59-4.82 4.8 4.81 4.81 4.81-4.81zm-22.08 31.69-4.81-4.82-4.81 4.82 4.81 4.81zm35.59-35.56-4.72-4.71-4.71 4.71 4.71 4.72zm-26.67 26.63-4.81-4.81-4.8 4.82 4.8 4.8zm8.65 8.87-4.59-4.59-4.59 4.59 4.59 4.59zm26.72-44.17-4.48-4.48-4.48 4.48 4.49 4.47zm182 44.36-1.12-1.13-1.13 1.13 1.13 1.12zm-2.06 35.31 1.12 1.13 1.17-1.13-1.12-1.12zm10.58-61.81-.83-.83-.83.83.83.83zm-10.58-80.19 1.13 1.12 1.16-1.12-1.12-1.13zm10.71 115.59-.83-.83-.83.83.83.83zm-.09-17.72-.82-.83-.83.83.83.82zm-10.18 97 .83.83.83-.83-.81-.87zm1.77-70.49-1.12-1.12-1.13 1.12 1.13 1.12zm-2.13 35.17 1.08 1.08 1.08-1.08-1.08-1.08zm.06 17.71 1 1 1-1-1-1zm-190.85-248.06-2.81-2.81-2.81 2.8 2.79 2.81zm201.47 204-.83-.83-.82.83.82.83zm-202.1-239.28-2-2-2 2 2 2zm2 123.84-4.14-4.15-4.15 4.15 4.15 4.15zm-.3-17.76-3.93-3.93-3.92 3.93 3.92 3.94zm-.24-17.72-3.7-3.71-3.71 3.71 3.71 3.72zm-.27-17.76-3.49-3.52-3.48 3.48 3.48 3.52zm-.45-17.79-3.11-3.11-3.08 3.09 3.09 3.1zm10.5 97.88-4.32-4.31-4.29 4.29 4.32 4.31zm-1.14-71.18-3.47-3.51-3.5 3.48 3.5 3.49zm.23 17.72-3.7-3.73-3.7 3.7 3.7 3.72zm-.52-35.5-3.25-3.25-3.24 3.25 3.24 3.25zm-.44-17.75-2.89-2.9-2.85 2.87 2.89 2.9zm-.07-17.54-2.67-2.67-2.64 2.64 2.64 2.67zm1.72 106.46-4.15-4.15-4.15 4.15 4.16 4.14zm-.4-17.9-3.92-3.92-3.93 3.93 3.93 3.93zm-17.05 44.56 4.49 4.48 4.48-4.48-4.48-4.48zm15.53-150.75-2.31-2.31-2.3 2.3 2.3 2.31zm193 70.83-.82-.83-.83.83.83.83zm-60.6 26.67-2-2-2 2 2 2zm8.37 61.63-1.71-1.71-1.72 1.71 1.72 1.72zm-3.35-17.66 1.72 1.71 1.71-1.71-1.71-1.72zm3.52-35.2-1.72-1.72-1.69 1.72 1.71 1.71zm-3.5 88.76 1.72 1.72 1.71-1.72-1.71-1.71zm-5.86-185.88-1.05-1-1 1 1 1.05zm.81 106-2-2-2 2 2 2zm-.25-53-1.67-1.67-1.67 1.67 1.67 1.68zm0-17.58-1.46-1.46-1.46 1.46 1.46 1.46zm-.32-17.71-1.29-1.26-1.25 1.26 1.25 1.25zm9 97-1.72-1.71-1.71 1.71 1.71 1.71zm8.84-8.84-1.72-1.72-1.71 1.72 1.72 1.71zm-34.75 35.34-2.31-2.3-2.3 2.3 2.3 2.3zm31.31-.14 1.71 1.72 1.71-1.72-1.71-1.71zm3.54-70.36-1.56-1.59-1.59 1.59 1.59 1.59zm-8.87-8.87-1.59-1.59-1.59 1.59 1.59 1.59zm8.66-8.92-1.46-1.47-1.46 1.46 1.46 1.47zm-8.78-8.8-1.46-1.47-1.46 1.47 1.46 1.47zm-.05-17.53-1.25-1.26-1.25 1.26 1.25 1.25zm-.28-17.75-1-1-1 1 1 1zm-17.13 35.34-1.67-1.68-1.67 1.68 1.67 1.67zm-9.68-62.14-1.06-1-1.05 1 1.06 1.08zm.42 17.88-1.28-1.28-1.24 1.28 1.27 1.27zm.31 17.72-1.47-1.46-1.46 1.46 1.46 1.48zm9.08 132.41-2-2-2 2 2 2zm-3.84 53.43 2 2 2-2-2-2zm-5-168.14-1.68-1.68-1.67 1.68 1.67 1.67zm.5 70.62-2.3-2.3-2.31 2.3 2.31 2.3zm-.06 17.68-2.31-2.31-2.3 2.31 2.3 2.3zm0-52.71-2.09-2.09-2.1 2.09 2.1 2.1zm-.39-17.88-1.88-1.88-1.88 1.88 1.88 1.89zm17.68 70.47-2-2-2 2 2 2zm-9.16-97-1.46-1.46-1.46 1.46 1.46 1.46zm-.51-35.4-1.05-1.05-1.08 1.05 1.05 1zm.29 17.76-1.25-1.25-1.26 1.25 1.26 1.24zm.58 123.51-2-2-2 2 2 2zm8.8 8.8-2-2-2 2 2 2zm-12.73-44 2 2 2-2-2-2zm30.07-61.65-1.25-1.26-1.25 1.26 1.25 1.25zm-28 81.23 2-2-2-2-2 2zm1.86-54.82-1.83-1.83-1.84 1.84 1.84 1.85zm26.11 61.6-1.72-1.71-1.71 1.71 1.71 1.72zm34.81-70.69-1-1-1 1 1 1zm-.11 70.57-1.13-1.12-1.12 1.12 1.12 1.13zm.19-52.86-1.08-1.08-1.09 1.08 1.09 1.08zm8.33 79.36-.82-.83-.83.83.82.83zm-43.51-132.15-1-1-1 1 1 1zm35.11 88-1.13-1.12-1.12 1.12 1.12 1.12zm-8.77-61.66-1-1-1 1 1 1.05zm0 17.65-1.08-1.08-1.08 1.05 1.08 1.09zm17.21 70.52-.83-.83-.82.82.82.83zm-8.59 8.83-1.13-1.13-1.12 1.13 1.12 1.13zm8.64-26.59-.82-.83-.83.83.83.83zm-237.08-114.67-2.34-2.31-2.31 2.3 2.31 2.27zm237.12 97.05-.83-.83-.83.83.83.83zm0-17.59-.83-.83-.83.82.83.83zm-18.56 36.45 1.13-1.13-1.13-1.12-1.12 1.12zm-16.14-54-1.33-1.33-1.34 1.33 1.34 1.35zm-.1 52.9-1.41-1.42-1.42 1.42 1.42 1.42zm.08-88-1-1-1 1 1 1zm0 70.35-1.41-1.42-1.42 1.42 1.42 1.42zm0-52.93-1.25-1.26-1.29 1.29 1.25 1.26zm-1.48 104.37-1.42 1.41 1.42 1.42 1.42-1.41zm1.4-16.14-1.42-1.42-1.42 1.42 1.42 1.41zm-2.82 36 1.42 1.41 1.41-1.42-1.41-1.41zm20.16-36-1.13-1.13-1.12 1.13 1.12 1.12zm0 17.66-1.12-1.13-1.12 1.13 1.12 1.12zm.2-53-1.2-1.16-1.12 1.13 1.12 1.17zm-2.25 124.34 1.05 1.1 1.12-1.13-1.12-1.12zm-6.53-185.94-1-1-1 1 1 1zm.11 70.47-1.42-1.42-1.42 1.42 1.42 1.42zm-.07 17.65-1.46-1.38-1.42 1.42 1.42 1.38zm0 17.64-1.46-1.42-1.43 1.4 1.42 1.42zm.08-88.23-1.25-1.25-1.29 1.25 1.24 1.21zm.12 17.75-1.34-1.34-1.33 1.34 1.33 1.33zm-104.54.06-2.78-2.78-2.78 2.78 2.78 2.77zm9 79.53-3-3-3 3 3 3zm-9.77-115.13-2.35-2.38-2.41 2.38 2.41 2.38zm-4.71 17.8 2.6 2.6 2.6-2.6-2.6-2.6zm14.62 79.73-3.15-3.14-3.11 3.14 3.15 3.15zm-10.46-133-1.88-1.88-1.92 1.91 1.88 1.89zm.2 17.7-2.09-2.09-2.1 2.09 2.1 2.1zm8.65-8.86-1.88-1.88-1.88 1.88 1.88 1.89zm-.17-17.77-1.68-1.67-1.67 1.67 1.68 1.68zm1.76 106.63-3-3-3 3 3 3zm-1.24-71.07-2.19-2.16-2.16 2.15 2.16 2.17zm1 53.3-2.77-2.77-2.78 2.77 2.78 2.78zm-.23-17.74-2.54-2.54-2.54 2.54 2.55 2.54zm-.38-17.72-2.39-2.35-2.38 2.35 2.38 2.41zm-9.77-62.11-1.62-1.67-1.67 1.67 1.67 1.67zm-6.63 133-3.48-3.48-3.51 3.52 3.49 3.49zm8.32-26.61-3-3-3 3 3 3zm-8.87-8.86-3-3-3 3 3 3zm.45 70.78-3.48-3.49-3.49 3.49 3.49 3.48zm-.7-88.57-2.82-2.82-2.83 2.82 2.83 2.82zm-.39-17.9-2.6-2.61-2.6 2.6 2.6 2.61zm-9.8-61.9-1.82-1.83-1.84 1.84 1.84 1.84zm10.69 115.33-3.25-3.25-3.25 3.25 3.25 3.25zm86.01-106.16-.83-.84-.87.84.83.84zm17.78 17.77-.83-.83-.83.83.83.84zm-.87-18.55.83.83-.83.83-.83-.83zm18.47 36.15-.83-.83-.83.83.83.84zm-.85-18.53.83.83-.83.83-.83-.83zm0-17.71.77.87-.83.84-.83-.84zm16.77 53.8.83.83.83-.82-.83-.83zm1.66-17.68-.83.83-.83-.83.83-.83zm-61.88-44.16-.78-.83-.83.83.83.84zm17.79 17.79-.83-.83-.83.83.83.84zm-.86-18.44.83.83-.83.84-.83-.84zm18.69 36.27-.83-.83-.83.83.83.84zm0-17.62-.84.83-.83-.83.83-.83zm-.05-17.62-.83.83-.83-.84.83-.83zm17.51 52.66-.86-.83-.83.83.83.87zm-.86-18.4.83.83-.83.82-.83-.83zm0-17.58.83.83-.83.83-.82-.83zm0-17.57.83.82-.83.83-.83-.83zm9.62 27-.83.83-.83-.83.83-.83zm0-17.69-.83.83-.83-.83.83-.83zm-140.27 35.18-2.3-2.3-2.31 2.3 2.31 2.31zm10.27 80-3.25-3.25-3.25 3.25 3.25 3.25zm-.05 35.32-3.32-3.32-3.32 3.32 3.33 3.31zm-10.45-133-2.1-2.1-2.09 2.09 2.09 2.1zm-.12-17.67-1.88-1.89-1.88 1.88 1.88 1.89zm35.7 35.61-1.94-1.94-1.94 1.94 1.94 1.94zm8.68-8.9-1.72-1.72-1.72 1.72 1.72 1.72zm-16.38 106.24-3-3-3 3 3 3zm16.57-88.42-1.89-1.88-1.88 1.88 1.88 1.89zm-1-53.41-1.26-1.25-1.31 1.25 1.25 1.25zm-3.57 159.37 2.51 2.5 2.5-2.5-2.51-2.5zm4.73-88.21-2.09-2.09-2.1 2.09 2.1 2.1zm.58 53-2.64-2.64-2.67 2.64 2.64 2.64zm-.31-35.27-2.3-2.3-2.31 2.3 2.32 2.27zm.14 52.84-2.6-2.6-2.61 2.6 2.61 2.6zm8.17-79.48-1.88-1.89-1.88 1.88 1.89 1.92zm-.11-17.74-1.68-1.67-1.67 1.67 1.69 1.65zm-3.26-17.75 1.5 1.5 1.49-1.5-1.49-1.5zm2.54-17.84-1.27-1.27-1.28 1.27 1.28 1.24zm1.09 159.24-2.3-2.31-2.27 2.31 2.31 2.3zm.27-52.87-2.3-2.3-2.31 2.3 2.31 2.31zm-.19 35.28-2.3-2.31-2.35 2.28 2.31 2.3zm.06-17.67-2.3-2.3-2.31 2.3 2.31 2.3zm-.07-52.82-2.09-2.09-2.1 2.09 2.1 2.1zm-9.74-62.36-1.5-1.49-1.49 1.49 1.49 1.5zm-17.82-17.79-1.47-1.46-1.46 1.46 1.46 1.47zm.53 35.52-1.94-1.93-1.93 1.93 1.93 1.94zm-.28-17.82-1.68-1.67-1.65 1.67 1.67 1.67zm1.51 88.9-2.77-2.77-2.78 2.77 2.78 2.78zm-.1 52.9-2.89-2.89-2.9 2.89 2.9 2.9zm-.74-106.08-2.15-2.19-2.16 2.16 2.16 2.16zm.23 17.81-2.3-2.31-2.31 2.31 2.31 2.3zm8.64-8.84-2.1-2.1-2.09 2.09 2.09 2.1zm-.58-35.73-1.72-1.71-1.71 1.71 1.72 1.72zm-.35-17.75-1.46-1.46-1.48 1.42 1.46 1.46zm1.41 159.44-2.7-2.7-2.7 2.7 2.7 2.69zm.27-35.24-2.81-2.88-2.81 2.84 2.81 2.8zm-.16 17.57-2.75-2.75-2.71 2.71 2.75 2.74zm-.36-70.59-2.3-2.3-2.31 2.3 2.31 2.31zm.38 17.68-2.54-2.54-2.54 2.54 2.54 2.54zm-8.91-8.91-2.57-2.58-2.54 2.54 2.54 2.54zm-68.57 114.78 4 4 4-4-4-4zm-.07-17.78 4.15 4.15 4.15-4.15-4.14-4.14zm0-17.26 4.16 4.15 4.14-4.15-4.15-4.15zm.74 123.93 3 3 3-3-3-3zm-.57-71.16 3.93 3.93 3.93-3.93-3.96-3.92zm9-26.64 3.82 3.82 3.82-3.82-3.81-3.81zm-8.83 62.31 3.48 3.48 3.49-3.49-3.49-3.48zm0-17.9 3.7 3.71 3.71-3.71-3.7-3.7zm10.17 115.24 2.09 2.09 2.1-2.09-2.1-2.1zm-1-88.48 3.26 3.26 3.26-3.26-3.26-3.27zm-.06-17.9 3.49 3.48 3.48-3.48-3.48-3.48zm-.21-35.5 3.79 3.78 3.78-3.78-3.78-3.77zm.43 71.16 3 3 3-3-3-3zm-.44-53.43 3.71 3.7 3.71-3.7-3.71-3.7zm.84 106.62 2.3 2.31 2.31-2.31-2.31-2.3zm-.28-35.46 2.77 2.77 2.78-2.78-2.78-2.77zm-8.91 8.91 2.77 2.77 2.78-2.78-2.78-2.77zm9.11 8.87 2.53 2.54 2.55-2.54-2.54-2.55zm-9.5-44.35 3.24 3.25 3.25-3.25-3.25-3.25zm-8.42 44.41 2.69 2.69 2.7-2.7-2.7-2.7zm.58 17.55 2.3 2.3 2.31-2.3-2.31-2.31zm-.84-35.33 3 3 3-3-3-3zm-.39-35.48 3.48 3.48 3.48-3.48-3.48-3.49zm.23 17.73 3.25 3.25 3.25-3.25-3.25-3.25zm1.33 70.53 2 2 2-2-2-2zm-1.7-106 3.7 3.71 3.7-3.71-3.7-3.71zm-.13-35.67 4.08 4.07 4.07-4.07-4.07-4.07zm-9.28-26.61 4.49 4.48 4.48-4.48-4.48-4.47zm19.56 159.64 2.3 2.3 2.34-2.36-2.31-2.3zm-.28-17.45 2.5 2.5 2.5-2.5-2.5-2.51zm-9.91-97.8 3.93 3.89 3.92-3.93-3.92-3.92zm-.17-35.57 4.15 4.15 4.15-4.15-4.14-4.14zm-.38-17.54 4.4 4.4 4.4-4.4-4.42-4.4zm36.54 35.22 3.48 3.49 3.49-3.49-3.48-3.48zm-.06 17.78 3.49 3.48 3.49-3.48-3.49-3.49zm.13-35.54 3.49 3.49 3.48-3.49-3.48-3.46zm.11 53.27 3.25 3.25 3.25-3.25-3.25-3.25zm-.1-88.15 3.49 3.48 3.48-3.48-3.49-3.49zm15.64 26.2-3.48-3.48-3.49 3.48 3.49 3.49zm-14.88 150.77 2.09 2.09 2.1-2.1-2.09-2.09zm-.14-17.76 2.3 2.31 2.31-2.31-2.31-2.3zm-.37-35.42 2.82 2.82 2.83-2.83-2.83-2.82zm-.05-17.9 3.05 3 3-3-3-3zm.28 35.69 2.54 2.54 2.54-2.54-2.54-2.54zm8.68-44.62 3 3 3-3-3-3zm.33 53.39 2.3 2.3 2.3-2.3-2.3-2.31zm-.14-17.69 2.6 2.6 2.6-2.6-2.6-2.61zm.58 53.05 1.88 1.88 1.89-1.88-1.89-1.89zm-.64-71 2.82 2.82 2.82-2.82-2.82-2.82zm-8.21 79.84 1.84 1.84 1.84-1.84-1.84-1.84zm-19.72-177.13 4.08 4.08 4.08-4.08-4.08-4.08zm10.4 150.71 2.3 2.3 2.31-2.31-2.31-2.3zm.13 17.76 2.09 2.09 2.1-2.1-2.1-2.09zm-.47-53.18 2.78 2.77 2.78-2.77-2.78-2.78zm.25 17.74 2.53 2.54 2.56-2.57-2.54-2.55zm-.45-35.52 3 3 3.05-3.05-3.05-3zm15.65-97.51-3.76-3.76-3.76 3.76 3.76 3.76zm-16.11-8.58 3.83 3.81 3.81-3.81-3.82-3.82zm0 52.7 3.7 3.71 3.71-3.71-3.7-3.7zm0-35.54 3.82 3.82 3.82-3.82-3.81-3.81zm.21 53.26 3.48 3.49 3.49-3.49-3.48-3.48zm.16 17.79 3.26 3.27 3.27-3.27-3.26-3.26zm-.37-53.27 3.77 3.76 3.76-3.76-3.76-3.75zm18.89 124.28 2.09 2.09 2.1-2.1-2.08-2.09zm-88.64-.13 2.5 2.5 2.5-2.5-2.5-2.5zm.28 17.59 2.31 2.3 2.3-2.3-2.3-2.31zm-.73-35.25 2.89 2.89 2.9-2.9-2.9-2.89zm-.54-17.6 3.32 3.32 3.31-3.32-3.31-3.32zm9 8.86 3.14 3.14 3.15-3.15-3.09-3.1zm-19.13-70.82 4.48 4.48 4.48-4.48-4.48-4.48zm9.87 44.43 3.48 3.49 3.48-3.49-3.48-3.49zm10.35 61.63 2.31 2.3 2.3-2.3-2.3-2.31zm.41 17.61 2 2 2-2-2-2zm-.88-35.25 2.75 2.74 2.74-2.74-2.78-2.71zm-19.36-70.64 4.15 4.15 4.14-4.15-4.14-4.15zm8.58-26.64 4.47 4.47 4.48-4.48-4.48-4.48zm.33 17.73 4.15 4.15 4.14-4.15-4.18-4.16zm.29 17.78 3.82 3.82 3.81-3.82-3.81-3.82zm-11 70.46-2.6-2.6-.05.05-.07-.06-2.6 2.6 2.6 2.61.05-.06.06.07 2.6-2.6zm1.2-70.4-3.86-3.86-.05.05-.07-.06-3.85 3.87 3.86 3.85h.05l.06.06 3.86-3.86zm-1.55 88.07-2.31-2.3-.05.06-.07-.07-2.3 2.31 2.3 2.31.06-.06.06.07 2.31-2.31zm.88-52.92-3.19-3.15h-.06l-.07-.06-3.18 3.19 3.19 3.19.05-.06.06.07 3.19-3.19zm.3-17.6-3.49-3.49-.05.06-.07-.07-3.48 3.49 3.54 3.46h.05l.06.06 3.49-3.48zm-.55 35.24-2.9-2.89-.1.1-.07-.06-2.89 2.9 2.9 2.9.05-.06.06.07 2.9-2.9zm3.26 8.86 2.7 2.7 2.7-2.7-2.7-2.7zm-1.46-52.79 3.82 3.81 3.81-3.81-3.85-3.86zm2.3 88 2 2 2-2-2-2zm-.33-17.63 2.3 2.3 2.3-2.31-2.37-2.22zm-1.45-52.86 3.48 3.48 3.48-3.49-3.48-3.49zm.55 17.58 3 3 3-3-3-3.05zm-5.77-66-.1.05-4.23 4.22 4.23 4.22h.05l.06.06 4.22-4.22zm49-13.77 4.15 4.15 4.15-4.15-4.14-4.14zm-9.14-26.66 4.48 4.48 4.48-4.48-4.48-4.48zm.11 35.7 4.15 4.15 4.15-4.15-4.15-4.15zm-.07-17.89 4.37 4.37 4.37-4.37-4.37-4.33zm2 124.08 2.3 2.3 2.31-2.31-2.31-2.3zm-1.56-70.67 3.7 3.71 3.7-3.71-3.7-3.71zm-.23-17.74 3.93 3.92 3.92-3.93-3.92-3.93zm1.14 70.78 2.81 2.8 2.84-2.78-2.84-2.8zm-.43-17.52 3.09 3.09 3.09-3.09-3.09-3.1zm-.34-17.78 3.48 3.48 3.49-3.49-3.49-3.47zm8.91-8.91 3.48 3.48 3.49-3.49-3.46-3.45zm-.21-17.72 3.7 3.7 3.71-3.71-3.69-3.68zm-.14-17.78 3.92 3.93 3.94-3.9-3.93-3.93zm-.14-35.66 4.32 4.31 4.31-4.31-4.31-4.31zm.71 89 3.25 3.25 3.25-3.25-3.25-3.25zm1.17 52.91 2.31 2.3 2.3-2.31-2.3-2.3zm-.9-35.15 2.89 2.89 2.9-2.9-2.9-2.89zm.43 17.54 2.64 2.64 2.64-2.64-2.69-2.71zm-19.18-88.5 4.07 4.07 4.08-4.08-4.08-4.08zm2 106 2.3 2.3 2.3-2.3-2.3-2.31zm-21.61-309.86-2.69-2.7-2.7 2.7 2.7 2.7zm21.21 292.19 2.59 2.6 2.6-2.6-2.6-2.6zm-10.46-79.54 4 4 4-4-4-4zm-.28-17.73 4.31 4.31 4.32-4.32-4.32-4.26zm9.4 26.59 3.78 3.78 3.78-3.78-3.78-3.78zm.86 53.08 3 3 3-3-3-3zm-1.35-88.57 4.37 4.37 4.36-4.37-4.4-4.37zm.9 71.06 3.28 3.28 3.29-3.29-3.29-3.29zm-.13-17.78 3.48 3.48 3.48-3.48-3.48-3.49zm-8.92 8.92 3.48 3.48 3.48-3.48-3.48-3.49zm19.53 70.51 2 2 2-2-2-2zm-19.78-88.27 3.76 3.75 3.76-3.76-3.76-3.8zm161.62-.53 1.84 1.84 1.84-1.84-1.84-1.84zm.89 88.63.83.83.83-.83-.83-.83zm-.11-17.79 1.05 1 1-1-1-1.05zm-.69-53 1.67 1.67 1.67-1.67-1.67-1.68zm.41 17.58 1.46 1.46 1.47-1.46-1.47-1.46zm.1 17.71 1.25 1.26 1.26-1.26-1.33-1.25zm3.12-70.64-2-2-2 2 2 2zm-12.89-150.28 2.1 2.1 2.09-2.1-2.09-2.09zm12.78 79.51-2.16-2.16-2.17 2.16 2.17 2.17zm0 53.13-2-2-2 2 2 2zm0-17.52-2-2-2 2 2 2zm-.07-17.67-2-2-2 2 2 2zm5.91 114.57 1.25 1.26 1.26-1.26-1.26-1.25zm.14 17.75 1 1 1.05-1-1.05-1zm-.5-35.26 1.46 1.47 1.47-1.47-1.46-1.46zm-.31-35.42 1.77 1.78 1.78-1.78-1.77-1.78zm.21 17.66 1.59 1.59 1.59-1.59-1.59-1.59zm3.19-35.24-1.71-1.71-1.69 1.71 1.71 1.71zm-.09-17.59-1.71-1.71-1.72 1.71 1.71 1.71zm-2.31 123.59.83.83.84-.84-.84-.83zm2.24-158.85-1.72-1.72-1.71 1.72 1.71 1.71zm-12-97.42 1.84 1.84 1.84-1.84-1.84-1.84zm-9.18 167.79 2.09 2.09 2.1-2.09-2.1-2.1zm-8.16 62 1.46 1.46 1.47-1.46-1.47-1.52zm-.17-17.7 1.67 1.68 1.68-1.68-1.68-1.67zm.27 35.38 1.27 1.28 1.28-1.28-1.28-1.27zm-.59-71 2.09 2.09 2.09-2.09-2.09-2.09zm0 17.88 1.88 1.88 1.89-1.88-1.89-1.89zm4.18-52.91-2.31-2.3-2.3 2.3 2.3 2.3zm-.18-35.29-2.3-2.3-2.31 2.3 2.31 2.3zm-3.41 159.2 1.06 1.05 1-1.05-1.06-1.08zm3.53-141.6-2.3-2.3-2.31 2.3 2.3 2.31zm-4.53 35.19 2.31 2.3 2.3-2.3-2.3-2.31zm27-150.25 1.78 1.78 1.78-1.78-1.78-1.78zm-27 8.91 2.31 2.31 2.3-2.3-2.3-2.31zm9.76 203.28 1.46 1.46 1.47-1.46-1.47-1.46zm-.33-17.61 1.67 1.67 1.68-1.68-1.67-1.67zm-.11-17.77 1.85 1.84 1.84-1.84-1.84-1.84zm.68 70.77 1.05 1.06 1.06-1.06-1.04-1zm-.12-17.76 1.26 1.25 1.25-1.25-1.23-1.24zm3-141.21-2-2-2 2 2 2zm.06 17.66-2-2-2 2 2 2zm.08 35.2-2-2-2 2 2 2zm23.85 97.19.83.83.83-.83-.83-.83zm28-150-1.07-1.08-1.12 1.12 1.12 1.13zm-11.08-80.08 1.42 1.42 1.42-1.41-1.42-1.42zm0 142 1.42 1.41 1.42-1.42-1.42-1.41zm9.63 61.63.83.83.83-.83-.83-.84zm1.58-88.15-1.13-1.13-1.12 1.13 1.12 1.12zm0-17.66-1.12-1.12-1.13 1.12 1.12 1.13zm-10.27 114.47.83.83.83-.83-.83-.83zm1.79-88-1.42-1.42-1.42 1.42 1.42 1.42zm-2.59 35.19 1.34 1.34 1.33-1.34-1.33-1.33zm-14.75-88.48-1.85-1.84-1.85 1.84 1.85 1.85zm14.82 106.22 1.25 1.25 1.26-1.26-1.27-1.21zm19.77-88.22-1.13-1.12-1.12 1.12 1.12 1.13zm-227-89.07-4.15-4.15-4.14 4.15 4.14 4.16zm-.38-17.79-3.82-3.81-3.81 3.81 3.83 3.86zm-.47-35.14-3-3-3 3 3 3.05zm217.16 239 1 1 1-1-1-1zm-6.63-79.42-1.45-1.38-1.42 1.42 1.42 1.38zm-210.2-142-3.48-3.49-3.49 3.48 3.49 3.5zm218.87 203.8-1.12-1.09-1 1.09 1.08 1.08zm-127.92-35.54 3.25 3.25 3.25-3.25-3.24-3.25zm136.67-61.84-1.21-1.21-1.21 1.21 1.21 1.21zm-11-79.72 1.15 1.15 1.14-1.15-1.16-1.16zm-8.54 203.47 1 1 1.05-1-1.05-1zm-17.6 17.6 1 1 1.05-1-1.05-1zm-.13-17.76 1.25 1.26 1.26-1.26-1.26-1.25zm2.4-17.43-1.46-1.46-1.46 1.47 1.46 1.46zm-3.2-177 1.71 1.72 1.72-1.72-1.72-1.71zm.24 159.2 1.58 1.59 1.59-1.59-1.59-1.59zm-.25-17.54 1.72 1.71 1.71-1.71-1.71-1.72zm3.28-35.26-1.71-1.72-1.72 1.72 1.72 1.71zm-1.69-15.85 1.72-1.71-1.72-1.72-1.67 1.72zm-32.89-19.71-2.49-2.49-2.48 2.49 2.48 2.49zm34.66 53.22-1.71-1.71-1.72 1.71 1.72 1.72zm5.78-132.87 1.47 1.47 1.46-1.46-1.47-1.47zm2.76 194.65-1.25-1.25-1.25 1.25 1.25 1.25zm-2.61-17.69 1.34 1.33 1.33-1.33-1.33-1.31zm-.15-17.65 1.46 1.46 1.46-1.46-1.46-1.47zm11.59-79.66-1.52-1.53-1.53 1.53 1.52 1.53zm-8.91 26.78-1.42-1.41-1.42 1.42 1.42 1.41zm8.79-8.78-1.4-1.44-1.44 1.44 1.44 1.4zm-10.75 114.42 1 1 1.05-1-1.05-1zm2.07-70.35-1.42-1.42-1.42 1.42 1.42 1.42zm-.06-17.66-1.42-1.41-1.42 1.42 1.42 1.42zm-1.85 105.8.83.83.83-.83-.83-.84zm17.05-70.48 1.15 1.15 1.14-1.15-1.15-1.15zm-107.25 17.55 2.55 2.54 2.54-2.54-2.54-2.54zm-.24-17.74 2.78 2.77 2.78-2.77-2.78-2.78zm.25 35.43 2.38 2.38 2.38-2.38-2.38-2.38zm-.43-71 3.09 3.09 3.1-3.09-3.09-3.09zm0 17.76 3 3 3-3-3-3zm0-105.78 3.09 3.09 3.09-3.09-3.09-3.09zm.45 176.86 2.16 2.19 2.16-2.16-2.15-2.16zm.45 35.55 1.68 1.67 1.67-1.67-1.67-1.68zm-.24-17.77 1.88 1.88 1.89-1.88-1.89-1.88zm8.87-8.92 1.94 1.93 1.93-1.93-1.93-1.94zm.41 35.52 1.47 1.46 1.46-1.46-1.46-1.47zm-.17-17.7 1.67 1.67 1.68-1.67-1.68-1.67zm-.29-35.72 2.16 2.16 2.16-2.16-2.16-2.16zm5.13-123.77-3.13-3.12-3.12 3.12 3.12 3.12zm.14 35.34-3-3-3 3 3 3zm-.21-17.6-2.89-2.89-2.9 2.89 2.9 2.89zm-8.7-8.86-3-3-3.05 3 3 3zm-13.76 168.23 1.67 1.67 1.67-1.67-1.67-1.67zm-.27-17.67 1.88 1.88 1.88-1.88-1.88-1.89zm-9.95-133.15 3.48 3.49 3.49-3.49-3.48-3.48zm-.05 17.78 3.49 3.48 3.49-3.48-3.49-3.49zm15.45-44.07-3.45-3.45-3.43 3.45 3.44 3.44zm-15.37-26.28 3.5 3.48 3.48-3.48-3.49-3.49zm15.48 43.9-3.31-3.31-3.32 3.31 3.32 3.32zm-6.43 17.54 3.29 3.29 3.29-3.29-3.29-3.29zm0-70.3 3.29 3.29 3.29-3.29-3.29-3.29zm0 88.08 3.25 3.25 3.25-3.25-3.24-3.25zm18.49 53.06 2.3 2.31 2.31-2.31-2.31-2.3zm-17.83 35.73 2.09 2.09 2.1-2.09-2.1-2.1zm14.46-115.3-3.15-3.15-3.1 3.19 3.15 3.14zm-14.67 97.57 2.38 2.38 2.38-2.38-2.34-2.38zm.05-17.8 2.6 2.6 2.6-2.6-2.6-2.6zm-.12-17.8 2.77 2.78 2.78-2.78-2.77-2.77zm-.24-17.72 3 3 3-3-3-3zm49.38-44.06-2.31-2.3-2.3 2.3 2.3 2.31zm-13.11 79.38 2.09 2.09 2.09-2.09-2.09-2.1zm-.19-35.44 2.5 2.5 2.5-2.5-2.5-2.5zm0 17.69 2.31 2.3 2.3-2.3-2.26-2.25zm13.21-79.25-2.3-2.3-2.26 2.3 2.31 2.31zm-4.24-88.38 2.31 2.31 2.3-2.31-2.3-2.3zm-9 8.77 2.5 2.5 2.5-2.5-2.5-2.5zm.38 194.33 1.89 1.88 1.88-1.88-1.88-1.89zm.28 53.41 1.25 1.26 1.26-1.26-1.26-1.25zm-.12-17.72 1.5 1.49 1.49-1.49-1.49-1.5zm-18.42-71 2.56 2.59 2.54-2.54-2.54-2.59zm31.22-44.12-2.3-2.3-2.31 2.3 2.31 2.3zm-4.15 70.63 1.88 1.88 1.89-1.89-1.84-1.91zm.3 17.73 1.68 1.67 1.67-1.67-1.63-1.65zm-.54-53.3 2.31 2.3 2.3-2.3-2.3-2.31zm.63 71 1.49 1.5 1.5-1.5-1.5-1.5zm-.49-53.29 2.09 2.09 2.09-2.09-2.05-2.06zm4.39-35.21-2.3-2.31-2.31 2.31 2.3 2.3zm-3.92 106.34 1.28 1.27 1.27-1.27-1.23-1.19zm-9-26.67 1.71 1.72 1.72-1.72-1.72-1.72zm-4.28-97.4-2.81-2.81-2.79 2.86 2.8 2.83zm-.16-17.58-2.75-2.74-2.69 2.79 2.75 2.75zm-4.44 141.82 1.46 1.46 1.47-1.46-1.47-1.46zm-9.79-115.51 2.9 2.89 2.89-2.89-2.89-2.9zm23.08.18-2.64-2.64-2.65 2.61 2.64 2.64zm-9-44.11-2.69-2.69-2.71 2.69 2.7 2.7zm-14.11-61.77 2.9 2.9 2.89-2.9-2.89-2.89zm0 123.48 2.78 2.77 2.78-2.77-2.78-2.78zm9.57 80 1.72 1.71 1.71-1.71-1.71-1.72zm-.56-212.32 2.81 2.69 2.7-2.7-2.7-2.7zm-350.96-106.24-.83.83-.84-.83.84-.83zm-17.62 17.62-.83.83-.78-.83.83-.83zm0-17.71-.83.84-.78-.82.83-.83zm-18.39 34.44.82.83-.82.83-.83-.83zm44.91-43.15-.83.84-.83-.84.83-.83zm-18.65 17 .84.83-.84.83-.83-.83zm.05-17.63.83.83-.83.84-.83-.83zm-16.69 35.91-.82.83-.83-.82.83-.83zm0-17.57-.83.83-.83-.81.83-.83zm0-17.58-.84.83-.83-.83.83-.82zm-9.62 25.34.82.83-.82.83-.83-.83zm0-17.69.82.83-.82.83-.83-.83zm35.17 337.71-.83-.83.83-.83.83.83zm-17.62-17.62-.83-.83.83-.83.83.83zm0 17.71-.77-.85.83-.84.83.84zm-18.39-36.1.83-.83.83.83-.83.83zm44.91 44.81-.83-.83.83-.84.83.84zm-18.65-18.65.84-.83.83.83-.83.83zm.05 17.62.83-.83.83.84-.83.83zm-16.69-34.26-.83-.83.83-.82.83.83zm0 17.58-.83-.83.83-.83.82.83zm0 17.57-.83-.82.83-.83.83.83zm-9.62-27 .83-.83.83.83-.83.83zm0 17.69.83-.83.83.83-.83.83zm460.39-.19.83-.83.84.83-.84.83zm17.62-17.62.83-.83.83.83-.83.83zm0 17.71.83-.84.83.84-.83.83zm18.41-34.44-.82-.83.82-.83.83.83zm-44.91 43.15.83-.84.83.84-.83.83zm18.65-17-.84-.83.84-.83.83.83zm0 17.63-.83-.83.83-.84.83.83zm16.69-35.92.82-.83.83.82-.83.83zm0 17.57.83-.83.83.83-.83.83zm0 17.58.83-.83.83.83-.83.82zm9.62-25.34-.82-.83.82-.83.83.83zm0 17.69-.82-.83.83-.83.82.83zm-108.57-107.22 2.7 2.7 2.7-2.7-2.68-2.71zm13.86-26.28-2.6-2.6-2.6 2.6 2.6 2.6zm-2.63-15.14 2.5-2.5-2.5-2.5-2.51 2.5zm2.63-20.3-2.8-2.8-2.8 2.8 2.8 2.8zm-13.47 114.9 2.09 2.09 2.1-2.1-2.09-2.09zm.09 17.78 1.94 1.94 1.94-1.94-1.94-1.94zm-.37-53.17 2.54 2.54 2.54-2.54-2.54-2.5zm.09 17.68 2.31 2.3 2.3-2.3-2.3-2.31z" fill="url(#a)" opacity=".5"/><g fill="#808080"><path d="m174.23 180.77c0-.42 0-.85 0-1.27h2.5v1.23z"/><path d="m254.73 264.25c-.84-.05-1.68-.1-2.51-.17l.2-2.49c.81.06 1.62.12 2.44.16zm-5.53-.46c-.83-.1-1.67-.21-2.5-.33l.36-2.47 2.43.32zm-5.49-.82c-.83-.15-1.65-.32-2.47-.49l.52-2.45q1.2.25 2.4.48zm-5.42-1.18c-.82-.2-1.63-.42-2.44-.65l.68-2.41c.79.23 1.58.44 2.37.64zm-5.29-1.53c-.8-.26-1.6-.53-2.39-.81l.84-2.36c.77.28 1.54.54 2.32.79zm-5.21-1.88c-.78-.31-1.56-.63-2.33-1l1-2.3c.74.33 1.49.64 2.25.94zm-5.08-2.21c-.76-.36-1.51-.73-2.26-1.12l1.14-2.22c.73.37 1.46.73 2.2 1.08zm-4.92-2.54c-.73-.41-1.46-.83-2.18-1.27l1.28-2.14c.7.42 1.41.83 2.12 1.22zm-4.79-2.86c-.7-.46-1.4-.93-2.09-1.41l1.42-2.05c.67.46 1.35.91 2 1.36zm-4.55-3.17c-.68-.5-1.34-1-2-1.54l1.55-2c.64.51 1.29 1 1.94 1.49zm-4.34-3.46c-.64-.54-1.27-1.1-1.9-1.66l1.68-1.85c.61.54 1.22 1.08 1.84 1.61zm-4.11-3.73c-.6-.58-1.2-1.18-1.78-1.78l1.79-1.74c.57.58 1.15 1.16 1.73 1.73zm-3.85-4c-.57-.63-1.12-1.26-1.67-1.9l1.9-1.62c.53.62 1.07 1.23 1.62 1.84zm-3.59-4.24c-.53-.66-1-1.33-1.54-2l2-1.49c.49.65 1 1.3 1.5 1.94zm-3.31-4.46q-.72-1-1.41-2.1l2.1-1.36c.45.69.9 1.36 1.37 2zm-3-4.67c-.43-.72-.86-1.45-1.27-2.19l2.18-1.22c.4.71.81 1.42 1.23 2.12zm-2.7-4.86c-.38-.75-.76-1.51-1.12-2.27l2.26-1.07c.35.73.71 1.47 1.08 2.2zm-2.37-5c-.34-.77-.66-1.55-1-2.34l2.32-.92c.3.76.61 1.52.94 2.27zm-2-5.18q-.42-1.18-.81-2.4l2.38-.77c.25.78.51 1.56.79 2.33zm-1.69-5.3c-.23-.8-.44-1.62-.65-2.44l2.43-.61q.28 1.2.63 2.37zm-1.33-5.39c-.18-.82-.34-1.64-.49-2.47l2.46-.45c.14.8.3 1.61.47 2.4zm-1-5.46c-.12-.83-.23-1.67-.33-2.5l2.48-.29c.1.81.2 1.62.32 2.43zm-.62-5.52c-.07-.83-.12-1.67-.17-2.51l2.5-.13c0 .82.09 1.63.16 2.45z"/><path d="m259.07 264.36h-1.27v-2.5h1.23z"/><g opacity=".5"><path d="m419.25 179.5h-2.5v-1.24h2.5z"/><path d="m416.7 175.26c0-.84-.05-1.67-.09-2.5l2.5-.11c0 .85.06 1.69.08 2.54zm-.24-5.5c0-.84-.11-1.67-.18-2.5l2.5-.19c.06.84.12 1.69.17 2.54zm-.43-5.49c-.08-.83-.17-1.66-.26-2.49l2.48-.27c.1.84.18 1.68.26 2.52zm-.62-5.47c-.11-.83-.23-1.65-.35-2.48l2.47-.36c.13.84.24 1.68.35 2.52zm-.81-5.44c-.14-.82-.29-1.65-.44-2.46l2.46-.46c.15.84.3 1.67.44 2.51zm-1-5.41c-.16-.82-.33-1.64-.51-2.45l2.44-.54c.18.83.36 1.66.52 2.49zm-1.19-5.38c-.19-.81-.39-1.62-.6-2.42l2.42-.63c.21.82.42 1.65.62 2.47zm-1.41-5.32-.69-2.41 2.4-.71c.24.82.47 1.63.7 2.45zm-1.54-5.25c-.25-.8-.51-1.6-.78-2.39l2.37-.79c.27.8.54 1.61.79 2.43zm-1.76-5.24c-.28-.79-.56-1.57-.86-2.36l2.35-.87.87 2.39zm-1.94-5.17c-.3-.78-.62-1.55-.94-2.33l2.31-1c.33.78.65 1.57 1 2.36zm-2.12-5.1c-.33-.76-.67-1.53-1-2.29l2.28-1c.35.77.69 1.54 1 2.32zm-2.29-5c-.37-.76-.73-1.51-1.11-2.25l2.24-1.12c.38.76.75 1.52 1.12 2.29zm-2.47-4.93c-.39-.75-.79-1.48-1.19-2.22l2.2-1.19c.41.75.81 1.49 1.2 2.25zm-2.65-4.84c-.41-.73-.83-1.45-1.25-2.17l2.15-1.27c.43.73.86 1.46 1.28 2.2zm-2.81-4.75c-.43-.71-.88-1.42-1.33-2.12l2.11-1.35q.69 1.08 1.35 2.16zm-3-4.64c-.46-.7-.93-1.39-1.4-2.07l2.06-1.42c.48.7.95 1.4 1.42 2.11zm-3.13-4.53c-.48-.68-1-1.36-1.47-2l2-1.49c.51.68 1 1.37 1.5 2.06zm-3.29-4.47c-.51-.66-1-1.32-1.55-2l2-1.56c.53.66 1.05 1.33 1.57 2zm-3.4-4.33c-.53-.64-1.07-1.28-1.61-1.91l1.9-1.63 1.63 2zm-3.6-4.16c-.55-.62-1.11-1.24-1.67-1.85l1.84-1.69c.57.62 1.14 1.25 1.7 1.88zm-3.72-4-1.73-1.84 1.78-1.75c.6.61 1.19 1.21 1.77 1.83zm-3.86-3.92c-.6-.58-1.2-1.16-1.81-1.73l1.73-1.82c.61.59 1.22 1.17 1.82 1.77zm-4-3.78-1.86-1.67 1.66-1.87c.63.56 1.26 1.12 1.89 1.7zm-4.12-3.64-1.92-1.61 1.62-1.97 1.95 1.63zm-4.24-3.5c-.65-.52-1.31-1-2-1.54l1.52-2c.68.51 1.34 1 2 1.56zm-4.36-3.35-2-1.47 1.45-2c.69.49 1.37 1 2.05 1.49zm-4.48-3.19-2.07-1.46 1.38-2.09 2.11 1.42zm-4.58-3c-.7-.44-1.41-.89-2.12-1.32l1.31-2.13 2.17 1.27zm-4.64-2.94-2.16-1.25 1.16-2.17 2.19 1.27zm-4.77-2.7c-.74-.39-1.47-.79-2.21-1.17l1.16-2.22 2.24 1.19zm-4.87-2.53c-.75-.37-1.49-.74-2.25-1.1l1.09-2.25c.76.36 1.52.73 2.27 1.11zm-5-2.36c-.75-.35-1.51-.69-2.27-1l1-2.29 2.31 1zm-5-2.19c-.76-.32-1.53-.63-2.3-.93l.91-2.33 2.35.95zm-5.11-2-2.35-.86.84-2.35c.8.28 1.59.57 2.39.87zm-5.25-1.84c-.79-.27-1.58-.52-2.38-.78l.76-2.38 2.41.79zm-5.25-1.65q-1.2-.36-2.4-.69l.67-2.41 2.44.7zm-5.3-1.47-2.43-.6.59-2.43 2.46.61zm-5.35-1.27c-.82-.18-1.63-.36-2.45-.52l.5-2.45 2.48.52zm-5.4-1.09c-.82-.15-1.64-.3-2.46-.43l.41-2.47 2.5.44zm-5.43-.9-2.48-.35.33-2.48 2.52.36zm-5.46-.71-2.48-.26.23-2.49c.85.08 1.69.17 2.53.27zm-5.48-.52-2.49-.17.15-2.5 2.54.18zm-5.46-.29c-.83 0-1.67-.07-2.5-.09l.07-2.5c.84 0 1.69.05 2.53.09z"/><path d="m260.31 21.83-1.24-.01v-2.5l1.26.01z"/></g><path d="m388.08 114.38h7.82v7.82h-7.82z" transform="matrix(.70710678 -.70710678 .70710678 .70710678 31.17 311.82)"/><path d="m254.76 229.38h7.82v7.82h-7.82z" transform="matrix(.70710678 -.70710678 .70710678 .70710678 -89.2 251.24)"/><path d="m139.59 220.1h7.82v7.82h-7.82z" transform="matrix(.70710678 -.70710678 .70710678 .70710678 -116.37 167.08)"/></g><path d="m307.8 51.8h7.82v7.82h-7.82z" stroke="#808080" stroke-miterlimit="10" stroke-width="2.5" transform="matrix(.70710678 -.70710678 .70710678 .70710678 51.9 236.73)"/><path d="m281.23 256.03h7.82v7.82h-7.82z" stroke="#808080" stroke-miterlimit="10" stroke-width="2.5" transform="matrix(.70710678 -.70710678 .70710678 .70710678 -100.29 277.76)"/><path d="m104.04 131.92h7.82v7.82h-7.82z" stroke="#808080" stroke-miterlimit="10" stroke-width="2.5" transform="matrix(.70710678 -.70710678 .70710678 .70710678 -64.43 116.12)"/><path d="m467.46 299.79h7.82v7.82h-7.82z" stroke="#808080" stroke-miterlimit="10" stroke-width="2.5" transform="matrix(.70710678 -.70710678 .70710678 .70710678 -76.69 422.26)"/><path d="m380.33 54.13h4.57v4.57h-4.57z" fill="#808080" transform="matrix(.70710678 -.70710678 .70710678 .70710678 72.17 287.07)"/><path d="m115.1 354.94h4.57v4.57h-4.57z" fill="#808080" transform="matrix(.70710678 -.70710678 .70710678 .70710678 -218.21 187.63)"/><path d="m408.13 63.8h2.63v2.63h-2.63z" fill="#f0b90b" transform="matrix(.70710678 -.70710678 .70710678 .70710678 73.88 308.59)"/><path d="m71.46 311.3h2.63v2.63h-2.63z" fill="#f0b90b" transform="matrix(.70710678 -.70710678 .70710678 .70710678 -199.73 143.02)"/><path d="m71.46 99.34h2.63v2.63h-2.63z" fill="#808080" transform="matrix(.70710678 -.70710678 .70710678 .70710678 -49.86 80.94)"/><path d="m452.12 196.69h2.63v2.63h-2.63z" fill="#808080" transform="matrix(.70710678 -.70710678 .70710678 .70710678 -7.2 378.62)"/><path d="m487.68 37.12h2.63v2.63h-2.63z" fill="#808080" transform="matrix(.70710678 -.70710678 .70710678 .70710678 116.05 357.03)"/><path d="m9.79 267.24h2.63v2.63h-2.63z" fill="#808080" transform="matrix(.70710678 -.70710678 .70710678 .70710678 -186.64 86.51)"/><path d="m318.31 97.73h4.92v4.92h-4.92z" fill="#f0b90b" transform="matrix(.70710678 -.70710678 .70710678 .70710678 23.1 256.17)"/><path d="m211.44 115.55h6.81v6.81h-6.81z" fill="#f0b90b" transform="matrix(.70710678 -.70710678 .70710678 .70710678 -21.18 186.76)"/><path d="m123.11 186.41h4.92v4.92h-4.92z" fill="#f0b90b" transform="matrix(.70710678 -.70710678 .70710678 .70710678 -96.77 144.11)"/><path d="m327.33 212.55h5.2v5.2h-5.2z" fill="#f0b90b" transform="matrix(.70710678 -.70710678 .70710678 .70710678 -55.5 296.31)"/><path d="m169.06 54.4h2.63v2.63h-2.63z" fill="#f0b90b" transform="matrix(.70710678 -.70710678 .70710678 .70710678 10.51 136.79)"/><path d="m151.4 179.5c0-.72 0-1.45 0-2.17h2.5v2.12zm2.62-5.08-2.49-.12c0-.85.09-1.69.15-2.53l2.49.18c-.06.82-.11 1.64-.17 2.47zm.4-5.42-2.49-.25c.09-.84.18-1.68.28-2.51l2.48.3q-.15 1.23-.27 2.46zm.68-5.4-2.47-.37c.12-.83.26-1.67.4-2.5l2.47.44c-.15.83-.28 1.62-.4 2.43zm1-5.34-2.45-.51c.17-.82.35-1.65.54-2.47l2.44.56c-.24.8-.41 1.61-.58 2.42zm1.23-5.3-2.42-.62c.21-.82.44-1.64.67-2.44l2.4.68c-.27.79-.49 1.59-.7 2.42zm1.51-5.22-2.44-.74c.26-.81.52-1.61.79-2.4l2.37.81c-.27.77-.56 1.59-.77 2.33zm1.77-5.13-2.34-.88c.29-.79.6-1.58.91-2.36l2.32.94c-.35.76-.65 1.53-.94 2.3zm2-5-2.29-1c.34-.77.68-1.54 1-2.3l2.26 1.05c-.32.72-.66 1.47-.99 2.22zm2.29-4.91-2.23-1.11c.37-.76.76-1.5 1.15-2.25l2.21 1.17c-.4.7-.78 1.43-1.15 2.16zm2.55-4.79-2.18-1.23c.41-.73.84-1.46 1.27-2.18l2.14 1.28q-.68 1.04-1.25 2.1zm2.78-4.65-2.11-1.34c.45-.71.91-1.41 1.38-2.11l2.08 1.39c-.48.65-.93 1.34-1.37 2.03zm3-4.5-2-1.45c.49-.68 1-1.37 1.49-2l2 1.49c-.52.59-1.01 1.26-1.48 1.93zm3.25-4.35-2-1.55c.52-.66 1.05-1.31 1.59-2l1.93 1.6c-.48.64-1 1.28-1.51 1.92zm3.48-4.17-1.88-1.65c.55-.63 1.12-1.26 1.69-1.88l1.84 1.69c-.55.6-1.1 1.19-1.61 1.81zm3.68-4-1.79-1.74c.59-.61 1.18-1.2 1.78-1.79l1.76 1.78c-.58.56-1.16 1.14-1.74 1.73zm3.89-3.8-1.7-1.83c.62-.57 1.24-1.14 1.87-1.7l1.66 1.87c-.61.53-1.22 1.08-1.82 1.64zm4.08-3.59-1.61-1.94 2-1.6 1.56 2c-.67.47-1.31.99-1.94 1.52zm4.26-3.38-1.51-2c.68-.51 1.36-1 2-1.5l1.46 2c-.62.5-1.28 1.03-1.94 1.48zm4.43-3.16-1.4-2.07c.7-.47 1.4-.94 2.11-1.39l1.35 2.1c-.68.43-1.36.88-2.05 1.34zm4.58-2.92-1.29-2.14c.73-.44 1.45-.87 2.19-1.29l1.22 2.16c-.69.4-1.4.82-2.11 1.25zm4.74-2.69-1.18-2.2q1.13-.6 2.25-1.17l1.13 2.23c-.73.35-1.46.73-2.19 1.12zm4.87-2.44-1.05-2.26q1.14-.54 2.31-1l1 2.29c-.75.26-1.51.6-2.25.95zm5-2.18-.94-2.31c.78-.32 1.57-.63 2.36-.93l.88 2.34c-.79.27-1.54.57-2.3.88zm5.1-1.91-.82-2.37 2.41-.8.76 2.38c-.79.23-1.57.49-2.35.77zm5.19-1.65-.7-2.4c.81-.24 1.62-.46 2.44-.68l.64 2.42c-.8.19-1.59.41-2.38.64zm5.22-1.4-.57-2.43 2.47-.55.52 2.45zm5.35-1.12-.44-2.46c.83-.15 1.66-.29 2.5-.42l.38 2.47c-.79.16-1.63.29-2.44.41zm5.38-.82-.32-2.48c.84-.11 1.67-.2 2.52-.29l.25 2.49c-.82.1-1.64.2-2.45.31zm5.4-.54-.18-2.5 2.52-.16.13 2.5c-.83.07-1.6.12-2.47.19zm5.43-.27-.06-2.5h2.53v2.5c-.82 0-1.65.01-2.47.03z" fill="#808080"/><path d="m313.27 179.5h-2.5c0-.82 0-1.63-.06-2.44l2.5-.12c.04.85.06 1.7.06 2.56zm-2.78-5.36c-.08-.81-.18-1.62-.3-2.42l2.47-.37c.13.84.23 1.68.32 2.53zm-.82-5.3c-.17-.8-.35-1.59-.56-2.38l2.42-.63c.22.83.41 1.66.59 2.5zm-1.37-5.19q-.37-1.17-.81-2.31l2.34-.88c.3.8.58 1.61.85 2.43zm-1.92-5c-.32-.75-.67-1.49-1-2.22l2.24-1.11c.38.76.75 1.53 1.09 2.32zm-2.42-4.8c-.4-.71-.83-1.4-1.26-2.09l2.11-1.34c.45.72.9 1.45 1.32 2.19zm-2.91-4.52c-.47-.66-1-1.31-1.47-1.94l2-1.56c.53.67 1 1.35 1.54 2zm-3.35-4.19c-.54-.6-1.1-1.2-1.67-1.78l1.79-1.75c.6.61 1.18 1.23 1.74 1.87zm-3.77-3.82c-.6-.55-1.22-1.08-1.84-1.6l1.6-1.92q1 .81 1.92 1.68zm-4.15-3.41c-.65-.48-1.31-.95-2-1.4l1.39-2.08c.71.47 1.41 1 2.09 1.47zm-4.46-3c-.7-.42-1.41-.81-2.13-1.19l1.17-2.21c.75.4 1.5.81 2.23 1.25zm-4.75-2.49c-.74-.33-1.48-.65-2.24-1l.94-2.32c.79.32 1.57.66 2.34 1zm-5-2c-.77-.26-1.55-.5-2.33-.73l.68-2.4c.83.23 1.64.49 2.45.76zm-5.15-1.42c-.79-.18-1.59-.34-2.39-.48l.43-2.46c.84.15 1.68.31 2.51.5zm-5.29-.9c-.8-.1-1.61-.17-2.43-.23l.18-2.49c.85.06 1.7.14 2.54.24zm-5.35-.35h-.78v-2.5h.78z" fill="#808080"/><path d="m259 202.19 22.7-22.69-22.7-22.69-22.66 22.69z" fill="#f0b90b"/></svg>