<svg width="20" height="21" viewBox="0 0 20 21" fill="none" xmlns="http://www.w3.org/2000/svg">
<path d="M4.94952 16.8081C6.34427 18.1561 8.17232 18.8301 10.0004 18.8301C11.8284 18.8301 13.6563 18.1561 15.051 16.8081C17.8405 14.1121 17.8405 9.74102 15.051 7.04502L10.0004 2.16341L4.94952 7.04502C2.16006 9.74102 2.16006 14.1121 4.94952 16.8081Z" fill="#AEB4BC"/>
<path d="M7.08884 15.9504C7.89288 16.7592 8.94669 17.1636 10.0005 17.1636C11.0543 17.1636 12.1081 16.7592 12.9121 15.9504C14.5201 14.3328 14.5201 11.7101 12.9121 10.0925L10.0005 7.16358L7.08884 10.0925C5.4808 11.7101 5.4808 14.3328 7.08884 15.9504Z" fill="#76808F"/>
<path d="M2.5 3.41349L4.58333 5.49683L6.66667 3.41349L4.58333 1.33016L2.5 3.41349Z" fill="#AEB4BC"/>
<path d="M16.667 6.74683L17.917 7.99683L19.167 6.74683L17.917 5.49683L16.667 6.74683Z" fill="#76808F"/>
<path d="M0.833008 17.1636L2.08301 18.4136L3.33301 17.1636L2.08301 15.9136L0.833008 17.1636Z" fill="#AEB4BC"/>
</svg>
