<svg width="64" height="65" viewBox="0 0 64 65" fill="none" xmlns="http://www.w3.org/2000/svg">
<path fill-rule="evenodd" clip-rule="evenodd" d="M42.6668 5.83008H17.3335V59.1634H56.0002V19.1634L42.6668 5.83008ZM24.0002 25.1634H49.3335V27.8301H24.0002V25.1634ZM24.0002 31.1634H49.3335V33.8301H24.0002V31.1634ZM49.3335 37.1634H24.0002V39.8301H49.3335V37.1634Z" fill="url(#paint0_linear)"/>
<path d="M41.3335 47.8302L44.0002 45.1636L46.6668 47.8302L44.0002 50.4969L41.3335 47.8302Z" fill="white"/>
<path d="M57.3335 33.8301L59.3335 31.8301L61.3335 33.8301L59.3335 35.8301L57.3335 33.8301Z" fill="#CACED3"/>
<path d="M31.3335 14.4968L33.3335 12.4968L35.3335 14.4968L33.3335 16.4968L31.3335 14.4968Z" fill="white"/>
<path d="M56 19.1636H42.6667V5.83024L56 19.1636Z" fill="#E6E8EA"/>
<path fill-rule="evenodd" clip-rule="evenodd" d="M2.78125 49.2778L12.4479 39.6112L16.2192 43.3825L6.55247 53.0491L2.78125 49.2778Z" fill="url(#paint1_linear)"/>
<path fill-rule="evenodd" clip-rule="evenodd" d="M34 32.4967C34 26.6057 29.2244 21.8301 23.3333 21.8301C17.4423 21.8301 12.6667 26.6057 12.6667 32.4967C12.6667 38.3878 17.4423 43.1634 23.3333 43.1634C29.2244 43.1634 34 38.3878 34 32.4967ZM36.6667 32.4967C36.6667 25.1329 30.6971 19.1634 23.3333 19.1634C15.9695 19.1634 10 25.1329 10 32.4967C10 39.8605 15.9695 45.8301 23.3333 45.8301C30.6971 45.8301 36.6667 39.8605 36.6667 32.4967Z" fill="#F0B90B"/>
<defs>
<linearGradient id="paint0_linear" x1="56.0002" y1="7.27152" x2="56.0002" y2="59.1634" gradientUnits="userSpaceOnUse">
<stop stop-color="#F5F5F5"/>
<stop offset="1" stop-color="#E6E8EA"/>
</linearGradient>
<linearGradient id="paint1_linear" x1="9.19896" y1="39.6103" x2="9.19896" y2="53.0491" gradientUnits="userSpaceOnUse">
<stop stop-color="#474D57"/>
<stop offset="1" stop-color="#76808F"/>
</linearGradient>
</defs>
</svg>
