<svg width="200" height="22" viewBox="0 0 200 22" fill="none" xmlns="http://www.w3.org/2000/svg">
<path d="M125.409 6.99598H118.65V10.2472H124.649V12.1472H118.65V16.9818H116.559V5.09593H125.409V6.99598ZM138.041 11.8517C138.041 15.3984 136.035 17.1929 132.929 17.1929C129.824 17.1929 127.86 15.3984 127.86 11.9572V5.09593H129.951V11.8517C129.951 14.0684 131.092 15.2507 132.95 15.2507C134.809 15.2507 135.95 14.1317 135.95 11.9361V5.09593H138.041V11.8517ZM146.322 17.0029H144.209V7.0382H140.428V5.09593H150.082V7.0382H146.3V17.0029H146.322ZM162.692 11.8517C162.692 15.3984 160.685 17.1929 157.58 17.1929C154.475 17.1929 152.511 15.3984 152.511 11.9572V5.09593H154.602V11.8517C154.602 14.0684 155.743 15.2507 157.601 15.2507C159.46 15.2507 160.601 14.1317 160.601 11.9361V5.09593H162.692V11.8517ZM173.866 17.0029L170.951 12.8439H168.332V16.9818H166.241V5.09593H171.543C174.289 5.09593 175.958 6.53152 175.958 8.87492C175.958 10.8383 174.775 12.0417 173.127 12.485L176.338 16.9818H173.866V17.0029ZM171.374 6.99598H168.332V10.9861H171.395C172.895 10.9861 173.845 10.205 173.845 8.98048C173.845 7.67155 172.916 6.99598 171.374 6.99598ZM187.892 6.97487H181.154V10.0783H187.132V11.9572H181.154V15.1451H187.977V17.024H179.063V5.09593H187.892V6.97487ZM195.624 10.0994C198.137 10.7116 199.447 11.6194 199.447 13.6039C199.447 15.8418 197.694 17.1718 195.201 17.1718C193.384 17.1718 191.673 16.5385 190.237 15.2718L191.504 13.7728C192.645 14.7651 193.786 15.314 195.264 15.314C196.553 15.314 197.377 14.7229 197.377 13.7939C197.377 12.9284 196.891 12.4639 194.694 11.9572C192.159 11.345 190.723 10.6061 190.723 8.38935C190.723 6.32041 192.434 4.92703 194.779 4.92703C196.511 4.92703 197.884 5.45482 199.088 6.42596L197.968 8.00934C196.891 7.2071 195.835 6.78486 194.736 6.78486C193.511 6.78486 192.793 7.41821 192.793 8.22046C192.793 9.14937 193.342 9.5505 195.624 10.0994ZM4.87949 11.0705L2.45031 13.4984L0 11.0494L2.45031 8.60047L4.87949 11.0705ZM10.8152 5.13815L14.9976 9.31827L17.4479 6.86931L10.8152 0.240234L4.18243 6.86931L6.63273 9.31827L10.8152 5.13815ZM19.18 8.62158L16.7297 11.0705L19.18 13.4984L21.6303 11.0494L19.18 8.62158ZM10.8152 16.9818L6.63273 12.8017L4.18243 15.2507L10.8152 21.8797L17.4479 15.2507L14.9976 12.8017L10.8152 16.9818ZM10.8152 13.4984L13.2655 11.0494L10.8152 8.60047L8.36485 11.0494L10.8152 13.4984ZM36.5857 13.7306V13.7095C36.5857 12.1261 35.7407 11.3239 34.3677 10.7961C35.2127 10.3316 35.9308 9.57161 35.9308 8.24157V8.19935C35.9308 6.34152 34.4311 5.13815 32.023 5.13815H26.5098V16.9818H32.1498C34.8324 16.9818 36.5857 15.9051 36.5857 13.7306ZM33.3327 8.68491C33.3327 9.57161 32.6145 9.93051 31.4527 9.93051H29.0446V7.41821H31.6217C32.7201 7.41821 33.3327 7.86156 33.3327 8.64269V8.68491ZM33.9875 13.4139C33.9875 14.3006 33.2904 14.7018 32.1498 14.7018H29.0446V12.105H32.0653C33.396 12.105 33.9875 12.5906 33.9875 13.3928V13.4139ZM42.0566 16.9818V5.13815H39.4373V16.9818H42.0566ZM56.0826 16.9818V5.13815H53.5055V12.4428L47.9501 5.13815H45.542V16.9818H48.119V9.46605L53.8646 17.0029H56.0826V16.9818ZM70.5309 16.9818L65.4402 5.0537H63.0321L57.9414 16.9818H60.6029L61.6802 14.3217H66.6865L67.7638 16.9818H70.5309ZM65.7782 12.0206H62.6308L64.215 8.17824L65.7782 12.0206ZM82.9726 16.9818V5.13815H80.3956V12.4428L74.8401 5.13815H72.432V16.9818H75.0091V9.46605L80.7546 17.0029H82.9726V16.9818ZM96.4282 15.0818L94.7594 13.4139C93.83 14.2584 93.0062 14.8073 91.6332 14.8073C89.6053 14.8073 88.1901 13.1184 88.1901 11.0916V11.0494C88.1901 9.0227 89.6265 7.35488 91.6332 7.35488C92.8161 7.35488 93.7455 7.86156 94.6749 8.68491L96.3437 6.76375C95.2453 5.68705 93.9145 4.92703 91.6754 4.92703C88.0422 4.92703 85.4863 7.69267 85.4863 11.0494V11.0916C85.4863 14.4906 88.0844 17.1929 91.5698 17.1929C93.8511 17.1929 95.203 16.3907 96.4282 15.0818ZM107.56 16.9818V14.6595H101.118V12.1895H106.715V9.86717H101.118V7.46044H107.476V5.13815H98.5405V16.9818H107.56Z" fill="#F0B90B"/>
</svg>
