<svg width="80" height="80" viewBox="0 0 80 80" fill="none" xmlns="http://www.w3.org/2000/svg">
<path d="M60.1081 14.785C70.7436 25.4205 70.7436 42.6642 60.1081 53.2997L62.5153 55.7069C74.4803 43.7419 74.4803 24.3428 62.5153 12.3778C50.5503 0.412802 31.1512 0.412802 19.1862 12.3778C7.22115 24.3428 7.22115 43.7419 19.1862 55.7069L21.5933 53.2997C10.9578 42.6642 10.9578 25.4205 21.5933 14.785C32.2289 4.14942 49.4725 4.14942 60.1081 14.785Z" fill="url(#paint0_linear)"/>
<path d="M18.7234 80L40.8511 57.8724L23.8298 40.8511L1.70215 62.9787H18.7234V80Z" fill="#EAECEF"/>
<path d="M18.7234 80L18.7234 62.9787L32.3404 49.3617L40.8511 57.8723L18.7234 80Z" fill="#EAECEF"/>
<path d="M0 5.10626L5.10638 10.2126L10.2128 5.10626L5.10638 -0.000119209L0 5.10626Z" fill="#E6E8EA"/>
<path d="M70.6384 17.0213L74.0427 20.4255L77.4469 17.0213L74.0427 13.617L70.6384 17.0213Z" fill="#E6E8EA"/>
<path d="M77.4468 44.2553H80V41.7021H77.4468V44.2553Z" fill="#E6E8EA"/>
<path d="M62.9787 80L40.8511 57.8724L57.8723 40.8511L80 62.9787H62.9787V80Z" fill="#EAECEF"/>
<path d="M62.9788 80L62.9788 62.9787L49.3617 49.3617L40.8511 57.8723L62.9788 80Z" fill="#EAECEF"/>
<path fill-rule="evenodd" clip-rule="evenodd" d="M40.851 10.2127C54.0119 10.2127 64.6808 20.8817 64.6808 34.0425C64.6808 47.2034 54.0119 57.8723 40.851 57.8723C27.6902 57.8723 17.0212 47.2034 17.0212 34.0425C17.0212 20.8817 27.6902 10.2127 40.851 10.2127ZM40.851 44.2553L30.6383 34.0425L40.851 23.8298L51.0638 34.0425L40.851 44.2553Z" fill="#FCD535"/>
<defs>
<linearGradient id="paint0_linear" x1="40.8507" y1="3.40405" x2="40.8507" y2="77.3715" gradientUnits="userSpaceOnUse">
<stop stop-color="#FAFAFA"/>
<stop offset="1" stop-color="#E6E8EA"/>
</linearGradient>
</defs>
</svg>
