<svg width="43" height="47" viewBox="0 0 43 47" fill="none" xmlns="http://www.w3.org/2000/svg">
<path d="M35.8338 4.87891C36.9384 4.87891 37.8338 5.77434 37.8338 6.87891V30.4132C37.8338 31.1235 37.4571 31.7805 36.8441 32.1393L22.4272 40.5776C21.8032 40.9428 21.0306 40.9428 20.4066 40.5776L5.98972 32.1393C5.37672 31.7805 5 31.1235 5 30.4132V6.87891C5 5.77434 5.89543 4.87891 7 4.87891H35.8338Z" fill="url(#paint0_linear)"/>
<path d="M39.2041 0.5C40.5848 0.5 41.7041 1.61929 41.7041 3V32.8417C41.7041 33.7266 41.2363 34.5456 40.474 34.9951L22.372 45.6706C21.5884 46.1327 20.6157 46.1327 19.8321 45.6706L1.73004 34.9951C0.967808 34.5456 0.5 33.7266 0.5 32.8417V3C0.5 1.61929 1.61929 0.5 3 0.5H39.2041Z" stroke="#F0B90B"/>
<path d="M20.9999 19.6729C22.9135 19.6729 24.4647 18.1791 24.4647 16.3364C24.4647 14.4938 22.9135 13 20.9999 13C19.0864 13 17.5352 14.4938 17.5352 16.3364C17.5352 18.1791 19.0864 19.6729 20.9999 19.6729Z" fill="white"/>
<path d="M24.0889 21.0074H17.9111C15.75 21.0074 14.0117 22.6813 14 24.7624V27.7934H28V24.7624C27.9883 22.6813 26.25 21.0074 24.0889 21.0074ZM25.651 25.5314H16.349V24.7624C16.3607 23.9367 17.0537 23.2694 17.9111 23.2694H24.0889C24.9463 23.2694 25.6393 23.9367 25.651 24.7624V25.5314Z" fill="white"/>
<defs>
<linearGradient id="paint0_linear" x1="21.4169" y1="4.87891" x2="21.4169" y2="41.1689" gradientUnits="userSpaceOnUse">
<stop stop-color="#F8D12F"/>
<stop offset="1" stop-color="#F0B90B"/>
</linearGradient>
</defs>
</svg>
