<svg width="78" height="48" viewBox="0 0 78 48" fill="none" xmlns="http://www.w3.org/2000/svg">
<circle cx="53.1355" cy="24.0017" r="21.3571" fill="#F0B90B" stroke="white" stroke-width="5"/>
<path d="M46.575 24L43.875 26.7188L41.1562 24L43.875 21.2812L46.575 24ZM53.1562 17.4187L57.8063 22.0688L60.525 19.35L55.875 14.7188L53.1562 12L50.4375 14.7188L45.8062 19.35L48.525 22.0688L53.1562 17.4187ZM62.4375 21.2812L59.7375 24L62.4562 26.7188L65.1562 24L62.4375 21.2812ZM53.1562 30.5812L48.5063 25.9313L45.8062 28.65L50.4562 33.3L53.1562 36L55.875 33.2812L60.525 28.6312L57.8063 25.9313L53.1562 30.5812ZM53.1562 26.7188L55.875 24L53.1562 21.2812L50.4375 24L53.1562 26.7188Z" fill="white"/>
<circle cx="53.1562" cy="24" r="23.5" stroke="#F0B90B"/>
<circle cx="23.9792" cy="24.0017" r="21.3571" fill="url(#paint0_linear)" stroke="white" stroke-width="5"/>
<path d="M32.5142 20.9975C32.8588 18.6571 31.056 17.4089 28.5638 16.5508L29.3592 13.3782L27.3973 12.8841L26.6019 15.9787C26.0716 15.8486 25.5414 15.7446 25.0376 15.6146L25.833 12.4941L23.8711 12L23.0757 15.1725C22.6515 15.0685 22.2273 14.9905 21.8296 14.8865L19.1253 14.2104L18.5951 16.2647C18.5951 16.2647 20.0533 16.6028 20.0268 16.6028C20.8221 16.8108 20.9812 17.3049 20.9547 17.721L20.0268 21.3355C20.0798 21.3616 20.1593 21.3616 20.2389 21.3876C20.1858 21.3616 20.1063 21.3616 20.0268 21.3355L18.7276 26.4064C18.6216 26.6404 18.383 27.0045 17.8262 26.8745C17.8528 26.9005 16.3946 26.5364 16.3946 26.5364L15.4136 28.7468L17.9853 29.3709C18.4625 29.5009 18.9397 29.6049 19.3905 29.7349L18.5686 32.9335L20.5305 33.4276L21.3259 30.255C21.8561 30.4111 22.3864 30.5411 22.8901 30.6451L22.0948 33.7916L24.0567 34.2857L24.8786 31.0872C28.2457 31.7113 30.7643 31.4512 31.8248 28.4867C32.6732 26.0943 31.7718 24.7161 30.022 23.806C31.2946 23.5459 32.249 22.7138 32.5142 20.9975ZM28.007 27.1865C27.3972 29.5789 23.2878 28.2787 21.9357 27.9667L23.0227 23.728C24.3748 24.04 28.6433 24.6901 28.007 27.1865ZM28.6168 20.9715C28.0601 23.1559 24.64 22.0377 23.5264 21.7776L24.5074 17.929C25.6209 18.189 29.2001 18.6831 28.6168 20.9715Z" fill="white"/>
<circle cx="24" cy="24" r="23.5" stroke="#F0B90B"/>
<defs>
<linearGradient id="paint0_linear" x1="23.9792" y1="5.14453" x2="23.9792" y2="42.8588" gradientUnits="userSpaceOnUse">
<stop stop-color="#F8D12F"/>
<stop offset="1" stop-color="#F0B90B"/>
</linearGradient>
</defs>
</svg>
