<svg width="348" height="361" viewBox="0 0 348 361" fill="none" xmlns="http://www.w3.org/2000/svg">
<path d="M37.1681 360.35L35.417 359.007L36.7496 357.256L38.5006 358.599L37.1681 360.35ZM40.4719 355.945L38.7208 354.613L40.0534 352.861L41.8044 354.194L40.4719 355.945ZM43.7757 351.54L42.0247 350.207L43.3572 348.456L45.1083 349.789L43.7757 351.54ZM47.0796 347.135L45.4827 345.879L46.8152 344.128L48.5663 345.472L47.0796 347.135ZM50.3834 342.73L48.7865 341.507L50.1191 339.756L51.8701 341.089L50.3834 342.73ZM53.6873 338.325L52.0904 337.124L53.4229 335.373L55.174 336.717L53.6873 338.325ZM56.9911 333.919L55.24 332.576L56.5836 330.825L58.3347 332.168L56.9911 333.919ZM60.2949 329.514L58.5439 328.182L59.8764 326.431L61.6275 327.763L60.2949 329.514ZM63.5988 325.109L61.8477 323.766L63.1913 322.015L64.9423 323.358L63.5988 325.109ZM66.9026 320.704L65.1516 319.361L66.4841 317.61L68.2352 318.953L66.9026 320.704ZM70.2065 316.299L68.4554 314.966L69.799 313.215L71.55 314.548L70.2065 316.299ZM73.5103 311.894L71.7592 310.55L73.0918 308.81L74.8428 310.143L73.5103 311.894ZM76.8141 307.489L75.0631 306.145L76.4066 304.394L78.1577 305.738L76.8141 307.489ZM80.118 303.084L78.3669 301.751L79.5893 300.143L80.129 300.551L81.5827 300.881L81.4946 301.289L80.118 303.084ZM82.3205 297.654L80.173 297.17L80.6576 295.022L82.8051 295.507L82.3205 297.654ZM83.5319 292.28L81.3844 291.795L81.869 289.648L84.0716 290.133L83.5319 292.28ZM84.7544 286.917L82.6068 286.432L83.0914 284.23L85.2389 284.725L84.7544 286.917ZM85.9658 281.543L83.8183 281.058L84.3028 278.911L86.4503 279.395L85.9658 281.543ZM87.1772 276.168L85.0297 275.684L85.5142 273.536L87.6617 274.021L87.1772 276.168ZM88.3996 270.805L86.197 270.31L86.6926 268.162L88.8401 268.658L88.3996 270.805ZM89.611 265.431L87.4635 264.946L87.9481 262.799L90.0956 263.283L89.611 265.431ZM90.8224 260.057L88.6749 259.572L89.1595 257.425L91.3069 257.909L90.8224 260.057Z" fill="#808080"/>
<path d="M1.43165 356.253L0 354.58L1.67393 353.159L3.09459 354.833L1.43165 356.253ZM7.26842 351.276L5.83677 349.646L7.49971 348.225L8.93136 349.899L7.26842 351.276ZM13.1052 346.298L11.6735 344.624L13.3365 343.203L14.7681 344.877L13.1052 346.298ZM18.931 341.32L17.4993 339.646L19.1733 338.225L20.6049 339.899L18.931 341.32ZM24.7678 336.353L23.3361 334.668L24.999 333.248L26.4307 334.922L24.7678 336.353ZM30.6045 331.376L29.1729 329.702L30.8358 328.27L32.2675 329.955L30.6045 331.376ZM36.4303 326.398L35.0097 324.724L36.6726 323.292L38.1043 324.977L36.4303 326.398ZM42.2671 321.42L40.8354 319.746L42.5094 318.314L43.9411 319.999L42.2671 321.42ZM48.1039 316.442L46.9255 315.055L46.6282 314.834V314.768L47.8286 313.237L49.5576 314.592L48.1039 316.442ZM52.9936 310.253L51.2976 308.898L52.6412 307.18L54.3812 308.535L52.9936 310.253ZM57.7181 304.218L55.9891 302.863L57.3326 301.134L59.0726 302.489L57.7181 304.218ZM62.4426 298.172L60.7356 296.784L62.0901 295.055L63.8192 296.41L62.4426 298.172Z" fill="#F0B90B"/>
<path d="M66.1367 289.93L65.459 290.798L67.195 292.153L67.8728 291.285L66.1367 289.93Z" fill="#F0B90B"/>
<path d="M346.529 356.32L344.778 354.921L346.166 353.203L347.906 354.613L346.529 356.32ZM340.417 351.397L338.666 349.987L340.053 348.269L341.805 349.679L340.417 351.397ZM334.305 346.463L332.565 345.064L333.941 343.346L335.692 344.756L334.305 346.463ZM328.193 341.54L326.453 340.131L327.829 338.413L329.58 339.822L328.193 341.54ZM322.092 336.618L320.341 335.208L321.728 333.49L323.468 334.9L322.092 336.618ZM315.979 331.684L314.195 330.274L315.583 328.567L317.323 329.966L315.979 331.684ZM309.867 326.761L308.116 325.352L309.504 323.634L311.255 325.043L309.867 326.761ZM303.755 321.827L302.015 320.418L303.392 318.711L305.143 320.12L303.755 321.827ZM297.676 316.905L296.828 316.178L295.98 315.077L297.676 313.744L298.436 314.724L299.02 315.187L297.676 316.905ZM292.522 310.683L291.069 308.898L292.809 307.544L294.185 309.306L292.522 310.683ZM287.666 304.493L286.278 302.72L288.018 301.366L289.395 303.139L287.666 304.493ZM282.831 298.304L281.443 296.542L283.183 295.188L284.56 296.95L282.831 298.304Z" fill="#F0B90B"/>
<path d="M279.041 289.949L277.306 291.306L277.984 292.173L279.719 290.817L279.041 289.949Z" fill="#F0B90B"/>
<path d="M76.5391 360.108L74.5127 359.238L103.719 291.19L112.309 223.263L114.5 223.538L105.855 291.774L76.5391 360.108Z" fill="#F8D33A"/>
<path d="M138.078 359.866L135.92 359.48L153.706 259.649V142.473H155.908V259.847L155.897 259.936L138.078 359.866Z" fill="#F0B90B"/>
<path d="M173.727 15.132H171.524V359.678H173.727V15.132Z" fill="#F0B90B"/>
<path d="M107.661 360.504L108.157 358.357L110.304 358.853L109.809 361L107.661 360.504ZM108.895 355.13L109.357 352.95L111.494 353.445L110.998 355.582L108.895 355.13ZM110.139 349.767L110.635 347.631L112.782 348.126L112.287 350.263L110.139 349.767ZM111.383 344.404L111.879 342.256L114.027 342.752L113.531 344.899L111.383 344.404ZM112.628 339.041L113.124 336.893L115.26 337.389L114.764 339.536L112.628 339.041ZM113.861 333.677L114.368 331.53L116.504 332.025L115.965 334.228L113.861 333.677ZM115.106 328.314L115.601 326.167L117.749 326.662L117.253 328.81L115.106 328.314ZM116.35 322.951L116.846 320.803L118.993 321.299L118.498 323.446L116.35 322.951ZM117.595 317.577L118.09 315.44L120.227 315.936L119.731 318.072L117.595 317.577ZM118.828 312.202L119.324 310.066L121.471 310.561L120.976 312.698L118.828 312.202ZM120.073 306.839L120.568 304.692L122.716 305.198L122.22 307.335L120.073 306.839ZM121.317 301.476L121.813 299.328L123.96 299.824L123.465 302.026L121.317 301.476ZM122.572 296.124L123.057 293.976L125.205 294.472L124.709 296.674L122.572 296.124ZM123.806 290.76L124.301 288.613L126.449 289.108L125.953 291.311L123.806 290.76ZM125.05 285.397L125.546 283.195L127.693 283.69L127.198 285.838L125.05 285.397ZM126.295 280.034L126.79 277.831L128.938 278.327L128.442 280.474L126.295 280.034ZM127.539 274.671L128.079 272.556L130.215 273.052L129.72 275.199L127.539 274.671ZM128.773 269.307L129.268 267.16L131.416 267.656L130.92 269.803L128.773 269.307ZM130.017 263.944L130.513 261.742L132.66 262.248L132.165 264.385L130.017 263.944ZM131.262 258.57L131.757 256.422L133.894 256.918L133.409 259.066L131.262 258.57ZM132.539 253.416L132.638 251.213L134.841 251.313L134.742 253.515L132.539 253.416ZM132.781 247.91L132.88 245.707L135.083 245.795L134.995 247.998L132.781 247.91ZM133.024 242.403L133.112 240.201L135.314 240.3L135.226 242.502L133.024 242.403ZM133.255 236.897L133.354 234.694L135.557 234.782L135.457 236.985L133.255 236.897ZM133.497 231.39L133.596 229.188L135.799 229.287L135.7 231.489L133.497 231.39ZM133.739 225.884L133.828 223.681L136.03 223.77L135.942 225.972L133.739 225.884ZM133.971 220.378L134.07 218.175L136.272 218.274L136.184 220.477L133.971 220.378ZM134.213 214.871L134.312 212.669L136.515 212.757L136.416 214.959L134.213 214.871ZM134.455 209.365L134.554 207.162L136.757 207.261L136.658 209.464L134.455 209.365ZM134.698 203.858L134.786 201.656L136.988 201.744L136.9 203.946L134.698 203.858ZM134.929 198.352L135.028 196.149L137.231 196.249L137.131 198.451L134.929 198.352Z" fill="#2B2F36"/>
<path d="M308.083 360.35L306.75 358.599L308.501 357.256L309.79 359.007L308.083 360.35ZM304.779 355.945L303.446 354.194L305.197 352.861L306.53 354.612L304.779 355.945ZM301.475 351.54L300.143 349.789L301.883 348.456L303.226 350.207L301.475 351.54ZM298.171 347.135L296.839 345.395L298.59 344.051L299.922 345.802L298.171 347.135ZM294.867 342.73L293.524 340.979L295.275 339.646L296.618 341.397L294.867 342.73ZM291.564 338.325L290.231 336.574L291.982 335.23L293.315 336.981L291.564 338.325ZM288.26 333.919L286.663 332.345L288.414 331.001L289.757 332.752L288.26 333.919ZM284.956 329.514L283.359 327.962L285.11 326.629L286.443 328.38L284.956 329.514ZM281.652 325.109L280.055 323.589L281.806 322.246L283.15 323.997L281.652 325.109ZM278.348 320.704L277.016 318.953L278.767 317.609L280.099 319.361L278.348 320.704ZM275.044 316.299L273.701 314.548L275.452 313.215L276.795 314.966L275.044 316.299ZM271.741 311.894L270.408 310.143L272.159 308.81L273.492 310.55L271.741 311.894ZM268.437 307.489L267.093 305.738L268.844 304.394L270.188 306.145L268.437 307.489ZM265.133 303.084L263.767 301.3L263.668 300.903L265.144 300.529L265.661 300.143L266.884 301.751L265.133 303.084ZM262.864 297.698L262.325 295.562L264.461 295.022L265.001 297.159L262.864 297.698ZM261.521 292.357L260.981 290.221L263.118 289.681L263.657 291.817L261.521 292.357ZM260.177 287.016L259.637 284.879L261.774 284.351L262.314 286.487L260.177 287.016ZM258.834 281.675L258.294 279.538L260.43 279.01L260.97 281.146L258.834 281.675ZM257.49 276.345L256.95 274.208L259.087 273.668L259.626 275.805L257.49 276.345ZM256.146 271.003L255.607 268.867L257.743 268.327L258.283 270.464L256.146 271.003ZM254.803 265.662L254.263 263.526L256.4 262.986L256.939 265.122L254.803 265.662ZM253.459 260.321L252.931 258.184L255.067 257.645L255.596 259.781L253.459 260.321Z" fill="#808080"/>
<path d="M268.712 360.108L239.396 291.785L239.374 291.652L232.095 243.053L234.275 242.723L241.533 291.179L270.739 359.238L268.712 360.108Z" fill="#F8D33A"/>
<path d="M207.161 359.866L189.343 259.847V90.6358H191.545V259.649L209.331 359.48L207.161 359.866Z" fill="#F0B90B"/>
<path d="M234.903 358.853L237.106 358.357L237.601 360.504L235.399 361L234.903 358.853ZM233.659 353.489L235.861 352.994L236.357 355.13L234.22 355.626L233.659 353.489ZM232.425 348.126L234.573 347.631L235.068 349.767L232.866 350.263L232.425 348.126ZM231.181 342.752L233.328 342.256L233.824 344.404L231.676 344.899L231.181 342.752ZM229.936 337.389L232.139 336.893L232.634 339.04L230.487 339.536L229.936 337.389ZM228.736 332.025L230.938 331.53L231.434 333.677L229.298 334.173L228.736 332.025ZM227.502 326.662L229.705 326.167L230.19 328.314L228.053 328.81L227.502 326.662ZM226.258 321.299L228.461 320.803L228.956 322.951L226.809 323.446L226.258 321.299ZM224.992 315.936L227.194 315.44L227.69 317.588L225.542 318.083L224.992 315.936ZM223.758 310.572L225.895 310.066L226.39 312.268L224.254 312.764L223.758 310.572ZM222.514 305.209L224.716 304.714L225.212 306.85L223.064 307.346L222.514 305.209ZM221.269 299.835L223.417 299.35L223.912 301.487L221.71 301.982L221.269 299.835ZM220.036 294.472L222.172 293.976L222.668 296.124L220.465 296.619L220.036 294.472ZM218.813 289.075L220.95 288.58L221.445 290.727L219.309 291.223L218.813 289.075ZM217.569 283.712L219.716 283.217L220.212 285.419L218.009 285.915L217.569 283.712ZM216.324 278.349L218.472 277.853L218.968 280.056L216.82 280.552L216.324 278.349ZM215.08 273.019L217.283 272.556L217.778 274.704L215.631 275.199L215.08 273.019ZM213.847 267.656L215.983 267.16L216.49 269.296L214.342 269.792L213.847 267.656ZM212.602 262.292L214.75 261.797L215.245 263.944L213.098 264.429L212.602 262.292ZM211.358 256.929L213.505 256.422L214.001 258.57L211.853 259.066L211.358 256.929ZM210.444 251.302L212.646 251.235L212.712 253.438L210.51 253.515L210.444 251.302ZM210.267 245.795L212.47 245.729L212.547 247.932L210.345 248.009L210.267 245.795ZM210.08 240.289L212.283 240.223L212.36 242.425L210.157 242.491L210.08 240.289ZM209.904 234.782L212.107 234.705L212.184 236.908L209.981 236.985L209.904 234.782ZM209.728 229.276L211.93 229.21L212.007 231.412L209.805 231.489L209.728 229.276ZM209.552 223.77L211.754 223.703L211.82 225.906L209.618 225.983L209.552 223.77ZM209.375 218.263L211.578 218.186L211.644 220.389L209.441 220.455L209.375 218.263ZM209.199 212.757L211.402 212.68L211.479 214.882L209.276 214.959L209.199 212.757ZM209.012 207.25L211.214 207.173L211.292 209.376L209.089 209.453L209.012 207.25ZM208.836 201.744L211.038 201.678L211.115 203.88L208.913 203.947L208.836 201.744ZM208.66 196.238L210.862 196.171L210.939 198.374L208.737 198.44L208.66 196.238ZM208.483 190.731L210.686 190.654L210.752 192.857L208.549 192.934L208.483 190.731ZM208.307 185.225L210.51 185.159L210.576 187.361L208.373 187.438L208.307 185.225ZM208.131 179.718L210.333 179.652L210.4 181.855L208.197 181.921L208.131 179.718ZM207.944 174.212L210.146 174.135L210.212 176.337L208.01 176.403L207.944 174.212ZM207.767 168.706L209.97 168.628L210.047 170.831L207.845 170.908L207.767 168.706ZM207.591 163.199L209.794 163.133L209.871 165.336L207.668 165.413L207.591 163.199Z" fill="#2B2F36"/>
<path d="M172.626 0.540039L180.467 8.39216L172.626 16.2333L164.773 8.39216L172.626 0.540039Z" fill="#F8D33A"/>
<path d="M190.367 83.1361L193.583 86.3518L190.367 89.5566L187.152 86.3518L190.367 83.1361ZM190.367 80.0195L184.046 86.3518L190.367 92.6732L196.7 86.3518L190.367 80.0195Z" fill="#F0B90B"/>
<path d="M154.631 133.916L157.813 137.099L154.598 140.303L151.415 137.099L154.631 133.883V133.916ZM154.631 130.766L148.298 137.099L154.631 143.42L160.952 137.099L154.631 130.766Z" fill="#F0B90B"/>
</svg>
