<svg width="427" height="260" viewBox="0 0 427 260" fill="none" xmlns="http://www.w3.org/2000/svg">
<path d="M198.442 150.926L179.951 132.421L198.442 113.93L216.933 132.421L198.442 150.926ZM181.906 132.421L198.442 148.999L214.978 132.421L198.442 115.898L181.906 132.421Z" fill="#F0B90B"/>
<path d="M198.442 124.622L206.261 132.442L198.442 140.261L190.623 132.442L198.442 124.622Z" fill="url(#paint0_linear)"/>
<path d="M198.442 124.616L206.261 132.421L198.442 140.254L190.623 132.421L198.442 124.616ZM198.442 122.661L197.468 123.642L189.642 131.461L188.668 132.421L189.642 133.402L197.468 141.221L198.442 142.195L199.416 141.221L207.242 133.402L208.216 132.421L207.242 131.447L199.416 123.628L198.442 122.647V122.661Z" fill="#474D57"/>
<path d="M198.442 171.434L197.468 170.453L198.435 169.472L199.423 170.453L198.442 171.434Z" fill="#F0B90B"/>
<path d="M196.073 169.03L195.085 168.049L196.059 167.068L197.04 168.049L196.073 169.03ZM193.697 166.654L192.709 165.673L193.683 164.692L194.664 165.673L193.697 166.654ZM191.321 164.278L190.333 163.297L191.307 162.316L192.288 163.297L191.321 164.278ZM188.945 161.902L187.957 160.921L188.931 159.94L189.912 160.921L188.945 161.902ZM186.568 159.525L185.581 158.545L186.555 157.564L187.535 158.545L186.568 159.525ZM184.22 157.149L183.204 156.196L184.144 155.215L185.152 156.162L184.22 157.149ZM181.816 154.773L180.828 153.834L181.802 152.853L182.783 153.834L181.816 154.773ZM179.447 152.452L178.459 151.471L179.433 150.491L180.414 151.471L179.447 152.452ZM177.064 150.076L176.083 149.095L177.057 148.114L178.065 149.068L177.064 150.076ZM174.695 147.7L173.707 146.719L174.681 145.738L175.662 146.719L174.695 147.7ZM172.312 145.324L171.331 144.336L172.305 143.362L173.285 144.336L172.312 145.324ZM169.908 142.948L168.955 141.932L169.963 140.986L170.902 141.995L169.908 142.948ZM167.559 140.572L166.578 139.584L167.552 138.61L168.533 139.584L167.559 140.572ZM165.183 138.195L164.202 137.208L165.176 136.234L166.15 137.208L165.183 138.195ZM162.807 135.819L161.826 134.832L162.8 133.858L163.774 134.832L162.807 135.819Z" fill="#F0B90B"/>
<path d="M160.424 133.415L159.443 132.435L160.424 131.461L161.405 132.428L160.424 133.415Z" fill="#F0B90B"/>
<path d="M162.8 131.039L161.819 130.072L162.8 129.085L163.781 130.059L162.8 131.039ZM165.176 128.663L164.195 127.696L165.176 126.708L166.157 127.682L165.176 128.663ZM167.552 126.287L166.572 125.32L167.552 124.332L168.533 125.306L167.552 126.287ZM169.929 123.911L168.948 122.944L169.929 121.956L170.909 122.93L169.929 123.911ZM172.305 121.535L171.324 120.568L172.305 119.58L173.286 120.554L172.305 121.535ZM174.688 119.159L173.7 118.192L174.688 117.204L175.662 118.178L174.688 119.159ZM177.057 116.783L176.076 115.816L177.057 114.828L178.038 115.802L177.057 116.783ZM179.44 114.406L178.452 113.439L179.44 112.452L180.414 113.426L179.44 114.406ZM181.816 112.03L180.828 111.063L181.816 110.076L182.79 111.049L181.816 112.03ZM184.192 109.654L183.205 108.687L184.192 107.699L185.166 108.673L184.192 109.654ZM186.568 107.278L185.581 106.311L186.568 105.323L187.542 106.297L186.568 107.278ZM188.945 104.902L187.957 103.935L188.945 102.947L189.919 103.921L188.945 104.902ZM191.321 102.526L190.333 101.559L191.321 100.571L192.295 101.545L191.321 102.526ZM193.697 100.15L192.709 99.1826L193.697 98.1949L194.671 99.1688L193.697 100.15ZM196.073 97.7735L195.085 96.8065L196.073 95.8187L197.047 96.7927L196.073 97.7735Z" fill="#F0B90B"/>
<path d="M198.449 95.3974L197.461 94.4234L198.442 93.4357L199.416 94.4165L198.449 95.3974Z" fill="#F0B90B"/>
<path d="M234.091 131.039L233.117 130.065L234.084 129.078L235.065 130.065L234.091 131.039ZM231.715 128.663L230.741 127.689L231.708 126.702L232.688 127.689L231.715 128.663ZM229.338 126.287L228.364 125.313L229.331 124.325L230.312 125.313L229.338 126.287ZM226.997 123.911L225.988 122.972L226.921 121.949L227.936 122.902L226.997 123.911ZM224.586 121.535L223.612 120.561L224.579 119.573L225.56 120.561L224.586 121.535ZM222.21 119.159L221.229 118.185L222.203 117.225L223.184 118.212L222.21 119.159ZM219.834 116.783L218.853 115.843L219.82 114.855L220.808 115.843L219.834 116.783ZM217.437 114.406L216.456 113.432L217.423 112.445L218.411 113.432L217.437 114.406ZM215.061 112.03L214.08 111.056L215.047 110.069L216.035 111.056L215.061 112.03ZM212.671 109.627L211.731 108.618L212.726 107.665L213.679 108.687L212.671 109.627ZM210.329 107.25L209.348 106.276L210.315 105.289L211.303 106.276L210.329 107.25ZM207.953 104.874L206.972 103.9L207.939 102.913L208.927 103.9L207.953 104.874ZM205.577 102.498L204.596 101.524L205.563 100.536L206.551 101.524L205.577 102.498ZM203.201 100.122L202.241 99.1757L203.208 98.1879L204.196 99.1757L203.201 100.122ZM200.859 97.7735L199.878 96.7995L200.845 95.8118L201.833 96.7995L200.859 97.7735Z" fill="#F0B90B"/>
<path d="M236.46 133.416L235.479 132.442L236.46 131.454L237.441 132.435L236.46 133.416Z" fill="#F0B90B"/>
<path d="M200.811 169.03L199.837 168.056L200.811 167.082L201.799 168.049L200.811 169.03ZM203.187 166.654L202.241 165.707L203.215 164.734L204.202 165.701L203.187 166.654ZM205.563 164.278L204.589 163.304L205.563 162.33L206.551 163.297L205.563 164.278ZM207.905 161.902L206.965 160.893L207.974 159.954L208.927 160.955L207.905 161.902ZM210.315 159.525L209.341 158.551L210.315 157.578L211.303 158.545L210.315 159.525ZM212.692 157.149L211.718 156.175L212.692 155.201L213.679 156.168L212.692 157.149ZM215.068 154.773L214.094 153.834L215.068 152.86L216.055 153.834L215.068 154.773ZM217.437 152.452L216.456 151.478L217.437 150.504L218.418 151.471L217.437 152.452ZM219.806 150.076L218.818 149.075L219.792 148.101L220.78 149.068L219.806 150.076ZM222.217 147.7L221.208 146.761L222.155 145.752L223.17 146.685L222.217 147.7ZM224.565 145.324L223.584 144.35L224.565 143.376L225.546 144.343L224.565 145.324ZM226.941 142.948L225.961 141.974L226.941 141L227.922 141.967L226.941 142.948ZM229.318 140.572L228.337 139.598L229.318 138.617L230.298 139.584L229.318 140.572ZM231.694 138.195L230.713 137.221L231.694 136.248L232.675 137.215L231.694 138.195ZM234.07 135.819L233.089 134.845L234.07 133.865L235.051 134.838L234.07 135.819Z" fill="#F0B90B"/>
<path d="M198.442 195.402L135.475 132.421L198.442 69.4534L261.41 132.421L198.442 195.402ZM137.429 132.421L198.442 193.434L259.455 132.421L198.442 71.422L137.429 132.421Z" fill="#76808F"/>
<path d="M196.024 225.512L195.057 224.538L196.024 223.598L196.998 224.565L196.024 225.512ZM193.6 223.087L192.633 222.113L193.607 221.139L194.581 222.106L193.6 223.087ZM191.189 220.663L190.222 219.689L191.196 218.715L192.17 219.682L191.189 220.663ZM188.765 218.238L187.798 217.271L188.779 216.29L189.746 217.264L188.765 218.238ZM186.347 215.814L185.373 214.847L186.354 213.866L187.321 214.84L186.347 215.814ZM183.923 213.389L182.949 212.422L183.93 211.441L184.897 212.415L183.923 213.389ZM181.498 210.965L180.531 209.998L181.505 209.024L182.472 209.991L181.498 210.965ZM179.074 208.547L178.065 207.573L179.039 206.599L180.006 207.566L179.074 208.547ZM176.649 206.123L175.682 205.149L176.656 204.175L177.63 205.142L176.649 206.123ZM174.225 203.698L173.258 202.724L174.232 201.75L175.206 202.717L174.225 203.698ZM171.8 201.274L170.833 200.307L171.814 199.326L172.781 200.293L171.8 201.274ZM169.383 198.849L168.409 197.882L169.39 196.901L170.357 197.875L169.383 198.849ZM166.958 196.425L165.984 195.458L166.965 194.477L167.932 195.451L166.958 196.425ZM164.534 194L163.56 193.033L164.541 192.052L165.508 193.026L164.534 194ZM162.109 191.576L161.142 190.609L162.116 189.635L163.083 190.602L162.109 191.576ZM159.685 189.158L158.718 188.184L159.692 187.21L160.666 188.177L159.685 189.158ZM157.26 186.734L156.293 185.76L157.267 184.786L158.241 185.753L157.26 186.734ZM154.836 184.309L153.869 183.335L154.843 182.361L155.817 183.328L154.836 184.309ZM152.411 181.885L151.444 180.918L152.425 179.937L153.392 180.911L152.411 181.885ZM149.994 179.46L149.02 178.493L150.001 177.512L150.968 178.486L149.994 179.46ZM147.569 177.036L146.595 176.069L147.576 175.088L148.543 176.062L147.569 177.036ZM145.145 174.611L144.178 173.644L145.152 172.67L146.119 173.637L145.145 174.611ZM142.72 172.187L141.753 171.22L142.727 170.246L143.694 171.213L142.72 172.187ZM140.296 169.769L139.329 168.795L140.303 167.821L141.277 168.788L140.296 169.769ZM137.871 167.345L136.904 166.371L137.878 165.397L138.852 166.364L137.871 167.345ZM135.447 164.92L134.48 163.953L135.461 162.972L136.428 163.939L135.447 164.92ZM133.029 162.496L132.055 161.529L133.036 160.548L134.003 161.522L133.029 162.496ZM130.577 160.05L129.603 159.083L130.584 158.102L131.551 159.076L130.577 160.05ZM128.153 157.626L127.179 156.659L128.159 155.685L129.127 156.652L128.153 157.626ZM125.728 155.215L124.761 154.248L125.735 153.274L126.702 154.241L125.728 155.215ZM123.304 152.791L122.337 151.824L123.311 150.85L124.278 151.817L123.304 152.791ZM120.879 150.373L119.912 149.399L120.886 148.425L121.86 149.392L120.879 150.373ZM118.455 147.949L117.488 146.975L118.462 146.001L119.435 146.968L118.455 147.949ZM116.037 145.545L115.063 144.578L116.037 143.597L117.011 144.571L116.037 145.545ZM113.613 143.12L112.639 142.153L113.619 141.173L114.587 142.146L113.613 143.12ZM111.188 140.71L110.214 139.743L111.195 138.762L112.162 139.736L111.188 140.71ZM108.764 138.285L107.797 137.318L108.77 136.344L109.738 137.311L108.764 138.285ZM106.339 135.861L105.372 134.894L106.346 133.92L107.313 134.887L106.339 135.861Z" fill="#F0B90B"/>
<path d="M103.913 131.46L102.936 132.437L103.913 133.413L104.89 132.437L103.913 131.46Z" fill="#808080"/>
<path d="M106.346 130.984L105.372 130.003L106.339 129.036L107.313 130.01L106.346 130.984ZM108.77 128.56L107.79 127.586L108.764 126.619L109.738 127.593L108.77 128.56ZM111.195 126.135L110.214 125.154L111.188 124.187L112.162 125.168L111.195 126.135ZM113.619 123.711L112.639 122.751L113.613 121.777L114.587 122.751L113.619 123.711ZM116.037 121.286L115.063 120.312L116.03 119.338L117.011 120.319L116.037 121.286ZM118.462 118.862L117.488 117.915L118.455 116.941L119.435 117.922L118.462 118.862ZM120.886 116.437L119.912 115.463L120.879 114.496L121.86 115.47L120.886 116.437ZM123.311 114.02L122.337 113.039L123.304 112.072L124.278 113.046L123.311 114.02ZM125.735 111.595L124.754 110.614L125.728 109.647L126.702 110.621L125.735 111.595ZM128.159 109.171L127.179 108.19L128.153 107.223L129.127 108.197L128.159 109.171ZM130.584 106.746L129.603 105.772L130.577 104.798L131.551 105.779L130.584 106.746ZM133.008 104.322L132.028 103.348L132.995 102.374L133.975 103.355L133.008 104.322ZM135.426 101.897L134.452 100.923L135.419 99.9493L136.4 100.93L135.426 101.897ZM137.851 99.4727L136.877 98.4987L137.844 97.5317L138.824 98.5056L137.851 99.4727ZM140.275 97.0482L139.301 96.0743L140.268 95.1072L141.249 96.0812L140.275 97.0482ZM142.699 94.6306L141.726 93.6498L142.693 92.6827L143.667 93.6567L142.699 94.6306ZM145.124 92.2061L144.143 91.2253L145.117 90.2583L146.091 91.2322L145.124 92.2061ZM147.548 89.7816L146.568 88.8008L147.542 87.8338L148.516 88.8146L147.548 89.7816ZM149.973 87.3572L148.992 86.3832L149.966 85.4093L150.94 86.3901L149.973 87.3572ZM152.391 84.9327L151.417 83.9587L152.384 82.9848L153.364 83.9656L152.391 84.9327ZM154.815 82.5082L153.841 81.5342L154.808 80.5603L155.789 81.5411L154.815 82.5082ZM157.24 80.0837L156.266 79.1098L157.233 78.1427L158.213 79.1167L157.24 80.0837ZM159.664 77.6592L158.725 76.6853L159.692 75.7182L160.666 76.6922L159.664 77.6592ZM162.088 75.2416L161.108 74.2608L162.082 73.2937L163.056 74.2677L162.088 75.2416ZM164.513 72.8171L163.56 71.8363L164.534 70.8693L165.508 71.8432L164.513 72.8171ZM166.937 70.3927L165.957 69.4187L166.931 68.4448L167.904 69.4256L166.937 70.3927ZM169.362 67.9682L168.395 66.9942L169.362 66.0203L170.343 67.0011L169.362 67.9682ZM171.78 65.5437L170.806 64.5697L171.773 63.5958L172.753 64.5766L171.78 65.5437ZM174.204 63.1192L173.23 62.1453L174.197 61.1782L175.178 62.1522L174.204 63.1192ZM176.629 60.6947L175.655 59.7208L176.622 58.7537L177.596 59.7277L176.629 60.6947ZM179.053 58.2771L178.065 57.2963L179.032 56.3292L180.006 57.3032L179.053 58.2771ZM181.477 55.8526L180.504 54.8718L181.471 53.9048L182.445 54.8787L181.477 55.8526ZM183.902 53.4282L182.9 52.4473L183.874 51.4803L184.848 52.4542L183.902 53.4282ZM186.326 51.0037L185.346 50.0297L186.32 49.0558L187.293 50.0366L186.326 51.0037ZM188.744 48.5792L187.77 47.6052L188.737 46.6313L189.718 47.6121L188.744 48.5792ZM191.169 46.1547L190.195 45.1808L191.162 44.2068L192.142 45.1877L191.169 46.1547ZM193.593 43.7302L192.619 42.7563L193.586 41.7892L194.567 42.7632L193.593 43.7302ZM196.017 41.3057L195.044 40.3318L196.011 39.3647L196.985 40.3387L196.017 41.3057Z" fill="#F0B90B"/>
<path d="M198.431 36.9348L197.454 37.9116L198.431 38.8885L199.408 37.9116L198.431 36.9348Z" fill="#808080"/>
<path d="M290.538 130.984L289.571 130.01L290.545 129.036L291.512 130.003L290.538 130.984ZM288.114 128.56L287.146 127.586L288.12 126.612L289.094 127.579L288.114 128.56ZM285.689 126.135L284.722 125.168L285.696 124.187L286.67 125.154L285.689 126.135ZM283.265 123.711L282.298 122.744L283.271 121.763L284.245 122.737L283.265 123.711ZM280.847 121.286L279.873 120.319L280.854 119.338L281.821 120.312L280.847 121.286ZM278.422 118.862L277.449 117.895L278.429 116.921L279.396 117.888L278.422 118.862ZM275.998 116.437L275.024 115.47L276.005 114.496L276.972 115.463L275.998 116.437ZM273.574 114.02L272.606 113.046L273.58 112.072L274.547 113.039L273.574 114.02ZM271.149 111.595L270.182 110.621L271.156 109.647L272.123 110.614L271.149 111.595ZM268.725 109.171L267.757 108.197L268.731 107.223L269.705 108.19L268.725 109.171ZM266.3 106.746L265.333 105.779L266.307 104.798L267.281 105.772L266.3 106.746ZM263.876 104.322L262.909 103.355L263.882 102.374L264.856 103.348L263.876 104.322ZM261.458 101.897L260.484 100.93L261.465 99.9493L262.432 100.923L261.458 101.897ZM259.033 99.4727L258.06 98.5056L259.04 97.5317L260.007 98.4987L259.033 99.4727ZM256.609 97.0482L255.635 96.0812L256.616 95.1072L257.583 96.0743L256.609 97.0482ZM254.185 94.6306L253.217 93.6567L254.191 92.6827L255.158 93.6498L254.185 94.6306ZM251.76 92.2061L250.793 91.2322L251.767 90.2859L252.741 91.2529L251.76 92.2061ZM249.336 89.7816L248.369 88.8146L249.342 87.8338L250.316 88.8008L249.336 89.7816ZM246.911 87.3572L245.944 86.3901L246.918 85.4093L247.892 86.3832L246.911 87.3572ZM244.487 84.9327L243.52 83.9656L244.5 82.9848L245.467 83.9587L244.487 84.9327ZM242.069 82.5082L241.095 81.5411L242.076 80.5603L243.043 81.5342L242.069 82.5082ZM239.644 80.0837L238.671 79.1167L239.651 78.1427L240.618 79.1098L239.644 80.0837ZM237.22 77.6661L236.253 76.6922L237.227 75.7182L238.194 76.6853L237.22 77.6661ZM234.796 75.2416L233.828 74.2677L234.802 73.2937L235.769 74.2608L234.796 75.2416ZM232.371 72.8171L231.404 71.8432L232.378 70.8693L233.352 71.8363L232.371 72.8171ZM229.947 70.3927L228.98 69.4256L229.953 68.4448L230.927 69.4187L229.947 70.3927ZM227.522 67.9682L226.555 67.0011L227.536 66.0203L228.503 66.9942L227.522 67.9682ZM225.104 65.5437L224.131 64.5766L225.111 63.5958L226.078 64.5697L225.104 65.5437ZM222.68 63.1192L221.706 62.1522L222.687 61.1782L223.654 62.1453L222.68 63.1192ZM220.255 60.6947L219.282 59.7277L220.262 58.7537L221.229 59.7208L220.255 60.6947ZM217.831 58.2771L216.864 57.3032L217.838 56.3292L218.805 57.2963L217.831 58.2771ZM215.407 55.8526L214.439 54.8787L215.413 53.9048L216.387 54.8718L215.407 55.8526ZM212.982 53.4282L212.015 52.4542L212.989 51.4803L213.963 52.4473L212.982 53.4282ZM210.53 51.0037L209.563 50.0366L210.537 49.0558L211.511 50.0297L210.53 51.0037ZM208.105 48.5792L207.138 47.6121L208.119 46.6313L209.086 47.6052L208.105 48.5792ZM205.688 46.1547L204.714 45.1877L205.695 44.2068L206.662 45.1808L205.688 46.1547ZM203.263 43.7302L202.289 42.7632L203.27 41.7892L204.237 42.7563L203.263 43.7302ZM200.86 41.3057L199.893 40.3387L200.867 39.3647L201.834 40.3318L200.86 41.3057Z" fill="#F0B90B"/>
<path d="M292.963 131.46L291.986 132.437L292.963 133.413L293.94 132.437L292.963 131.46Z" fill="#808080"/>
<path d="M200.86 225.511L199.886 224.531L200.86 223.598L201.834 224.572L200.86 225.511ZM203.284 223.087L202.303 222.106L203.277 221.139L204.251 222.113L203.284 223.087ZM205.709 220.662L204.728 219.682L205.702 218.715L206.676 219.689L205.709 220.662ZM208.133 218.238L207.152 217.264L208.119 216.29L209.1 217.271L208.133 218.238ZM210.551 215.814L209.577 214.84L210.544 213.866L211.525 214.846L210.551 215.814ZM212.975 213.389L212.001 212.415L212.968 211.448L213.949 212.422L212.975 213.389ZM215.4 210.965L214.426 209.991L215.393 209.024L216.367 209.997L215.4 210.965ZM217.824 208.547L216.85 207.566L217.817 206.599L218.819 207.573L217.824 208.547ZM220.249 206.122L219.268 205.142L220.242 204.175L221.216 205.149L220.249 206.122ZM222.673 203.698L221.692 202.717L222.666 201.75L223.64 202.724L222.673 203.698ZM225.098 201.273L224.117 200.293L225.091 199.326L226.065 200.306L225.098 201.273ZM227.522 198.849L226.541 197.875L227.508 196.901L228.489 197.882L227.522 198.849ZM229.94 196.425L228.966 195.451L229.933 194.477L230.914 195.457L229.94 196.425ZM232.364 194L231.39 193.026L232.357 192.052L233.338 193.033L232.364 194ZM234.789 191.576L233.815 190.602L234.782 189.635L235.756 190.609L234.789 191.576ZM237.213 189.158L236.239 188.177L237.206 187.21L238.18 188.184L237.213 189.158ZM239.638 186.733L238.657 185.753L239.631 184.786L240.605 185.76L239.638 186.733ZM242.062 184.309L241.081 183.328L242.055 182.361L243.029 183.335L242.062 184.309ZM244.487 181.884L243.506 180.911L244.473 179.937L245.454 180.917L244.487 181.884ZM246.904 179.46L245.93 178.486L246.897 177.512L247.878 178.493L246.904 179.46ZM249.329 177.036L248.355 176.062L249.322 175.088L250.303 176.068L249.329 177.036ZM251.753 174.611L250.779 173.637L251.746 172.67L252.727 173.644L251.753 174.611ZM254.178 172.193L253.204 171.213L254.171 170.246L255.145 171.22L254.178 172.193ZM256.602 169.769L255.621 168.788L256.595 167.821L257.569 168.795L256.602 169.769ZM259.027 167.344L258.046 166.364L259.02 165.397L259.994 166.371L259.027 167.344ZM261.451 164.92L260.47 163.939L261.444 162.972L262.418 163.953L261.451 164.92ZM263.869 162.496L262.895 161.522L263.862 160.548L264.843 161.528L263.869 162.496ZM266.293 160.071L265.319 159.097L266.286 158.123L267.267 159.104L266.293 160.071ZM268.718 157.647L267.744 156.673L268.711 155.706L269.692 156.679L268.718 157.647ZM271.142 155.222L270.168 154.248L271.135 153.281L272.109 154.255L271.142 155.222ZM273.567 152.798L272.593 151.824L273.56 150.857L274.534 151.831L273.567 152.798ZM275.991 150.38L275.01 149.399L275.984 148.432L276.958 149.406L275.991 150.38ZM278.416 147.955L277.435 146.975L278.409 146.008L279.383 146.982L278.416 147.955ZM280.84 145.531L279.859 144.557L280.826 143.583L281.807 144.564L280.84 145.531ZM283.258 143.107L282.284 142.133L283.251 141.159L284.232 142.139L283.258 143.107ZM285.682 140.682L284.708 139.708L285.675 138.734L286.656 139.715L285.682 140.682ZM288.107 138.258L287.147 137.256L288.114 136.289L289.094 137.263L288.107 138.258ZM290.531 135.833L289.557 134.859L290.524 133.892L291.498 134.866L290.531 135.833Z" fill="#F0B90B"/>
<path d="M193.572 260L192.571 259.026L193.545 258.052L194.519 259.026L193.572 260ZM188.703 255.13L187.736 254.156L188.709 253.182L189.683 254.156L188.703 255.13ZM183.867 250.295L182.893 249.328L183.867 248.347L184.841 249.321L183.867 250.295ZM178.998 245.46L178.024 244.486L179.005 243.505L179.972 244.479L178.998 245.46ZM174.128 240.59L173.154 239.616L174.135 238.636L175.109 239.609L174.128 240.59ZM169.258 235.721L168.284 234.747L169.265 233.766L170.239 234.74L169.258 235.721ZM164.389 230.885L163.38 229.815L164.361 228.841L165.335 229.815L164.389 230.885ZM159.553 226.016L158.517 224.98L159.491 224.006L160.465 224.98L159.553 226.016ZM154.684 221.146L153.71 220.172L154.684 219.198L155.658 220.172L154.684 221.146ZM149.745 216.18L148.771 215.206L149.745 214.232L150.719 215.206L149.745 216.18ZM144.91 211.31L143.936 210.343L144.91 209.362L145.884 210.336L144.91 211.31ZM140.075 206.475L139.101 205.501L140.075 204.52L141.049 205.494L140.075 206.475ZM135.205 201.605L134.231 200.631L135.212 199.65L136.186 200.624L135.205 201.605ZM130.335 196.735L129.361 195.761L130.342 194.788L131.316 195.761L130.335 196.735ZM125.403 191.824L124.436 190.85L125.41 189.876L126.384 190.85L125.403 191.824ZM120.568 186.989L119.594 186.015L120.568 185.041L121.542 186.015L120.568 186.989ZM115.699 182.119L114.725 181.145L115.699 180.172L116.673 181.145L115.699 182.119ZM110.829 177.25L109.855 176.276L110.829 175.302L111.803 176.276L110.829 177.25ZM105.959 172.415L104.985 171.441L105.959 170.46L106.933 171.434L105.959 172.415ZM101.089 167.545L100.116 166.571L101.096 165.59L102.063 166.564L101.089 167.545ZM96.2543 162.71L95.2804 161.736L96.2612 160.755L97.2352 161.729L96.2543 162.71ZM91.3846 157.84L90.3416 156.783L91.3225 155.809L92.2964 156.776L91.3846 157.84ZM86.5149 152.97L85.5065 151.913L86.4873 150.94L87.4612 151.913L86.5149 152.97ZM81.6798 148.101L80.7058 147.127L81.6798 146.153L82.6537 147.127L81.6798 148.101ZM76.8101 143.231L75.8361 142.257L76.8101 141.283L77.784 142.257L76.8101 143.231ZM71.9749 138.396L71.001 137.422L71.9749 136.448L72.9489 137.422L71.9749 138.396Z" fill="#474D57"/>
<path d="M66.9808 133.415L66 132.435L66.9808 131.461L67.9617 132.435H67.9548H67.9617L66.9808 133.415Z" fill="#808080"/>
<path d="M71.8504 128.539L70.8765 127.586L71.8504 126.612L72.8243 127.586L71.8504 128.539ZM76.6856 123.669L75.7116 122.695L76.6856 121.721L77.6595 122.695L76.6856 123.669ZM81.5553 118.834L80.5813 117.853L81.5553 116.879L82.5292 117.86L81.5553 118.834ZM86.4249 113.964L85.5063 112.956L86.4733 111.982L87.4542 112.963L86.4249 113.964ZM91.2946 109.095L90.3414 108.086L91.3154 107.112L92.2962 108.093L91.2946 109.095ZM96.1643 104.225L95.1835 103.244L96.1574 102.277L97.1383 103.251L96.1643 104.225ZM100.999 99.3898L100.019 98.4159L100.993 97.442L101.973 98.4159L100.999 99.3898ZM105.835 94.5202L104.861 93.5462L105.835 92.5723L106.809 93.5462L105.835 94.5202ZM110.704 89.685L109.73 88.7111L110.704 87.7371L111.678 88.7111L110.704 89.685ZM115.574 84.8153L114.6 83.8414L115.574 82.8674L116.548 83.8414L115.574 84.8153ZM120.444 79.9801L119.47 78.9993L120.444 78.0254L121.418 79.0062L120.444 79.9801ZM125.279 75.1104L124.305 74.1296L125.272 73.1557L126.253 74.1365L125.279 75.1104ZM130.149 70.2753L129.168 69.2944L130.142 68.3205L131.123 69.3013L130.149 70.2753ZM135.018 65.4056L134.037 64.4247L135.011 63.4508L135.992 64.4316L135.018 65.4056ZM139.853 60.5359L138.88 59.562L139.853 58.588L140.827 59.562L139.853 60.5359ZM144.689 55.7007L143.715 54.7268L144.689 53.7528L145.663 54.7268L144.689 55.7007ZM149.745 50.6376L148.771 49.6637L149.745 48.6897L150.719 49.6637L149.745 50.6376ZM154.615 45.8025L153.641 44.8285L154.615 43.8546L155.588 44.8285L154.615 45.8025ZM159.484 40.9328L158.51 39.9588L159.484 38.9849L160.458 39.9657L159.484 40.9328ZM164.354 36.0976L163.38 35.027L164.354 34.053L165.335 35.0339L164.354 36.0976ZM169.189 31.2279L168.25 30.1918L169.224 29.2179L170.204 30.1987L169.189 31.2279ZM174.059 26.3928L173.119 25.3566L174.093 24.3827L175.074 25.3566L174.059 26.3928ZM178.894 21.5576L177.92 20.5837L178.894 19.6097L179.868 20.5837L178.894 21.5576ZM183.764 16.7224L182.79 15.7485L183.764 14.7746L184.738 15.7485L183.764 16.7224ZM188.599 11.8527L187.735 10.713L188.709 9.73908L189.683 10.713L188.599 11.8527ZM193.468 7.01758L192.571 5.84333L193.544 4.86938L194.518 5.84333L193.468 7.01758Z" fill="#474D57"/>
<path d="M198.435 -3.36862e-05L197.458 0.976807L198.435 1.95365L199.412 0.976807L198.435 -3.36862e-05Z" fill="#808080"/>
<path d="M325.033 128.539L324.059 127.586L325.033 126.612L326.007 127.586L325.033 128.539ZM320.198 123.669L319.224 122.695L320.198 121.721L321.172 122.695L320.198 123.669ZM315.329 118.834L314.355 117.86L315.329 116.879L316.302 117.853L315.329 118.834ZM310.493 113.964L309.519 112.99L310.493 112.01L311.467 112.984L310.493 113.964ZM305.658 109.095L304.684 108.121L305.665 107.14L306.639 108.114L305.658 109.095ZM300.788 104.225L299.815 103.251L300.795 102.27L301.769 103.244L300.788 104.225ZM295.953 99.3898L294.986 98.4159L295.96 97.4419L296.934 98.4159L295.953 99.3898ZM291.118 94.5201L289.965 93.484L290.939 92.5101L291.913 93.484L291.118 94.5201ZM286.283 89.6849L285.13 88.6143L286.103 87.6404L287.077 88.6143L286.283 89.6849ZM281.448 84.8152L280.474 83.8413L281.448 82.8674L282.422 83.8413L281.448 84.8152ZM276.578 79.9455L275.604 78.9785L276.578 77.9977L277.552 78.9716L276.578 79.9455ZM271.743 75.1104L270.769 74.1365L271.75 73.1556L272.724 74.1295L271.743 75.1104ZM266.873 70.2752L265.899 69.3013L266.88 68.3204L267.854 69.2944L266.873 70.2752ZM262.038 65.4055L261.064 64.4316L262.045 63.4507L263.019 64.4247L262.038 65.4055ZM257.203 60.5358L256.236 59.5619L257.21 58.588L258.184 59.5619L257.203 60.5358ZM252.368 55.7007L251.394 54.7267L252.368 53.7528L253.342 54.7267L252.368 55.7007ZM247.533 50.831L246.559 49.857L247.533 48.8831L248.507 49.857L247.533 50.831ZM242.698 45.9958L241.724 45.0219L242.698 44.0479L243.671 45.0219L242.698 45.9958ZM237.828 41.1261L236.854 40.1522L237.828 39.1782L238.802 40.1522L237.828 41.1261ZM232.958 36.291L231.984 35.317L232.965 34.3362L233.939 35.3101L232.958 36.291ZM228.123 31.4213L226.679 30.1918L227.66 29.2109L228.634 30.1849L228.123 31.4213ZM223.253 26.5861L221.81 25.3566L222.79 24.3827L223.764 25.3497L223.253 26.5861ZM218.418 21.751L217.444 20.777L218.418 19.8031L219.392 20.777L218.418 21.751ZM213.548 16.9158L212.574 15.9419L213.548 14.9679L214.522 15.9419L213.548 16.9158ZM208.713 12.0461L207.739 11.0722L208.713 10.0982L209.148 10.713L208.713 12.0461ZM203.844 7.21094L202.87 6.237L203.844 5.26306L204.313 5.84328L203.844 7.21094Z" fill="#474D57"/>
<path d="M203.311 260L202.337 259.026L203.311 258.052L204.285 259.026L203.311 260ZM208.181 255.13L207.207 254.156L208.181 253.182L209.155 254.156L208.181 255.13ZM213.016 250.295L212.042 249.321L213.016 248.347L213.99 249.328L213.016 250.295ZM217.886 245.46L216.905 244.479L217.879 243.505L218.86 244.486L217.886 245.46ZM222.756 240.59L221.775 239.609L222.749 238.635L223.73 239.616L222.756 240.59ZM227.625 235.721L226.679 234.65L227.653 233.676L228.634 234.657L227.625 235.721ZM232.46 230.885L231.549 229.815L232.523 228.841L233.497 229.815L232.46 230.885ZM237.33 226.016L236.418 224.98L237.392 224.006L238.366 224.98L237.33 226.016ZM242.2 221.146L241.226 220.172L242.2 219.198L243.174 220.172L242.2 221.146ZM247.035 216.276L246.061 215.302L247.035 214.328L248.009 215.302L247.035 216.276ZM251.87 211.407L250.896 210.433L251.863 209.459L252.844 210.44L251.87 211.407ZM256.74 206.571L255.759 205.591L256.733 204.617L257.714 205.597L256.74 206.571ZM261.575 201.702L260.594 200.721L261.568 199.747L262.549 200.728L261.575 201.702ZM266.445 196.832L265.464 195.851L266.438 194.884L267.419 195.858L266.445 196.832ZM271.28 191.962L270.299 190.988L271.273 190.014L272.247 190.988L271.28 191.962ZM276.115 187.127L275.141 186.153L276.115 185.179L277.089 186.153L276.115 187.127ZM280.985 182.257L280.011 181.284L280.985 180.31L281.959 181.284L280.985 182.257ZM285.82 177.388L285.129 176.255L286.103 175.281L287.077 176.255L285.82 177.388ZM290.655 172.553L289.964 171.385L290.938 170.411L291.912 171.392L290.655 172.553ZM295.525 167.683L294.544 166.702L295.518 165.728L296.499 166.709L295.525 167.683ZM300.36 162.848L299.379 161.867L300.353 160.893L301.334 161.874L300.36 162.848ZM305.23 157.978L304.249 156.997L305.223 156.03L306.204 157.004L305.23 157.978ZM310.065 153.108L309.091 152.134L310.065 151.16L311.039 152.134L310.065 153.108ZM314.9 148.239L313.926 147.265L314.9 146.291L315.874 147.265L314.9 148.239ZM319.77 143.369L318.796 142.395L319.77 141.421L320.744 142.395L319.77 143.369ZM324.605 138.534L323.631 137.56L324.605 136.586L325.579 137.56L324.605 138.534Z" fill="#474D57"/>
<path d="M43.2986 77.3411L37.2534 71.2915L43.2986 65.2463L49.3437 71.2915L43.2986 77.3411ZM37.8925 71.2915L43.2986 76.7111L48.7046 71.2915L43.2986 65.8899L37.8925 71.2915Z" fill="#F0B90B"/>
<path d="M43.2984 68.7419L45.8547 71.2982L43.2984 73.8545L40.7422 71.2982L43.2984 68.7419Z" fill="url(#paint1_linear)"/>
<path d="M43.2983 68.7397L45.8546 71.2914L43.2983 73.8522L40.7421 71.2914L43.2983 68.7397ZM43.2983 68.1006L42.9799 68.4212L40.4214 70.9775L40.103 71.2914L40.4214 71.6121L42.9799 74.1683L43.2983 74.4867L43.6168 74.1683L46.1753 71.6121L46.4937 71.2914L46.1753 70.973L43.6168 68.4167L43.2983 68.0961V68.1006Z" fill="#474D57"/>
<path d="M43.2984 84.0456L42.98 83.725L43.2961 83.4043L43.619 83.725L43.2984 84.0456Z" fill="#F0B90B"/>
<path d="M42.5237 83.2598L42.2008 82.9391L42.5192 82.6184L42.8398 82.9391L42.5237 83.2598ZM41.7469 82.4829L41.424 82.1623L41.7424 81.8416L42.063 82.1623L41.7469 82.4829ZM40.9701 81.7061L40.6471 81.3855L40.9655 81.0648L41.2862 81.3855L40.9701 81.7061ZM40.1932 80.9293L39.8703 80.6087L40.1887 80.288L40.5094 80.6087L40.1932 80.9293ZM39.4164 80.1525L39.0935 79.8318L39.4119 79.5112L39.7326 79.8318L39.4164 80.1525ZM38.6487 79.3757L38.3167 79.0641L38.6238 78.7434L38.9535 79.0528L38.6487 79.3757ZM37.8628 78.5989L37.5399 78.2918L37.8583 77.9711L38.179 78.2918L37.8628 78.5989ZM37.0883 77.8401L36.7653 77.5195L37.0837 77.1988L37.4044 77.5195L37.0883 77.8401ZM36.3092 77.0633L35.9885 76.7427L36.3069 76.422L36.6366 76.7336L36.3092 77.0633ZM35.5346 76.2865L35.2117 75.9658L35.5301 75.6452L35.8508 75.9658L35.5346 76.2865ZM34.7556 75.5097L34.4349 75.1868L34.7533 74.8684L35.074 75.1868L34.7556 75.5097ZM33.9697 74.7329L33.6581 74.4009L33.9878 74.0916L34.2949 74.4212L33.9697 74.7329ZM33.2019 73.9561L32.8813 73.6331L33.1997 73.3147L33.5203 73.6331L33.2019 73.9561ZM32.4251 73.1792L32.1045 72.8563L32.4229 72.5379L32.7413 72.8563L32.4251 73.1792ZM31.6483 72.4024L31.3276 72.0795L31.646 71.7611L31.9644 72.0795L31.6483 72.4024Z" fill="#F0B90B"/>
<path d="M30.8695 71.6166L30.5488 71.2959L30.8695 70.9775L31.1902 71.2937L30.8695 71.6166Z" fill="#F0B90B"/>
<path d="M31.6463 70.8398L31.3257 70.5236L31.6463 70.2007L31.967 70.5191L31.6463 70.8398ZM32.4232 70.063L32.1025 69.7468L32.4232 69.4239L32.7438 69.7423L32.4232 70.063ZM33.2 69.2861L32.8793 68.97L33.2 68.6471L33.5206 68.9655L33.2 69.2861ZM33.9768 68.5093L33.6561 68.1932L33.9768 67.8703L34.2974 68.1887L33.9768 68.5093ZM34.7536 67.7325L34.4329 67.4164L34.7536 67.0935L35.0743 67.4119L34.7536 67.7325ZM35.5327 66.9557L35.2097 66.6396L35.5327 66.3166L35.8511 66.635L35.5327 66.9557ZM36.3072 66.1789L35.9866 65.8627L36.3072 65.5398L36.6279 65.8582L36.3072 66.1789ZM37.0863 65.4021L36.7634 65.0859L37.0863 64.763L37.4047 65.0814L37.0863 65.4021ZM37.8631 64.6253L37.5402 64.3091L37.8631 63.9862L38.1815 64.3046L37.8631 64.6253ZM38.6399 63.8484L38.317 63.5323L38.6399 63.2094L38.9583 63.5278L38.6399 63.8484ZM39.4167 63.0716L39.0938 62.7555L39.4167 62.4326L39.7351 62.751L39.4167 63.0716ZM40.1935 62.2948L39.8706 61.9787L40.1935 61.6558L40.512 61.9742L40.1935 62.2948ZM40.9704 61.518L40.6474 61.2019L40.9704 60.8789L41.2888 61.1973L40.9704 61.518ZM41.7472 60.7412L41.4243 60.4251L41.7472 60.1021L42.0656 60.4205L41.7472 60.7412ZM42.524 59.9644L42.2011 59.6482L42.524 59.3253L42.8424 59.6437L42.524 59.9644Z" fill="#F0B90B"/>
<path d="M43.3005 59.1876L42.9775 58.8692L43.2982 58.5463L43.6166 58.8669L43.3005 59.1876Z" fill="#F0B90B"/>
<path d="M54.9528 70.8398L54.6344 70.5214L54.9506 70.1985L55.2712 70.5214L54.9528 70.8398ZM54.176 70.063L53.8576 69.7446L54.1738 69.4217L54.4944 69.7446L54.176 70.063ZM53.3992 69.2862L53.0808 68.9678L53.3969 68.6449L53.7176 68.9678L53.3992 69.2862ZM52.6337 68.5094L52.304 68.2023L52.6088 67.8681L52.9408 68.1797L52.6337 68.5094ZM51.8456 67.7326L51.5272 67.4142L51.8433 67.0913L52.164 67.4142L51.8456 67.7326ZM51.0688 66.9558L50.7481 66.6374L51.0665 66.3235L51.3872 66.6464L51.0688 66.9558ZM50.2919 66.1789L49.9713 65.8718L50.2874 65.5489L50.6104 65.8718L50.2919 66.1789ZM49.5084 65.4021L49.1877 65.0837L49.5038 64.7608L49.8268 65.0837L49.5084 65.4021ZM48.7315 64.6253L48.4109 64.3069L48.727 63.984L49.0499 64.3069L48.7315 64.6253ZM47.9502 63.8395L47.6431 63.5098L47.9683 63.1982L48.2799 63.5324L47.9502 63.8395ZM47.1847 63.0627L46.864 62.7443L47.1802 62.4213L47.5031 62.7443L47.1847 63.0627ZM46.4079 62.2858L46.0872 61.9674L46.4034 61.6445L46.7263 61.9674L46.4079 62.2858ZM45.6311 61.509L45.3104 61.1906L45.6265 60.8677L45.9495 61.1906L45.6311 61.509ZM44.8543 60.7322L44.5404 60.4229L44.8565 60.0999L45.1794 60.4229L44.8543 60.7322ZM44.0887 59.9644L43.7681 59.646L44.0842 59.3231L44.4071 59.646L44.0887 59.9644Z" fill="#F0B90B"/>
<path d="M55.7274 71.6167L55.4067 71.2983L55.7274 70.9753L56.0481 71.296L55.7274 71.6167Z" fill="#F0B90B"/>
<path d="M44.0728 83.2598L43.7544 82.9414L44.0728 82.623L44.3957 82.9392L44.0728 83.2598ZM44.8496 82.483L44.5402 82.1736L44.8586 81.8552L45.1816 82.1714L44.8496 82.483ZM45.6264 81.7062L45.308 81.3878L45.6264 81.0694L45.9493 81.3855L45.6264 81.7062ZM46.392 80.9294L46.0848 80.5997L46.4145 80.2926L46.7262 80.62L46.392 80.9294ZM47.1801 80.1526L46.8617 79.8342L47.1801 79.5158L47.503 79.8319L47.1801 80.1526ZM47.9569 79.3757L47.6385 79.0573L47.9569 78.7389L48.2798 79.0551L47.9569 79.3757ZM48.7337 78.5989L48.4153 78.2918L48.7337 77.9734L49.0566 78.2918L48.7337 78.5989ZM49.5082 77.8402L49.1876 77.5218L49.5082 77.2034L49.8289 77.5195L49.5082 77.8402ZM50.2828 77.0634L49.9599 76.7359L50.2783 76.4175L50.6012 76.7337L50.2828 77.0634ZM51.0709 76.2866L50.7412 75.9795L51.0506 75.6498L51.3825 75.9546L51.0709 76.2866ZM51.8387 75.5097L51.518 75.1913L51.8387 74.8729L52.1593 75.1891L51.8387 75.5097ZM52.6155 74.7329L52.2948 74.4145L52.6155 74.0961L52.9362 74.4123L52.6155 74.7329ZM53.3923 73.9561L53.0716 73.6377L53.3923 73.3171L53.713 73.6332L53.3923 73.9561ZM54.1691 73.1793L53.8485 72.8609L54.1691 72.5425L54.4898 72.8586L54.1691 73.1793ZM54.9459 72.4025L54.6253 72.0841L54.9459 71.7634L55.2666 72.0818L54.9459 72.4025Z" fill="#F0B90B"/>
<path d="M43.2985 91.8816L22.7129 71.2915L43.2985 50.7059L63.884 71.2915L43.2985 91.8816ZM23.352 71.2915L43.2985 91.238L63.2449 71.2915L43.2985 51.3495L23.352 71.2915Z" fill="#76808F"/>
<path d="M42.5079 101.725L42.1918 101.407L42.5079 101.099L42.8263 101.416L42.5079 101.725ZM41.7153 100.932L41.3992 100.614L41.7176 100.296L42.036 100.612L41.7153 100.932ZM40.9272 100.14L40.611 99.8213L40.9295 99.5029L41.2479 99.819L40.9272 100.14ZM40.1346 99.3471L39.8184 99.0309L40.1391 98.7103L40.4552 99.0287L40.1346 99.3471ZM39.3442 98.5545L39.0258 98.2383L39.3465 97.9177L39.6626 98.2361L39.3442 98.5545ZM38.5516 97.7618L38.2332 97.4457L38.5538 97.125L38.87 97.4434L38.5516 97.7618ZM37.759 96.9692L37.4428 96.6531L37.7612 96.3347L38.0774 96.6508L37.759 96.9692ZM36.9663 96.1789L36.6367 95.8604L36.9551 95.5421L37.2712 95.8582L36.9663 96.1789ZM36.1737 95.3862L35.8576 95.0678L36.176 94.7494L36.4944 95.0656L36.1737 95.3862ZM35.3811 94.5936L35.065 94.2752L35.3834 93.9568L35.7018 94.2729L35.3811 94.5936ZM34.5885 93.801L34.2723 93.4848L34.593 93.1642L34.9091 93.4803L34.5885 93.801ZM33.7981 93.0084L33.4797 92.6922L33.8004 92.3716L34.1165 92.69L33.7981 93.0084ZM33.0055 92.2158L32.6871 91.8996L33.0078 91.5789L33.3239 91.8973L33.0055 92.2158ZM32.2129 91.4231L31.8945 91.107L32.2151 90.7863L32.5313 91.1047L32.2129 91.4231ZM31.4203 90.6305L31.1041 90.3144L31.4225 89.996L31.7387 90.3121L31.4203 90.6305ZM30.6276 89.8401L30.3115 89.5217L30.6299 89.2033L30.9483 89.5195L30.6276 89.8401ZM29.835 89.0475L29.5189 88.7291L29.8373 88.4107L30.1557 88.7269L29.835 89.0475ZM29.0424 88.2549L28.7263 87.9365L29.0447 87.6181L29.3631 87.9342L29.0424 88.2549ZM28.2498 87.4623L27.9336 87.1461L28.2543 86.8255L28.5704 87.1439L28.2498 87.4623ZM27.4594 86.6697L27.141 86.3535L27.4617 86.0329L27.7778 86.3513L27.4594 86.6697ZM26.6668 85.877L26.3484 85.5609L26.669 85.2402L26.9852 85.5586L26.6668 85.877ZM25.8742 85.0844L25.558 84.7683L25.8764 84.4499L26.1926 84.766L25.8742 85.0844ZM25.0815 84.2918L24.7654 83.9757L25.0838 83.6573L25.4 83.9734L25.0815 84.2918ZM24.2889 83.5014L23.9728 83.183L24.2912 82.8646L24.6096 83.1808L24.2889 83.5014ZM23.4963 82.7088L23.1802 82.3904L23.4986 82.072L23.817 82.3882L23.4963 82.7088ZM22.7037 81.9162L22.3875 81.6001L22.7082 81.2794L23.0244 81.5955L22.7037 81.9162ZM21.9133 81.1236L21.5949 80.8074L21.9156 80.4868L22.2317 80.8052L21.9133 81.1236ZM21.1117 80.3242L20.7933 80.008L21.1139 79.6874L21.4301 80.0058L21.1117 80.3242ZM20.3191 79.5316L20.0006 79.2154L20.3213 78.897L20.6375 79.2132L20.3191 79.5316ZM19.5264 78.7435L19.2103 78.4273L19.5287 78.1089L19.8448 78.4251L19.5264 78.7435ZM18.7338 77.9508L18.4177 77.6347L18.7361 77.3163L19.0522 77.6324L18.7338 77.9508ZM17.9412 77.1605L17.625 76.8421L17.9434 76.5237L18.2619 76.8398L17.9412 77.1605ZM17.1486 76.3679L16.8324 76.0495L17.1508 75.731L17.4692 76.0472L17.1486 76.3679ZM16.3582 75.582L16.0398 75.2659L16.3582 74.9452L16.6766 75.2636L16.3582 75.582ZM15.5656 74.7894L15.2472 74.4732L15.5678 74.1526L15.884 74.471L15.5656 74.7894ZM14.773 74.0013L14.4546 73.6851L14.7752 73.3645L15.0914 73.6829L14.773 74.0013ZM13.9803 73.2087L13.6642 72.8925L13.9826 72.5741L14.2987 72.8903L13.9803 73.2087ZM13.1877 72.416L12.8716 72.0999L13.19 71.7815L13.5061 72.0976L13.1877 72.416Z" fill="#F0B90B"/>
<path d="M12.3945 70.9773L12.0752 71.2966L12.3945 71.616L12.7139 71.2966L12.3945 70.9773Z" fill="#808080"/>
<path d="M13.19 70.8217L12.8716 70.5011L13.1877 70.1849L13.5061 70.5033L13.19 70.8217ZM13.9826 70.0291L13.6619 69.7107L13.9803 69.3946L14.2987 69.713L13.9826 70.0291ZM14.7752 69.2365L14.4546 68.9158L14.773 68.5997L15.0914 68.9204L14.7752 69.2365ZM15.5678 68.4439L15.2472 68.13L15.5656 67.8116L15.884 68.13L15.5678 68.4439ZM16.3582 67.6513L16.0398 67.3329L16.356 67.0145L16.6766 67.3351L16.3582 67.6513ZM17.1508 66.8586L16.8324 66.5493L17.1486 66.2309L17.4692 66.5515L17.1508 66.8586ZM17.9434 66.066L17.625 65.7476L17.9412 65.4315L18.2619 65.7499L17.9434 66.066ZM18.7361 65.2757L18.4177 64.955L18.7338 64.6389L19.0522 64.9573L18.7361 65.2757ZM19.5287 64.483L19.208 64.1624L19.5264 63.8462L19.8448 64.1646L19.5287 64.483ZM20.3213 63.6904L20.0006 63.3698L20.3191 63.0536L20.6375 63.372L20.3213 63.6904ZM21.1139 62.8978L20.7933 62.5794L21.1117 62.261L21.4301 62.5816L21.1139 62.8978ZM21.9066 62.1052L21.5859 61.7868L21.902 61.4684L22.2227 61.789L21.9066 62.1052ZM22.6969 61.3126L22.3785 60.9942L22.6947 60.6758L23.0153 60.9964L22.6969 61.3126ZM23.4895 60.5199L23.1711 60.2015L23.4873 59.8854L23.8079 60.2038L23.4895 60.5199ZM24.2822 59.7273L23.9638 59.4089L24.2799 59.0928L24.6006 59.4112L24.2822 59.7273ZM25.0748 58.9369L24.7564 58.6163L25.0725 58.3001L25.3909 58.6185L25.0748 58.9369ZM25.8674 58.1443L25.5467 57.8237L25.8651 57.5075L26.1835 57.8259L25.8674 58.1443ZM26.66 57.3517L26.3394 57.031L26.6578 56.7149L26.9762 57.0356L26.66 57.3517ZM27.4526 56.5591L27.132 56.2407L27.4504 55.9223L27.7688 56.2429L27.4526 56.5591ZM28.243 55.7665L27.9246 55.4481L28.2407 55.1297L28.5614 55.4503L28.243 55.7665ZM29.0356 54.9738L28.7172 54.6554L29.0334 54.337L29.354 54.6577L29.0356 54.9738ZM29.8282 54.1812L29.5098 53.8628L29.826 53.5467L30.1467 53.8651L29.8282 54.1812ZM30.6209 53.3886L30.3138 53.0702L30.6299 52.7541L30.9483 53.0725L30.6209 53.3886ZM31.4135 52.5982L31.0928 52.2776L31.4112 51.9614L31.7296 52.2798L31.4135 52.5982ZM32.2061 51.8056L31.8945 51.485L32.2129 51.1688L32.5313 51.4872L32.2061 51.8056ZM32.9987 51.013L32.6781 50.6946L32.9965 50.3762L33.3149 50.6969L32.9987 51.013ZM33.7913 50.2204L33.4752 49.902L33.7913 49.5836L34.112 49.9042L33.7913 50.2204ZM34.5817 49.4278L34.2633 49.1094L34.5795 48.791L34.9001 49.1116L34.5817 49.4278ZM35.3743 48.6351L35.0559 48.3167L35.3721 48.0006L35.6927 48.319L35.3743 48.6351ZM36.167 47.8425L35.8486 47.5241L36.1647 47.208L36.4831 47.5264L36.167 47.8425ZM36.9596 47.0522L36.6367 46.7315L36.9528 46.4153L37.2712 46.7338L36.9596 47.0522ZM37.7522 46.2595L37.4338 45.9389L37.7499 45.6227L38.0683 45.9411L37.7522 46.2595ZM38.5448 45.4669L38.2174 45.1463L38.5358 44.8301L38.8542 45.1485L38.5448 45.4669ZM39.3374 44.6743L39.0168 44.3559L39.3352 44.0375L39.6536 44.3581L39.3374 44.6743ZM40.1278 43.8817L39.8094 43.5633L40.1255 43.2449L40.4462 43.5655L40.1278 43.8817ZM40.9204 43.0891L40.602 42.7706L40.9182 42.4522L41.2388 42.7729L40.9204 43.0891ZM41.713 42.2964L41.3946 41.978L41.7108 41.6619L42.0314 41.9803L41.713 42.2964ZM42.5057 41.5038L42.1873 41.1854L42.5034 40.8693L42.8218 41.1877L42.5057 41.5038Z" fill="#F0B90B"/>
<path d="M43.2949 40.0748L42.9756 40.3942L43.2949 40.7135L43.6143 40.3942L43.2949 40.0748Z" fill="#808080"/>
<path d="M73.4065 70.8217L73.0904 70.5033L73.4088 70.1849L73.7249 70.5011L73.4065 70.8217ZM72.6139 70.0291L72.2978 69.7107L72.6162 69.3923L72.9346 69.7085L72.6139 70.0291ZM71.8213 69.2365L71.5051 68.9204L71.8236 68.5997L72.142 68.9158L71.8213 69.2365ZM71.0287 68.4439L70.7125 68.1277L71.0309 67.8071L71.3493 68.1255L71.0287 68.4439ZM70.2383 67.6513L69.9199 67.3351L70.2406 67.0145L70.5567 67.3329L70.2383 67.6513ZM69.4457 66.8586L69.1273 66.5425L69.448 66.2241L69.7641 66.5402L69.4457 66.8586ZM68.6531 66.066L68.3347 65.7499L68.6553 65.4315L68.9715 65.7476L68.6531 66.066ZM67.8605 65.2757L67.5443 64.9573L67.8627 64.6389L68.1789 64.955L67.8605 65.2757ZM67.0678 64.483L66.7517 64.1646L67.0701 63.8462L67.3862 64.1624L67.0678 64.483ZM66.2752 63.6904L65.9591 63.372L66.2775 63.0536L66.5959 63.3698L66.2752 63.6904ZM65.4826 62.8978L65.1665 62.5816L65.4848 62.261L65.8032 62.5794L65.4826 62.8978ZM64.69 62.1052L64.3738 61.789L64.6922 61.4684L65.0106 61.7868L64.69 62.1052ZM63.8996 61.3126L63.5812 60.9964L63.9019 60.6758L64.218 60.9942L63.8996 61.3126ZM63.107 60.5199L62.7886 60.2038L63.1092 59.8854L63.4254 60.2015L63.107 60.5199ZM62.3144 59.7273L61.996 59.4112L62.3166 59.0928L62.6328 59.4089L62.3144 59.7273ZM61.5217 58.9369L61.2056 58.6185L61.524 58.3001L61.8401 58.6163L61.5217 58.9369ZM60.7291 58.1443L60.413 57.8259L60.7314 57.5166L61.0498 57.8327L60.7291 58.1443ZM59.9365 57.3517L59.6204 57.0356L59.9388 56.7149L60.2572 57.031L59.9365 57.3517ZM59.1439 56.5591L58.8277 56.2429L59.1461 55.9223L59.4646 56.2407L59.1439 56.5591ZM58.3513 55.7665L58.0351 55.4503L58.3558 55.1297L58.6719 55.4481L58.3513 55.7665ZM57.5609 54.9738L57.2425 54.6577L57.5632 54.337L57.8793 54.6554L57.5609 54.9738ZM56.7683 54.1812L56.4499 53.8651L56.7705 53.5467L57.0867 53.8628L56.7683 54.1812ZM55.9757 53.3909L55.6595 53.0725L55.9779 52.7541L56.2941 53.0702L55.9757 53.3909ZM55.183 52.5982L54.8669 52.2798L55.1853 51.9614L55.5014 52.2776L55.183 52.5982ZM54.3904 51.8056L54.0743 51.4872L54.3927 51.1688L54.7111 51.485L54.3904 51.8056ZM53.5978 51.013L53.2816 50.6969L53.6001 50.3762L53.9185 50.6946L53.5978 51.013ZM52.8052 50.2204L52.489 49.9042L52.8097 49.5836L53.1258 49.902L52.8052 50.2204ZM52.0148 49.4278L51.6964 49.1116L52.0171 48.791L52.3332 49.1094L52.0148 49.4278ZM51.2222 48.6351L50.9038 48.319L51.2245 48.0006L51.5406 48.3167L51.2222 48.6351ZM50.4296 47.8425L50.1112 47.5264L50.4318 47.208L50.748 47.5241L50.4296 47.8425ZM49.637 47.0522L49.3208 46.7338L49.6392 46.4153L49.9554 46.7315L49.637 47.0522ZM48.8443 46.2595L48.5282 45.9411L48.8466 45.6227L49.165 45.9389L48.8443 46.2595ZM48.0517 45.4669L47.7356 45.1485L48.054 44.8301L48.3724 45.1463L48.0517 45.4669ZM47.2501 44.6743L46.9339 44.3581L47.2523 44.0375L47.5707 44.3559L47.2501 44.6743ZM46.4574 43.8817L46.1413 43.5655L46.462 43.2449L46.7781 43.5633L46.4574 43.8817ZM45.6671 43.0891L45.3487 42.7729L45.6693 42.4522L45.9855 42.7706L45.6671 43.0891ZM44.8745 42.2964L44.556 41.9803L44.8767 41.6619L45.1929 41.978L44.8745 42.2964ZM44.0886 41.5038L43.7725 41.1877L44.0909 40.8693L44.407 41.1854L44.0886 41.5038Z" fill="#F0B90B"/>
<path d="M74.1992 70.9773L73.8799 71.2966L74.1992 71.616L74.5186 71.2966L74.1992 70.9773Z" fill="#808080"/>
<path d="M44.0889 101.725L43.7705 101.404L44.0889 101.099L44.4073 101.418L44.0889 101.725ZM44.8815 100.932L44.5609 100.612L44.8793 100.296L45.1977 100.614L44.8815 100.932ZM45.6742 100.14L45.3535 99.819L45.6719 99.5029L45.9903 99.8213L45.6742 100.14ZM46.4668 99.3471L46.1461 99.0287L46.4623 98.7103L46.7829 99.0309L46.4668 99.3471ZM47.2571 98.5545L46.9387 98.2361L47.2549 97.9177L47.5755 98.2383L47.2571 98.5545ZM48.0498 97.7618L47.7314 97.4434L48.0475 97.1273L48.3682 97.4457L48.0498 97.7618ZM48.8424 96.9692L48.524 96.6508L48.8401 96.3347L49.1585 96.6531L48.8424 96.9692ZM49.635 96.1789L49.3166 95.8582L49.6327 95.5421L49.9602 95.8605L49.635 96.1789ZM50.4276 95.3862L50.107 95.0656L50.4254 94.7494L50.7438 95.0678L50.4276 95.3862ZM51.2202 94.5936L50.8996 94.273L51.218 93.9568L51.5364 94.2752L51.2202 94.5936ZM52.0129 93.801L51.6922 93.4803L52.0106 93.1642L52.329 93.4848L52.0129 93.801ZM52.8055 93.0084L52.4848 92.69L52.801 92.3716L53.1216 92.6922L52.8055 93.0084ZM53.5958 92.2158L53.2774 91.8974L53.5936 91.5789L53.9142 91.8996L53.5958 92.2158ZM54.3885 91.4231L54.0701 91.1047L54.3862 90.7863L54.7069 91.107L54.3885 91.4231ZM55.1811 90.6305L54.8627 90.3121L55.1788 89.996L55.4972 90.3144L55.1811 90.6305ZM55.9737 89.8402L55.6553 89.5195L55.9714 89.2033L56.2899 89.5217L55.9737 89.8402ZM56.7663 89.0475L56.4457 88.7269L56.7641 88.4107L57.0825 88.7291L56.7663 89.0475ZM57.559 88.2549L57.2383 87.9342L57.5567 87.6181L57.8751 87.9365L57.559 88.2549ZM58.3516 87.4623L58.0309 87.1439L58.3471 86.8255L58.6677 87.1461L58.3516 87.4623ZM59.1419 86.6697L58.8235 86.3513L59.1397 86.0329L59.4603 86.3535L59.1419 86.6697ZM59.9345 85.877L59.6162 85.5586L59.9323 85.2402L60.253 85.5609L59.9345 85.877ZM60.7272 85.0844L60.4088 84.766L60.7249 84.4499L61.0456 84.7683L60.7272 85.0844ZM61.5198 84.2941L61.2014 83.9734L61.5175 83.6573L61.8359 83.9757L61.5198 84.2941ZM62.3124 83.5014L61.9918 83.1808L62.3102 82.8646L62.6286 83.183L62.3124 83.5014ZM63.105 82.7088L62.7844 82.3882L63.1028 82.072L63.4212 82.3904L63.105 82.7088ZM63.8976 81.9162L63.577 81.5955L63.8954 81.2794L64.2138 81.6001L63.8976 81.9162ZM64.688 81.1236L64.3696 80.8052L64.6858 80.4868L65.0064 80.8074L64.688 81.1236ZM65.4806 80.331L65.1622 80.0126L65.4784 79.6941L65.799 80.0148L65.4806 80.331ZM66.2733 79.5383L65.9549 79.2199L66.271 78.9038L66.5917 79.2222L66.2733 79.5383ZM67.0659 78.7457L66.7475 78.4273L67.0636 78.1112L67.382 78.4296L67.0659 78.7457ZM67.8585 77.9531L67.5401 77.6347L67.8562 77.3185L68.1746 77.637L67.8585 77.9531ZM68.6511 77.1627L68.3305 76.8421L68.6489 76.5259L68.9673 76.8443L68.6511 77.1627ZM69.4437 76.3701L69.1231 76.0495L69.4415 75.7333L69.7599 76.0517L69.4437 76.3701ZM70.2364 75.5775L69.9157 75.2591L70.2319 74.9407L70.5525 75.2613L70.2364 75.5775ZM71.0267 74.7849L70.7083 74.4665L71.0245 74.1481L71.3451 74.4687L71.0267 74.7849ZM71.8193 73.9922L71.5009 73.6738L71.8171 73.3554L72.1378 73.6761L71.8193 73.9922ZM72.612 73.1996L72.2981 72.8722L72.6142 72.556L72.9349 72.8745L72.612 73.1996ZM73.4046 72.407L73.0862 72.0886L73.4023 71.7725L73.7207 72.0909L73.4046 72.407Z" fill="#F0B90B"/>
<path d="M41.7062 113L41.3787 112.682L41.6971 112.363L42.0155 112.682L41.7062 113ZM40.1141 111.408L39.798 111.09L40.1164 110.771L40.4348 111.09L40.1141 111.408ZM38.5334 109.827L38.215 109.511L38.5334 109.19L38.8518 109.509L38.5334 109.827ZM36.9414 108.246L36.623 107.928L36.9436 107.607L37.2598 107.926L36.9414 108.246ZM35.3494 106.654L35.031 106.336L35.3516 106.015L35.67 106.334L35.3494 106.654ZM33.7574 105.062L33.439 104.744L33.7596 104.423L34.078 104.742L33.7574 105.062ZM32.1653 103.482L31.8356 103.132L32.1563 102.813L32.4747 103.132L32.1653 103.482ZM30.5846 101.89L30.2459 101.551L30.5643 101.233L30.8827 101.551L30.5846 101.89ZM28.9926 100.298L28.6742 99.9793L28.9926 99.6609L29.311 99.9793L28.9926 100.298ZM27.378 98.6741L27.0596 98.3557L27.378 98.0373L27.6964 98.3557L27.378 98.6741ZM25.7973 97.0821L25.4789 96.7659L25.7973 96.4453L26.1157 96.7637L25.7973 97.0821ZM24.2166 95.5013L23.8982 95.1829L24.2166 94.8623L24.535 95.1807L24.2166 95.5013ZM22.6245 93.9093L22.3061 93.5909L22.6268 93.2702L22.9452 93.5887L22.6245 93.9093ZM21.0325 92.3173L20.7141 91.9989L21.0348 91.6805L21.3532 91.9989L21.0325 92.3173ZM19.4202 90.7117L19.104 90.3933L19.4224 90.0749L19.7408 90.3933L19.4202 90.7117ZM17.8395 89.131L17.5211 88.8126L17.8395 88.4942L18.1579 88.8126L17.8395 89.131ZM16.2474 87.539L15.929 87.2206L16.2474 86.9022L16.5658 87.2206L16.2474 87.539ZM14.6554 85.947L14.337 85.6286L14.6554 85.3102L14.9738 85.6286L14.6554 85.947ZM13.0634 84.3662L12.745 84.0478L13.0634 83.7272L13.3818 84.0456L13.0634 84.3662ZM11.4714 82.7742L11.153 82.4558L11.4737 82.1352L11.7898 82.4536L11.4714 82.7742ZM9.89067 81.1935L9.57226 80.8751L9.89293 80.5544L10.2113 80.8728L9.89067 81.1935ZM8.29865 79.6015L7.95767 79.256L8.27833 78.9376L8.59673 79.2537L8.29865 79.6015ZM6.70663 78.0095L6.37694 77.664L6.69761 77.3456L7.016 77.664L6.70663 78.0095ZM5.12591 76.4175L4.8075 76.0991L5.12591 75.7807L5.44431 76.0991L5.12591 76.4175ZM3.53389 74.8254L3.21549 74.507L3.53389 74.1886L3.8523 74.507L3.53389 74.8254ZM1.95317 73.2447L1.63477 72.9263L1.95317 72.6079L2.27157 72.9263L1.95317 73.2447Z" fill="#808080"/>
<path d="M0.320658 71.6166L0 71.2959L0.320658 70.9775L0.641322 71.2959H0.639062H0.641322L0.320658 71.6166Z" fill="#808080"/>
<path d="M1.91264 70.0224L1.59424 69.7107L1.91264 69.3923L2.23105 69.7107L1.91264 70.0224ZM3.49337 68.4303L3.17496 68.1119L3.49337 67.7935L3.81177 68.1119L3.49337 68.4303ZM5.08538 66.8496L4.76698 66.5289L5.08538 66.2105L5.40378 66.5312L5.08538 66.8496ZM6.67739 65.2576L6.37706 64.9279L6.6932 64.6095L7.01387 64.9302L6.67739 65.2576ZM8.26941 63.6656L7.95778 63.3359L8.27619 63.0175L8.59685 63.3381L8.26941 63.6656ZM9.86143 62.0736L9.54077 61.7529L9.85917 61.4368L10.1798 61.7552L9.86143 62.0736ZM11.4422 60.4928L11.1215 60.1744L11.4399 59.856L11.7606 60.1744L11.4422 60.4928ZM13.0229 58.9008L12.7045 58.5824L13.0229 58.264L13.3413 58.5824L13.0229 58.9008ZM14.6149 57.3201L14.2965 57.0017L14.6149 56.6833L14.9333 57.0017L14.6149 57.3201ZM16.2069 55.7281L15.8885 55.4097L16.2069 55.0913L16.5253 55.4097L16.2069 55.7281ZM17.7989 54.1474L17.4805 53.8267L17.7989 53.5083L18.1173 53.829L17.7989 54.1474ZM19.3797 52.5553L19.0613 52.2347L19.3774 51.9163L19.6981 52.2369L19.3797 52.5553ZM20.9717 50.9746L20.651 50.654L20.9694 50.3355L21.2901 50.6562L20.9717 50.9746ZM22.5637 49.3826L22.243 49.0619L22.5614 48.7435L22.8821 49.0642L22.5637 49.3826ZM24.1444 47.7906L23.826 47.4722L24.1444 47.1538L24.4628 47.4722L24.1444 47.7906ZM25.7251 46.2099L25.4067 45.8915L25.7251 45.5731L26.0435 45.8915L25.7251 46.2099ZM27.3781 44.5546L27.0597 44.2362L27.3781 43.9178L27.6965 44.2362L27.3781 44.5546ZM28.9701 42.9739L28.6517 42.6555L28.9701 42.3371L29.2885 42.6555L28.9701 42.9739ZM30.5622 41.3819L30.2438 41.0635L30.5622 40.7451L30.8806 41.0657L30.5622 41.3819ZM32.1542 39.8011L31.8358 39.4511L32.1542 39.1327L32.4748 39.4534L32.1542 39.8011ZM33.7349 38.2091L33.4278 37.8704L33.7462 37.552L34.0668 37.8727L33.7349 38.2091ZM35.3269 36.6284L35.0198 36.2897L35.3382 35.9713L35.6589 36.2897L35.3269 36.6284ZM36.9076 35.0477L36.5892 34.7293L36.9076 34.4109L37.226 34.7293L36.9076 35.0477ZM38.4997 33.467L38.1813 33.1486L38.4997 32.8301L38.8181 33.1486L38.4997 33.467ZM40.0804 31.8749L39.7981 31.5023L40.1165 31.1839L40.4349 31.5023L40.0804 31.8749ZM41.6724 30.2942L41.3788 29.9103L41.6972 29.5919L42.0156 29.9103L41.6724 30.2942Z" fill="#808080"/>
<path d="M43.2964 28L42.9771 28.3193L43.2964 28.6387L43.6158 28.3193L43.2964 28Z" fill="#808080"/>
<path d="M84.6838 70.0223L84.3653 69.7107L84.6838 69.3923L85.0022 69.7107L84.6838 70.0223ZM83.103 68.4303L82.7846 68.1119L83.103 67.7935L83.4214 68.1119L83.103 68.4303ZM81.511 66.8496L81.1926 66.5312L81.511 66.2105L81.8294 66.5289L81.511 66.8496ZM79.9303 65.2575L79.6119 64.9391L79.9303 64.6185L80.2487 64.9369L79.9303 65.2575ZM78.3496 63.6655L78.0312 63.3471L78.3518 63.0265L78.6702 63.3449L78.3496 63.6655ZM76.7575 62.0735L76.4391 61.7551L76.7598 61.4344L77.0782 61.7528L76.7575 62.0735ZM75.1768 60.4928L74.8607 60.1744L75.1791 59.856L75.4975 60.1744L75.1768 60.4928ZM73.5961 58.9008L73.219 58.562L73.5374 58.2436L73.8558 58.562L73.5961 58.9008ZM72.0154 57.32L71.6383 56.97L71.9567 56.6516L72.2751 56.97L72.0154 57.32ZM70.4346 55.728L70.1162 55.4096L70.4346 55.0912L70.7531 55.4096L70.4346 55.728ZM68.8426 54.136L68.5242 53.8199L68.8426 53.4992L69.161 53.8176L68.8426 54.136ZM67.2619 52.5553L66.9435 52.2369L67.2642 51.9162L67.5826 52.2346L67.2619 52.5553ZM65.6699 50.9746L65.3515 50.6562L65.6722 50.3355L65.9905 50.6539L65.6699 50.9746ZM64.0892 49.3825L63.7708 49.0641L64.0914 48.7435L64.4098 49.0619L64.0892 49.3825ZM62.5084 47.7905L62.1923 47.4721L62.5107 47.1537L62.8291 47.4721L62.5084 47.7905ZM60.9277 46.2098L60.6093 45.8914L60.9277 45.573L61.2461 45.8914L60.9277 46.2098ZM59.347 44.6178L59.0286 44.2994L59.347 43.981L59.6654 44.2994L59.347 44.6178ZM57.7663 43.0371L57.4479 42.7187L57.7663 42.4003L58.0847 42.7187L57.7663 43.0371ZM56.1742 41.445L55.8558 41.1266L56.1742 40.8082L56.4927 41.1266L56.1742 41.445ZM54.5822 39.8643L54.2638 39.5459L54.5845 39.2253L54.9029 39.5437L54.5822 39.8643ZM53.0015 38.2723L52.5295 37.8703L52.8502 37.5497L53.1686 37.8681L53.0015 38.2723ZM51.4095 36.6916L50.9375 36.2896L51.2582 35.9712L51.5766 36.2874L51.4095 36.6916ZM49.8288 35.1109L49.5104 34.7925L49.8288 34.474L50.1472 34.7925L49.8288 35.1109ZM48.2367 33.5301L47.9183 33.2117L48.2367 32.8933L48.5552 33.2117L48.2367 33.5301ZM46.656 31.9381L46.3376 31.6197L46.656 31.3013L46.7983 31.5023L46.656 31.9381ZM45.064 30.3574L44.7456 30.039L45.064 29.7206L45.2176 29.9103L45.064 30.3574Z" fill="#808080"/>
<path d="M44.8902 113L44.5718 112.682L44.8902 112.363L45.2086 112.682L44.8902 113ZM46.4822 111.408L46.1638 111.09L46.4822 110.771L46.8006 111.09L46.4822 111.408ZM48.0629 109.827L47.7445 109.509L48.0629 109.19L48.3813 109.511L48.0629 109.827ZM49.6549 108.246L49.3343 107.926L49.6527 107.607L49.9733 107.928L49.6549 108.246ZM51.247 106.654L50.9263 106.334L51.2447 106.015L51.5654 106.336L51.247 106.654ZM52.839 105.062L52.5296 104.712L52.848 104.394L53.1687 104.715L52.839 105.062ZM54.4197 103.482L54.1216 103.132L54.44 102.813L54.7584 103.132L54.4197 103.482ZM56.0117 101.89L55.7136 101.551L56.032 101.233L56.3504 101.551L56.0117 101.89ZM57.6037 100.298L57.2853 99.9793L57.6037 99.6609L57.9221 99.9793L57.6037 100.298ZM59.1844 98.7057L58.866 98.3873L59.1844 98.0689L59.5029 98.3873L59.1844 98.7057ZM60.7652 97.1137L60.4468 96.7953L60.7629 96.4769L61.0836 96.7975L60.7652 97.1137ZM62.3572 95.5329L62.0365 95.2123L62.3549 94.8939L62.6756 95.2145L62.3572 95.5329ZM63.9379 93.9409L63.6173 93.6203L63.9357 93.3019L64.2563 93.6225L63.9379 93.9409ZM65.5299 92.3489L65.2093 92.0282L65.5277 91.7121L65.8483 92.0305L65.5299 92.3489ZM67.1107 90.7569L66.79 90.4385L67.1084 90.1201L67.4268 90.4385L67.1107 90.7569ZM68.6914 89.1762L68.373 88.8578L68.6914 88.5394L69.0098 88.8578L68.6914 89.1762ZM70.2834 87.5842L69.965 87.2657L70.2834 86.9473L70.6018 87.2657L70.2834 87.5842ZM71.8641 85.9921L71.6383 85.6218L71.9567 85.3034L72.2751 85.6218L71.8641 85.9921ZM73.4448 84.4114L73.219 84.0298L73.5374 83.7114L73.8558 84.032L73.4448 84.4114ZM75.0369 82.8194L74.7162 82.4987L75.0346 82.1803L75.3553 82.501L75.0369 82.8194ZM76.6176 81.2387L76.2969 80.918L76.6153 80.5996L76.936 80.9203L76.6176 81.2387ZM78.2096 79.6467L77.8889 79.326L78.2074 79.0098L78.528 79.3283L78.2096 79.6467ZM79.7903 78.0546L79.4719 77.7362L79.7903 77.4178L80.1087 77.7362L79.7903 78.0546ZM81.3711 76.4626L81.0527 76.1442L81.3711 75.8258L81.6895 76.1442L81.3711 76.4626ZM82.9631 74.8706L82.6447 74.5522L82.9631 74.2338L83.2815 74.5522L82.9631 74.8706ZM84.5438 73.2899L84.2254 72.9715L84.5438 72.6531L84.8622 72.9715L84.5438 73.2899Z" fill="#808080"/>
<path d="M384.299 139.341L378.253 133.291L384.299 127.246L390.344 133.291L384.299 139.341ZM378.892 133.291L384.299 138.711L389.705 133.291L384.299 127.89L378.892 133.291Z" fill="#F0B90B"/>
<path d="M384.298 130.742L386.855 133.298L384.298 135.854L381.742 133.298L384.298 130.742Z" fill="url(#paint2_linear)"/>
<path d="M384.298 130.74L386.855 133.291L384.298 135.852L381.742 133.291L384.298 130.74ZM384.298 130.101L383.98 130.421L381.421 132.978L381.103 133.291L381.421 133.612L383.98 136.168L384.298 136.487L384.617 136.168L387.175 133.612L387.494 133.291L387.175 132.973L384.617 130.417L384.298 130.096V130.101Z" fill="#474D57"/>
<path d="M384.298 146.046L383.98 145.725L384.296 145.404L384.619 145.725L384.298 146.046Z" fill="#F0B90B"/>
<path d="M383.524 145.26L383.201 144.939L383.519 144.618L383.84 144.939L383.524 145.26ZM382.747 144.483L382.424 144.162L382.742 143.842L383.063 144.162L382.747 144.483ZM381.97 143.706L381.647 143.385L381.966 143.065L382.286 143.385L381.97 143.706ZM381.193 142.929L380.87 142.609L381.189 142.288L381.509 142.609L381.193 142.929ZM380.416 142.153L380.094 141.832L380.412 141.511L380.733 141.832L380.416 142.153ZM379.649 141.376L379.317 141.064L379.624 140.743L379.954 141.053L379.649 141.376ZM378.863 140.599L378.54 140.292L378.858 139.971L379.179 140.292L378.863 140.599ZM378.088 139.84L377.765 139.519L378.084 139.199L378.404 139.519L378.088 139.84ZM377.309 139.063L376.989 138.743L377.307 138.422L377.637 138.734L377.309 139.063ZM376.535 138.287L376.212 137.966L376.53 137.645L376.851 137.966L376.535 138.287ZM375.756 137.51L375.435 137.187L375.753 136.868L376.074 137.187L375.756 137.51ZM374.97 136.733L374.658 136.401L374.988 136.092L375.295 136.421L374.97 136.733ZM374.202 135.956L373.881 135.633L374.2 135.315L374.52 135.633L374.202 135.956ZM373.425 135.179L373.104 134.856L373.423 134.538L373.741 134.856L373.425 135.179ZM372.648 134.402L372.328 134.08L372.646 133.761L372.964 134.08L372.648 134.402Z" fill="#F0B90B"/>
<path d="M371.869 133.617L371.549 133.296L371.869 132.978L372.19 133.294L371.869 133.617Z" fill="#F0B90B"/>
<path d="M372.646 132.84L372.326 132.524L372.646 132.201L372.967 132.519L372.646 132.84ZM373.423 132.063L373.102 131.747L373.423 131.424L373.744 131.742L373.423 132.063ZM374.2 131.286L373.879 130.97L374.2 130.647L374.521 130.965L374.2 131.286ZM374.977 130.509L374.656 130.193L374.977 129.87L375.297 130.189L374.977 130.509ZM375.754 129.733L375.433 129.416L375.754 129.093L376.074 129.412L375.754 129.733ZM376.533 128.956L376.21 128.64L376.533 128.317L376.851 128.635L376.533 128.956ZM377.307 128.179L376.987 127.863L377.307 127.54L377.628 127.858L377.307 128.179ZM378.086 127.402L377.763 127.086L378.086 126.763L378.405 127.081L378.086 127.402ZM378.863 126.625L378.54 126.309L378.863 125.986L379.182 126.305L378.863 126.625ZM379.64 125.848L379.317 125.532L379.64 125.209L379.958 125.528L379.64 125.848ZM380.417 125.072L380.094 124.755L380.417 124.433L380.735 124.751L380.417 125.072ZM381.194 124.295L380.871 123.979L381.194 123.656L381.512 123.974L381.194 124.295ZM381.97 123.518L381.647 123.202L381.97 122.879L382.289 123.197L381.97 123.518ZM382.747 122.741L382.424 122.425L382.747 122.102L383.066 122.421L382.747 122.741ZM383.524 121.964L383.201 121.648L383.524 121.325L383.842 121.644L383.524 121.964Z" fill="#F0B90B"/>
<path d="M384.3 121.188L383.978 120.869L384.298 120.546L384.617 120.867L384.3 121.188Z" fill="#F0B90B"/>
<path d="M395.953 132.84L395.634 132.521L395.951 132.199L396.271 132.521L395.953 132.84ZM395.176 132.063L394.858 131.745L395.174 131.422L395.494 131.745L395.176 132.063ZM394.399 131.286L394.081 130.968L394.397 130.645L394.718 130.968L394.399 131.286ZM393.634 130.509L393.304 130.202L393.609 129.868L393.941 130.18L393.634 130.509ZM392.846 129.733L392.527 129.414L392.843 129.091L393.164 129.414L392.846 129.733ZM392.069 128.956L391.748 128.637L392.067 128.323L392.387 128.646L392.069 128.956ZM391.292 128.179L390.971 127.872L391.287 127.549L391.61 127.872L391.292 128.179ZM390.508 127.402L390.188 127.084L390.504 126.761L390.827 127.084L390.508 127.402ZM389.732 126.625L389.411 126.307L389.727 125.984L390.05 126.307L389.732 126.625ZM388.95 125.839L388.643 125.51L388.968 125.198L389.28 125.532L388.95 125.839ZM388.185 125.063L387.864 124.744L388.18 124.421L388.503 124.744L388.185 125.063ZM387.408 124.286L387.087 123.967L387.403 123.645L387.726 123.967L387.408 124.286ZM386.631 123.509L386.31 123.191L386.627 122.868L386.949 123.191L386.631 123.509ZM385.854 122.732L385.54 122.423L385.857 122.1L386.179 122.423L385.854 122.732ZM385.089 121.964L384.768 121.646L385.084 121.323L385.407 121.646L385.089 121.964Z" fill="#F0B90B"/>
<path d="M396.727 133.617L396.407 133.298L396.727 132.975L397.048 133.296L396.727 133.617Z" fill="#F0B90B"/>
<path d="M385.073 145.26L384.754 144.941L385.073 144.623L385.396 144.939L385.073 145.26ZM385.85 144.483L385.54 144.174L385.859 143.855L386.182 144.171L385.85 144.483ZM386.626 143.706L386.308 143.388L386.626 143.069L386.949 143.386L386.626 143.706ZM387.392 142.929L387.085 142.6L387.415 142.293L387.726 142.62L387.392 142.929ZM388.18 142.153L387.862 141.834L388.18 141.516L388.503 141.832L388.18 142.153ZM388.957 141.376L388.638 141.057L388.957 140.739L389.28 141.055L388.957 141.376ZM389.734 140.599L389.415 140.292L389.734 139.973L390.057 140.292L389.734 140.599ZM390.508 139.84L390.188 139.522L390.508 139.203L390.829 139.52L390.508 139.84ZM391.283 139.063L390.96 138.736L391.278 138.418L391.601 138.734L391.283 139.063ZM392.071 138.287L391.741 137.979L392.051 137.65L392.383 137.955L392.071 138.287ZM392.839 137.51L392.518 137.191L392.839 136.873L393.159 137.189L392.839 137.51ZM393.615 136.733L393.295 136.415L393.615 136.096L393.936 136.412L393.615 136.733ZM394.392 135.956L394.072 135.638L394.392 135.317L394.713 135.633L394.392 135.956ZM395.169 135.179L394.848 134.861L395.169 134.543L395.49 134.859L395.169 135.179ZM395.946 134.402L395.625 134.084L395.946 133.763L396.267 134.082L395.946 134.402Z" fill="#F0B90B"/>
<path d="M384.298 153.882L363.713 133.291L384.298 112.706L404.884 133.291L384.298 153.882ZM364.352 133.291L384.298 153.238L404.245 133.291L384.298 113.35L364.352 133.291Z" fill="#76808F"/>
<path d="M383.508 163.725L383.192 163.407L383.508 163.099L383.826 163.416L383.508 163.725ZM382.715 162.932L382.399 162.614L382.718 162.296L383.036 162.612L382.715 162.932ZM381.927 162.14L381.611 161.821L381.929 161.503L382.248 161.819L381.927 162.14ZM381.135 161.347L380.818 161.031L381.139 160.71L381.455 161.029L381.135 161.347ZM380.344 160.554L380.026 160.238L380.346 159.918L380.663 160.236L380.344 160.554ZM379.552 159.762L379.233 159.446L379.554 159.125L379.87 159.443L379.552 159.762ZM378.759 158.969L378.443 158.653L378.761 158.335L379.077 158.651L378.759 158.969ZM377.966 158.179L377.637 157.86L377.955 157.542L378.271 157.858L377.966 158.179ZM377.174 157.386L376.858 157.068L377.176 156.749L377.494 157.066L377.174 157.386ZM376.381 156.594L376.065 156.275L376.383 155.957L376.702 156.273L376.381 156.594ZM375.588 155.801L375.272 155.485L375.593 155.164L375.909 155.48L375.588 155.801ZM374.798 155.008L374.48 154.692L374.8 154.372L375.117 154.69L374.798 155.008ZM374.006 154.216L373.687 153.9L374.008 153.579L374.324 153.897L374.006 154.216ZM373.213 153.423L372.894 153.107L373.215 152.786L373.531 153.105L373.213 153.423ZM372.42 152.631L372.104 152.314L372.423 151.996L372.739 152.312L372.42 152.631ZM371.628 151.84L371.311 151.522L371.63 151.203L371.948 151.519L371.628 151.84ZM370.835 151.048L370.519 150.729L370.837 150.411L371.156 150.727L370.835 151.048ZM370.042 150.255L369.726 149.937L370.045 149.618L370.363 149.934L370.042 150.255ZM369.25 149.462L368.934 149.146L369.254 148.825L369.57 149.144L369.25 149.462ZM368.459 148.67L368.141 148.354L368.462 148.033L368.778 148.351L368.459 148.67ZM367.667 147.877L367.348 147.561L367.669 147.24L367.985 147.559L367.667 147.877ZM366.874 147.084L366.558 146.768L366.876 146.45L367.193 146.766L366.874 147.084ZM366.082 146.292L365.765 145.976L366.084 145.657L366.4 145.973L366.082 146.292ZM365.289 145.501L364.973 145.183L365.291 144.865L365.61 145.181L365.289 145.501ZM364.496 144.709L364.18 144.39L364.499 144.072L364.817 144.388L364.496 144.709ZM363.704 143.916L363.388 143.6L363.708 143.279L364.024 143.596L363.704 143.916ZM362.913 143.124L362.595 142.807L362.916 142.487L363.232 142.805L362.913 143.124ZM362.112 142.324L361.793 142.008L362.114 141.687L362.43 142.006L362.112 142.324ZM361.319 141.532L361.001 141.215L361.321 140.897L361.637 141.213L361.319 141.532ZM360.526 140.743L360.21 140.427L360.529 140.109L360.845 140.425L360.526 140.743ZM359.734 139.951L359.418 139.635L359.736 139.316L360.052 139.632L359.734 139.951ZM358.941 139.16L358.625 138.842L358.943 138.524L359.262 138.84L358.941 139.16ZM358.149 138.368L357.832 138.049L358.151 137.731L358.469 138.047L358.149 138.368ZM357.358 137.582L357.04 137.266L357.358 136.945L357.677 137.264L357.358 137.582ZM356.566 136.789L356.247 136.473L356.568 136.153L356.884 136.471L356.566 136.789ZM355.773 136.001L355.455 135.685L355.775 135.364L356.091 135.683L355.773 136.001ZM354.98 135.209L354.664 134.893L354.983 134.574L355.299 134.89L354.98 135.209ZM354.188 134.416L353.872 134.1L354.19 133.781L354.506 134.098L354.188 134.416Z" fill="#F0B90B"/>
<path d="M353.395 132.977L353.075 133.297L353.395 133.616L353.714 133.297L353.395 132.977Z" fill="#808080"/>
<path d="M354.19 132.822L353.872 132.501L354.188 132.185L354.506 132.503L354.19 132.822ZM354.983 132.029L354.662 131.711L354.98 131.395L355.299 131.713L354.983 132.029ZM355.775 131.237L355.455 130.916L355.773 130.6L356.091 130.92L355.775 131.237ZM356.568 130.444L356.247 130.13L356.566 129.812L356.884 130.13L356.568 130.444ZM357.358 129.651L357.04 129.333L357.356 129.014L357.677 129.335L357.358 129.651ZM358.151 128.859L357.832 128.549L358.149 128.231L358.469 128.552L358.151 128.859ZM358.943 128.066L358.625 127.748L358.941 127.431L359.262 127.75L358.943 128.066ZM359.736 127.276L359.418 126.955L359.734 126.639L360.052 126.957L359.736 127.276ZM360.529 126.483L360.208 126.162L360.526 125.846L360.845 126.165L360.529 126.483ZM361.321 125.69L361.001 125.37L361.319 125.054L361.637 125.372L361.321 125.69ZM362.114 124.898L361.793 124.579L362.112 124.261L362.43 124.582L362.114 124.898ZM362.907 124.105L362.586 123.787L362.902 123.468L363.223 123.789L362.907 124.105ZM363.697 123.313L363.379 122.994L363.695 122.676L364.015 122.996L363.697 123.313ZM364.49 122.52L364.171 122.202L364.487 121.885L364.808 122.204L364.49 122.52ZM365.282 121.727L364.964 121.409L365.28 121.093L365.601 121.411L365.282 121.727ZM366.075 120.937L365.756 120.616L366.073 120.3L366.391 120.619L366.075 120.937ZM366.867 120.144L366.547 119.824L366.865 119.508L367.184 119.826L366.867 120.144ZM367.66 119.352L367.339 119.031L367.658 118.715L367.976 119.036L367.66 119.352ZM368.453 118.559L368.132 118.241L368.45 117.922L368.769 118.243L368.453 118.559ZM369.243 117.766L368.925 117.448L369.241 117.13L369.561 117.45L369.243 117.766ZM370.036 116.974L369.717 116.655L370.033 116.337L370.354 116.658L370.036 116.974ZM370.828 116.181L370.51 115.863L370.826 115.547L371.147 115.865L370.828 116.181ZM371.621 115.389L371.314 115.07L371.63 114.754L371.948 115.072L371.621 115.389ZM372.413 114.598L372.093 114.278L372.411 113.961L372.73 114.28L372.413 114.598ZM373.206 113.806L372.894 113.485L373.213 113.169L373.531 113.487L373.206 113.806ZM373.999 113.013L373.678 112.695L373.996 112.376L374.315 112.697L373.999 113.013ZM374.791 112.22L374.475 111.902L374.791 111.584L375.112 111.904L374.791 112.22ZM375.582 111.428L375.263 111.109L375.579 110.791L375.9 111.112L375.582 111.428ZM376.374 110.635L376.056 110.317L376.372 110.001L376.693 110.319L376.374 110.635ZM377.167 109.843L376.849 109.524L377.165 109.208L377.483 109.526L377.167 109.843ZM377.96 109.052L377.637 108.731L377.953 108.415L378.271 108.734L377.96 109.052ZM378.752 108.26L378.434 107.939L378.75 107.623L379.068 107.941L378.752 108.26ZM379.545 107.467L379.217 107.146L379.536 106.83L379.854 107.149L379.545 107.467ZM380.337 106.674L380.017 106.356L380.335 106.037L380.654 106.358L380.337 106.674ZM381.128 105.882L380.809 105.563L381.126 105.245L381.446 105.566L381.128 105.882ZM381.92 105.089L381.602 104.771L381.918 104.452L382.239 104.773L381.92 105.089ZM382.713 104.296L382.395 103.978L382.711 103.662L383.031 103.98L382.713 104.296ZM383.506 103.504L383.187 103.185L383.503 102.869L383.822 103.188L383.506 103.504Z" fill="#F0B90B"/>
<path d="M384.295 102.075L383.976 102.394L384.295 102.714L384.614 102.394L384.295 102.075Z" fill="#808080"/>
<path d="M414.407 132.822L414.09 132.503L414.409 132.185L414.725 132.501L414.407 132.822ZM413.614 132.029L413.298 131.711L413.616 131.392L413.935 131.708L413.614 132.029ZM412.821 131.237L412.505 130.92L412.824 130.6L413.142 130.916L412.821 131.237ZM412.029 130.444L411.713 130.128L412.031 129.807L412.349 130.125L412.029 130.444ZM411.238 129.651L410.92 129.335L411.241 129.014L411.557 129.333L411.238 129.651ZM410.446 128.859L410.127 128.542L410.448 128.224L410.764 128.54L410.446 128.859ZM409.653 128.066L409.335 127.75L409.655 127.431L409.971 127.748L409.653 128.066ZM408.86 127.276L408.544 126.957L408.863 126.639L409.179 126.955L408.86 127.276ZM408.068 126.483L407.752 126.165L408.07 125.846L408.386 126.162L408.068 126.483ZM407.275 125.69L406.959 125.372L407.277 125.054L407.596 125.37L407.275 125.69ZM406.483 124.898L406.166 124.582L406.485 124.261L406.803 124.579L406.483 124.898ZM405.69 124.105L405.374 123.789L405.692 123.468L406.011 123.787L405.69 124.105ZM404.9 123.313L404.581 122.996L404.902 122.676L405.218 122.994L404.9 123.313ZM404.107 122.52L403.789 122.204L404.109 121.885L404.425 122.202L404.107 122.52ZM403.314 121.727L402.996 121.411L403.317 121.093L403.633 121.409L403.314 121.727ZM402.522 120.937L402.206 120.619L402.524 120.3L402.84 120.616L402.522 120.937ZM401.729 120.144L401.413 119.826L401.731 119.517L402.05 119.833L401.729 120.144ZM400.937 119.352L400.62 119.036L400.939 118.715L401.257 119.031L400.937 119.352ZM400.144 118.559L399.828 118.243L400.146 117.922L400.465 118.241L400.144 118.559ZM399.351 117.766L399.035 117.45L399.356 117.13L399.672 117.448L399.351 117.766ZM398.561 116.974L398.242 116.658L398.563 116.337L398.879 116.655L398.561 116.974ZM397.768 116.181L397.45 115.865L397.771 115.547L398.087 115.863L397.768 116.181ZM396.976 115.391L396.66 115.072L396.978 114.754L397.294 115.07L396.976 115.391ZM396.183 114.598L395.867 114.28L396.185 113.961L396.501 114.278L396.183 114.598ZM395.39 113.806L395.074 113.487L395.393 113.169L395.711 113.485L395.39 113.806ZM394.598 113.013L394.282 112.697L394.6 112.376L394.918 112.695L394.598 113.013ZM393.805 112.22L393.489 111.904L393.81 111.584L394.126 111.902L393.805 112.22ZM393.015 111.428L392.696 111.112L393.017 110.791L393.333 111.109L393.015 111.428ZM392.222 110.635L391.904 110.319L392.224 110.001L392.541 110.317L392.222 110.635ZM391.43 109.843L391.111 109.526L391.432 109.208L391.748 109.524L391.43 109.843ZM390.637 109.052L390.321 108.734L390.639 108.415L390.955 108.731L390.637 109.052ZM389.844 108.26L389.528 107.941L389.847 107.623L390.165 107.939L389.844 108.26ZM389.052 107.467L388.736 107.149L389.054 106.83L389.372 107.146L389.052 107.467ZM388.25 106.674L387.934 106.358L388.252 106.037L388.571 106.356L388.25 106.674ZM387.457 105.882L387.141 105.566L387.462 105.245L387.778 105.563L387.457 105.882ZM386.667 105.089L386.349 104.773L386.669 104.452L386.985 104.771L386.667 105.089ZM385.874 104.296L385.556 103.98L385.877 103.662L386.193 103.978L385.874 104.296ZM385.089 103.504L384.772 103.188L385.091 102.869L385.407 103.185L385.089 103.504Z" fill="#F0B90B"/>
<path d="M415.199 132.977L414.88 133.297L415.199 133.616L415.519 133.297L415.199 132.977Z" fill="#808080"/>
<path d="M385.089 163.725L384.771 163.404L385.089 163.099L385.407 163.418L385.089 163.725ZM385.882 162.932L385.561 162.612L385.879 162.296L386.198 162.614L385.882 162.932ZM386.674 162.14L386.353 161.819L386.672 161.503L386.99 161.821L386.674 162.14ZM387.467 161.347L387.146 161.029L387.462 160.71L387.783 161.031L387.467 161.347ZM388.257 160.554L387.939 160.236L388.255 159.918L388.576 160.238L388.257 160.554ZM389.05 159.762L388.731 159.443L389.047 159.127L389.368 159.446L389.05 159.762ZM389.842 158.969L389.524 158.651L389.84 158.335L390.159 158.653L389.842 158.969ZM390.635 158.179L390.317 157.858L390.633 157.542L390.96 157.86L390.635 158.179ZM391.428 157.386L391.107 157.066L391.425 156.749L391.744 157.068L391.428 157.386ZM392.22 156.594L391.9 156.273L392.218 155.957L392.536 156.275L392.22 156.594ZM393.013 155.801L392.692 155.48L393.011 155.164L393.329 155.485L393.013 155.801ZM393.805 155.008L393.485 154.69L393.801 154.372L394.122 154.692L393.805 155.008ZM394.596 154.216L394.277 153.897L394.594 153.579L394.914 153.9L394.596 154.216ZM395.388 153.423L395.07 153.105L395.386 152.786L395.707 153.107L395.388 153.423ZM396.181 152.631L395.863 152.312L396.179 151.996L396.497 152.314L396.181 152.631ZM396.974 151.84L396.655 151.519L396.971 151.203L397.29 151.522L396.974 151.84ZM397.766 151.048L397.446 150.727L397.764 150.411L398.082 150.729L397.766 151.048ZM398.559 150.255L398.238 149.934L398.557 149.618L398.875 149.937L398.559 150.255ZM399.352 149.462L399.031 149.144L399.347 148.825L399.668 149.146L399.352 149.462ZM400.142 148.67L399.824 148.351L400.14 148.033L400.46 148.354L400.142 148.67ZM400.935 147.877L400.616 147.559L400.932 147.24L401.253 147.561L400.935 147.877ZM401.727 147.084L401.409 146.766L401.725 146.45L402.046 146.768L401.727 147.084ZM402.52 146.294L402.201 145.973L402.518 145.657L402.836 145.976L402.52 146.294ZM403.312 145.501L402.992 145.181L403.31 144.865L403.629 145.183L403.312 145.501ZM404.105 144.709L403.784 144.388L404.103 144.072L404.421 144.39L404.105 144.709ZM404.898 143.916L404.577 143.596L404.895 143.279L405.214 143.6L404.898 143.916ZM405.688 143.124L405.37 142.805L405.686 142.487L406.006 142.807L405.688 143.124ZM406.481 142.331L406.162 142.013L406.478 141.694L406.799 142.015L406.481 142.331ZM407.273 141.538L406.955 141.22L407.271 140.904L407.592 141.222L407.273 141.538ZM408.066 140.746L407.747 140.427L408.064 140.111L408.382 140.43L408.066 140.746ZM408.859 139.953L408.54 139.635L408.856 139.319L409.175 139.637L408.859 139.953ZM409.651 139.163L409.33 138.842L409.649 138.526L409.967 138.844L409.651 139.163ZM410.444 138.37L410.123 138.049L410.441 137.733L410.76 138.052L410.444 138.37ZM411.236 137.577L410.916 137.259L411.232 136.941L411.553 137.261L411.236 137.577ZM412.027 136.785L411.708 136.466L412.024 136.148L412.345 136.469L412.027 136.785ZM412.819 135.992L412.501 135.674L412.817 135.355L413.138 135.676L412.819 135.992ZM413.612 135.2L413.298 134.872L413.614 134.556L413.935 134.874L413.612 135.2ZM414.405 134.407L414.086 134.089L414.402 133.772L414.721 134.091L414.405 134.407Z" fill="#F0B90B"/>
<path d="M382.706 175L382.379 174.682L382.697 174.363L383.016 174.682L382.706 175ZM381.114 173.408L380.798 173.09L381.116 172.771L381.435 173.09L381.114 173.408ZM379.533 171.827L379.215 171.511L379.533 171.19L379.852 171.509L379.533 171.827ZM377.941 170.246L377.623 169.928L377.944 169.607L378.26 169.926L377.941 170.246ZM376.349 168.654L376.031 168.336L376.352 168.015L376.67 168.334L376.349 168.654ZM374.757 167.062L374.439 166.744L374.76 166.423L375.078 166.742L374.757 167.062ZM373.165 165.482L372.836 165.132L373.156 164.813L373.475 165.132L373.165 165.482ZM371.585 163.89L371.246 163.551L371.564 163.233L371.883 163.551L371.585 163.89ZM369.993 162.298L369.674 161.979L369.993 161.661L370.311 161.979L369.993 162.298ZM368.378 160.674L368.06 160.356L368.378 160.037L368.696 160.356L368.378 160.674ZM366.797 159.082L366.479 158.766L366.797 158.445L367.116 158.764L366.797 159.082ZM365.217 157.501L364.898 157.183L365.217 156.862L365.535 157.181L365.217 157.501ZM363.625 155.909L363.306 155.591L363.627 155.27L363.945 155.589L363.625 155.909ZM362.033 154.317L361.714 153.999L362.035 153.68L362.353 153.999L362.033 154.317ZM360.42 152.712L360.104 152.393L360.422 152.075L360.741 152.393L360.42 152.712ZM358.839 151.131L358.521 150.813L358.839 150.494L359.158 150.813L358.839 151.131ZM357.247 149.539L356.929 149.221L357.247 148.902L357.566 149.221L357.247 149.539ZM355.655 147.947L355.337 147.629L355.655 147.31L355.974 147.629L355.655 147.947ZM354.063 146.366L353.745 146.048L354.063 145.727L354.382 146.046L354.063 146.366ZM352.471 144.774L352.153 144.456L352.474 144.135L352.79 144.454L352.471 144.774ZM350.891 143.194L350.572 142.875L350.893 142.554L351.211 142.873L350.891 143.194ZM349.299 141.601L348.958 141.256L349.278 140.938L349.597 141.254L349.299 141.601ZM347.707 140.009L347.377 139.664L347.698 139.346L348.016 139.664L347.707 140.009ZM346.126 138.417L345.808 138.099L346.126 137.781L346.444 138.099L346.126 138.417ZM344.534 136.825L344.215 136.507L344.534 136.189L344.852 136.507L344.534 136.825ZM342.953 135.245L342.635 134.926L342.953 134.608L343.272 134.926L342.953 135.245Z" fill="#808080"/>
<path d="M341.321 133.617L341 133.296L341.321 132.978L341.641 133.296H341.639H341.641L341.321 133.617Z" fill="#808080"/>
<path d="M342.913 132.022L342.594 131.711L342.913 131.392L343.231 131.711L342.913 132.022ZM344.493 130.43L344.175 130.112L344.493 129.794L344.812 130.112L344.493 130.43ZM346.085 128.85L345.767 128.529L346.085 128.211L346.404 128.531L346.085 128.85ZM347.677 127.258L347.377 126.928L347.693 126.609L348.014 126.93L347.677 127.258ZM349.269 125.666L348.958 125.336L349.276 125.017L349.597 125.338L349.269 125.666ZM350.861 124.074L350.541 123.753L350.859 123.437L351.18 123.755L350.861 124.074ZM352.442 122.493L352.121 122.174L352.44 121.856L352.761 122.174L352.442 122.493ZM354.023 120.901L353.704 120.582L354.023 120.264L354.341 120.582L354.023 120.901ZM355.615 119.32L355.296 119.002L355.615 118.683L355.933 119.002L355.615 119.32ZM357.207 117.728L356.889 117.41L357.207 117.091L357.525 117.41L357.207 117.728ZM358.799 116.147L358.481 115.827L358.799 115.508L359.117 115.829L358.799 116.147ZM360.38 114.555L360.061 114.235L360.377 113.916L360.698 114.237L360.38 114.555ZM361.972 112.975L361.651 112.654L361.969 112.336L362.29 112.656L361.972 112.975ZM363.564 111.383L363.243 111.062L363.561 110.744L363.882 111.064L363.564 111.383ZM365.144 109.791L364.826 109.472L365.144 109.154L365.463 109.472L365.144 109.791ZM366.725 108.21L366.407 107.891L366.725 107.573L367.044 107.891L366.725 108.21ZM368.378 106.555L368.06 106.236L368.378 105.918L368.697 106.236L368.378 106.555ZM369.97 104.974L369.652 104.655L369.97 104.337L370.289 104.655L369.97 104.974ZM371.562 103.382L371.244 103.063L371.562 102.745L371.881 103.066L371.562 103.382ZM373.154 101.801L372.836 101.451L373.154 101.133L373.475 101.453L373.154 101.801ZM374.735 100.209L374.428 99.8704L374.746 99.552L375.067 99.8727L374.735 100.209ZM376.327 98.6284L376.02 98.2897L376.338 97.9713L376.659 98.2897L376.327 98.6284ZM377.908 97.0477L377.589 96.7293L377.908 96.4109L378.226 96.7293L377.908 97.0477ZM379.5 95.467L379.181 95.1486L379.5 94.8301L379.818 95.1486L379.5 95.467ZM381.08 93.8749L380.798 93.5023L381.117 93.1839L381.435 93.5023L381.08 93.8749ZM382.672 92.2942L382.379 91.9103L382.697 91.5919L383.016 91.9103L382.672 92.2942Z" fill="#808080"/>
<path d="M384.296 90L383.977 90.3193L384.296 90.6387L384.616 90.3193L384.296 90Z" fill="#808080"/>
<path d="M425.684 132.022L425.365 131.711L425.684 131.392L426.002 131.711L425.684 132.022ZM424.103 130.43L423.785 130.112L424.103 129.793L424.421 130.112L424.103 130.43ZM422.511 128.85L422.193 128.531L422.511 128.21L422.829 128.529L422.511 128.85ZM420.93 127.258L420.612 126.939L420.93 126.618L421.249 126.937L420.93 127.258ZM419.35 125.666L419.031 125.347L419.352 125.026L419.67 125.345L419.35 125.666ZM417.758 124.074L417.439 123.755L417.76 123.434L418.078 123.753L417.758 124.074ZM416.177 122.493L415.861 122.174L416.179 121.856L416.497 122.174L416.177 122.493ZM414.596 120.901L414.219 120.562L414.537 120.244L414.856 120.562L414.596 120.901ZM413.015 119.32L412.638 118.97L412.957 118.652L413.275 118.97L413.015 119.32ZM411.435 117.728L411.116 117.41L411.435 117.091L411.753 117.41L411.435 117.728ZM409.843 116.136L409.524 115.82L409.843 115.499L410.161 115.818L409.843 116.136ZM408.262 114.555L407.944 114.237L408.264 113.916L408.583 114.235L408.262 114.555ZM406.67 112.975L406.351 112.656L406.672 112.335L406.991 112.654L406.67 112.975ZM405.089 111.383L404.771 111.064L405.091 110.743L405.41 111.062L405.089 111.383ZM403.508 109.791L403.192 109.472L403.511 109.154L403.829 109.472L403.508 109.791ZM401.928 108.21L401.609 107.891L401.928 107.573L402.246 107.891L401.928 108.21ZM400.347 106.618L400.029 106.299L400.347 105.981L400.665 106.299L400.347 106.618ZM398.766 105.037L398.448 104.719L398.766 104.4L399.085 104.719L398.766 105.037ZM397.174 103.445L396.856 103.127L397.174 102.808L397.493 103.127L397.174 103.445ZM395.582 101.864L395.264 101.546L395.584 101.225L395.903 101.544L395.582 101.864ZM394.002 100.272L393.53 99.8703L393.85 99.5497L394.169 99.8681L394.002 100.272ZM392.409 98.6916L391.938 98.2896L392.258 97.9712L392.577 98.2874L392.409 98.6916ZM390.829 97.1109L390.51 96.7925L390.829 96.474L391.147 96.7925L390.829 97.1109ZM389.237 95.5301L388.918 95.2117L389.237 94.8933L389.555 95.2117L389.237 95.5301ZM387.656 93.9381L387.338 93.6197L387.656 93.3013L387.798 93.5023L387.656 93.9381ZM386.064 92.3574L385.746 92.039L386.064 91.7206L386.218 91.9103L386.064 92.3574Z" fill="#808080"/>
<path d="M385.89 175L385.572 174.682L385.89 174.363L386.209 174.682L385.89 175ZM387.482 173.408L387.164 173.09L387.482 172.771L387.801 173.09L387.482 173.408ZM389.063 171.827L388.745 171.509L389.063 171.19L389.381 171.511L389.063 171.827ZM390.655 170.246L390.334 169.926L390.653 169.607L390.973 169.928L390.655 170.246ZM392.247 168.654L391.926 168.334L392.245 168.015L392.565 168.336L392.247 168.654ZM393.839 167.062L393.53 166.712L393.848 166.394L394.169 166.715L393.839 167.062ZM395.42 165.482L395.122 165.132L395.44 164.813L395.758 165.132L395.42 165.482ZM397.012 163.89L396.714 163.551L397.032 163.233L397.35 163.551L397.012 163.89ZM398.604 162.298L398.285 161.979L398.604 161.661L398.922 161.979L398.604 162.298ZM400.184 160.706L399.866 160.387L400.184 160.069L400.503 160.387L400.184 160.706ZM401.765 159.114L401.447 158.795L401.763 158.477L402.084 158.798L401.765 159.114ZM403.357 157.533L403.037 157.212L403.355 156.894L403.676 157.215L403.357 157.533ZM404.938 155.941L404.617 155.62L404.936 155.302L405.256 155.623L404.938 155.941ZM406.53 154.349L406.209 154.028L406.528 153.712L406.848 154.031L406.53 154.349ZM408.111 152.757L407.79 152.438L408.108 152.12L408.427 152.438L408.111 152.757ZM409.691 151.176L409.373 150.858L409.691 150.539L410.01 150.858L409.691 151.176ZM411.283 149.584L410.965 149.266L411.283 148.947L411.602 149.266L411.283 149.584ZM412.864 147.992L412.638 147.622L412.957 147.303L413.275 147.622L412.864 147.992ZM414.445 146.411L414.219 146.03L414.537 145.711L414.856 146.032L414.445 146.411ZM416.037 144.819L415.716 144.499L416.035 144.18L416.355 144.501L416.037 144.819ZM417.618 143.239L417.297 142.918L417.615 142.6L417.936 142.92L417.618 143.239ZM419.21 141.647L418.889 141.326L419.207 141.01L419.528 141.328L419.21 141.647ZM420.79 140.055L420.472 139.736L420.79 139.418L421.109 139.736L420.79 140.055ZM422.371 138.463L422.053 138.144L422.371 137.826L422.689 138.144L422.371 138.463ZM423.963 136.871L423.645 136.552L423.963 136.234L424.281 136.552L423.963 136.871ZM425.544 135.29L425.225 134.971L425.544 134.653L425.862 134.971L425.544 135.29Z" fill="#808080"/>
<defs>
<linearGradient id="paint0_linear" x1="190.62" y1="132.441" x2="206.26" y2="132.441" gradientUnits="userSpaceOnUse">
<stop offset="0.01" stop-color="#FBDA3C"/>
<stop offset="0.06" stop-color="#FBDA3C"/>
<stop offset="0.41" stop-color="#F4C61F"/>
<stop offset="0.73" stop-color="#F0B90B"/>
<stop offset="1" stop-color="#F0B90B"/>
</linearGradient>
<linearGradient id="paint1_linear" x1="40.7415" y1="71.2979" x2="45.8543" y2="71.2979" gradientUnits="userSpaceOnUse">
<stop offset="0.01" stop-color="#FBDA3C"/>
<stop offset="0.06" stop-color="#FBDA3C"/>
<stop offset="0.41" stop-color="#F4C61F"/>
<stop offset="0.73" stop-color="#F0B90B"/>
<stop offset="1" stop-color="#F0B90B"/>
</linearGradient>
<linearGradient id="paint2_linear" x1="381.741" y1="133.298" x2="386.854" y2="133.298" gradientUnits="userSpaceOnUse">
<stop offset="0.01" stop-color="#FBDA3C"/>
<stop offset="0.06" stop-color="#FBDA3C"/>
<stop offset="0.41" stop-color="#F4C61F"/>
<stop offset="0.73" stop-color="#F0B90B"/>
<stop offset="1" stop-color="#F0B90B"/>
</linearGradient>
</defs>
</svg>
