<svg xmlns="http://www.w3.org/2000/svg"><defs><linearGradient id="a" x1="0%" y1="0%" x2="0%" y2="100%"><stop offset="0%" stop-color="rgba(240,185,10,.65)"/><stop offset="80%" stop-color="rgba(240,185,10,.05)"/><stop offset="100%" stop-color="transparent"/></linearGradient></defs><path d="M0 6l4 3 5-3 4-4 4 18 5-4 4-13 4 2 5 16 4-7 4 6 5 9 4-16 5 1 4-3 4 7 5-15 4 8 4-5 5-5 4 1h4l5 10h4" stroke="rgba(240, 185, 10, 1)" fill="none"/><path d="M0 28V6l4 3 5-3 4-4 4 18 5-4 4-13 4 2 5 16 4-7 4 6 5 9 4-16 5 1 4-3 4 7 5-15 4 8 4-5 5-5 4 1h4l5 10h4v16" fill="url(#a)"/></svg>